<?xml version="1.0" standalone="no"?>
<!DOCTYPE svg PUBLIC "-//W3C//DTD SVG 20010904//EN"
 "http://www.w3.org/TR/2001/REC-SVG-20010904/DTD/svg10.dtd">
<svg version="1.0" xmlns="http://www.w3.org/2000/svg"
 width="976.000000pt" height="1280.000000pt" viewBox="0 0 976.000000 1280.000000"
 preserveAspectRatio="xMidYMid meet">
<metadata>
Created by potrace 1.15, written by Peter Selinger 2001-2017
</metadata>
<g transform="translate(0.000000,1280.000000) scale(0.100000,-0.100000)"
fill="#000000" stroke="none">
<path d="M2920 12790 c-25 -6 -67 -18 -95 -29 -27 -11 -63 -22 -80 -26 -33 -7
-65 -32 -65 -50 0 -12 -116 -103 -180 -142 -19 -11 -82 -38 -140 -58 -128 -45
-175 -71 -262 -146 -37 -31 -76 -64 -87 -71 -12 -8 -29 -43 -41 -81 -11 -36
-25 -67 -31 -69 -5 -2 -14 -31 -19 -66 -15 -108 -39 -147 -238 -392 -20 -25
-107 -118 -192 -208 -85 -90 -168 -185 -185 -211 -16 -27 -44 -69 -61 -93 -18
-24 -38 -64 -45 -88 -7 -25 -19 -53 -27 -62 -8 -10 -23 -48 -33 -85 -10 -36
-24 -70 -30 -73 -6 -4 -19 -61 -29 -127 -10 -66 -25 -137 -34 -158 -9 -21 -23
-65 -32 -99 -8 -34 -22 -71 -30 -84 -8 -13 -22 -57 -29 -98 -8 -41 -21 -84
-29 -97 -7 -12 -19 -61 -24 -109 -6 -48 -19 -102 -29 -120 -13 -25 -18 -63
-21 -164 -3 -113 -1 -138 15 -170 16 -34 18 -66 18 -269 0 -204 -2 -234 -18
-263 -24 -44 -36 -240 -36 -562 0 -296 9 -408 39 -448 15 -21 24 -50 27 -95 5
-56 2 -73 -21 -123 -15 -32 -39 -74 -54 -94 -25 -32 -27 -44 -30 -138 -3 -89
-1 -108 17 -142 12 -23 21 -50 21 -62 0 -12 12 -41 26 -65 29 -50 37 -115 53
-418 9 -169 11 -183 37 -230 15 -27 35 -59 44 -70 9 -11 23 -36 30 -55 7 -19
21 -46 30 -60 28 -41 32 -74 39 -310 7 -223 7 -225 34 -264 15 -22 35 -45 45
-51 30 -21 115 -44 217 -59 l100 -14 44 -49 c49 -54 91 -116 91 -135 0 -8 9
-29 19 -49 10 -19 26 -73 35 -118 8 -46 21 -93 29 -105 7 -11 22 -43 32 -71
10 -27 29 -66 42 -85 12 -19 23 -45 23 -57 0 -12 9 -30 19 -40 11 -10 28 -41
39 -70 11 -28 40 -78 64 -110 25 -32 52 -80 61 -108 16 -50 16 -50 -11 -83
-15 -19 -40 -53 -57 -76 -16 -24 -45 -59 -62 -80 -18 -20 -42 -56 -54 -79 -12
-23 -27 -45 -34 -49 -7 -4 -21 -40 -30 -80 -10 -40 -24 -84 -31 -99 -7 -14
-19 -62 -28 -107 -9 -45 -24 -99 -34 -119 -11 -21 -25 -56 -32 -78 -7 -22 -18
-45 -25 -50 -7 -6 -18 -29 -24 -51 -13 -49 -72 -148 -115 -194 -63 -67 -224
-267 -240 -298 -24 -46 -21 -87 9 -110 14 -11 25 -25 25 -31 0 -6 -21 -21 -48
-33 -33 -16 -48 -30 -50 -46 -4 -28 14 -52 40 -52 39 0 119 42 134 71 8 16 21
29 29 29 8 0 19 9 25 20 6 11 49 62 95 115 47 52 91 110 99 128 7 17 36 61 65
96 28 35 51 70 51 77 0 7 9 21 19 31 11 10 27 47 36 83 9 36 22 72 30 80 7 8
18 33 25 55 7 22 21 49 31 60 24 27 65 121 88 204 24 85 30 98 102 191 61 81
116 130 146 130 17 0 81 -66 131 -135 12 -17 26 -56 32 -88 5 -35 20 -73 39
-100 16 -24 33 -56 36 -70 7 -28 76 -113 212 -265 46 -51 83 -101 83 -112 0
-10 9 -28 21 -39 26 -24 38 -76 39 -171 1 -121 14 -205 33 -225 28 -28 1 -89
-53 -121 -16 -10 -30 -21 -30 -25 0 -4 -15 -16 -32 -26 -18 -11 -63 -46 -99
-79 -37 -32 -97 -81 -134 -109 -89 -66 -175 -145 -175 -161 0 -7 -13 -22 -30
-34 -16 -12 -30 -30 -30 -41 0 -12 -7 -19 -20 -19 -11 0 -23 -6 -26 -14 -3 -7
-47 -43 -97 -79 -51 -35 -105 -79 -122 -97 -39 -43 -63 -64 -219 -197 -72 -62
-151 -129 -175 -150 -24 -21 -48 -48 -54 -60 -6 -13 -16 -23 -22 -23 -7 0 -24
-18 -38 -39 -50 -75 -176 -168 -295 -216 -34 -14 -85 -40 -114 -59 -144 -91
-343 -178 -636 -277 -163 -55 -310 -108 -327 -119 -31 -19 -55 -57 -55 -85 0
-23 42 -45 85 -45 23 0 59 10 85 24 25 13 61 27 80 31 19 4 85 31 145 59 61
29 132 58 159 65 59 15 116 43 177 87 26 19 66 41 89 49 47 16 116 20 124 6 3
-4 -8 -30 -25 -56 -16 -26 -29 -55 -27 -64 5 -26 41 -24 68 4 13 14 29 25 36
25 6 0 17 13 24 30 7 16 16 30 21 30 5 0 17 17 28 39 24 47 158 184 203 207
21 11 68 19 129 23 75 5 102 10 118 25 l20 18 -22 18 -22 18 27 7 c14 4 64 2
109 -3 46 -6 86 -9 88 -7 7 7 -94 66 -131 75 -21 6 -39 18 -43 29 -3 10 -15
21 -25 24 -28 7 -25 26 5 37 14 5 25 14 25 19 0 29 112 54 135 32 11 -11 43
-15 95 -13 l35 2 -43 39 c-69 63 -58 78 68 91 41 4 76 13 78 19 9 28 62 3 62
-29 0 -8 9 -23 19 -32 11 -9 25 -42 32 -73 9 -42 20 -62 41 -78 15 -11 28 -25
28 -31 0 -5 21 -37 47 -69 50 -64 81 -150 62 -173 -11 -13 -49 -7 -49 8 0 15
-92 108 -106 108 -8 0 -14 7 -14 15 0 23 -89 115 -111 115 -33 0 -33 -22 0
-49 17 -14 31 -31 31 -38 0 -13 63 -95 122 -161 22 -24 47 -60 56 -81 9 -20
27 -50 40 -66 41 -52 93 -148 88 -162 -3 -7 -17 -13 -30 -13 -26 0 -47 22
-143 150 -50 66 -174 171 -181 152 -2 -6 11 -36 27 -68 37 -67 41 -114 11
-114 -11 0 -27 11 -36 25 -9 14 -22 25 -29 25 -7 0 -24 9 -37 20 -39 34 -112
79 -119 74 -8 -5 1 -41 16 -65 6 -9 33 -31 62 -48 28 -17 58 -42 66 -55 9 -12
58 -71 111 -130 53 -59 96 -116 96 -126 0 -10 11 -25 24 -33 13 -9 32 -38 42
-64 9 -26 25 -57 34 -68 10 -11 23 -37 30 -57 6 -21 19 -42 28 -47 13 -7 16
-26 16 -101 0 -64 -4 -94 -13 -99 -7 -5 -19 -39 -27 -77 -8 -38 -23 -89 -33
-114 -10 -25 -26 -90 -36 -145 -10 -55 -21 -104 -25 -110 -11 -15 -30 -135
-30 -194 0 -87 37 -124 59 -59 6 17 18 39 26 49 9 9 25 68 35 132 11 63 26
130 34 148 8 19 17 61 21 94 10 93 13 103 36 107 12 2 25 10 29 18 4 8 12 25
18 36 16 33 21 71 37 304 15 223 26 287 50 297 12 4 55 -23 108 -67 4 -4 -2
-25 -15 -46 -23 -38 -23 -45 -22 -299 1 -303 12 -408 44 -439 l22 -21 -5 31
c-3 17 -9 89 -13 160 -4 82 -12 136 -20 149 -21 29 -19 169 2 190 12 12 15 27
11 56 -11 86 36 40 53 -52 6 -30 14 -116 18 -193 7 -115 12 -141 26 -152 23
-17 40 -9 56 24 12 25 13 26 21 7 4 -11 15 -54 24 -95 27 -128 51 -136 49 -17
0 54 -6 82 -22 112 -12 22 -22 50 -22 63 0 34 -18 62 -40 62 -27 0 -35 18 -17
38 13 14 13 21 2 42 -12 22 -11 27 11 47 29 26 34 102 9 123 -9 7 -15 29 -15
52 0 35 2 39 15 28 13 -11 15 -8 15 19 0 19 -6 34 -15 37 -18 7 -21 84 -3 102
23 23 -3 25 -34 2 -30 -22 -32 -22 -45 -5 -14 20 -17 73 -5 92 4 6 19 14 34
18 23 6 27 14 33 56 6 42 9 48 21 38 13 -10 14 1 12 85 -2 53 -7 96 -12 95
-13 -1 -25 22 -19 38 3 7 10 13 16 13 6 0 21 10 34 22 47 44 62 -15 63 -237 1
-190 14 -340 31 -362 12 -13 14 -13 20 4 20 51 1 487 -26 608 -22 94 -33 639
-16 738 20 116 43 144 91 109 49 -36 60 -75 60 -219 0 -112 -3 -134 -18 -149
-23 -24 -23 -120 1 -154 23 -32 23 -167 1 -230 -11 -32 -18 -99 -21 -232 -5
-167 -4 -190 12 -214 15 -24 15 -28 2 -42 -14 -13 -14 -20 3 -62 19 -48 33
-137 45 -285 4 -44 11 -88 16 -97 5 -10 18 -84 29 -165 19 -143 42 -225 89
-313 10 -19 24 -62 30 -95 21 -106 21 -107 36 -101 11 4 15 -2 15 -23 0 -39 9
-61 26 -61 36 0 45 89 15 142 -10 18 -24 71 -31 118 -7 47 -20 101 -29 120
-10 19 -24 60 -31 90 -7 30 -21 71 -31 90 -10 20 -25 86 -33 150 -8 63 -21
129 -29 145 -20 38 -36 219 -25 262 12 43 33 53 207 97 94 23 166 48 207 71
53 28 80 36 161 45 97 10 153 23 225 54 75 32 97 25 199 -69 51 -46 108 -92
126 -100 31 -15 207 -163 279 -234 16 -17 38 -31 47 -31 9 0 25 -17 37 -39 21
-41 63 -81 87 -81 7 0 18 -12 23 -26 16 -41 -4 -98 -48 -133 -177 -144 -332
-248 -380 -257 -20 -4 -52 -24 -80 -51 -26 -25 -65 -53 -87 -63 -56 -24 -137
-106 -133 -134 2 -15 11 -22 35 -24 39 -4 100 26 172 85 30 25 76 55 102 69
26 13 51 29 55 35 3 6 23 18 42 26 63 26 142 87 356 273 201 175 298 250 322
250 6 0 19 10 30 21 10 12 29 25 41 30 38 14 162 99 204 140 22 22 49 39 59
39 11 0 34 13 52 28 18 15 46 36 62 46 30 19 247 210 375 331 41 39 91 96 111
127 20 31 55 71 77 87 23 17 47 41 54 53 6 13 26 37 43 54 17 17 47 52 66 79
19 26 57 64 85 85 68 50 252 245 276 293 11 21 26 40 34 43 8 3 17 22 21 41 4
23 14 37 30 43 13 5 30 22 38 38 21 40 44 47 77 23 l28 -20 9 27 c6 15 11 20
11 11 1 -9 -14 -57 -33 -107 -18 -50 -37 -111 -40 -136 -4 -24 -13 -50 -21
-56 -7 -6 -21 -44 -30 -83 -9 -40 -22 -85 -29 -102 -8 -16 -21 -83 -30 -148
-9 -65 -22 -130 -30 -145 -7 -15 -21 -62 -30 -104 -9 -42 -23 -81 -30 -87 -7
-6 -16 -33 -19 -59 -3 -26 -17 -70 -31 -97 -21 -41 -28 -78 -41 -210 -12 -117
-23 -177 -41 -222 -13 -34 -24 -68 -24 -76 0 -9 -7 -23 -16 -32 -9 -9 -25 -58
-36 -108 -10 -50 -25 -101 -33 -113 -8 -12 -21 -63 -30 -114 -9 -51 -22 -102
-29 -114 -8 -11 -21 -61 -30 -110 -9 -49 -23 -97 -31 -106 -8 -9 -15 -28 -15
-42 0 -13 -11 -47 -25 -74 -14 -27 -25 -54 -25 -60 0 -5 14 -23 30 -39 l31
-30 47 25 c54 29 94 83 112 153 8 32 25 63 49 87 20 21 47 59 60 86 13 27 30
52 37 57 13 7 24 36 44 114 6 24 28 61 55 91 52 57 67 91 54 115 -12 21 -58
22 -65 2 -4 -8 -13 -15 -22 -15 -8 0 -23 -7 -33 -16 -21 -19 -49 -12 -49 13 0
22 88 105 135 127 35 17 35 18 35 81 l0 64 54 36 c30 20 57 43 60 51 4 9 -4
28 -19 46 -14 16 -25 37 -25 47 0 26 41 60 106 86 43 17 60 30 62 46 5 30 -11
42 -53 41 -43 -2 -81 -21 -119 -61 -16 -17 -33 -28 -38 -25 -5 3 -15 0 -23 -6
-13 -11 -15 -5 -15 38 0 41 4 52 23 65 12 8 49 37 82 66 47 40 68 51 95 51 47
0 84 21 88 48 3 19 -1 22 -35 22 -21 -1 -65 -7 -98 -15 -87 -21 -95 -20 -95
13 0 44 26 59 152 86 147 31 160 38 156 79 -3 31 -5 32 -50 35 -37 2 -66 -5
-130 -32 -45 -20 -87 -36 -95 -36 -8 0 -13 12 -13 30 0 24 6 33 28 42 15 7 44
25 65 41 21 16 64 35 97 43 108 25 171 70 124 88 -30 11 -125 6 -147 -8 -33
-22 -93 -30 -103 -15 -11 19 79 96 129 110 46 12 127 51 170 81 34 24 37 54 5
43 -13 -3 -46 -13 -75 -20 -28 -7 -71 -27 -96 -43 -79 -55 -137 -55 -137 -1 0
68 33 91 226 153 194 64 220 88 108 102 -31 3 -53 11 -51 17 5 16 75 38 146
45 46 5 67 12 75 25 31 52 -82 59 -254 18 -102 -25 -114 -26 -134 -5 -18 17
-12 38 9 31 6 -3 25 3 41 14 16 10 38 19 50 19 12 0 37 11 56 23 22 16 56 26
98 30 66 7 87 17 76 36 -11 17 -105 13 -181 -8 -104 -29 -145 -30 -145 -6 0
21 48 65 70 65 10 0 43 11 73 25 31 14 80 30 111 35 59 10 96 25 96 40 0 14
-61 12 -169 -5 -163 -27 -176 2 -35 81 35 19 64 39 64 44 0 8 -49 20 -86 20
-35 0 -39 19 -7 33 15 7 48 25 72 42 32 21 63 32 120 40 66 9 76 13 76 30 0
18 -6 20 -70 19 -39 -1 -90 -10 -115 -19 -62 -24 -117 -30 -135 -15 -20 17 -5
34 55 65 25 13 52 30 59 39 15 17 116 51 181 61 25 3 55 13 68 21 20 13 21 18
11 31 -19 22 -116 13 -155 -14 -32 -23 -124 -53 -161 -53 -34 0 -29 30 10 67
46 44 101 69 184 83 88 14 110 28 94 58 -17 31 -14 51 14 84 30 36 32 58 5 81
-24 20 -26 43 -4 55 14 8 12 12 -11 30 -34 27 -59 27 -146 1 -90 -27 -162 -30
-167 -7 -7 34 166 98 264 98 29 0 58 6 70 15 19 15 19 15 -1 28 -50 30 -155
23 -277 -20 -63 -22 -79 -25 -91 -14 -9 7 -14 18 -11 25 8 21 105 74 184 100
41 14 75 31 75 38 0 26 -48 39 -125 33 -69 -5 -73 -4 -50 10 39 22 124 38 164
31 25 -5 40 -15 48 -31 6 -13 55 -56 109 -95 64 -47 123 -102 173 -160 42 -49
99 -107 128 -128 63 -46 250 -240 287 -297 14 -22 30 -42 35 -44 4 -2 40 -31
78 -65 97 -84 204 -163 261 -192 26 -14 50 -31 53 -39 3 -8 29 -29 57 -46 29
-18 92 -72 140 -122 84 -85 180 -166 234 -195 14 -8 32 -30 40 -50 8 -21 21
-44 29 -53 8 -9 23 -73 34 -143 12 -83 24 -134 35 -146 15 -16 18 -73 25 -508
4 -270 11 -495 14 -501 9 -14 71 -14 97 -1 10 6 19 17 19 25 0 8 6 15 14 15
31 0 33 317 2 365 -7 11 -16 56 -20 100 -9 104 -21 154 -39 168 -11 9 -19 51
-27 155 -13 151 -8 223 15 242 16 13 25 8 117 -72 29 -25 82 -64 118 -86 39
-23 77 -57 96 -83 17 -24 39 -46 49 -48 11 -2 31 -15 45 -30 14 -15 54 -44 90
-65 36 -21 81 -51 101 -67 41 -33 67 -36 109 -14 37 19 46 49 25 83 -24 38
-48 55 -143 108 -45 25 -115 72 -156 104 -40 33 -95 69 -120 80 -26 11 -67 35
-93 55 -25 19 -49 32 -54 30 -4 -3 -10 4 -14 15 -4 11 -15 20 -27 20 -27 0
-161 131 -187 183 -11 23 -28 68 -37 101 -23 76 -93 153 -226 247 -53 38 -109
85 -124 105 -15 19 -48 49 -73 67 -25 17 -99 74 -164 126 -65 53 -136 109
-158 125 -23 16 -126 110 -230 210 -104 99 -233 219 -287 265 -53 46 -132 117
-176 158 -43 41 -96 83 -117 94 -22 11 -39 25 -39 33 0 40 -232 215 -343 257
-74 28 -120 78 -142 155 -9 33 -23 69 -30 80 -8 12 -21 59 -30 105 -8 46 -23
95 -33 109 -25 36 -24 360 2 410 20 42 21 119 1 148 -12 17 -13 26 -5 42 6 11
15 73 21 138 28 340 29 343 122 405 31 21 68 54 81 75 26 42 119 132 136 132
6 0 19 20 30 45 11 25 25 45 32 46 15 0 98 122 98 143 0 9 9 20 20 26 11 6 20
18 20 28 0 9 13 36 29 59 16 23 36 72 45 109 10 37 23 72 31 78 7 6 20 37 29
69 13 53 22 65 100 138 78 74 90 90 141 195 37 75 58 133 62 167 3 29 12 59
20 68 12 14 32 110 33 156 0 7 11 24 25 39 23 24 25 35 25 113 -1 64 -6 96
-20 126 -13 27 -20 63 -20 110 -2 161 -40 229 -188 332 -52 36 -104 75 -115
86 -19 19 -19 19 8 47 21 22 29 46 41 116 8 49 23 114 34 144 11 30 26 117 34
193 9 75 23 160 32 188 14 41 16 77 11 192 -3 82 -11 157 -19 177 -10 26 -13
100 -13 290 0 224 2 259 17 285 10 17 18 47 18 68 0 37 13 50 24 22 7 -19 42
-20 49 -1 8 20 -3 56 -25 88 -10 15 -25 57 -34 95 -8 37 -23 84 -33 103 -22
42 -29 82 -40 219 -5 63 -13 106 -20 111 -7 4 -16 38 -21 76 -5 38 -15 87 -23
110 -19 53 -64 141 -76 148 -5 3 -17 31 -27 61 -9 31 -25 60 -36 66 -10 5 -18
18 -18 28 0 10 -10 26 -21 37 -12 10 -50 62 -84 114 -127 196 -279 325 -498
422 -59 27 -144 70 -190 97 -125 73 -389 182 -456 188 -44 4 -59 2 -70 -11
-18 -21 -8 -44 25 -56 15 -6 41 -22 58 -37 38 -32 452 -238 518 -258 29 -8 58
-26 73 -43 13 -16 52 -44 87 -62 107 -56 258 -177 258 -206 0 -6 23 -40 50
-74 28 -34 50 -68 50 -75 0 -7 17 -32 38 -56 60 -69 82 -105 98 -159 8 -27 19
-50 24 -50 4 0 16 -20 26 -45 9 -25 23 -49 31 -54 8 -4 18 -35 23 -70 5 -34
16 -74 25 -88 26 -39 35 -79 45 -198 11 -127 7 -153 -27 -166 -19 -7 -24 -14
-20 -32 7 -29 23 -167 47 -419 11 -113 25 -219 32 -235 8 -19 12 -107 12 -283
1 -221 -1 -258 -16 -280 -9 -14 -22 -45 -28 -70 -7 -25 -20 -54 -30 -65 -9
-11 -19 -26 -21 -33 -3 -8 -14 -1 -29 20 -25 33 -25 34 -25 263 0 202 2 236
19 277 31 78 12 236 -30 252 -24 9 -43 -5 -49 -36 -5 -23 -2 -34 14 -49 26
-24 27 -71 4 -95 -10 -9 -20 -38 -23 -63 -5 -42 -7 -46 -32 -46 -14 0 -30 -4
-35 -8 -4 -5 -10 -71 -13 -147 -4 -91 -10 -143 -19 -153 -7 -9 -16 -56 -19
-104 l-7 -88 -30 0 -30 0 -6 315 c-3 173 -6 317 -7 320 -1 2 -7 -1 -13 -7 -5
-5 -19 -63 -29 -128 -18 -112 -31 -148 -47 -131 -4 4 -11 73 -15 154 -13 235
-25 361 -36 375 -6 7 -15 40 -21 74 -10 65 -28 109 -39 98 -4 -4 -11 -52 -17
-107 -6 -62 -15 -103 -22 -105 -16 -6 -38 40 -52 107 -7 30 -18 64 -26 76 -7
12 -21 47 -30 79 -10 32 -25 72 -35 89 -10 17 -23 62 -30 100 -12 76 -24 103
-68 158 -23 29 -30 50 -35 103 -4 40 -17 88 -31 118 -14 29 -32 78 -41 109 -8
31 -26 70 -40 86 -22 26 -25 40 -25 102 0 63 -2 73 -19 77 -11 3 -22 11 -25
19 -3 8 -14 14 -25 14 -13 0 -27 12 -36 29 -18 36 -63 71 -128 102 -53 24
-212 168 -222 200 -4 10 -17 22 -30 25 -13 3 -35 22 -49 42 -14 21 -42 57 -61
82 -19 25 -42 71 -51 103 -20 67 -47 107 -75 107 -40 0 -50 -100 -14 -140 8
-9 22 -52 30 -94 18 -93 17 -92 62 -114 25 -12 39 -28 48 -54 7 -21 36 -66 64
-100 28 -35 51 -70 51 -79 0 -8 13 -28 29 -43 19 -19 34 -46 41 -80 7 -28 20
-63 31 -78 10 -15 19 -37 19 -48 0 -19 21 -46 93 -120 15 -15 27 -36 27 -47 0
-10 12 -36 26 -57 26 -37 54 -168 54 -251 0 -16 7 -43 16 -60 8 -16 22 -68 31
-115 9 -47 28 -109 44 -140 16 -30 29 -65 29 -78 0 -12 6 -33 14 -45 8 -12 22
-67 31 -122 10 -55 21 -110 26 -123 8 -21 3 -31 -32 -69 l-41 -45 21 -22 22
-23 -23 -15 c-22 -15 -23 -16 -5 -36 26 -29 29 -132 4 -159 -22 -25 -22 -76 1
-110 15 -24 17 -56 17 -278 -1 -209 -3 -256 -17 -285 -9 -19 -18 -54 -21 -78
-3 -24 -18 -61 -32 -83 -15 -21 -34 -67 -42 -101 -8 -34 -21 -67 -30 -73 -23
-17 -31 -136 -9 -154 22 -18 43 0 52 44 3 20 13 35 23 38 10 2 21 18 24 34 7
33 35 51 49 31 15 -25 8 -85 -17 -134 -38 -75 -29 -209 16 -250 28 -25 44 -6
69 88 19 71 73 190 101 224 5 6 17 49 26 95 9 46 22 91 29 99 7 8 16 39 20 68
4 35 16 64 35 89 16 20 29 39 29 42 0 3 5 47 11 96 12 93 42 165 79 185 14 8
19 28 25 107 3 54 9 107 11 118 3 14 -2 23 -18 30 -20 9 -24 20 -31 90 -4 44
-11 115 -15 158 -4 42 -5 77 -2 77 13 0 69 -68 91 -110 43 -85 43 -413 0 -483
-12 -19 -26 -61 -32 -92 -6 -32 -17 -68 -24 -79 -8 -12 -21 -53 -30 -91 -9
-39 -23 -73 -30 -78 -7 -4 -21 -31 -31 -60 -9 -28 -27 -68 -39 -87 -13 -19
-26 -54 -29 -78 -4 -24 -13 -53 -20 -65 -8 -12 -22 -51 -31 -87 -9 -36 -22
-74 -29 -85 -7 -11 -18 -36 -25 -56 -6 -20 -23 -51 -36 -69 -35 -48 -33 -63 8
-55 43 9 64 29 88 84 25 57 32 61 89 54 38 -4 54 -1 86 20 22 13 67 38 101 55
33 17 63 38 66 47 4 8 15 15 25 15 10 0 31 14 47 30 39 41 91 53 189 45 106
-9 185 -45 249 -113 26 -28 47 -56 47 -62 0 -5 7 -10 15 -10 21 0 33 -28 40
-100 4 -36 15 -76 24 -90 14 -21 16 -59 16 -251 0 -168 -3 -230 -13 -241 -7
-9 -21 -61 -32 -116 -10 -56 -26 -111 -34 -124 -8 -13 -22 -49 -31 -80 -10
-35 -23 -59 -33 -62 -27 -9 -118 -106 -146 -156 -38 -67 -43 -80 -61 -142 -8
-32 -20 -58 -24 -58 -5 0 -17 -23 -26 -51 -10 -28 -37 -80 -62 -116 -24 -35
-47 -79 -50 -96 -8 -43 -105 -137 -176 -171 -143 -71 -268 -74 -353 -9 -39 29
-65 29 -91 1 -26 -30 -31 -44 -54 -162 -10 -55 -23 -104 -29 -110 -5 -5 -10
-39 -10 -73 0 -49 5 -70 21 -93 23 -31 21 -70 -6 -97 -11 -10 -15 -37 -15 -86
0 -107 23 -128 50 -47 7 22 19 45 27 51 17 15 17 29 -1 48 -13 14 -11 22 15
60 16 24 29 51 29 61 0 33 76 90 101 74 23 -14 1 -375 -27 -442 -13 -32 -13
-39 1 -69 22 -46 22 -203 1 -219 -25 -18 -20 -54 6 -54 l21 0 -21 -23 c-12
-13 -22 -34 -22 -48 0 -63 -74 -209 -105 -209 -20 0 -123 -79 -213 -164 -45
-42 -110 -94 -144 -116 -102 -66 -130 -48 -54 36 49 56 72 96 92 164 8 26 21
53 29 60 21 17 19 53 -4 74 -11 10 -21 36 -24 62 -2 26 -12 53 -21 62 -14 14
-19 12 -54 -24 -20 -22 -44 -59 -51 -82 -8 -23 -22 -49 -33 -58 -10 -10 -18
-27 -18 -39 0 -11 -12 -41 -28 -66 -15 -24 -36 -64 -47 -88 -11 -24 -43 -73
-72 -110 -29 -36 -53 -71 -53 -78 0 -14 -36 -27 -51 -18 -15 10 -2 54 27 92
30 40 30 43 -2 43 -15 0 -41 -13 -61 -30 -46 -41 -81 -40 -90 1 -3 17 -12 33
-19 36 -7 3 -20 28 -28 56 -8 29 -24 60 -36 69 -11 10 -20 28 -20 41 0 29 -93
154 -224 300 -109 122 -119 139 -136 222 -6 33 -22 80 -35 105 -12 25 -26 65
-30 90 -10 62 -30 106 -64 145 -16 18 -34 49 -40 68 -7 20 -23 43 -37 51 -13
9 -24 26 -24 37 0 46 -61 112 -83 90 -24 -24 35 -207 89 -272 39 -47 43 -76
14 -109 -27 -31 -26 -93 1 -136 21 -35 19 -54 -7 -54 -18 0 -18 -19 0 -26 34
-13 24 -64 -12 -64 -21 0 -82 68 -82 91 0 11 -9 32 -19 47 -11 15 -24 62 -31
107 -7 44 -23 106 -36 137 -13 32 -24 64 -24 72 0 23 -45 70 -58 62 -7 -4 -12
-18 -12 -32 0 -13 -3 -24 -6 -24 -19 0 -50 28 -79 74 -43 67 -62 84 -71 62
-10 -26 4 -90 22 -103 16 -12 16 -14 -1 -33 -10 -11 -23 -20 -30 -20 -16 0
-82 67 -111 112 -13 20 -57 74 -99 120 -41 46 -83 100 -92 121 -9 20 -22 37
-27 37 -6 0 -29 14 -50 30 -42 32 -86 40 -86 16 0 -8 16 -24 36 -37 87 -53 96
-199 13 -199 -40 0 -116 70 -129 119 -18 67 -60 107 -60 57 0 -14 -5 -37 -10
-51 -14 -36 -40 -29 -55 15 -16 48 -50 54 -59 10 -3 -18 -10 -29 -16 -25 -6 4
-17 2 -24 -4 -11 -9 -14 3 -18 62 -5 70 -23 127 -43 134 -5 1 -17 -18 -25 -45
-17 -54 -43 -64 -48 -17 -5 61 -12 75 -35 75 -12 0 -27 -8 -34 -19 -14 -22
-90 -61 -119 -61 -13 0 -25 11 -35 32 -13 30 -18 33 -65 36 -60 3 -98 -20
-108 -69 -3 -18 -13 -33 -24 -36 -13 -3 -18 -11 -15 -27 3 -14 -5 -34 -23 -55
-15 -18 -37 -58 -48 -89 -16 -44 -36 -72 -87 -119 -36 -35 -74 -63 -84 -63
-16 0 -17 7 -12 61 5 61 7 64 92 183 20 27 34 56 33 65 -7 34 -107 30 -133 -6
-24 -33 -28 8 -5 61 11 26 20 58 20 71 0 30 -35 55 -77 55 -27 0 -36 -6 -49
-32 -22 -43 -45 -60 -61 -46 -15 12 -4 37 37 84 15 18 30 50 34 74 3 23 18 58
31 78 32 46 33 82 4 82 -33 0 -75 -36 -98 -83 -15 -30 -53 -71 -123 -130 -56
-48 -108 -87 -115 -87 -22 0 -14 23 22 69 20 25 38 55 41 67 3 13 14 26 24 29
11 3 21 14 24 23 3 9 26 42 52 72 25 30 54 72 65 93 11 20 25 37 32 37 7 0 19
6 25 13 7 6 34 19 59 27 26 8 48 20 50 26 2 6 -14 33 -35 60 -22 27 -47 63
-56 81 -29 57 -15 191 21 212 14 7 15 12 5 24 -10 12 -9 21 7 48 10 19 22 55
25 81 4 25 13 48 20 51 7 3 21 36 30 73 10 38 22 75 28 82 20 24 28 116 38
477 6 198 15 376 21 395 5 19 16 147 24 284 13 223 16 253 34 277 24 32 27 74
7 86 -7 4 -21 33 -31 63 -10 30 -25 65 -34 76 -10 12 -23 40 -31 63 -7 22 -19
41 -27 41 -8 0 -23 19 -33 43 -10 23 -33 55 -50 72 -37 35 -59 27 -75 -26 -14
-48 -22 -57 -59 -73 -23 -10 -38 -25 -49 -54 -28 -69 -59 -62 -72 16 -4 25
-12 42 -20 42 -17 0 -36 86 -25 115 4 11 15 27 24 34 9 7 16 20 16 29 0 11 -9
13 -40 9 -57 -7 -215 -76 -251 -109 -19 -17 -41 -28 -60 -28 -17 0 -46 -13
-72 -33 -24 -18 -76 -43 -115 -56 -90 -28 -191 -84 -252 -138 -53 -48 -75 -53
-85 -22 -11 33 10 61 79 108 69 46 168 141 148 141 -7 0 -48 -21 -91 -46 -76
-44 -120 -53 -128 -28 -2 7 4 20 14 30 10 9 22 27 28 38 7 13 25 23 52 28 57
9 88 32 111 81 34 72 41 197 11 197 -6 0 -29 -15 -52 -34 -23 -18 -53 -37 -65
-41 -22 -6 -23 -5 -11 17 16 30 123 134 172 166 21 14 36 30 34 36 -7 22 -36
16 -69 -13 -19 -16 -57 -39 -84 -49 -27 -11 -77 -36 -111 -56 -119 -70 -147
-45 -52 47 35 34 111 94 169 134 115 79 138 104 115 123 -22 18 -68 5 -106
-30 -52 -48 -197 -142 -209 -135 -16 10 -12 34 11 53 11 9 27 29 35 44 8 15
50 49 99 78 47 28 85 56 85 61 0 5 9 9 20 9 16 0 20 7 20 30 0 22 -5 30 -17
30 -18 0 -87 -50 -172 -125 -25 -22 -59 -47 -75 -55 -16 -8 -52 -41 -81 -73
-48 -52 -53 -62 -59 -119 -3 -33 -6 -106 -6 -162 -1 -125 -15 -283 -28 -299
-6 -7 -19 -59 -31 -116 -12 -57 -26 -109 -31 -116 -14 -17 -28 -176 -35 -410
l-7 -200 64 -61 c73 -71 121 -91 172 -74 25 8 37 21 51 53 39 93 109 232 122
240 20 12 16 60 -7 80 -11 9 -20 27 -20 39 0 22 -1 21 -25 -7 -13 -16 -31 -53
-40 -82 -16 -54 -52 -93 -86 -93 -25 0 -24 26 1 85 11 26 23 65 27 87 3 23 14
49 24 59 9 9 20 26 23 37 11 34 181 152 219 152 10 0 17 -4 17 -10 0 -5 11
-10 25 -10 19 0 26 7 31 28 9 39 43 72 74 72 41 0 53 -18 30 -48 -11 -14 -20
-36 -20 -50 0 -14 -9 -45 -21 -69 -32 -66 -79 -81 -98 -31 l-8 22 -17 -26
c-24 -37 -43 -135 -29 -149 9 -9 18 -7 39 7 57 41 100 64 121 64 13 0 53 12
90 26 100 37 156 46 208 32 40 -11 50 -10 90 10 54 26 68 27 85 7 18 -22 4
-85 -19 -85 -10 0 -24 -6 -30 -14 -6 -7 -33 -16 -60 -19 -74 -9 -226 -63 -326
-116 l-90 -48 0 -57 c1 -46 5 -61 22 -74 11 -9 24 -27 27 -39 7 -22 89 -83
112 -83 18 0 22 19 16 73 l-5 49 81 -7 c112 -10 129 -4 154 53 12 26 31 60 42
75 12 16 28 49 36 75 13 39 20 48 42 50 23 3 30 -2 42 -30 8 -18 17 -46 21
-61 8 -37 31 -44 59 -18 31 29 50 27 93 -13 21 -18 55 -41 75 -49 39 -16 71
-57 44 -57 -8 0 -19 -13 -24 -29 -15 -42 -82 -112 -166 -173 -100 -72 -126
-98 -126 -124 0 -38 17 -37 88 2 145 82 192 99 206 76 3 -5 -8 -27 -23 -48
-16 -21 -37 -66 -46 -99 -10 -33 -24 -67 -31 -76 -8 -8 -18 -39 -24 -69 -19
-100 -50 -104 -50 -6 0 44 5 67 15 76 17 14 20 76 4 85 -21 14 -57 -5 -70 -36
-7 -18 -13 -72 -13 -123 l-1 -91 28 -3 c23 -3 27 -8 27 -37 0 -47 -20 -136
-36 -160 -7 -11 -20 -40 -29 -64 -8 -24 -21 -49 -29 -55 -8 -6 -21 -34 -30
-62 -9 -28 -23 -60 -31 -70 -20 -26 -18 -44 3 -44 28 0 59 40 87 110 25 63 41
84 58 73 15 -9 -3 -74 -43 -160 -31 -64 -48 -88 -79 -109 -23 -15 -41 -30 -41
-35 0 -4 -28 -39 -62 -76 -79 -87 -175 -205 -210 -258 -15 -22 -45 -60 -67
-85 -38 -42 -40 -43 -41 -20 0 45 46 123 118 203 39 43 74 88 78 100 3 12 14
31 23 41 15 18 15 19 -14 12 -17 -3 -47 -25 -69 -49 -67 -73 -136 -158 -136
-168 0 -5 -6 -9 -14 -9 -8 0 -31 -33 -51 -72 -32 -64 -38 -89 -51 -201 -8 -71
-22 -143 -30 -160 -21 -40 -14 -130 14 -189 12 -24 24 -75 28 -115 6 -68 5
-72 -20 -94 -14 -12 -33 -43 -42 -68 -10 -25 -25 -55 -34 -66 -9 -11 -23 -35
-30 -53 -14 -37 -31 -37 -41 -1 -12 43 -9 93 7 124 9 17 20 52 25 78 4 27 22
69 39 94 35 54 38 73 10 73 -12 0 -29 -15 -45 -40 -25 -39 -60 -58 -90 -46
-14 5 -14 8 -1 28 8 13 22 54 31 92 9 38 27 90 41 115 29 56 31 104 4 156 -11
21 -27 77 -36 124 -9 47 -23 99 -31 114 -9 18 -17 77 -20 157 -7 146 -13 167
-43 131 -11 -13 -20 -33 -20 -45 -1 -21 -1 -21 -12 -1 -6 11 -17 25 -25 31 -7
7 -17 31 -21 55 -9 50 -29 58 -50 19 -20 -38 -11 -380 13 -435 18 -44 35 -266
26 -338 -5 -36 -10 -42 -32 -45 l-27 -3 -4 134 c-3 108 -7 137 -20 150 -24 24
-33 108 -33 297 0 151 2 168 21 200 18 29 23 57 28 165 6 131 27 279 44 312
25 47 42 233 21 233 -17 0 -37 -62 -58 -178 -10 -60 -24 -119 -30 -129 -5 -11
-17 -72 -26 -137 -9 -65 -25 -145 -36 -178 -17 -54 -19 -92 -19 -354 0 -162
-4 -294 -8 -294 -12 0 -88 55 -97 70 -13 20 -7 99 9 122 22 30 22 176 1 204
-16 21 -21 94 -6 94 10 0 25 85 42 240 6 58 18 120 25 139 8 18 21 77 30 130
9 53 22 105 28 116 7 11 16 42 19 69 4 29 17 63 32 82 29 38 32 69 8 83 -17 9
-17 11 0 45 21 44 22 66 3 66 -23 0 -35 -24 -42 -86 -4 -32 -13 -68 -20 -79
-7 -11 -18 -58 -25 -105 -6 -47 -19 -101 -29 -120 -10 -19 -23 -73 -30 -120
-6 -47 -20 -99 -31 -116 -10 -17 -26 -64 -35 -105 -9 -41 -23 -84 -30 -96 -18
-29 -18 -49 1 -57 20 -7 21 -114 2 -141 -20 -27 -34 -11 -42 48 -4 28 -14 60
-22 69 -13 15 -12 20 6 45 16 22 23 54 31 153 6 69 18 143 26 165 7 22 21 83
30 135 9 52 25 114 35 137 35 76 21 338 -20 409 -11 17 -22 47 -26 65 -4 19
-13 38 -20 44 -7 5 -20 33 -29 61 -9 28 -32 69 -50 90 -18 21 -38 49 -44 61
-15 28 -16 218 -1 245 6 12 20 82 30 156 12 83 25 142 34 152 22 24 18 54 -8
65 -30 14 -37 65 -8 65 43 0 46 24 51 435 4 278 8 396 17 411 12 20 19 74 43
298 6 54 15 107 21 117 5 11 19 65 29 121 11 55 26 111 34 123 8 12 21 48 30
80 8 31 21 64 29 73 8 10 20 33 26 53 7 20 21 45 32 55 11 10 33 43 50 73 16
31 56 88 89 126 33 39 60 75 60 81 0 6 49 62 108 125 60 63 121 133 135 156
32 51 54 66 132 93 61 21 154 27 170 11 15 -15 123 -41 167 -41 25 0 44 7 55
19 14 17 19 18 37 6 12 -8 82 -18 172 -25 166 -13 147 -17 348 61 55 22 63 22
155 11 172 -22 415 -8 520 28 31 11 116 32 189 46 241 46 437 115 479 168 12
14 28 26 36 26 8 0 20 6 26 14 16 18 77 33 199 47 87 10 108 16 143 41 22 16
49 44 60 62 32 55 104 70 321 71 l177 0 6 32 6 33 95 -2 c117 -2 136 10 84 52
-108 88 -249 132 -435 135 -80 1 -110 6 -150 24 -68 31 -132 32 -169 4 -15
-12 -44 -25 -65 -28 -67 -11 -81 -15 -81 -25 0 -16 62 -80 93 -96 21 -12 26
-19 18 -27 -18 -18 -226 35 -355 93 -63 27 -123 50 -134 50 -10 0 -36 -13 -57
-30 -42 -34 -100 -41 -119 -15 -6 9 -46 31 -88 49 -42 18 -94 47 -116 64 -65
52 -132 69 -132 34 0 -19 63 -92 79 -92 4 0 20 -11 35 -25 15 -14 33 -25 40
-25 8 0 16 -7 20 -15 3 -8 10 -15 17 -15 6 0 24 -11 41 -25 16 -14 39 -25 51
-25 12 0 46 -11 75 -25 83 -39 62 -62 -29 -30 -39 14 -77 37 -241 143 -27 17
-56 32 -63 32 -21 0 -30 -22 -13 -34 8 -6 23 -25 33 -43 10 -17 27 -34 37 -36
16 -5 27 -47 12 -47 -4 0 -42 12 -86 27 -73 25 -82 26 -106 12 -15 -8 -27 -23
-27 -34 0 -25 75 -81 125 -95 40 -11 69 -43 50 -55 -11 -7 -179 66 -225 98
-16 11 -48 37 -71 56 -22 20 -54 43 -71 53 -57 30 -86 110 -34 93 27 -8 35 11
21 45 -19 46 -186 164 -250 177 -24 4 -37 -3 -84 -49 -31 -30 -56 -59 -56 -66
0 -6 30 -46 66 -88 36 -42 68 -90 71 -105 3 -15 18 -40 34 -55 30 -28 37 -58
18 -69 -20 -13 -119 49 -236 149 -177 151 -311 237 -348 222 -26 -9 -17 -35
18 -49 17 -8 38 -21 46 -30 7 -10 19 -17 26 -17 14 0 163 -112 183 -137 6 -9
12 -25 12 -35 0 -31 -50 -22 -181 32 -66 27 -153 59 -193 71 -39 11 -84 29
-99 41 -33 23 -117 30 -124 11 -6 -15 63 -51 115 -59 26 -4 57 -21 89 -47 26
-22 67 -48 89 -58 23 -10 47 -26 55 -35 7 -8 33 -27 58 -40 44 -24 102 -62
129 -84 17 -15 15 -85 -3 -100 -19 -16 -46 -6 -102 41 -26 21 -53 39 -59 39
-16 0 -137 65 -227 122 -74 48 -148 78 -191 78 -16 0 -9 -12 38 -59 37 -38 56
-63 51 -71 -12 -19 -160 -6 -226 20 -58 23 -171 37 -212 26 -17 -4 -35 -22
-53 -56 -15 -27 -35 -52 -45 -55 -10 -4 -38 -22 -61 -42 -57 -48 -120 -75
-166 -71 -34 3 -37 5 -35 32 2 21 13 38 35 54 62 47 280 274 294 307 7 18 27
43 43 54 16 12 36 34 44 49 8 15 24 45 36 67 12 21 21 54 21 73 0 55 26 96
120 186 67 64 98 87 131 96 139 38 259 100 385 200 49 38 105 77 124 87 45 21
193 21 315 -1 50 -8 167 -23 260 -31 200 -19 244 -27 553 -105 138 -35 251
-69 275 -83 23 -14 69 -30 102 -37 33 -7 68 -17 78 -22 31 -16 2 -35 -61 -41
-75 -8 -94 -16 -90 -36 8 -41 113 -61 203 -37 50 13 95 14 275 7 l215 -7 135
-66 c76 -37 161 -71 195 -78 86 -16 174 -45 273 -89 48 -22 109 -48 135 -59
50 -22 167 -126 167 -148 0 -19 66 -29 85 -14 20 16 19 74 -1 91 -8 7 -24 30
-35 51 -11 21 -41 54 -67 73 -65 48 -356 161 -473 184 -68 13 -123 32 -199 69
-58 28 -123 54 -145 58 -22 3 -51 14 -65 22 -20 13 -62 18 -195 22 l-171 5
-49 36 c-48 35 -157 93 -220 118 -16 6 -86 26 -155 45 -69 18 -169 48 -223 65
-117 37 -219 55 -427 76 -208 21 -346 42 -373 56 -28 16 -198 21 -257 9z m427
-830 c2 0 3 -10 3 -23 0 -13 5 -28 11 -34 8 -8 8 -17 0 -32 -15 -26 -31 -27
-31 -2 0 29 -11 51 -25 51 -18 0 -38 27 -32 44 5 12 13 13 39 5 18 -5 34 -9
35 -9z m1173 -278 c0 -14 -49 -56 -57 -49 -12 13 16 57 37 57 11 0 20 -4 20
-8z m110 -48 c12 -12 13 -16 1 -23 -7 -5 -22 -6 -32 -4 -21 6 -42 37 -32 47 9
9 45 -3 63 -20z m-2592 -76 c2 -24 11 -43 24 -52 26 -19 18 -57 -19 -92 -56
-52 -88 -15 -81 95 3 48 9 67 23 77 31 23 50 13 53 -28z m2542 -48 c0 -28 -57
2 -71 36 -16 44 2 50 38 11 18 -20 33 -41 33 -47z m-540 35 c7 -8 33 -24 57
-35 41 -18 44 -22 41 -52 -4 -42 -32 -48 -98 -19 -32 14 -59 19 -79 15 l-31
-6 0 49 c0 27 3 53 7 56 13 13 90 7 103 -8z m-629 -67 c12 -4 12 -7 0 -21 -20
-25 -51 -4 -51 33 0 29 0 30 19 11 10 -10 25 -21 32 -23z m-1551 -49 c0 -19
-21 -49 -34 -49 -17 0 -27 25 -20 45 7 17 54 21 54 4z m1117 -25 c4 -11 -2
-23 -18 -35 -24 -18 -24 -19 -6 -49 26 -47 23 -70 -10 -70 -48 1 -107 18 -120
35 -19 26 4 61 51 80 22 9 49 25 59 36 22 23 36 24 44 3z m986 -19 c1 -5 -6
-11 -15 -13 -11 -2 -18 3 -18 13 0 17 30 18 33 0z m-1762 -43 c26 -22 20 -52
-10 -52 -21 0 -41 27 -41 54 0 21 23 20 51 -2z m1149 -17 c0 -14 -4 -25 -10
-25 -5 0 -10 11 -10 25 0 14 5 25 10 25 6 0 10 -11 10 -25z m-1570 0 c0 -9 -9
-15 -25 -15 -24 0 -32 10 -18 23 12 13 43 7 43 -8z m771 -20 c0 -5 -9 -11 -21
-13 -20 -3 -27 8 -13 22 10 9 34 3 34 -9z m-723 -24 c3 -8 -1 -12 -9 -9 -7 2
-15 10 -17 17 -3 8 1 12 9 9 7 -2 15 -10 17 -17z m-413 -124 c-49 -98 -63
-122 -84 -141 -35 -32 -23 -113 22 -148 l22 -17 -25 -25 c-14 -13 -42 -28 -62
-31 l-38 -7 0 35 c0 66 28 182 60 245 17 34 35 62 40 62 5 0 11 8 14 18 4 10
21 41 38 68 32 48 33 48 36 21 2 -15 -8 -50 -23 -80z m1204 24 c7 -13 6 -23
-3 -36 -17 -24 -36 -11 -36 26 0 33 23 40 39 10z m-1379 -431 c0 -11 -7 -20
-15 -20 -15 0 -21 21 -8 33 12 13 23 7 23 -13z m370 -170 c0 -5 -9 -10 -20
-10 -11 0 -20 5 -20 10 0 6 9 10 20 10 11 0 20 -4 20 -10z m-490 -766 c0 -19
-4 -34 -9 -34 -12 0 -25 56 -16 70 12 19 25 0 25 -36z m124 21 c3 -9 -3 -23
-14 -32 -12 -11 -20 -30 -20 -48 0 -35 -24 -75 -46 -75 -21 0 -17 43 6 63 25
21 25 43 1 64 -19 15 -19 17 -3 29 23 18 69 17 76 -1z m5495 -164 c20 -47 41
-157 40 -211 l0 -25 -10 25 c-6 13 -16 31 -23 40 -8 8 -19 40 -25 70 -16 70
-31 110 -42 110 -10 0 -12 43 -3 53 14 14 42 -15 63 -62z m79 -315 c-2 -15 -7
-28 -13 -29 -12 -2 -19 38 -10 60 9 25 27 1 23 -31z m-239 -69 c6 -8 14 -28
17 -45 5 -24 3 -32 -8 -32 -23 0 -38 22 -38 57 0 35 10 42 29 20z m179 -104
c-4 -22 -22 -20 -26 1 -2 10 3 16 13 16 10 0 15 -7 13 -17z m-5020 -159 c4
-40 -31 -82 -74 -90 -57 -11 -53 50 6 100 41 34 64 31 68 -10z m4862 -203 c5
-11 10 -58 10 -104 0 -66 3 -86 15 -91 21 -8 20 -75 0 -83 -14 -5 -14 -8 -2
-22 31 -36 31 -121 0 -121 -12 0 -13 -3 -4 -14 27 -32 31 -78 11 -123 -10 -23
-23 -43 -29 -43 -5 0 -9 27 -8 62 2 62 2 62 -28 68 -41 7 -44 39 -9 107 23 46
27 67 28 143 1 71 -2 92 -16 107 -18 20 -26 112 -11 126 12 13 32 7 43 -12z
m117 -113 c-2 -13 -4 -5 -4 17 -1 22 1 32 4 23 2 -10 2 -28 0 -40z m578 -18
c29 -57 9 -170 -32 -170 -14 0 -15 10 -9 78 7 77 15 122 22 122 2 0 10 -13 19
-30z m-4921 -77 c-1 -75 -38 -158 -69 -158 -32 0 -31 48 4 120 17 35 31 70 31
78 0 18 11 28 24 24 6 -2 11 -30 10 -64z m243 20 c20 -76 -3 -154 -41 -140
-19 7 -22 99 -6 141 13 34 38 33 47 -1z m4367 -29 c22 -8 20 -36 -5 -62 -23
-26 -39 -21 -39 13 0 48 12 61 44 49z m-4743 -38 c9 -19 6 -32 -15 -74 -14
-28 -26 -61 -26 -72 0 -25 -25 -37 -45 -20 -29 24 -13 125 27 167 27 29 46 29
59 -1z m4937 -45 c3 -27 -2 -39 -20 -53 -26 -20 -23 -24 41 -60 38 -21 49 -45
28 -61 -8 -7 -25 -48 -37 -92 -23 -86 -50 -125 -86 -125 -17 0 -25 9 -34 35
-16 49 -5 86 33 110 27 17 33 27 35 64 3 39 1 43 -12 32 -21 -18 -32 -7 -39
37 -12 72 26 156 67 150 16 -2 22 -12 24 -37z m-6109 -115 c9 -11 10 -20 1
-36 -16 -29 -34 -20 -38 18 -4 35 16 44 37 18z m539 -211 c-3 -23 -47 -35 -49
-13 -2 23 3 43 14 56 9 11 13 11 24 -5 8 -10 12 -27 11 -38z m592 -205 c0 -12
-28 -25 -36 -17 -9 9 6 27 22 27 8 0 14 -5 14 -10z m-1158 -166 c35 -18 51
-47 36 -62 -19 -19 -38 -14 -48 13 -5 14 -21 30 -35 35 -33 12 -35 44 -2 34
12 -3 34 -13 49 -20z m11 -236 c-37 -40 -74 -58 -117 -58 -77 0 -53 34 69 96
69 35 70 35 73 14 2 -14 -7 -33 -25 -52z m195 -43 c12 -19 32 -37 46 -41 32
-8 32 -15 1 -44 -37 -35 -32 -55 20 -74 25 -10 45 -23 45 -30 0 -25 -165 -156
-197 -156 -30 0 -11 51 44 114 57 68 40 76 -35 16 -27 -22 -55 -40 -61 -40 -6
0 -20 -9 -31 -20 -11 -11 -26 -17 -35 -14 -17 7 -21 34 -5 34 6 0 19 19 29 43
11 23 44 67 75 97 58 56 66 70 42 70 -19 0 -104 -76 -111 -100 -8 -26 -56 -27
-79 -1 -17 18 -16 21 17 68 24 34 51 57 96 81 83 43 113 42 139 -3z m1592
-150 c-7 -8 -17 -12 -22 -9 -5 3 -1 15 9 26 20 22 32 6 13 -17z m-33 -161 c-7
-44 -32 -84 -52 -84 -19 0 -19 12 0 57 30 70 62 87 52 27z m-1508 -169 c2 -3
-5 -18 -17 -33 -12 -15 -27 -37 -32 -49 -5 -13 -18 -23 -29 -23 -19 0 -31 -18
-31 -47 0 -11 7 -14 24 -9 43 11 43 -30 -1 -53 -35 -18 -61 -14 -65 12 -2 18
-9 22 -38 22 -49 0 -50 23 -1 96 23 34 41 67 41 74 0 7 6 16 13 19 14 6 128
-1 136 -9z m1437 -360 c19 -45 18 -89 -2 -106 -9 -7 -31 -43 -48 -79 -18 -37
-51 -90 -74 -119 -23 -29 -49 -68 -58 -87 -17 -36 -93 -109 -131 -127 -12 -5
-27 -25 -33 -43 -6 -18 -19 -43 -29 -56 -10 -13 -26 -48 -36 -78 -9 -30 -23
-59 -29 -65 -7 -5 -16 -22 -19 -37 -11 -41 -71 -100 -99 -96 -19 2 -23 10 -26
45 -4 54 40 151 85 186 13 10 23 24 23 31 0 22 69 105 101 121 16 9 34 27 39
40 5 14 14 25 19 25 5 0 14 13 19 30 6 16 24 49 40 72 16 24 32 53 36 66 4 13
15 22 27 22 10 0 19 5 19 10 0 6 15 33 34 60 23 33 36 67 41 102 6 40 15 60
40 85 18 18 36 33 40 33 3 0 13 -16 21 -35z m-1552 0 c7 -19 -17 -30 -41 -20
-17 6 -17 7 1 21 25 18 32 18 40 -1z m1384 -116 c2 -20 -15 -49 -73 -122 -77
-96 -99 -115 -111 -96 -10 16 5 76 22 90 9 7 26 34 39 60 27 52 79 102 104 97
9 -2 17 -15 19 -29z m180 -242 c6 -32 -19 -75 -59 -101 -24 -16 -49 -45 -64
-76 -14 -28 -29 -50 -33 -50 -4 0 -13 -15 -20 -32 -6 -18 -43 -69 -82 -113
-38 -44 -81 -103 -95 -131 -13 -29 -31 -54 -38 -57 -8 -3 -17 -21 -21 -40 -7
-40 -64 -97 -96 -97 -28 0 -25 15 16 95 66 131 83 160 99 176 8 9 24 43 35 75
23 67 99 170 135 184 13 5 31 23 40 39 16 31 28 47 89 114 28 30 42 38 63 35
17 -2 29 -10 31 -21z m-418 -33 c0 -9 -16 -34 -35 -55 -19 -22 -35 -47 -35
-58 0 -10 -11 -30 -25 -45 -14 -15 -25 -33 -25 -40 0 -6 -5 -17 -12 -24 -19
-19 -38 6 -38 50 0 49 26 87 110 158 39 33 60 38 60 14z m-541 -238 c11 -104
-7 -180 -39 -161 -16 10 -4 76 17 92 15 12 15 14 1 30 -22 25 -38 88 -38 152
l0 54 26 -49 c16 -30 28 -74 33 -118z m2496 -532 c37 -49 44 -74 22 -74 -28 0
-89 83 -80 108 8 21 21 13 58 -34z m-2495 1 c7 -9 10 -18 7 -21 -10 -10 -47 7
-47 22 0 19 24 18 40 -1z m297 -56 c4 -34 -1 -55 -22 -93 -14 -27 -33 -80 -41
-119 -8 -39 -21 -78 -29 -87 -8 -9 -15 -23 -15 -31 0 -8 -5 -20 -12 -27 -39
-39 -62 22 -30 78 11 21 28 79 37 130 9 51 22 102 29 114 8 11 17 34 21 51 16
72 53 62 62 -16z m125 -5 c-3 -77 -17 -141 -37 -164 -7 -8 -15 -51 -18 -95 -7
-92 -23 -145 -43 -145 -8 0 -14 -10 -14 -24 0 -13 -7 -30 -16 -37 -27 -22 -44
14 -44 93 0 55 4 71 21 87 23 21 38 75 39 133 0 23 6 40 16 46 9 5 22 37 30
71 16 69 40 114 58 108 7 -3 10 -29 8 -73z m1147 45 l33 -20 -20 -22 c-11 -12
-27 -48 -36 -79 -9 -31 -21 -60 -27 -64 -6 -3 -19 -27 -30 -52 -23 -54 -39
-47 -46 21 -6 54 26 170 58 210 25 32 25 32 68 6z m140 -8 c12 -8 10 -16 -12
-49 -14 -22 -37 -80 -51 -128 -25 -88 -43 -114 -78 -114 -38 0 -17 77 38 143
19 23 34 53 37 78 3 22 13 49 23 60 19 21 23 22 43 10z m169 -9 c2 -7 -7 -16
-19 -21 l-23 -8 22 -12 c13 -7 33 -12 45 -11 42 4 57 0 77 -20 25 -25 25 -36
1 -43 -13 -3 -24 -19 -30 -45 -6 -22 -17 -44 -24 -50 -11 -10 -145 -42 -187
-46 -11 -1 -16 13 -18 56 -2 48 0 60 18 75 11 10 20 25 20 35 0 10 20 38 44
64 43 44 65 52 74 26z m-460 -26 c2 -10 -1 -23 -7 -29 -16 -16 -34 6 -26 33 8
24 28 22 33 -4z m-412 -77 c3 -6 -1 -18 -10 -27 -14 -14 -18 -15 -25 -3 -5 8
-7 20 -4 28 6 16 29 17 39 2z m1069 -74 c-7 -37 -19 -49 -39 -42 -22 9 -21 71
1 92 16 16 18 16 30 -1 9 -12 12 -31 8 -49z m-712 -6 c-30 -31 -51 -14 -22 17
16 17 26 21 33 14 7 -7 4 -17 -11 -31z m834 17 l28 -24 -21 -24 c-11 -12 -26
-42 -32 -65 -7 -22 -26 -56 -43 -74 -30 -32 -32 -33 -45 -14 -23 32 -18 98 10
124 13 13 27 35 31 49 7 29 23 52 36 52 4 0 21 -11 36 -24z m-1293 -37 c29
-23 34 -39 11 -39 -28 0 -65 24 -65 42 0 24 21 23 54 -3z m1876 6 c0 -21 -28
-31 -43 -16 -9 9 -8 14 3 21 22 14 40 12 40 -5z m-192 -37 c-4 -30 -48 -39
-48 -10 0 24 8 32 32 32 14 0 19 -6 16 -22z m-279 -95 l13 -51 23 26 c22 26
23 26 76 13 29 -8 78 -13 109 -12 53 1 59 -1 129 -54 39 -30 107 -73 149 -95
46 -24 114 -73 170 -122 131 -117 167 -147 215 -178 50 -31 173 -154 193 -191
7 -15 20 -29 28 -32 8 -3 17 -20 21 -37 4 -19 15 -34 30 -40 12 -5 25 -20 29
-34 8 -32 51 -83 86 -101 18 -9 31 -26 35 -44 3 -16 15 -37 26 -47 10 -9 19
-22 19 -29 0 -7 13 -32 30 -56 33 -50 56 -134 46 -173 -7 -29 -56 -59 -89 -54
-15 2 -26 14 -32 35 -6 18 -14 35 -18 39 -4 4 -53 -31 -109 -77 -135 -110
-228 -157 -228 -115 0 15 197 202 245 232 34 21 45 33 45 52 0 20 -30 14 -54
-13 -13 -14 -31 -25 -39 -25 -9 0 -49 -28 -88 -62 -112 -97 -293 -237 -306
-238 -7 0 -30 -17 -51 -37 -40 -41 -168 -113 -200 -113 -11 0 -25 6 -31 14
-17 20 -3 43 51 90 24 20 52 45 63 56 11 10 41 28 68 40 26 12 47 26 47 31 0
4 19 17 43 27 47 21 187 124 230 170 17 18 24 32 18 36 -15 9 -68 -15 -158
-72 -98 -63 -105 -65 -113 -27 -7 41 -30 42 -80 3 -52 -40 -61 -58 -27 -58 13
0 30 -7 37 -15 22 -27 -34 -84 -133 -135 -48 -25 -108 -60 -135 -79 -51 -38
-176 -101 -260 -133 -29 -11 -69 -35 -88 -54 -36 -37 -102 -70 -169 -84 -22
-5 -78 -23 -125 -39 -47 -16 -101 -30 -120 -30 -33 -1 -60 13 -60 30 0 16 72
50 196 92 72 25 150 55 172 66 23 12 52 21 66 21 14 0 37 11 52 25 15 14 31
25 35 25 4 0 77 41 161 91 84 51 177 106 206 123 56 33 99 72 90 82 -3 3 -38
-8 -78 -25 -40 -17 -76 -31 -82 -31 -15 0 -91 -55 -150 -109 -81 -74 -339
-185 -513 -221 -33 -7 -77 -21 -97 -31 -48 -25 -110 -24 -245 2 -167 32 -243
54 -243 69 0 21 42 25 300 31 319 7 364 15 570 103 69 30 141 59 160 65 20 7
78 52 137 106 56 52 117 102 135 111 18 9 36 21 39 26 11 17 -12 87 -31 93
-46 14 -169 -35 -191 -77 -14 -26 -6 -32 28 -22 15 4 36 8 46 10 10 1 23 6 30
13 14 14 37 15 37 1 0 -5 -6 -10 -13 -10 -8 0 -22 -10 -33 -21 -10 -12 -44
-38 -74 -57 -30 -19 -78 -54 -106 -78 -53 -44 -123 -88 -209 -129 -43 -21
-132 -40 -278 -59 -63 -8 -39 18 27 29 31 6 57 15 58 20 1 16 -44 35 -85 35
-44 0 -94 19 -140 54 -18 14 -50 33 -72 43 -22 10 -52 30 -66 44 -31 32 -132
71 -173 67 -43 -4 -49 -41 -9 -60 28 -13 45 -48 23 -48 -34 0 -235 158 -246
193 -3 12 -15 30 -24 39 -22 21 -36 158 -25 243 5 47 63 179 95 220 4 6 13 46
20 90 7 44 14 89 16 101 3 17 22 26 106 50 84 24 119 29 189 27 99 -3 405 38
422 57 9 10 9 14 -1 17 -7 3 -19 20 -26 38 -8 19 -28 41 -45 50 -34 17 -41 41
-13 49 9 3 49 8 89 12 l72 6 6 67 c12 118 47 195 89 189 16 -2 24 -15 35 -55z
m-1011 -32 c23 -14 9 -44 -33 -68 -22 -12 -46 -23 -52 -23 -17 0 -17 72 -1 88
14 14 67 16 86 3z m1962 -20 c14 -27 13 -64 -4 -86 -12 -16 -16 -17 -30 -6
-17 15 -31 73 -22 96 8 21 43 19 56 -4z m-2782 -53 c14 -14 16 -58 3 -58 -11
0 -51 48 -51 61 0 13 34 11 48 -3z m947 -8 c17 -19 17 -21 0 -40 -10 -11 -42
-32 -71 -46 -29 -14 -55 -31 -57 -37 -2 -7 -22 -18 -43 -26 -22 -7 -62 -31
-91 -52 -29 -22 -56 -39 -62 -39 -10 0 -21 -24 -21 -46 0 -28 -82 -152 -161
-245 -53 -61 -83 -106 -90 -133 -6 -23 -17 -48 -25 -56 -7 -9 -20 -36 -29 -60
-21 -58 -34 -74 -51 -59 -30 25 -11 159 31 214 13 17 27 47 33 67 5 20 32 65
60 101 27 35 52 76 56 90 4 18 11 24 21 21 10 -4 20 6 31 29 9 19 26 40 38 45
11 5 64 51 118 101 53 50 100 91 104 91 4 0 22 11 40 25 30 23 130 75 145 75
3 0 14 -9 24 -20z m645 8 c0 -14 -30 -48 -42 -48 -13 0 -9 22 9 42 18 21 33
23 33 6z m-965 -81 c-18 -27 -105 -93 -105 -79 0 12 96 102 110 102 6 0 4 -10
-5 -23z m685 -97 c0 -11 -42 -30 -66 -30 -23 0 -16 15 14 27 36 14 52 15 52 3z
m-1031 -72 c-11 -20 -40 -21 -46 -2 -2 7 4 19 13 28 23 23 49 3 33 -26z m181
-3 c0 -15 -6 -25 -14 -25 -8 0 -23 -16 -35 -35 -23 -39 -41 -46 -41 -15 0 20
65 100 81 100 5 0 9 -11 9 -25z m358 -142 c2 -33 -1 -44 -16 -52 -11 -6 -25
-25 -32 -43 -7 -18 -44 -75 -82 -126 -38 -51 -73 -104 -79 -118 -5 -15 -12
-97 -15 -183 -6 -186 -11 -221 -28 -221 -19 0 -26 23 -26 81 l0 49 -36 0 -37
0 6 66 c4 37 15 80 25 97 11 18 25 63 32 100 7 39 23 84 38 105 13 20 29 49
34 64 6 16 14 28 19 28 4 0 17 19 27 43 22 49 129 159 152 155 10 -2 16 -17
18 -45z m-633 -73 c19 -31 -64 -130 -111 -130 -49 0 -21 71 45 116 38 26 56
30 66 14z m4206 -47 c6 -16 18 -40 26 -55 8 -16 21 -85 29 -155 8 -71 21 -146
29 -168 8 -22 21 -94 30 -160 9 -66 25 -147 36 -180 10 -33 23 -111 29 -174
l10 -113 -41 -47 c-22 -25 -68 -71 -103 -101 -35 -30 -82 -76 -106 -102 -36
-41 -80 -71 -198 -138 -15 -9 -38 -27 -52 -41 -30 -30 -143 -95 -183 -105 -16
-3 -35 -17 -43 -29 -8 -13 -27 -26 -41 -30 -15 -3 -41 -18 -58 -33 -48 -43
-290 -203 -395 -262 -115 -65 -159 -92 -238 -148 -71 -49 -216 -124 -285 -146
-26 -9 -81 -16 -121 -16 -133 0 -374 -58 -567 -136 -150 -60 -209 -71 -300
-54 -106 20 -122 40 -138 172 -8 57 -22 123 -32 148 -10 25 -25 89 -34 143 -9
53 -23 116 -31 140 -10 28 -15 89 -17 187 l-2 145 65 6 c169 16 452 118 637
230 79 48 178 94 284 133 26 9 72 37 104 61 32 25 63 45 71 45 7 0 21 8 31 19
10 10 36 24 58 31 22 7 47 19 55 26 9 7 60 32 115 54 55 23 111 53 126 66 14
13 29 24 33 24 4 0 19 9 33 20 16 12 41 20 64 20 35 0 38 -3 50 -37 6 -21 18
-41 25 -46 7 -4 20 -29 29 -56 19 -59 62 -104 113 -119 54 -16 165 -24 181
-14 17 12 6 32 -18 32 -21 0 -41 19 -41 38 0 8 11 27 24 42 13 16 27 45 30 65
9 46 -6 64 -86 107 -77 41 -150 119 -146 156 3 26 5 27 83 33 117 10 171 27
221 70 24 21 70 48 103 59 39 15 73 37 102 66 24 24 49 44 55 44 7 0 21 16 32
34 12 19 40 47 64 62 24 15 64 44 89 65 26 22 52 39 57 39 6 0 17 18 23 41 15
48 41 69 86 69 27 0 36 -5 44 -27z m-3858 -30 c12 -21 -27 -119 -68 -172 -31
-39 -48 -73 -56 -111 -14 -62 -25 -80 -47 -80 -12 0 -14 11 -8 67 8 77 52 179
97 224 10 10 25 32 34 48 15 29 38 40 48 24z m172 -229 c-15 -23 -44 -32 -58
-17 -8 7 14 45 47 81 l21 24 3 -32 c2 -17 -4 -42 -13 -56z m3957 -252 c-3 -46
-1 -48 27 -30 24 15 71 -3 71 -26 0 -33 -85 -49 -113 -22 -15 16 -31 102 -21
118 3 5 13 8 22 6 13 -3 16 -13 14 -46z m-3765 -257 c69 -41 52 -60 -27 -29
-27 11 -40 22 -40 35 0 25 15 24 67 -6z m2527 -1 c10 -4 16 -18 16 -41 0 -20
-4 -32 -10 -28 -5 3 -10 13 -10 22 0 9 -7 25 -17 35 -16 18 -8 23 21 12z m160
-20 c31 -31 14 -59 -42 -70 -55 -11 -76 28 -40 74 14 17 63 15 82 -4z m-2700
-99 c39 -19 82 -44 96 -56 l25 -21 -70 7 c-105 9 -215 65 -215 109 0 17 94 -5
164 -39z m455 23 c44 -16 4 -28 -100 -28 -73 0 -100 4 -109 15 -13 16 -11 18
35 29 27 6 143 -4 174 -16z m1325 -43 c-8 -19 -36 -35 -61 -35 -15 1 -13 5 10
25 32 28 60 33 51 10z m-1268 -39 c7 -19 -13 -56 -30 -56 -8 0 -24 8 -36 18
l-23 19 24 16 c29 21 58 22 65 3z m-791 -75 c17 -11 70 -55 118 -99 81 -72 95
-81 165 -101 42 -12 113 -40 157 -62 44 -21 87 -39 96 -39 9 0 22 -6 28 -14 7
-8 31 -17 54 -21 58 -9 145 -34 185 -52 42 -20 59 -53 68 -134 4 -35 13 -73
20 -84 7 -11 20 -63 30 -115 9 -52 23 -104 30 -115 7 -11 20 -52 29 -90 9 -39
22 -87 31 -108 21 -56 39 -275 25 -310 -15 -38 -39 -45 -58 -18 -8 12 -26 26
-39 31 -15 6 -24 18 -24 31 0 30 -62 89 -94 89 -37 0 -115 33 -200 85 -41 25
-82 45 -91 45 -8 0 -51 18 -94 39 -69 35 -80 45 -95 80 -10 25 -22 41 -33 41
-9 0 -25 7 -35 17 -15 14 -24 14 -56 5 -21 -7 -49 -23 -62 -37 -52 -56 -82
-19 -110 139 -10 56 -23 114 -29 129 -21 55 -80 639 -68 671 8 21 15 20 52 -3z
m1565 -11 c0 -12 -28 -25 -36 -17 -9 9 6 27 22 27 8 0 14 -5 14 -10z m-2942
-52 c3 -29 -2 -43 -22 -63 -39 -39 -49 -33 -44 25 5 54 22 83 47 78 11 -2 17
-16 19 -40z m5678 18 c-30 -25 -113 -56 -149 -56 -21 0 -21 0 -2 20 23 23 118
59 155 59 l25 0 -29 -23z m-2856 -55 c0 -5 -15 -19 -34 -31 -48 -29 -138 -130
-132 -146 7 -18 3 -18 -65 7 -33 12 -59 27 -59 34 0 25 93 90 178 125 50 20
112 26 112 11z m180 -18 c0 -27 -12 -41 -44 -53 -24 -9 -32 -8 -45 5 -15 15
-14 18 12 41 33 29 77 33 77 7z m2700 -31 c0 -19 -42 -45 -90 -58 -67 -17
-102 -4 -66 25 35 29 156 54 156 33z m-2823 -28 c2 -6 -4 -14 -13 -18 -19 -7
-47 11 -38 26 8 12 46 6 51 -8z m-422 -74 c22 -35 -37 -80 -105 -80 -36 0 -40
3 -40 24 0 36 44 66 96 66 23 0 46 -5 49 -10z m2649 -106 c8 -20 -43 -69 -80
-78 -27 -7 -50 3 -26 11 7 3 22 22 32 44 15 29 27 39 44 39 13 0 27 -7 30 -16z
m-414 -295 c0 -11 -56 -52 -114 -83 -36 -19 -53 -23 -60 -15 -14 14 36 59 66
59 11 0 33 14 48 30 26 28 60 33 60 9z m351 -50 c6 -12 6 -19 0 -19 -12 0 -41
28 -41 40 0 15 30 -1 41 -21z m-508 -303 c18 -19 24 -90 8 -115 -7 -11 -15
-11 -47 5 -32 15 -40 25 -42 51 -2 23 3 37 17 50 12 10 21 30 22 48 l1 30 11
-26 c7 -14 20 -33 30 -43z m357 -171 c11 -13 10 -20 -9 -43 -12 -15 -24 -35
-28 -44 -3 -10 -13 -18 -22 -18 -16 0 -34 -23 -128 -160 -21 -31 -57 -68 -81
-84 -23 -15 -57 -46 -75 -68 -68 -86 -485 -495 -533 -523 -27 -15 -92 -64
-144 -107 -52 -44 -116 -90 -142 -104 -26 -13 -62 -37 -80 -53 -18 -15 -51
-38 -73 -49 -46 -23 -175 -52 -230 -52 -31 0 -38 4 -46 29 -6 16 -16 32 -24
34 -7 3 -18 23 -25 44 -7 21 -19 48 -26 60 -13 21 -12 23 13 28 64 14 81 49
40 82 -13 10 -31 33 -40 49 -9 17 -29 39 -44 49 -67 44 -232 179 -227 187 21
34 234 -33 234 -74 0 -22 77 -101 120 -123 25 -13 84 -54 131 -91 104 -83 177
-120 197 -100 22 22 5 71 -34 101 -19 14 -60 49 -91 76 -32 28 -91 66 -131 86
-50 24 -77 43 -87 64 -9 16 -20 28 -25 26 -6 -1 -22 20 -37 46 -32 57 -31 58
70 83 78 19 121 47 97 64 -8 5 -49 10 -90 11 -144 3 -167 22 -115 101 42 64
20 69 -144 33 -76 -16 -111 -13 -111 10 0 14 80 48 141 59 58 10 103 46 109
86 4 27 14 39 50 60 38 22 45 31 48 62 2 20 11 43 20 51 22 20 69 11 83 -15 6
-11 19 -95 30 -185 12 -114 23 -171 34 -183 8 -9 15 -24 15 -33 0 -22 22 -21
51 2 37 28 86 51 111 51 28 1 92 24 213 77 50 22 113 45 140 52 28 7 115 43
195 80 153 73 210 94 355 135 123 35 236 80 247 100 5 9 17 16 27 16 10 0 24
7 31 15 16 19 24 19 40 0z m-2955 -15 c17 -11 40 -20 53 -20 53 0 167 -83 199
-143 13 -26 13 -31 0 -45 -14 -13 -20 -12 -59 6 -23 12 -78 51 -121 87 -43 36
-96 74 -118 85 -21 11 -39 24 -39 29 0 27 44 28 85 1z m-1372 -34 c37 -15 182
-148 207 -188 9 -15 36 -41 59 -58 23 -17 45 -38 48 -48 4 -9 28 -42 55 -73
27 -31 53 -71 58 -89 12 -41 3 -80 -18 -80 -21 0 -111 96 -128 136 -7 17 -29
43 -48 58 -20 15 -36 36 -36 47 0 12 -7 19 -19 19 -12 0 -21 9 -25 24 -3 13
-28 40 -55 59 -27 19 -59 55 -72 79 -16 28 -37 49 -62 61 -42 19 -57 44 -36
58 19 12 34 11 72 -5z m4875 -23 c-5 -25 -28 -28 -28 -4 0 12 6 21 16 21 9 0
14 -7 12 -17z m-4308 -79 c0 -58 -47 -56 -64 2 -9 31 19 58 45 44 13 -8 19
-21 19 -46z m-139 -54 c11 -6 19 -21 19 -35 0 -31 -7 -31 -37 -3 -39 36 -27
61 18 38z m1959 -18 c0 -5 -28 -27 -61 -50 -69 -48 -142 -73 -160 -55 -14 14
32 47 119 84 68 29 102 36 102 21z m-369 -68 c18 -11 6 -200 -15 -244 -41 -85
-65 -111 -84 -87 -5 6 -12 45 -16 85 -11 122 -24 132 -114 81 -71 -40 -96 -36
-100 15 -2 21 2 52 9 68 31 75 243 130 320 82z m-1805 -196 c45 -48 149 -180
162 -205 13 -23 16 -101 6 -127 -10 -26 -33 -18 -48 17 -7 19 -28 50 -46 71
-23 26 -34 48 -35 73 0 27 -6 38 -23 44 -12 5 -22 13 -22 18 0 6 -11 22 -25
37 -31 34 -35 104 -5 104 3 0 20 -15 36 -32z m962 6 c17 -7 32 -17 32 -22 0
-37 -155 -94 -210 -77 -39 12 -17 100 30 118 21 8 109 -3 148 -19z m32 -143
c0 -24 -89 -83 -152 -102 -71 -22 -88 -20 -88 10 0 32 33 62 90 81 58 20 150
27 150 11z m590 -100 c0 -34 -23 -61 -51 -61 -22 0 -25 26 -7 65 7 16 19 25
35 25 19 0 23 -5 23 -29z m78 -9 c2 -7 -3 -12 -12 -12 -9 0 -16 7 -16 16 0 17
22 14 28 -4z m-1600 -78 c26 -18 29 -44 5 -44 -17 0 -63 37 -63 52 0 13 34 9
58 -8z m-241 -151 c18 -10 46 -36 63 -58 17 -22 48 -62 69 -89 40 -50 67 -124
52 -139 -17 -17 -44 -2 -64 33 -10 19 -30 46 -43 60 -13 14 -29 40 -35 58 -6
18 -15 32 -21 32 -5 0 -18 21 -29 46 -11 25 -27 48 -35 51 -17 6 -19 23 -1 23
7 0 27 -8 44 -17z m286 -160 c-7 -2 -21 -2 -30 0 -10 3 -4 5 12 5 17 0 24 -2
18 -5z m2162 -106 c21 -16 13 -37 -15 -37 -19 0 -34 25 -24 41 7 12 17 11 39
-4z m2090 -17 c0 -18 -64 -62 -84 -58 -19 4 -25 27 -12 46 8 14 66 32 86 28 6
-2 10 -9 10 -16z"/>
<path d="M3630 5421 c0 -24 18 -37 32 -23 8 8 7 16 -2 27 -17 21 -30 19 -30
-4z"/>
<path d="M4182 3905 c-26 -11 -33 -20 -30 -37 3 -20 9 -23 40 -22 21 1 44 7
53 14 20 16 19 46 -1 54 -21 8 -24 8 -62 -9z"/>
<path d="M3663 3853 c-40 -5 -41 -15 -7 -42 23 -18 40 -21 133 -20 58 1 133 4
166 8 51 5 60 9 60 26 0 14 -9 22 -30 26 -33 7 -270 8 -322 2z"/>
<path d="M2788 12383 c-3 -49 -6 -58 -23 -61 -60 -9 -64 -11 -67 -50 -3 -32
-7 -37 -28 -38 -47 -2 -50 -4 -50 -32 0 -31 25 -59 80 -88 30 -16 58 -19 195
-19 153 0 164 1 258 32 54 18 108 39 120 48 30 21 55 19 141 -10 77 -26 150
-33 161 -15 10 16 -22 59 -50 70 -14 5 -47 27 -75 49 -56 44 -148 91 -230 116
-41 12 -348 52 -422 55 -4 0 -8 -26 -10 -57z"/>
<path d="M3517 12353 c-30 -29 27 -102 111 -141 43 -20 70 -24 150 -25 116 -2
138 4 122 34 -17 30 -63 46 -167 58 -88 9 -108 16 -179 61 -17 11 -34 17 -37
13z"/>
<path d="M4294 11971 c28 -30 111 -61 183 -68 52 -5 72 -11 89 -30 28 -30 73
-39 99 -19 20 16 20 16 -4 36 -13 11 -29 20 -35 20 -7 0 -67 18 -134 40 -72
24 -140 40 -168 40 -46 0 -47 -1 -30 -19z"/>
<path d="M3510 11840 c0 -32 19 -64 54 -88 34 -23 66 -29 66 -12 0 36 -74 120
-106 120 -8 0 -14 -9 -14 -20z"/>
<path d="M5702 10823 c-19 -38 13 -73 65 -73 48 0 54 26 15 62 -37 32 -67 36
-80 11z"/>
<path d="M1867 10542 c-21 -23 -22 -46 -1 -63 14 -11 18 -10 31 6 15 22 14 66
-3 72 -6 2 -18 -5 -27 -15z"/>
<path d="M1842 10420 c-20 -12 -41 -38 -53 -64 -10 -25 -25 -46 -32 -49 -6 -2
-10 -7 -7 -10 3 -3 29 2 58 12 81 28 129 83 102 116 -16 20 -29 19 -68 -5z"/>
<path d="M1810 10203 c-105 -54 -150 -116 -150 -210 0 -39 -19 -80 -50 -108
-12 -11 -28 -32 -36 -48 -13 -24 -13 -28 2 -34 9 -3 27 1 41 9 44 27 174 150
184 174 4 13 15 24 22 24 8 0 19 11 25 25 24 53 8 70 -36 39 -13 -9 -26 -13
-29 -10 -8 7 39 75 77 111 31 30 39 55 17 55 -7 0 -37 -12 -67 -27z"/>
<path d="M1802 9873 c-7 -3 -23 -15 -36 -27 -12 -11 -59 -48 -105 -81 -57 -41
-89 -71 -103 -100 -12 -22 -29 -46 -40 -53 -29 -21 -11 -34 38 -26 50 7 56 -4
23 -37 -16 -16 -19 -27 -13 -52 3 -18 8 -34 10 -36 5 -6 44 26 154 127 59 55
122 110 139 123 23 17 28 26 20 36 -6 7 -21 13 -32 13 -29 0 -101 -45 -121
-75 -19 -29 -41 -33 -50 -9 -11 29 4 52 40 64 44 15 114 80 114 107 0 22 -16
33 -38 26z"/>
<path d="M4274 9190 c-53 -16 -71 -60 -26 -60 10 0 23 -9 30 -20 9 -15 23 -20
57 -20 45 0 60 -12 29 -24 -9 -3 -26 -6 -39 -6 -14 0 -33 -9 -43 -20 l-19 -20
-58 20 c-32 11 -79 20 -104 20 l-46 0 43 40 c23 21 42 46 42 54 0 37 -108 27
-180 -17 -19 -11 -57 -40 -83 -64 -59 -52 -138 -97 -195 -113 -35 -9 -46 -8
-64 5 -45 31 -60 20 -70 -50 -2 -14 -12 -21 -33 -23 -35 -4 -85 -47 -85 -73 0
-10 -10 -25 -22 -33 -19 -13 -20 -18 -9 -38 6 -13 37 -39 67 -58 53 -34 84
-72 84 -105 0 -32 45 -15 95 35 48 49 85 64 85 36 0 -7 -7 -19 -16 -27 -19
-16 -44 -63 -44 -84 0 -41 82 8 121 72 13 21 33 46 46 56 12 10 37 45 54 78
53 100 127 149 222 149 44 0 52 -13 43 -66 -8 -39 -39 -58 -67 -41 -22 14 -51
-8 -202 -150 -160 -151 -225 -203 -284 -230 -43 -18 -53 -27 -53 -47 0 -33 44
-66 86 -66 24 0 45 -10 71 -34 21 -18 48 -38 60 -45 31 -16 118 -14 133 3 6 8
30 24 53 35 23 11 96 71 162 133 67 62 140 130 163 151 l42 37 153 0 c195 0
417 -15 531 -35 163 -29 239 -64 265 -122 8 -18 24 -34 36 -37 13 -3 32 -21
43 -40 14 -23 47 -50 100 -81 44 -25 83 -52 86 -60 7 -20 79 -20 96 0 21 25 1
73 -67 152 -64 75 -78 99 -105 178 -10 30 -23 45 -51 59 -21 10 -43 29 -49 42
-15 33 -43 30 -69 -8 -24 -36 -48 -58 -62 -58 -17 0 1 112 22 141 25 33 28 89
6 89 -8 0 -24 -18 -35 -40 -11 -22 -24 -40 -29 -40 -5 0 -12 -11 -15 -25 -5
-20 -13 -25 -36 -25 -16 0 -31 4 -34 9 -12 18 18 122 48 168 26 39 39 50 78
61 37 10 49 19 54 38 9 35 -12 78 -61 123 -43 39 -55 44 -158 55 -27 3 -64 17
-85 31 -52 35 -136 35 -212 -2 -80 -38 -137 -36 -229 6 -59 27 -87 34 -154 37
-45 2 -96 -1 -113 -6z m254 -154 c3 -12 -1 -17 -10 -14 -7 3 -15 13 -16 22 -3
12 1 17 10 14 7 -3 15 -13 16 -22z m637 -76 c3 -6 -10 -30 -29 -54 -20 -23
-36 -48 -36 -54 0 -6 -8 -17 -18 -24 -10 -7 -22 -25 -25 -39 -9 -36 -82 -101
-110 -97 -35 5 -32 45 7 108 18 30 46 66 60 80 14 14 26 31 26 37 0 35 107 72
125 43z m-425 -59 c0 -33 -6 -56 -20 -74 -11 -14 -20 -33 -20 -44 0 -26 -35
-79 -64 -98 -39 -26 -70 -16 -74 23 -4 39 -15 40 -58 7 -18 -14 -35 -25 -38
-25 -23 0 24 131 57 158 22 18 37 7 37 -27 0 -16 6 -34 14 -40 11 -9 18 -6 34
14 11 14 24 39 27 56 8 35 65 99 89 99 13 0 16 -10 16 -49z m195 28 c10 -29
-2 -83 -24 -110 -10 -13 -26 -40 -36 -59 -9 -19 -27 -43 -39 -52 -24 -20 -71
-24 -81 -7 -11 17 4 78 24 97 10 9 21 29 25 44 8 36 78 108 104 108 12 0 23
-8 27 -21z m-655 -85 c-7 -19 -23 -47 -36 -62 -13 -15 -37 -43 -53 -62 -21
-25 -33 -32 -40 -24 -8 7 -3 20 15 45 14 18 32 51 41 72 16 40 75 97 81 78 2
-6 -2 -27 -8 -47z m158 -5 c2 -25 -3 -40 -18 -54 -11 -10 -20 -24 -20 -32 0
-7 -19 -43 -42 -78 -41 -61 -45 -64 -84 -64 -49 -1 -61 17 -35 51 10 13 28 43
41 67 28 57 119 153 139 149 10 -2 17 -16 19 -39z m-353 -134 c-10 -19 -42
-62 -71 -95 -30 -34 -54 -65 -54 -71 0 -5 -25 -25 -55 -44 -37 -24 -55 -42
-55 -56 0 -28 -44 -69 -75 -69 -39 0 -31 24 33 94 31 35 75 85 97 112 58 71
188 190 192 177 3 -7 -3 -28 -12 -48z m-189 -391 c-25 -18 -36 -18 -36 1 0 19
32 37 45 24 7 -7 4 -15 -9 -25z"/>
<path d="M4535 8430 c-136 -10 -175 -23 -242 -78 -32 -26 -75 -60 -96 -75 -20
-15 -43 -40 -51 -55 -11 -21 -30 -33 -85 -50 -77 -25 -94 -43 -89 -95 2 -26 8
-33 28 -35 27 -3 58 20 199 146 123 109 165 116 188 31 12 -46 85 -140 132
-171 30 -21 72 -23 89 -6 20 20 14 58 -10 67 -31 12 -124 111 -144 154 -19 40
-9 90 20 95 28 6 134 -94 148 -139 18 -62 57 -89 128 -89 76 0 115 29 125 93
10 68 15 78 42 88 40 15 61 2 73 -42 17 -61 5 -95 -45 -129 -51 -35 -85 -75
-85 -101 0 -47 41 -29 183 79 l99 75 66 -32 c37 -18 88 -46 114 -63 39 -24 50
-27 67 -18 13 6 21 21 21 35 0 26 -28 46 -83 59 -21 5 -33 18 -46 49 -25 57
-106 128 -199 174 l-76 38 -185 2 c-103 0 -231 -2 -286 -7z"/>
<path d="M1814 8345 c-3 -8 -3 -19 1 -25 11 -18 25 -11 25 15 0 27 -17 34 -26
10z"/>
<path d="M3512 8237 c-5 -6 -12 -40 -15 -75 -3 -34 -12 -74 -21 -87 -9 -14
-12 -25 -7 -25 5 0 14 -13 20 -30 8 -24 16 -30 39 -30 17 0 40 9 53 19 22 18
24 27 24 110 0 98 -7 113 -56 125 -16 3 -31 1 -37 -7z"/>
<path d="M4180 8060 c-26 -26 -13 -56 30 -65 36 -8 60 8 60 39 0 47 -54 62
-90 26z"/>
<path d="M5268 8015 c-61 -17 -131 -58 -158 -92 -12 -16 -31 -30 -43 -33 -26
-7 -38 -67 -14 -75 7 -3 50 6 95 20 69 22 92 35 142 82 49 45 60 61 58 82 -4
31 -18 34 -80 16z"/>
<path d="M1884 7921 c-21 -16 -54 -45 -73 -64 l-34 -36 28 -11 c16 -6 54 -26
85 -44 131 -79 177 -72 116 17 -24 34 -40 71 -43 98 -6 43 -18 69 -33 69 -4 0
-25 -13 -46 -29z"/>
<path d="M3472 7924 c-33 -23 -26 -64 12 -83 52 -25 85 23 52 75 -19 28 -33
30 -64 8z"/>
<path d="M7253 7789 c-58 -29 -74 -49 -49 -63 66 -39 82 -55 94 -91 7 -21 33
-60 58 -87 45 -48 83 -117 84 -151 0 -10 9 -30 20 -45 11 -15 26 -63 35 -106
8 -43 17 -82 21 -85 10 -11 32 29 38 72 6 42 -8 264 -20 315 -4 15 -13 36 -20
47 -8 11 -14 35 -15 55 -1 48 -23 116 -37 113 -6 -2 -32 8 -58 22 -57 30 -96
31 -151 4z"/>
<path d="M3456 7728 c-3 -13 -10 -59 -16 -102 -11 -83 -7 -95 31 -96 24 0 39
21 39 55 0 18 8 37 20 48 25 21 26 43 1 57 -11 5 -21 20 -23 32 -4 33 -46 37
-52 6z"/>
<path d="M6943 7625 c-69 -46 -203 -226 -220 -293 -13 -54 -15 -177 -4 -207 5
-11 14 -20 22 -20 7 0 23 -20 35 -45 12 -25 52 -79 89 -120 81 -90 91 -108 98
-184 7 -71 15 -82 53 -69 40 13 46 49 42 262 -4 203 -2 196 -81 317 -14 22
-29 56 -32 77 -4 21 -13 37 -21 37 -24 0 -27 21 -7 48 11 15 27 50 37 78 9 28
28 62 41 74 27 25 35 80 12 80 -7 0 -36 -16 -64 -35z"/>
<path d="M7362 7015 c-17 -14 -38 -47 -48 -73 -10 -26 -25 -57 -35 -70 -9 -12
-23 -45 -29 -73 -7 -28 -18 -53 -25 -56 -8 -2 -21 -20 -30 -39 -9 -20 -28 -39
-43 -45 -31 -12 -147 -122 -167 -159 -29 -56 -27 -168 3 -178 19 -6 70 55 84
100 7 25 19 43 30 46 11 2 26 18 34 33 8 16 42 61 75 100 78 90 144 209 164
296 9 37 23 75 31 84 17 19 16 50 -2 56 -6 2 -25 -8 -42 -22z"/>
<path d="M3970 6961 c0 -11 13 -29 30 -41 16 -12 33 -32 36 -46 3 -13 29 -55
56 -92 46 -62 49 -71 45 -112 -2 -25 -12 -65 -22 -90 -9 -26 -17 -77 -18 -120
-2 -68 0 -75 17 -75 14 0 26 18 47 69 15 38 33 91 39 118 12 60 13 182 1 225
-16 54 -69 109 -141 147 -78 41 -90 43 -90 17z"/>
<path d="M4255 6933 c-47 -13 -34 -53 17 -53 41 0 68 -17 68 -43 0 -35 25 -62
67 -75 42 -13 83 -50 104 -97 8 -17 30 -37 52 -48 21 -10 57 -43 84 -77 25
-33 61 -69 80 -80 20 -12 33 -27 33 -40 0 -55 42 -98 162 -164 37 -20 72 -46
78 -56 15 -27 25 -25 67 14 l37 34 -64 67 c-36 37 -89 81 -117 97 -43 24 -55
37 -63 68 -6 21 -14 40 -18 42 -4 2 -20 20 -35 41 -16 20 -43 43 -61 51 -38
16 -66 51 -66 82 0 27 -30 54 -60 54 -13 0 -32 -7 -42 -17 -17 -15 -18 -15
-18 9 0 44 -41 91 -95 109 -30 10 -59 29 -75 49 -21 26 -35 33 -71 35 -24 2
-53 1 -64 -2z"/>
<path d="M6780 6824 c-16 -42 -13 -159 5 -174 31 -26 54 36 55 143 0 54 -1 57
-25 57 -18 0 -28 -7 -35 -26z"/>
<path d="M3448 6655 c-31 -13 -72 -35 -91 -49 -19 -15 -62 -38 -97 -52 -71
-29 -73 -28 -224 38 -49 21 -95 37 -101 34 -8 -3 -15 -37 -20 -89 -8 -104 4
-159 41 -175 14 -7 60 -35 101 -62 42 -28 82 -50 90 -50 18 0 92 -37 117 -59
10 -9 22 -26 27 -38 7 -20 16 -23 63 -23 45 0 60 5 82 25 15 14 33 25 41 25
20 0 33 44 33 117 0 55 3 66 19 70 11 3 21 17 25 34 5 28 8 29 58 29 84 0 230
-34 275 -64 46 -31 67 -27 82 16 16 45 14 67 -13 123 -43 92 -161 175 -251
175 -35 0 -73 -36 -77 -73 -3 -29 -7 -32 -47 -39 -30 -5 -63 -22 -101 -52 -87
-69 -202 -105 -229 -73 -11 14 -4 17 49 28 69 13 171 73 191 111 6 13 23 36
38 51 22 24 23 29 11 37 -21 13 -27 12 -92 -15z"/>
<path d="M1987 6458 c-8 -13 -17 -35 -21 -50 -3 -15 -16 -36 -27 -47 -15 -13
-19 -26 -14 -41 4 -11 10 -20 15 -18 19 7 82 115 84 142 1 37 -18 44 -37 14z"/>
<path d="M4008 6233 c-22 -5 -30 -36 -26 -94 3 -41 6 -45 45 -64 56 -27 110
-80 117 -116 7 -35 57 -69 101 -69 25 0 33 6 42 30 16 41 48 41 57 -1 3 -18
10 -28 17 -24 5 4 16 -1 24 -11 13 -18 15 -18 44 10 l31 30 0 -55 c0 -61 6
-75 27 -58 10 9 13 7 13 -9 0 -33 11 -52 31 -52 31 0 42 36 37 125 -5 101 -25
140 -66 132 -32 -6 -62 8 -62 28 0 8 -17 23 -37 34 -21 11 -71 49 -111 85 -40
36 -83 68 -95 70 -34 7 -170 13 -189 9z"/>
<path d="M4624 5835 c-16 -66 21 -129 82 -141 45 -8 56 6 51 64 -6 57 -47 102
-94 102 -26 0 -34 -5 -39 -25z"/>
<path d="M6335 5013 c-26 -26 -35 -60 -42 -158 -5 -82 -4 -93 12 -99 22 -8 45
10 45 36 0 10 11 41 25 68 29 57 33 130 9 154 -20 20 -29 20 -49 -1z"/>
<path d="M7121 2879 c-41 -25 -33 -33 46 -44 48 -6 53 -5 68 19 9 14 14 30 10
36 -11 18 -88 11 -124 -11z"/>
<path d="M1750 1791 c0 -18 42 -61 61 -61 27 0 25 35 -3 54 -24 17 -58 21 -58
7z"/>
<path d="M1390 1656 c0 -7 11 -21 25 -30 14 -9 70 -54 125 -99 122 -100 213
-167 230 -167 7 0 34 -23 60 -51 46 -50 70 -57 70 -20 0 18 -41 61 -105 107
-22 16 -46 36 -52 45 -7 9 -32 29 -57 43 -24 14 -75 51 -112 82 -65 53 -150
104 -174 104 -5 0 -10 -6 -10 -14z"/>
<path d="M1176 1465 c-25 -20 -28 -26 -17 -39 10 -12 33 -16 99 -16 l86 0 87
-57 c47 -32 126 -80 174 -108 84 -48 234 -179 261 -229 6 -12 15 -16 22 -12
17 10 15 46 -3 53 -9 3 -27 27 -40 53 -41 82 -214 227 -340 286 -83 38 -249
94 -279 94 -11 -1 -34 -11 -50 -25z"/>
<path d="M785 1278 c-31 -17 -75 -60 -75 -74 0 -13 22 -24 50 -24 30 0 71 42
73 75 2 33 -15 42 -48 23z"/>
<path d="M1192 1248 c3 -20 11 -24 71 -30 37 -5 94 -19 127 -33 68 -29 90 -31
90 -10 0 8 -6 15 -13 15 -8 0 -24 11 -37 25 -30 32 -107 55 -183 55 -55 0 -58
-1 -55 -22z"/>
<path d="M1965 1200 c-13 -21 55 -124 71 -107 10 10 -6 65 -27 92 -22 27 -34
31 -44 15z"/>
<path d="M1530 1105 c0 -9 122 -65 143 -65 32 0 12 24 -34 41 -55 21 -109 33
-109 24z"/>
<path d="M1224 1002 c19 -21 143 -73 266 -111 97 -30 105 -30 105 -2 0 19 -10
30 -45 47 -62 31 -212 73 -285 81 l-60 6 19 -21z"/>
<path d="M2829 934 c-11 -14 -11 -17 4 -25 12 -7 17 -24 18 -57 1 -26 5 -60 9
-77 5 -19 7 5 7 69 -2 101 -11 123 -38 90z"/>
<path d="M1386 747 c-41 -30 12 -76 72 -62 19 5 23 11 20 38 -3 29 -7 32 -38
35 -19 2 -43 -3 -54 -11z"/>
<path d="M2877 653 c-4 -3 0 -14 9 -24 9 -10 25 -60 35 -110 11 -51 25 -100
33 -108 19 -22 25 -44 35 -144 5 -48 15 -94 22 -103 8 -9 21 -37 29 -63 9 -28
21 -46 30 -46 22 0 27 101 6 124 -8 9 -22 48 -32 86 -9 39 -23 80 -31 93 -7
12 -21 62 -29 110 -9 48 -24 99 -35 114 -10 15 -19 32 -19 37 0 11 -28 41 -39
41 -4 0 -11 -3 -14 -7z"/>
<path d="M2652 498 c-16 -16 -15 -85 1 -95 8 -4 18 -28 24 -53 10 -42 11 -37
12 58 1 104 -6 121 -37 90z"/>
</g>
</svg>
