<?xml version="1.0" standalone="no"?>
<!DOCTYPE svg PUBLIC "-//W3C//DTD SVG 20010904//EN"
 "http://www.w3.org/TR/2001/REC-SVG-20010904/DTD/svg10.dtd">
<svg version="1.0" xmlns="http://www.w3.org/2000/svg"
 width="1031.000000pt" height="1280.000000pt" viewBox="0 0 1031.000000 1280.000000"
 preserveAspectRatio="xMidYMid meet">
<metadata>
Created by potrace 1.15, written by Peter Selinger 2001-2017
</metadata>
<g transform="translate(0.000000,1280.000000) scale(0.100000,-0.100000)"
fill="#000000" stroke="none">
<path d="M4719 12791 c-109 -15 -354 -124 -421 -187 -63 -60 -213 -148 -314
-185 -32 -12 -67 -28 -76 -36 -9 -8 -30 -22 -47 -31 -16 -9 -88 -68 -158 -131
-157 -140 -275 -219 -388 -260 -47 -17 -93 -31 -100 -31 -27 0 -116 -38 -151
-65 -19 -14 -59 -35 -89 -45 -87 -30 -283 -135 -355 -190 -131 -101 -251 -182
-329 -221 -68 -35 -106 -65 -239 -194 -86 -84 -168 -171 -182 -194 -14 -23
-40 -62 -58 -86 -18 -25 -42 -64 -53 -87 -11 -24 -29 -59 -40 -78 -10 -19 -19
-45 -19 -56 0 -12 -7 -27 -15 -34 -8 -7 -20 -31 -26 -53 -18 -66 -58 -114
-222 -265 -151 -139 -216 -208 -247 -262 -23 -40 -53 -89 -76 -124 -14 -21
-23 -55 -26 -99 -5 -54 -17 -90 -62 -185 -31 -64 -56 -124 -56 -133 0 -9 -8
-24 -19 -33 -10 -9 -24 -44 -31 -79 -7 -34 -21 -71 -31 -83 -23 -24 -24 -43
-5 -70 19 -27 5 -178 -23 -251 l-20 -51 21 -27 c12 -15 34 -35 50 -45 25 -15
120 -132 170 -209 10 -15 24 -71 33 -126 9 -55 28 -127 42 -160 14 -33 33 -82
43 -109 10 -27 25 -53 34 -58 9 -5 16 -16 16 -23 0 -20 67 -93 102 -111 34
-17 68 -50 68 -64 0 -5 -35 -48 -79 -95 -147 -160 -196 -306 -174 -512 12
-112 42 -181 124 -290 26 -34 50 -75 54 -91 3 -16 27 -54 54 -86 26 -31 62
-84 79 -119 18 -34 68 -105 112 -157 146 -173 170 -205 199 -255 36 -62 168
-190 224 -216 23 -10 69 -35 102 -54 33 -19 80 -37 105 -41 36 -5 54 -16 89
-52 59 -61 79 -111 96 -246 9 -63 23 -135 31 -158 22 -60 29 -186 12 -217 -7
-14 -33 -35 -57 -47 -92 -49 -292 -259 -315 -331 -4 -12 -30 -50 -58 -85 -27
-35 -54 -72 -58 -84 -5 -11 -20 -38 -34 -59 -15 -21 -26 -52 -26 -70 0 -18 -9
-43 -19 -57 -23 -29 -64 -135 -87 -222 -9 -34 -22 -68 -29 -76 -7 -8 -27 -61
-45 -118 -41 -131 -105 -297 -129 -331 -10 -14 -21 -44 -25 -66 -4 -22 -14
-47 -21 -55 -7 -8 -18 -41 -24 -73 -6 -32 -19 -78 -30 -101 -10 -24 -22 -58
-26 -76 -4 -18 -17 -55 -30 -84 -12 -28 -25 -66 -28 -84 -4 -18 -13 -39 -21
-47 -7 -8 -19 -45 -26 -82 -7 -37 -21 -88 -31 -112 -11 -24 -19 -64 -19 -90
-1 -80 -15 -128 -51 -169 -19 -22 -77 -91 -130 -153 -109 -128 -117 -136 -214
-209 -38 -29 -196 -175 -349 -324 -440 -426 -553 -540 -561 -565 -9 -28 40
-94 74 -99 28 -4 125 44 161 80 15 14 46 59 70 100 33 56 86 115 225 253 100
99 195 197 210 218 15 20 43 44 61 53 19 9 62 48 96 87 35 40 126 140 203 222
77 83 150 163 162 178 38 45 63 13 63 -81 0 -20 8 -45 18 -56 10 -12 31 -55
46 -96 39 -109 138 -294 158 -298 10 -2 29 8 43 22 48 48 28 167 -47 281 -28
43 -43 80 -54 135 -8 41 -24 97 -35 123 -15 36 -22 82 -26 173 -5 109 -4 126
11 143 10 11 25 50 33 88 8 37 21 75 28 83 7 8 21 47 30 85 10 39 24 77 31 86
8 8 14 23 14 32 0 9 22 58 48 109 27 51 52 107 56 123 4 17 20 64 36 106 16
42 34 105 39 140 6 35 17 69 26 75 8 6 15 19 15 29 0 9 17 56 39 104 21 47 49
129 61 181 12 52 29 106 38 120 8 13 21 53 29 88 7 35 21 76 32 91 10 14 24
44 31 66 6 22 27 65 45 95 18 30 40 78 50 105 10 28 31 63 47 78 15 15 28 34
28 42 0 8 9 25 20 37 11 13 41 47 67 76 46 52 109 99 119 89 3 -3 16 -78 29
-166 13 -88 31 -174 40 -192 16 -30 16 -32 -9 -58 -35 -37 -35 -83 1 -109 34
-25 24 -38 -32 -47 -27 -3 -49 -13 -52 -21 -9 -24 13 -61 44 -76 16 -7 29 -23
31 -36 3 -18 -1 -22 -23 -22 -39 0 -65 -18 -65 -44 0 -34 14 -42 140 -76 63
-17 116 -33 119 -36 11 -10 -7 -12 -49 -4 -53 11 -126 12 -157 4 -17 -5 -23
-14 -23 -35 0 -36 16 -44 115 -59 154 -22 235 -52 235 -85 0 -12 -17 -15 -82
-16 -130 0 -213 -41 -111 -54 125 -15 262 -62 248 -85 -4 -6 -57 -10 -130 -10
-99 0 -127 -3 -139 -16 -19 -19 -20 -28 -3 -42 16 -13 52 -20 182 -32 101 -10
135 -20 135 -41 0 -4 -33 -7 -73 -7 -111 1 -166 -36 -132 -89 13 -19 21 -22
38 -16 12 4 61 8 109 8 72 0 91 -3 114 -21 55 -41 49 -46 -88 -64 -48 -7 -95
-18 -105 -26 -17 -13 -17 -15 -1 -28 10 -7 56 -16 109 -19 93 -6 139 -23 139
-52 0 -18 -49 -41 -101 -50 -20 -3 -44 -14 -54 -25 -33 -37 -7 -45 138 -45
114 0 138 -3 178 -21 26 -12 50 -27 54 -34 16 -26 -13 -31 -122 -19 -133 14
-157 10 -172 -32 -23 -67 10 -80 146 -58 65 10 71 9 143 -19 113 -46 102 -56
-70 -62 l-145 -5 -3 -26 c-5 -40 20 -51 136 -61 118 -10 253 -40 289 -63 48
-32 27 -37 -129 -33 -141 3 -153 2 -156 -15 -2 -10 4 -27 14 -38 14 -16 31
-19 103 -19 104 0 137 -9 220 -57 67 -40 94 -72 50 -59 -102 29 -143 37 -206
43 -81 7 -95 -4 -77 -56 8 -21 22 -30 83 -50 68 -22 75 -26 88 -61 15 -38 46
-60 84 -60 20 0 20 0 0 -26 -41 -52 -15 -104 52 -104 55 0 85 -18 98 -59 6
-20 25 -53 41 -74 l30 -38 -26 -25 c-14 -14 -30 -42 -37 -61 -9 -29 -9 -38 5
-51 14 -14 23 -14 74 -4 97 20 182 13 182 -14 0 -19 -30 -30 -126 -44 -95 -14
-110 -21 -118 -56 -18 -71 22 -81 132 -34 76 32 102 36 132 20 13 -7 21 -7 25
0 11 18 41 11 65 -15 19 -20 22 -30 14 -43 -9 -13 -32 -18 -110 -23 -102 -6
-156 -23 -168 -54 -3 -9 -6 -63 -6 -119 0 -94 2 -107 25 -140 14 -20 25 -45
25 -56 0 -22 25 -50 45 -50 8 0 47 13 87 29 97 38 125 43 148 31 19 -10 28
-39 13 -41 -5 0 -29 -1 -55 -2 -77 -4 -132 -78 -79 -107 11 -5 25 -25 31 -45
7 -20 31 -51 61 -76 27 -22 49 -47 49 -54 0 -17 55 -63 83 -70 12 -3 45 1 72
10 62 19 95 19 95 1 0 -16 -30 -26 -82 -26 -45 0 -50 -7 -36 -53 12 -40 9 -39
178 -58 74 -8 112 -17 129 -30 13 -11 30 -19 37 -19 8 0 14 -4 14 -9 0 -18
-35 -21 -118 -10 -79 10 -87 10 -99 -7 -17 -23 -17 -59 1 -73 8 -7 45 -17 83
-22 122 -19 187 -45 232 -94 23 -25 41 -51 41 -58 0 -7 13 -31 30 -53 16 -21
30 -49 30 -62 0 -22 -1 -22 -30 -7 -33 17 -50 43 -50 77 0 32 -41 69 -117 107
-71 35 -112 40 -114 14 -5 -74 6 -91 86 -138 l66 -38 -6 -48 c-7 -47 -6 -48
34 -75 40 -26 44 -27 144 -20 120 7 154 14 160 30 8 21 -20 87 -67 155 -25 36
-51 82 -57 101 -7 19 -20 44 -29 55 -10 11 -23 36 -29 56 -6 19 -34 71 -62
115 -27 43 -57 104 -65 134 -20 69 -53 127 -93 163 -17 15 -31 35 -31 45 0 9
-14 35 -30 56 -29 39 -41 96 -20 96 15 0 61 -24 145 -75 39 -23 100 -58 136
-78 51 -28 87 -60 165 -148 246 -279 367 -290 603 -51 58 59 111 116 118 127
15 28 42 11 68 -42 11 -23 28 -49 37 -60 9 -10 22 -40 28 -67 6 -26 24 -67 40
-90 15 -23 33 -58 37 -77 5 -19 16 -34 24 -34 9 0 16 -14 19 -40 3 -23 15 -56
27 -75 12 -19 31 -60 42 -91 31 -83 79 -166 118 -205 38 -39 74 -43 143 -19
60 21 65 20 115 -26 49 -45 73 -47 93 -7 11 23 9 43 -12 140 -14 62 -27 131
-31 153 -8 54 -84 248 -100 258 -8 4 -16 20 -20 36 -3 15 -22 52 -40 82 -19
29 -35 58 -35 65 0 6 -9 19 -20 29 -32 29 -50 108 -60 255 -6 102 -12 137 -24
145 -10 8 -12 15 -6 21 22 22 50 228 81 594 7 91 17 149 30 177 10 23 19 48
19 56 0 7 14 26 30 42 17 16 30 34 30 40 0 6 11 26 25 45 25 34 33 84 16 95
-16 9 -79 -53 -117 -118 -21 -34 -47 -73 -60 -87 -12 -14 -29 -41 -37 -60 -8
-19 -39 -66 -71 -104 -31 -38 -56 -75 -56 -82 0 -7 -8 -18 -19 -23 -10 -6 -21
-25 -25 -43 -3 -19 -33 -66 -69 -111 -71 -86 -213 -326 -223 -375 -4 -17 -22
-49 -40 -71 -19 -21 -47 -69 -64 -105 -16 -36 -34 -66 -39 -66 -6 0 -14 -12
-17 -27 -4 -15 -24 -54 -45 -87 -21 -34 -50 -92 -66 -130 -36 -89 -53 -98
-127 -62 -30 15 -74 48 -98 73 -106 112 -179 180 -258 241 -47 36 -99 79 -117
95 -18 17 -54 38 -80 48 -26 9 -77 30 -112 44 -36 15 -98 33 -139 40 -48 9
-78 19 -88 31 -7 11 -46 80 -84 154 -121 232 -138 263 -150 270 -6 4 -20 31
-31 60 -11 30 -34 70 -52 89 -43 50 -162 233 -199 309 -17 34 -34 62 -39 62
-4 0 -15 24 -23 53 -10 32 -39 82 -76 131 -33 44 -60 84 -60 89 0 4 -18 29
-39 55 -22 26 -50 67 -62 92 -13 25 -40 72 -61 104 -21 33 -38 65 -38 73 0 7
-4 13 -10 13 -5 0 -20 20 -32 45 -13 25 -50 86 -83 137 -32 51 -82 129 -110
173 -28 44 -59 102 -69 128 -10 27 -24 51 -32 54 -8 3 -14 13 -14 22 0 9 -8
27 -17 41 -30 42 -155 293 -174 347 -9 28 -35 76 -57 105 -23 30 -48 79 -57
113 -10 33 -25 74 -35 90 -10 17 -23 56 -30 89 -7 32 -22 78 -35 102 -13 24
-31 79 -40 121 -9 43 -26 116 -37 162 -12 50 -22 138 -25 217 -5 120 -4 134
10 134 24 0 94 -66 101 -94 8 -30 172 -186 196 -186 10 0 22 -9 25 -21 8 -25
197 -216 242 -244 49 -30 221 -166 283 -222 56 -51 337 -280 393 -321 17 -12
37 -22 44 -22 6 0 18 -8 25 -18 15 -20 155 -128 198 -153 15 -8 35 -23 45 -32
9 -9 22 -17 28 -17 7 0 44 -25 82 -56 39 -31 102 -78 140 -104 39 -26 108 -83
155 -125 136 -124 206 -178 345 -263 131 -80 264 -165 434 -279 51 -33 120
-71 154 -83 34 -12 150 -55 257 -96 222 -84 288 -104 450 -138 231 -48 276
-44 372 30 32 25 96 63 142 84 46 22 87 43 90 48 3 5 26 13 50 16 24 4 50 14
56 21 17 21 59 19 66 -2 3 -10 14 -40 25 -68 26 -69 36 -193 49 -600 6 -192
17 -464 26 -603 19 -341 36 -457 65 -457 17 0 18 147 6 610 -8 309 -6 343 27
316 9 -8 16 -19 16 -27 0 -7 16 -29 35 -48 19 -20 35 -43 35 -52 0 -26 38 -71
65 -78 28 -7 33 -27 10 -46 -25 -21 -20 -146 10 -232 13 -40 31 -112 40 -161
9 -48 25 -106 35 -130 10 -23 23 -80 30 -127 6 -47 15 -118 20 -159 6 -41 20
-95 31 -120 12 -25 25 -81 29 -125 5 -46 15 -85 24 -95 9 -10 16 -28 16 -42 0
-34 14 -52 36 -47 11 2 20 13 22 28 5 40 23 80 37 80 7 0 18 -7 25 -15 16 -20
46 -19 54 1 3 9 6 33 6 54 0 21 4 42 10 45 6 3 10 1 10 -5 0 -7 9 -23 20 -37
11 -14 20 -32 20 -40 0 -66 70 -193 106 -193 18 0 29 -23 49 -100 22 -86 48
-134 80 -148 34 -16 31 -16 44 15 6 16 16 35 23 45 10 13 7 29 -14 85 -42 112
-86 254 -99 323 -6 36 -19 79 -29 95 -9 17 -23 64 -30 105 -7 41 -28 131 -47
200 -19 69 -37 145 -40 168 -3 24 -12 46 -19 49 -16 6 -22 22 -40 108 -8 38
-22 77 -31 87 -18 20 -11 23 17 8 33 -18 68 -92 84 -179 9 -46 21 -90 27 -97
6 -7 19 -46 29 -86 26 -102 97 -302 110 -306 5 -2 17 -29 26 -60 9 -31 22 -64
30 -72 7 -9 20 -65 29 -125 19 -124 71 -382 85 -420 5 -14 16 -25 24 -25 7 0
19 -7 26 -15 7 -8 23 -15 36 -15 18 0 25 -7 30 -27 27 -128 105 -215 163 -183
28 14 26 39 -4 80 -15 20 -32 66 -42 113 -9 44 -22 85 -28 91 -7 6 -15 47 -19
91 -10 122 -36 265 -56 315 -10 25 -26 90 -35 145 -9 55 -23 110 -31 122 -8
12 -14 34 -14 48 0 62 -97 411 -136 487 -16 31 -24 64 -24 98 0 46 2 50 24 50
28 0 42 -29 51 -110 4 -30 13 -62 21 -70 7 -9 20 -36 29 -60 9 -24 22 -51 29
-60 8 -8 17 -31 21 -50 4 -19 18 -55 31 -80 33 -64 43 -94 60 -184 9 -44 21
-91 29 -105 7 -15 20 -72 29 -129 9 -56 25 -128 35 -160 11 -31 26 -106 35
-165 9 -60 24 -127 35 -150 13 -30 20 -78 25 -167 12 -218 38 -320 87 -335 79
-25 270 84 288 165 15 67 -30 454 -73 640 -20 84 -21 130 -1 130 23 0 34 -30
50 -140 8 -56 24 -121 35 -145 11 -24 27 -77 35 -117 19 -87 31 -103 67 -89
14 5 29 15 34 22 11 19 6 77 -10 101 -25 40 -47 204 -29 221 3 4 17 -3 30 -15
19 -18 27 -20 48 -10 36 16 33 62 -10 162 -19 45 -35 88 -35 96 0 7 -9 18 -21
24 -29 16 -23 74 8 78 16 2 30 -8 51 -37 34 -47 123 -223 190 -377 53 -120 74
-139 90 -80 13 44 2 93 -37 171 -16 33 -51 104 -76 158 -25 53 -50 97 -54 97
-4 0 -13 17 -19 38 -6 20 -23 53 -37 72 -14 18 -25 39 -25 44 0 6 -30 56 -67
111 -126 189 -138 212 -129 251 14 53 66 31 66 -28 0 -18 5 -28 15 -28 9 0 19
-10 24 -23 5 -12 25 -42 45 -66 20 -23 36 -46 36 -50 0 -4 24 -37 53 -74 32
-41 60 -88 71 -122 9 -30 32 -74 52 -97 19 -24 45 -66 58 -94 14 -28 32 -54
40 -57 9 -4 16 -12 16 -18 0 -6 18 -52 40 -101 22 -50 40 -100 40 -111 0 -11
13 -41 29 -66 17 -27 35 -77 45 -122 20 -100 61 -164 117 -180 31 -10 45 -9
67 1 43 20 189 68 277 91 44 12 90 30 102 41 11 11 43 60 69 110 35 65 64 104
107 143 l59 53 -21 21 c-12 12 -21 27 -21 34 0 7 -11 29 -25 49 -14 21 -32 66
-41 100 -9 35 -22 70 -29 78 -7 8 -21 50 -30 94 -38 171 -133 293 -289 370
-83 41 -85 41 -222 20 -36 -6 -53 1 -170 62 -199 105 -250 129 -395 183 -171
63 -343 140 -443 197 -43 25 -106 55 -140 66 -33 11 -113 47 -176 80 -295 153
-250 123 -482 319 -62 52 -160 131 -217 174 -99 76 -151 129 -151 153 0 7 -7
12 -15 12 -8 0 -23 13 -33 28 -25 41 -76 97 -156 169 -19 18 -50 65 -69 105
-19 40 -47 86 -61 101 -16 17 -26 40 -26 57 0 39 50 95 114 127 61 30 150 113
177 165 15 30 35 46 104 80 241 122 557 414 597 552 6 22 17 48 23 56 17 20
52 132 64 204 6 33 11 157 11 276 0 238 5 271 65 390 18 36 35 82 39 103 4 20
11 37 16 37 12 0 24 49 45 174 27 161 59 226 122 252 19 8 77 17 131 21 85 5
112 12 217 54 82 33 127 57 142 76 13 16 32 39 43 52 37 45 17 141 -30 141
-22 0 -46 -14 -140 -81 -36 -25 -72 -48 -81 -51 -27 -10 -149 59 -149 84 0 6
-9 17 -20 26 -35 28 -37 112 -6 201 14 41 26 87 26 101 0 15 13 44 30 65 31
39 62 125 74 205 11 66 24 105 68 203 37 81 40 96 47 211 4 68 12 130 18 138
24 28 25 85 5 165 -11 43 -28 134 -37 203 -9 69 -26 152 -38 185 -18 52 -21
81 -20 213 2 187 26 379 53 430 11 20 20 46 20 58 0 53 32 122 85 182 68 78
84 109 92 173 3 28 12 53 19 56 7 3 20 27 30 55 18 56 68 120 228 291 l110
119 7 61 c8 91 -6 203 -39 309 -16 51 -33 113 -37 138 -14 84 -133 163 -190
126 -24 -16 -29 -32 -41 -125 -5 -46 -13 -60 -50 -97 -24 -24 -50 -44 -58 -44
-17 0 -76 65 -76 85 0 7 -7 20 -15 29 -9 8 -24 55 -35 104 -11 49 -33 118 -50
153 -16 35 -30 71 -30 80 0 9 -11 32 -24 51 -13 20 -29 53 -36 74 -7 22 -20
48 -30 59 -10 11 -25 43 -33 71 -8 28 -33 75 -56 105 -23 30 -49 74 -58 99 -9
25 -39 77 -68 115 -28 39 -63 90 -77 115 -14 25 -68 83 -119 130 -114 104
-274 290 -288 333 -5 18 -17 87 -26 155 -11 87 -22 132 -38 158 -69 113 -189
203 -319 239 -91 25 -230 45 -310 45 -43 0 -48 2 -48 23 0 12 -5 93 -10 180
l-9 158 -72 79 c-190 211 -288 261 -624 320 -206 35 -299 63 -330 96 -77 83
-340 95 -663 32 l-112 -21 -33 30 c-75 71 -133 84 -402 88 -121 2 -245 0 -276
-4z m396 -104 c12 -7 46 -31 76 -54 36 -28 66 -43 85 -43 16 0 59 -6 96 -14
58 -12 77 -12 125 -1 78 18 103 4 103 -58 0 -54 20 -82 76 -109 63 -29 119
-97 134 -161 7 -29 19 -64 26 -79 19 -36 36 -203 32 -308 -3 -77 -5 -85 -23
-85 -14 0 -24 13 -38 50 -10 28 -25 57 -32 65 -7 8 -19 56 -25 105 -10 72 -18
100 -44 140 -18 28 -45 73 -61 100 -36 63 -147 179 -201 211 -46 27 -183 52
-227 40 -55 -13 -23 -99 59 -158 52 -37 53 -55 2 -83 -36 -19 -38 -19 -86 -2
-54 20 -133 19 -139 0 -3 -7 18 -22 47 -34 51 -22 88 -67 74 -90 -10 -16 -69
-2 -154 37 -41 19 -80 32 -87 30 -18 -7 -35 -54 -28 -77 4 -11 17 -22 30 -25
13 -3 30 -12 36 -20 25 -30 -11 -44 -145 -59 -69 -8 -131 -17 -137 -21 -22
-13 10 -25 97 -34 203 -23 474 -94 474 -126 0 -7 -11 -21 -25 -30 -24 -15 -29
-15 -93 5 -106 33 -313 53 -327 31 -8 -13 39 -35 108 -51 32 -7 60 -15 62 -19
5 -8 -159 -50 -195 -50 -52 0 -170 -87 -170 -125 0 -22 31 -28 185 -33 217 -6
366 22 474 92 68 44 130 51 316 36 100 -8 147 -16 165 -28 14 -9 43 -25 65
-35 22 -10 47 -25 56 -33 21 -19 111 -29 172 -20 37 6 61 20 130 79 47 40 106
89 131 110 25 21 57 59 71 85 l24 47 -5 -55 c-5 -50 -4 -57 19 -78 32 -30 134
-45 244 -37 123 10 159 1 189 -46 27 -44 38 -46 89 -22 35 17 36 17 61 -10 30
-33 73 -35 135 -7 77 35 98 29 196 -55 169 -145 163 -139 163 -174 0 -48 16
-71 50 -71 16 0 36 -7 45 -17 16 -16 16 -28 0 -93 -6 -22 -1 -29 34 -48 38
-22 41 -26 41 -68 0 -57 11 -78 50 -94 33 -14 33 -16 9 -77 -12 -30 -11 -34
11 -59 38 -40 59 -48 132 -49 69 -2 113 -20 125 -51 11 -30 -12 -36 -81 -20
-84 20 -106 20 -134 1 -21 -15 -21 -17 -5 -41 19 -30 55 -49 108 -58 22 -4 72
-22 110 -41 l70 -33 -51 -1 c-106 -2 -98 -69 16 -120 25 -11 59 -21 75 -21 38
0 91 -41 82 -63 -5 -14 -12 -14 -64 -2 -115 28 -148 16 -123 -44 15 -36 38
-47 150 -66 116 -20 140 -29 140 -55 0 -31 -61 -30 -123 2 -44 22 -85 21 -100
-4 -18 -28 8 -46 113 -78 109 -34 163 -65 168 -98 4 -28 -6 -28 -64 3 -79 42
-217 30 -199 -17 8 -19 83 -53 140 -63 22 -4 49 -12 60 -18 19 -10 18 -12 -10
-18 -16 -4 -56 -7 -88 -8 -71 -1 -83 -19 -42 -61 33 -34 94 -56 184 -65 72 -7
121 -28 121 -50 0 -22 -71 -19 -159 7 -80 24 -95 21 -121 -25 -29 -51 20 -76
226 -116 115 -22 182 -47 168 -61 -6 -6 -35 -3 -82 10 -113 32 -152 26 -152
-21 0 -32 36 -61 100 -79 58 -17 67 -26 47 -48 -33 -36 -12 -73 52 -89 19 -5
36 -14 38 -20 6 -16 -63 -91 -100 -110 -28 -14 -32 -13 -58 6 -39 29 -75 26
-148 -10 -73 -36 -107 -75 -195 -219 l-64 -105 -12 -115 c-6 -63 -16 -135 -21
-159 -8 -35 -7 -47 6 -61 8 -9 22 -41 31 -71 9 -30 22 -61 29 -69 7 -8 18 -46
23 -83 7 -46 21 -84 41 -115 16 -26 33 -65 37 -87 3 -22 17 -67 30 -100 13
-33 30 -89 39 -124 9 -35 22 -73 29 -85 8 -11 21 -66 31 -120 10 -54 26 -113
36 -130 10 -17 36 -79 58 -137 22 -58 49 -121 61 -141 41 -70 63 -239 38 -293
-14 -32 -26 -35 -168 -38 l-115 -2 -13 -29 c-13 -25 -17 -27 -46 -20 -17 4
-49 8 -71 8 -36 1 -40 -2 -43 -25 -2 -18 4 -32 20 -45 34 -27 41 -43 28 -59
-27 -33 -111 -12 -281 69 -135 64 -283 116 -333 116 -45 0 -79 -22 -91 -60
-10 -32 25 -81 83 -116 57 -35 96 -44 192 -44 47 0 79 -7 115 -24 89 -41 90
-44 91 -232 1 -170 7 -194 45 -194 10 0 40 20 67 44 77 68 132 70 132 5 0 -45
17 -76 44 -83 35 -9 78 -75 78 -122 0 -49 -15 -61 -41 -35 -26 26 -45 26 -87
0 -46 -28 -92 -97 -105 -158 -6 -28 -15 -53 -20 -56 -5 -4 -2 -17 7 -30 26
-40 12 -55 -50 -55 -51 0 -59 -4 -117 -50 -83 -67 -108 -66 -73 1 14 28 14 32
0 48 -9 10 -16 19 -16 22 0 2 21 4 47 4 35 1 49 5 57 19 6 11 42 56 80 100 75
89 92 117 83 140 -9 23 -36 19 -87 -11 -40 -24 -56 -28 -135 -28 -106 -2 -234
-21 -255 -40 -8 -7 -31 -20 -50 -30 -19 -10 -61 -37 -93 -61 -64 -47 -130 -65
-173 -45 -19 8 -33 8 -59 -4 l-35 -14 6 39 c6 37 5 40 -17 40 -27 1 -137 -51
-350 -163 -76 -39 -77 -39 -120 -26 -42 13 -44 16 -49 59 l-5 45 -108 -3 c-68
-2 -113 0 -121 7 -17 15 -174 69 -238 82 -48 11 -51 10 -79 -17 -36 -35 -37
-54 -2 -89 35 -34 82 -58 210 -106 134 -50 245 -79 313 -80 71 -2 92 -11 149
-60 25 -23 64 -51 86 -62 36 -19 38 -22 17 -25 -28 -4 -39 -27 -22 -47 17 -20
54 -19 71 2 19 23 183 99 244 114 28 6 86 24 130 40 44 15 98 32 120 37 47 10
687 3 705 -8 29 -18 33 -146 5 -180 -6 -8 -18 -30 -25 -49 -16 -39 -73 -70
-130 -71 -19 0 -59 -11 -87 -25 -106 -49 -226 -58 -294 -21 -25 12 -66 26 -93
30 -27 4 -92 20 -145 35 -131 38 -204 53 -224 45 -54 -20 29 -90 141 -119 124
-32 117 -28 116 -71 -2 -42 8 -54 44 -54 12 0 22 -6 22 -14 0 -16 -53 -63 -99
-88 -24 -13 -32 -24 -29 -40 4 -29 52 -37 78 -13 39 35 170 71 170 46 0 -14
-42 -41 -195 -126 -214 -119 -255 -151 -255 -202 0 -63 92 -40 204 51 73 60
116 84 116 66 0 -12 -50 -59 -107 -102 -57 -42 -66 -58 -31 -58 29 0 160 51
173 67 25 30 115 53 209 53 109 0 184 -19 228 -59 29 -26 31 -32 39 -130 6
-76 14 -115 31 -149 33 -67 56 -64 81 11 19 59 31 70 42 38 7 -22 -5 -72 -34
-153 -16 -45 -18 -62 -10 -86 6 -17 9 -47 7 -69 l-3 -38 -48 3 c-62 4 -85 -11
-137 -87 -22 -33 -50 -63 -62 -66 -13 -4 -30 -13 -38 -20 -28 -23 -130 -55
-258 -80 -121 -25 -128 -27 -159 -63 -30 -35 -36 -37 -90 -37 -67 1 -157 38
-237 99 -38 30 -57 38 -90 38 -48 0 -158 -42 -201 -76 l-29 -24 37 -43 c21
-24 52 -63 70 -87 25 -34 42 -46 84 -58 84 -24 67 -38 -39 -31 -123 7 -268 59
-400 144 -21 13 -33 15 -55 7 -60 -21 -29 -75 71 -126 22 -11 54 -31 69 -44
16 -13 41 -27 55 -30 34 -8 72 -31 72 -44 0 -31 -155 4 -289 65 -101 45 -135
44 -139 -3 -4 -35 19 -72 45 -72 31 0 9 -19 -47 -39 -68 -25 -75 -42 -27 -68
l32 -18 -80 -5 -80 -5 0 -30 c0 -28 7 -33 95 -77 52 -26 106 -57 120 -69 l25
-21 -83 7 c-46 3 -111 12 -145 20 -34 8 -103 15 -153 15 -110 0 -227 28 -298
70 -28 17 -80 44 -116 60 -91 42 -100 48 -183 116 -52 42 -103 73 -173 102
-54 23 -121 61 -149 83 -27 22 -104 77 -170 121 -166 113 -298 211 -376 280
-37 32 -71 58 -76 58 -6 0 -18 10 -29 21 -28 32 -244 192 -307 228 -29 17 -62
40 -73 52 -10 12 -42 36 -70 54 -28 18 -84 61 -124 96 -39 35 -94 80 -120 99
-301 218 -531 412 -786 665 -174 173 -234 268 -254 400 -12 88 -13 192 -1 199
5 4 43 13 84 22 75 15 76 15 149 -12 94 -34 138 -41 149 -23 15 25 10 57 -16
87 -16 19 -25 42 -25 63 0 76 -115 189 -193 189 -29 0 -54 19 -59 45 -5 30
-29 29 -100 -4 -72 -34 -128 -39 -220 -20 -64 14 -148 48 -148 61 0 5 -13 14
-30 19 -16 6 -30 15 -30 19 0 5 -20 18 -44 30 -47 22 -120 96 -148 148 -9 17
-40 45 -67 63 -28 17 -51 35 -51 39 0 5 -17 29 -39 53 -21 25 -41 57 -45 71
-3 14 -15 30 -26 36 -11 6 -20 16 -20 22 0 16 -108 145 -140 168 -21 15 -32
37 -46 87 -9 38 -27 86 -40 108 -12 22 -25 54 -29 72 -3 17 -13 38 -22 45 -51
42 -63 138 -43 337 13 119 18 135 64 195 19 25 37 59 41 76 4 16 16 35 27 41
12 6 46 32 77 57 87 70 130 86 236 85 100 -1 293 -37 417 -79 89 -29 114 -54
174 -168 39 -73 107 -156 129 -156 18 0 65 58 65 80 0 30 23 42 48 24 19 -13
22 -24 22 -94 0 -108 18 -126 95 -94 30 12 69 15 193 12 l154 -3 29 35 c34 40
88 203 115 345 30 158 32 162 69 185 48 30 151 69 210 81 28 5 55 16 61 24 6
7 35 23 65 34 56 21 188 97 225 129 44 38 58 100 30 137 -13 19 -15 18 -55 -9
-23 -16 -43 -27 -46 -24 -3 2 16 28 41 58 24 29 51 65 59 81 31 58 9 97 -37
65 -12 -9 -30 -16 -39 -16 -21 0 -46 29 -51 60 -5 42 -44 53 -128 35 -39 -8
-83 -15 -98 -15 -30 0 -218 101 -242 130 -8 10 -24 20 -35 22 -21 3 -92 94
-137 174 -15 27 -37 60 -48 74 -19 23 -22 47 -30 220 -10 211 0 463 20 500 16
29 0 46 -28 29 -43 -27 -55 -67 -63 -208 -6 -91 -15 -154 -28 -190 l-19 -54
-7 117 c-8 128 1 274 17 294 6 7 14 53 18 101 6 72 13 96 34 127 14 21 26 45
26 53 0 8 11 33 24 55 32 55 41 106 23 130 -8 11 -19 16 -26 12 -17 -11 -107
-194 -131 -269 -12 -36 -30 -73 -42 -83 l-21 -19 7 79 c4 53 14 97 31 132 30
63 55 155 55 202 0 30 -2 33 -16 21 -53 -43 -129 -232 -145 -354 -4 -33 -15
-80 -24 -105 -16 -41 -17 -73 -10 -325 11 -404 11 -410 0 -415 -6 -3 -11 13
-13 35 -2 22 -8 45 -14 52 -26 32 -27 532 -2 754 11 97 -37 89 -52 -9 -4 -24
-15 -53 -25 -63 -11 -11 -19 -33 -19 -52 0 -18 -5 -38 -11 -44 -7 -7 -15 -88
-20 -205 -10 -224 -14 -253 -40 -286 -10 -13 -21 -39 -25 -57 -4 -25 -17 -40
-54 -64 -56 -36 -60 -37 -60 -12 0 10 -8 29 -19 42 -10 13 -22 46 -26 74 -4
27 -13 62 -21 77 -17 32 -57 46 -79 28 -12 -10 -15 -9 -15 8 0 11 -7 26 -16
33 -14 11 -18 10 -30 -6 -8 -10 -14 -24 -14 -29 0 -42 -33 -214 -43 -230 -8
-12 -17 -43 -20 -69 -4 -26 -12 -57 -18 -69 -10 -19 -12 -19 -27 -4 -14 13
-18 42 -20 149 -4 126 -2 136 28 227 34 104 51 230 31 230 -16 0 -59 -94 -70
-154 -5 -26 -15 -54 -24 -64 -8 -9 -20 -36 -26 -59 -14 -50 -26 -61 -40 -34
-17 30 -13 112 6 146 14 24 17 51 16 129 -1 55 -6 103 -11 108 -5 5 -38 8 -73
6 -68 -3 -73 -8 -99 -82 l-10 -28 -25 33 c-34 47 -65 106 -65 122 0 8 7 20 15
27 19 16 21 90 2 90 -7 0 -28 -16 -47 -35 -19 -19 -36 -35 -39 -35 -4 0 -14
14 -23 30 -9 17 -25 30 -34 30 -21 0 -74 -48 -74 -66 0 -7 -8 -21 -18 -31 -11
-10 -24 -43 -30 -73 -14 -71 -39 -130 -55 -130 -6 0 -30 12 -52 25 -50 31 -56
31 -88 -1 -18 -18 -30 -46 -38 -85 -6 -32 -15 -59 -20 -59 -4 0 -16 -24 -27
-52 -11 -30 -27 -54 -36 -56 -25 -5 -22 73 4 105 11 14 20 36 20 48 0 12 11
34 24 50 29 34 59 120 81 239 18 99 24 113 70 171 17 22 35 50 41 63 5 12 32
41 61 65 28 23 90 77 137 119 101 89 159 117 205 98 29 -11 61 -61 61 -93 0
-34 28 -46 93 -41 83 8 171 -9 209 -41 16 -14 40 -25 52 -25 12 0 37 -11 56
-25 19 -14 42 -25 51 -25 22 0 49 37 49 67 0 28 49 153 60 153 5 0 12 -9 15
-20 10 -30 22 -24 45 20 14 27 29 42 48 46 58 12 88 30 153 91 36 35 74 63 82
63 24 0 87 59 87 81 0 10 9 23 20 29 11 6 20 21 20 33 0 13 7 32 15 43 15 19
15 19 30 0 8 -11 15 -26 15 -33 0 -33 85 13 106 57 31 65 89 180 111 222 27
50 24 88 -5 88 -10 0 -34 11 -54 25 -36 24 -132 55 -173 55 -29 0 -65 28 -65
51 0 10 -5 19 -10 19 -17 0 -90 -40 -90 -49 0 -4 -22 -20 -49 -34 -27 -15 -54
-34 -61 -42 -9 -11 -32 -15 -79 -15 -57 0 -74 -4 -112 -28 -55 -36 -72 -55
-99 -112 -11 -25 -34 -67 -50 -95 -17 -27 -37 -72 -45 -100 -8 -27 -29 -70
-45 -95 -16 -25 -30 -55 -30 -67 0 -27 -19 -40 -31 -22 -13 20 -11 107 2 132
7 12 29 41 50 64 22 24 39 48 39 55 0 7 26 55 57 106 62 103 63 124 6 130 -31
3 -36 -1 -103 -80 -37 -44 -80 -57 -115 -34 -28 19 -31 44 -10 85 16 31 199
191 219 191 6 0 52 25 101 56 49 30 109 66 134 79 25 12 79 50 119 84 81 68
221 153 350 213 169 79 308 135 362 148 80 18 121 45 304 198 90 75 201 159
246 186 87 53 281 136 318 136 46 0 34 -12 -188 -191 -148 -120 -160 -130
-160 -144 0 -26 42 -16 111 25 37 22 71 40 76 40 5 0 41 20 81 45 39 25 72 42
72 39 0 -4 -29 -40 -65 -81 -64 -73 -83 -109 -71 -138 9 -24 45 -18 115 21 89
49 239 149 278 186 29 28 31 35 30 89 -2 50 1 62 23 83 14 14 48 33 75 43 36
14 54 27 64 48 7 17 25 42 38 57 14 14 22 31 19 37 -11 17 -93 13 -183 -9
-116 -28 -151 -44 -205 -98 -54 -52 -65 -39 -19 24 55 77 110 113 205 133 36
8 67 22 80 36 32 33 60 46 155 65 103 22 324 26 356 7z m1095 -332 c10 -26 -2
-75 -18 -75 -25 0 -45 73 -25 93 14 14 34 6 43 -18z m-1840 -34 c0 -21 -63
-81 -85 -81 -25 0 -17 20 24 61 43 43 61 49 61 20z m80 -100 c0 -16 -31 -42
-41 -35 -6 4 -3 14 7 25 18 20 34 25 34 10z m1037 -36 c37 -7 47 -29 37 -80
-9 -50 -38 -67 -110 -63 -48 2 -59 6 -62 22 -4 17 0 18 38 12 40 -6 70 4 70
25 0 5 -14 22 -31 40 -24 25 -28 34 -18 45 6 8 19 12 28 10 9 -2 30 -7 48 -11z
m963 -69 c0 -13 9 -35 21 -50 36 -46 -9 -66 -50 -22 -19 20 -22 31 -17 60 5
27 12 36 26 36 14 0 20 -7 20 -24z m-1305 -96 c36 -40 1 -62 -64 -39 -36 13
-40 32 -8 47 33 16 52 14 72 -8z m894 -51 c25 -72 5 -131 -34 -99 -15 13 -21
84 -9 114 10 26 31 18 43 -15z m-641 -82 c2 -10 -3 -17 -13 -17 -31 0 -55 20
-55 46 l0 26 32 -19 c18 -11 34 -27 36 -36z m-250 -163 c24 -16 21 -34 -5 -34
-24 0 -103 40 -103 52 0 13 79 0 108 -18z m-2352 -812 c6 -29 4 -32 -19 -32
-59 0 -75 32 -36 71 18 18 23 19 35 7 7 -7 16 -28 20 -46z m-638 6 c20 -20 14
-40 -10 -36 -15 2 -24 11 -26 26 -4 24 16 30 36 10z m-138 -437 c0 -11 -29
-35 -35 -29 -10 9 7 38 21 38 8 0 14 -4 14 -9z m-420 -586 c0 -14 -6 -25 -13
-25 -21 0 -27 11 -16 31 14 27 29 23 29 -6z m66 -171 c7 -27 -11 -150 -28
-194 l-10 -25 -9 23 c-4 12 -13 22 -18 22 -18 0 -19 29 -2 52 10 13 22 43 25
68 10 62 16 80 26 80 6 0 13 -12 16 -26z m127 -28 c7 -17 -20 -137 -33 -150
-13 -13 -13 105 0 138 11 29 25 34 33 12z m-516 -168 c-2 -13 -4 -5 -4 17 -1
22 1 32 4 23 2 -10 2 -28 0 -40z m341 -115 c-5 -25 -28 -28 -28 -4 0 12 6 21
16 21 9 0 14 -7 12 -17z m-338 -170 c0 -57 -4 -103 -8 -103 -15 0 -42 99 -42
152 0 27 5 59 11 70 11 21 12 21 25 3 10 -13 14 -50 14 -122z m1355 11 c6 -21
20 -55 30 -74 10 -19 22 -59 26 -88 5 -33 21 -76 43 -113 20 -33 36 -66 36
-73 0 -7 9 -21 20 -31 22 -20 28 -79 9 -90 -15 -10 -52 28 -84 87 -15 28 -36
59 -46 69 -11 11 -19 26 -19 34 0 8 -9 31 -19 52 -20 40 -46 229 -35 258 10
25 26 12 39 -31z m335 15 c0 -10 -4 -19 -10 -19 -5 0 -10 12 -10 26 0 14 4 23
10 19 6 -3 10 -15 10 -26z m-550 -131 c6 -47 10 -99 8 -114 l-4 -29 -19 40
c-29 64 -34 257 -5 205 5 -9 14 -55 20 -102z m-221 -80 c-20 -38 -23 -3 -8 91
l14 86 3 -77 c2 -47 -2 -87 -9 -100z m849 -17 c12 -33 1 -57 -21 -48 -17 7
-33 69 -22 87 10 15 31 -4 43 -39z m-1209 3 c33 -38 36 -57 8 -62 -10 -2 -20
6 -26 20 -5 13 -16 30 -25 37 -9 7 -16 20 -16 27 0 25 27 15 59 -22z m-199
-82 c27 -138 32 -154 86 -224 52 -69 69 -118 40 -118 -41 0 -110 101 -122 181
-4 24 -13 51 -21 60 -26 31 -30 180 -3 164 5 -3 14 -31 20 -63z m425 -29 c9
-32 25 -78 37 -102 11 -24 23 -63 26 -87 4 -41 3 -44 -20 -44 -14 0 -33 9 -43
20 -14 15 -21 17 -32 9 -21 -18 -15 -53 13 -78 35 -30 26 -46 -27 -46 -41 0
-45 2 -64 40 -11 22 -26 45 -34 51 -23 18 -2 36 38 32 34 -3 36 -1 39 29 2 22
-3 38 -18 53 -21 21 -22 21 -41 4 -14 -13 -23 -14 -30 -7 -18 18 -1 33 77 69
41 18 74 37 74 42 0 5 -9 17 -20 27 -23 21 -26 45 -5 45 9 0 20 -21 30 -57z
m6460 7 c9 -15 -14 -91 -41 -132 -17 -26 -24 -52 -24 -84 0 -78 -63 -151 -123
-142 -37 5 -31 39 18 98 25 30 50 71 55 91 6 20 16 42 24 48 8 6 19 33 26 59
6 26 16 52 22 59 12 15 34 17 43 3z m123 -73 c5 -26 -25 -67 -48 -67 -23 0
-26 23 -10 65 7 19 16 26 32 23 13 -2 24 -11 26 -21z m109 -54 c-7 -41 -20
-59 -36 -49 -16 10 -14 38 5 64 24 34 38 27 31 -15z m-487 -108 c0 -9 -9 -33
-19 -54 -42 -81 -81 -79 -57 4 8 26 21 52 28 56 21 14 48 10 48 -6z m-5325
-95 c0 -13 -5 -25 -12 -27 -16 -6 -47 43 -39 63 6 15 9 15 29 1 12 -8 22 -25
22 -37z m5593 8 c3 -27 -32 -108 -47 -108 -31 0 -48 93 -22 124 8 10 25 16 40
14 20 -2 27 -9 29 -30z m-4912 -28 c8 0 14 -6 14 -14 0 -15 -61 -26 -151 -26
-58 0 -76 11 -41 25 22 10 133 23 150 19 8 -2 20 -4 28 -4z m-796 -111 c15
-26 7 -34 -19 -19 -22 11 -26 22 -14 33 11 12 22 8 33 -14z m585 -149 c0 -16
-6 -26 -18 -28 -19 -4 -32 20 -23 44 9 25 41 13 41 -16z m5127 -15 c12 -14 26
-25 31 -25 5 0 20 -11 33 -25 13 -14 32 -25 44 -25 37 0 21 -28 -32 -57 -36
-19 -58 -39 -70 -63 -9 -19 -24 -42 -32 -51 -9 -9 -22 -36 -30 -61 -22 -73
-116 -198 -150 -198 -34 0 -18 55 35 121 29 35 62 87 75 114 24 51 32 115 14
115 -6 0 -34 -25 -64 -55 -41 -43 -60 -55 -84 -55 -24 0 -32 6 -40 28 -5 15
-6 37 -1 50 7 18 16 22 48 22 52 0 106 44 115 95 4 19 11 35 17 35 6 0 15 14
20 30 13 37 41 39 71 5z m-6215 -32 c-3 -10 -5 -4 -5 12 0 17 2 24 5 18 2 -7
2 -21 0 -30z m523 13 c0 -8 -4 -18 -10 -21 -5 -3 -10 3 -10 14 0 12 5 21 10
21 6 0 10 -6 10 -14z m-240 -417 c0 -11 -4 -18 -10 -14 -5 3 -7 12 -3 20 7 21
13 19 13 -6z m5897 -70 c-4 -49 -11 -67 -34 -91 -34 -36 -80 -61 -94 -52 -29
17 28 122 83 153 15 9 31 24 34 34 11 35 17 15 11 -44z m41 -161 c5 -24 -54
-86 -89 -93 -57 -13 -57 10 -1 66 51 51 83 61 90 27z m92 -89 c0 -44 -72 -139
-121 -159 -29 -13 -33 -12 -50 9 -11 13 -19 30 -19 38 0 21 65 80 120 108 56
30 70 31 70 4z m59 -115 c27 -34 26 -46 -1 -72 -55 -50 -188 -94 -188 -61 0
14 144 159 158 159 6 0 20 -12 31 -26z m11 -188 c0 -16 -14 -36 -41 -59 -47
-41 -74 -50 -89 -31 -19 22 10 66 60 92 56 28 70 28 70 -2z m-16 -175 c-18
-45 -38 -61 -78 -61 -18 0 -24 4 -20 15 7 17 105 98 111 91 2 -2 -4 -22 -13
-45z m-8 -143 c9 -15 -65 -82 -107 -97 -69 -24 -36 49 41 90 41 21 56 23 66 7z
m-109 -203 c-7 -16 -37 -21 -37 -5 0 10 32 31 39 25 2 -2 1 -11 -2 -20z m-89
-37 c-3 -7 -16 -20 -31 -28 -22 -12 -29 -12 -39 -2 -11 11 -9 16 6 28 25 18
69 19 64 2z m51 -122 c-12 -12 -200 -87 -207 -82 -5 3 -16 -4 -25 -15 -27 -31
-127 -23 -127 11 0 21 52 68 83 75 12 3 63 6 112 8 50 2 108 4 129 5 22 1 37
0 35 -2z m-44 -165 c-76 -48 -99 -56 -114 -37 -10 12 -9 18 8 33 26 22 85 41
131 42 l35 1 -60 -39z m-185 -55 c0 -19 -17 -29 -37 -22 -12 5 -13 9 -3 21 16
19 40 19 40 1z m-40 -866 c24 -24 26 -53 4 -71 -13 -11 -20 -11 -41 1 -14 8
-32 25 -40 36 -12 19 -12 24 2 38 22 22 51 20 75 -4z m-84 -135 c30 -29 35
-37 24 -50 -7 -8 -17 -15 -22 -15 -18 0 -68 58 -68 79 0 31 24 26 66 -14z
m-674 -180 c2 -13 -72 -55 -98 -55 -27 0 -38 25 -23 51 9 17 19 19 65 17 30
-2 55 -7 56 -13z m520 -14 c46 -29 73 -63 61 -75 -11 -11 -63 -6 -92 9 -30 15
-81 70 -81 86 0 20 68 8 112 -20z m-192 -80 c0 -14 -28 -21 -85 -21 -51 0 -73
9 -58 24 10 10 143 7 143 -3z m-50 -131 c0 -22 -189 -40 -219 -21 -23 15 8 25
94 31 86 5 125 2 125 -10z m209 -66 c18 -14 36 -35 42 -45 16 -31 -33 -24 -70
10 -57 53 -31 85 28 35z m-568 -35 c-13 -11 -26 -17 -29 -14 -7 6 29 34 43 34
6 0 -1 -9 -14 -20z m-581 -1049 c14 -9 58 -34 98 -55 63 -34 88 -55 65 -55
-101 3 -214 45 -248 92 -19 29 -19 36 3 40 24 6 53 -2 82 -22z m375 -98 c52
-10 33 -22 -45 -29 -63 -6 -118 3 -104 17 18 17 87 23 149 12z m-197 -121 c10
-6 10 -10 -3 -21 -12 -10 -24 -11 -55 -1 -22 6 -40 16 -40 21 0 12 80 13 98 1z
m-644 -152 c31 -24 23 -43 -15 -37 -18 2 -25 10 -27 31 -4 33 6 34 42 6z m361
-68 c26 -6 22 -8 -32 -15 -62 -8 -135 -1 -163 15 -18 10 151 10 195 0z m-2966
-1007 c3 -16 1 -17 -13 -5 -19 16 -21 34 -3 29 6 -3 14 -13 16 -24z m4190
-283 c10 -31 10 -46 2 -54 -8 -8 -15 -1 -26 26 -8 20 -15 46 -15 58 0 34 24
16 39 -30z m61 -158 c0 -18 -4 -33 -9 -33 -14 0 -34 68 -26 88 6 16 8 15 21
-2 8 -11 14 -35 14 -53z m168 -87 c5 -17 8 -33 6 -35 -7 -8 -43 44 -44 61 0
29 29 9 38 -26z m-4101 0 l28 -25 -38 -15 c-51 -22 -152 -32 -162 -16 -5 8
-15 4 -35 -15 -16 -15 -36 -25 -47 -23 -26 5 -23 41 6 53 13 6 49 22 80 37 73
35 131 36 168 4z m295 -163 c19 -17 25 -53 9 -53 -12 0 -41 40 -41 57 0 17 10
16 32 -4z m4672 -57 c35 -33 48 -76 23 -76 -7 0 -18 9 -25 20 -7 11 -19 20
-27 20 -16 0 -35 30 -35 54 0 26 26 18 64 -18z m-4939 -75 c8 -13 -24 -29 -75
-37 -34 -6 -42 -4 -38 7 8 25 101 49 113 30z m4374 -25 c25 -26 39 -90 22
-100 -10 -6 -39 41 -61 99 -13 33 8 34 39 1z m327 -83 c-4 -4 -11 -1 -16 7
-16 25 -11 35 7 17 9 -9 13 -20 9 -24z m691 12 c8 -22 -6 -33 -17 -15 -13 20
-12 30 0 30 6 0 13 -7 17 -15z m-1094 -97 c25 -51 48 -108 51 -126 3 -19 15
-47 26 -63 12 -16 25 -56 31 -88 5 -33 18 -75 29 -93 43 -74 98 -398 107 -639
4 -115 3 -158 -6 -163 -17 -11 -39 11 -47 47 -3 18 -13 44 -20 60 -8 15 -23
91 -34 168 -11 78 -25 148 -30 155 -6 7 -15 54 -20 106 -14 138 -40 289 -55
321 -8 15 -21 65 -30 110 -9 45 -23 92 -31 105 -23 36 -38 192 -19 192 2 0 24
-42 48 -92z m-4298 62 c3 -5 -3 -10 -14 -10 -12 0 -21 5 -21 10 0 6 6 10 14
10 8 0 18 -4 21 -10z m5770 -38 c13 -20 27 -53 30 -72 l6 -35 -45 48 c-43 46
-55 74 -39 90 13 13 23 7 48 -31z m-1025 2 c6 -14 23 -45 39 -68 50 -72 52
-135 3 -83 -26 28 -82 136 -82 160 0 26 29 20 40 -9z m-796 -55 c20 -29 31
-65 41 -131 8 -57 21 -101 33 -117 12 -17 24 -59 31 -116 7 -50 22 -129 32
-176 20 -85 24 -225 6 -154 -5 17 -26 89 -48 160 -21 72 -44 157 -50 189 -6
33 -17 69 -24 80 -8 12 -21 73 -30 136 -8 63 -17 127 -20 143 -2 15 -3 27 -1
27 2 0 15 -18 30 -41z m1371 -14 c17 -25 45 -52 63 -60 25 -12 32 -22 32 -44
0 -15 18 -57 40 -94 22 -36 40 -70 40 -76 0 -5 10 -18 23 -28 13 -10 30 -30
38 -44 8 -15 22 -40 31 -56 18 -32 38 -136 37 -188 -1 -30 -1 -30 -8 -4 -5 14
-24 48 -44 75 -35 49 -97 169 -97 189 0 6 -19 33 -41 60 -23 28 -48 66 -57 85
-8 19 -30 52 -48 73 -21 23 -34 47 -34 65 0 15 -9 40 -19 56 -21 31 -19 49 2
40 7 -2 26 -25 42 -49z m-860 20 c3 -14 7 -37 10 -51 3 -14 15 -38 25 -53 11
-14 29 -66 40 -115 11 -50 25 -95 31 -102 6 -7 19 -60 29 -119 11 -59 26 -128
34 -154 8 -26 12 -59 9 -73 -3 -13 2 -74 11 -134 23 -163 28 -246 19 -272 -18
-48 -33 5 -48 173 -18 191 -20 203 -45 265 -10 25 -21 74 -24 110 -10 97 -26
172 -42 197 -7 11 -21 65 -30 120 -9 54 -25 114 -35 133 -20 36 -23 58 -13 84
9 24 23 19 29 -9z m679 -1 c19 -19 39 -54 31 -54 -11 0 -75 52 -75 61 0 15 27
10 44 -7z m-4856 -56 c-6 -18 -28 -21 -28 -4 0 9 7 16 16 16 9 0 14 -5 12 -12z
m4966 -83 c6 -11 21 -33 34 -48 12 -16 22 -35 22 -43 0 -8 11 -25 24 -37 13
-13 28 -45 36 -75 7 -29 22 -65 35 -80 23 -28 117 -219 141 -286 16 -45 18
-114 4 -136 -15 -22 -43 18 -81 115 -17 44 -41 98 -54 120 -12 22 -31 69 -40
105 -10 36 -24 72 -31 80 -7 8 -21 38 -31 65 -11 28 -32 68 -46 89 -15 21 -27
45 -27 52 0 8 -5 14 -10 14 -15 0 -32 49 -24 72 7 24 33 20 48 -7z m328 -2 c8
-10 20 -32 27 -50 7 -17 21 -39 32 -49 10 -9 19 -27 19 -38 0 -12 16 -46 35
-76 19 -30 35 -59 35 -65 -1 -28 -14 -55 -27 -55 -23 0 -76 60 -93 105 -11 28
-21 39 -33 37 -23 -4 -21 11 3 33 23 21 26 57 7 77 -21 21 -37 54 -37 77 0 26
12 27 32 4z m316 -45 c14 -14 16 -94 2 -103 -12 -7 -40 47 -40 78 0 36 16 47
38 25z m49 -130 c-3 -7 -5 -2 -5 12 0 14 2 19 5 13 2 -7 2 -19 0 -25z m-1107
-118 c13 -31 9 -47 -8 -36 -6 3 -15 19 -20 36 -15 42 11 41 28 0z m1061 -90
c13 -44 7 -59 -15 -41 -27 23 -32 102 -6 86 5 -3 15 -24 21 -45z m-3817 -6
c19 -19 20 -25 3 -48 -8 -11 -23 -17 -38 -14 -31 4 -39 46 -13 65 23 17 29 16
48 -3z m3746 -159 c16 -31 27 -62 24 -70 -10 -24 -44 -18 -54 11 -6 14 -17 32
-25 40 -15 16 -20 69 -9 99 6 14 8 13 21 -4 7 -12 27 -46 43 -76z"/>
<path d="M3434 11825 c-23 -14 -44 -32 -48 -40 -3 -8 -11 -15 -19 -15 -7 0
-50 -18 -96 -40 -46 -22 -105 -47 -131 -56 -78 -25 -128 -94 -94 -129 22 -22
49 -14 121 35 51 35 68 42 140 50 119 13 355 116 361 157 3 18 -3 23 -35 28
-21 3 -58 12 -83 20 -60 20 -68 19 -116 -10z"/>
<path d="M4033 11544 c-21 -22 -59 -78 -86 -125 -54 -96 -74 -125 -83 -117 -8
9 14 87 43 151 20 43 24 60 15 69 -15 15 -41 -8 -95 -85 -27 -39 -56 -66 -89
-84 -54 -30 -89 -78 -108 -153 -7 -25 -18 -52 -26 -61 -8 -8 -17 -44 -20 -80
-4 -35 -13 -76 -20 -90 -7 -14 -22 -95 -34 -180 -12 -85 -26 -173 -32 -197 -9
-38 -8 -46 15 -81 25 -38 61 -60 75 -46 4 3 5 47 4 96 -3 70 0 96 13 115 21
32 30 25 50 -36 22 -65 59 -88 115 -71 44 13 50 27 50 121 0 140 46 373 91
464 16 34 29 66 29 72 0 6 7 17 15 24 8 7 22 36 31 66 8 29 35 83 60 121 54
82 62 109 41 131 -15 14 -20 12 -54 -24z m-173 -318 c0 -20 -8 -40 -20 -51
-11 -10 -20 -28 -20 -40 0 -29 -24 -49 -44 -38 -13 7 -11 18 14 76 32 76 48
100 61 91 5 -3 9 -20 9 -38z"/>
<path d="M4368 11500 c-32 -17 -69 -46 -85 -67 -15 -21 -47 -61 -70 -89 -24
-28 -48 -65 -54 -83 -6 -17 -15 -31 -20 -31 -34 0 -138 -324 -139 -431 0 -21
-9 -47 -20 -62 -26 -33 -26 -95 1 -147 17 -33 20 -52 16 -92 -4 -28 -13 -58
-21 -67 -8 -9 -29 -63 -46 -121 -48 -156 -85 -227 -129 -249 -20 -11 -56 -36
-81 -58 -25 -21 -57 -46 -72 -55 -17 -11 -47 -60 -88 -142 -34 -68 -71 -133
-82 -143 -23 -20 -81 -133 -92 -177 -4 -15 -13 -34 -20 -42 -8 -7 -24 -55 -36
-106 -28 -113 -37 -133 -54 -119 -21 18 -63 113 -70 161 -4 24 -12 50 -18 57
-6 7 -17 71 -25 141 -15 139 -32 180 -54 126 -16 -42 -4 -310 16 -341 8 -12
26 -58 40 -100 13 -43 40 -100 59 -128 19 -27 47 -72 62 -100 14 -27 31 -52
35 -53 5 -2 33 -21 61 -43 59 -44 89 -48 118 -19 26 26 28 114 4 141 -28 31
-8 41 75 38 l76 -3 -3 29 c-2 17 -15 59 -29 94 -40 100 -53 288 -23 326 22 27
95 177 126 258 47 122 78 168 174 255 152 139 184 214 225 530 8 68 22 136 29
150 8 15 18 63 24 108 13 94 45 187 78 227 13 16 24 37 24 48 0 29 61 148 85
167 12 10 27 32 33 50 6 19 23 47 36 63 26 31 42 88 32 114 -8 22 -34 18 -98
-15z"/>
<path d="M3410 11112 c-71 -72 -109 -148 -121 -243 -5 -41 -17 -88 -25 -104
-21 -40 -15 -80 11 -80 11 0 24 10 30 23 5 12 15 22 22 22 13 0 19 18 26 88 3
23 11 50 18 58 11 14 13 14 22 -1 6 -11 3 -28 -9 -53 -20 -43 -24 -210 -5
-278 12 -44 53 -90 70 -79 17 10 14 140 -4 155 -19 16 -20 103 -1 119 7 6 17
41 21 77 4 35 20 102 36 147 17 48 29 103 29 133 0 93 -40 98 -120 16z"/>
<path d="M6020 9559 c-25 -12 -72 -29 -105 -39 -33 -10 -73 -25 -90 -34 -16
-9 -51 -16 -76 -16 -47 0 -163 -53 -311 -141 -31 -19 -84 -49 -117 -68 -33
-19 -102 -72 -153 -118 -66 -59 -117 -95 -176 -124 -69 -33 -91 -51 -138 -107
-31 -37 -65 -86 -75 -109 -11 -23 -24 -43 -30 -45 -17 -6 9 -43 40 -60 32 -17
110 -14 150 7 18 9 49 32 70 51 45 39 98 64 140 64 23 0 34 7 45 28 17 32 74
86 136 128 81 56 391 174 454 174 12 0 67 27 122 60 54 33 109 60 121 60 13 0
30 -12 42 -29 11 -16 42 -39 68 -51 66 -30 73 -42 73 -124 -1 -93 -13 -154
-35 -170 -9 -7 -16 -21 -14 -31 3 -16 18 -21 81 -30 42 -6 80 -14 85 -19 72
-73 280 -264 299 -274 13 -7 24 -17 24 -22 0 -5 18 -19 41 -30 22 -12 49 -36
60 -55 23 -39 169 -155 196 -155 22 0 43 44 43 90 0 27 8 59 20 80 11 19 27
51 36 70 34 80 52 104 189 259 58 65 69 82 94 144 6 15 20 31 31 35 11 4 28
20 38 34 9 15 37 52 61 83 24 30 41 58 38 61 -3 3 -72 14 -153 25 -82 10 -164
24 -184 31 -22 8 -97 13 -205 13 l-170 0 -68 33 c-49 24 -77 46 -97 75 -16 23
-39 51 -50 62 -11 12 -20 26 -20 32 0 20 -51 73 -89 92 -44 23 -89 36 -210 61
-118 25 -174 25 -231 -1z m630 -509 c22 -22 40 -48 40 -57 -1 -16 -2 -16 -15
1 -23 30 -64 11 -100 -46 -21 -34 -36 -47 -50 -45 -24 2 -22 30 5 68 11 15 22
40 26 55 18 76 37 81 94 24z m-222 -77 c-2 -10 -14 -19 -26 -21 -21 -3 -22 -1
-12 17 13 26 43 28 38 4z m321 -139 c-31 -32 -59 -44 -59 -25 0 5 19 26 42 47
51 46 66 28 17 -22z m61 -212 c0 -14 -24 -32 -42 -32 -16 0 -17 3 -8 20 10 19
50 29 50 12z m133 -105 c-11 -17 -27 -33 -36 -35 -14 -3 -10 7 15 44 34 51 52
44 21 -9z"/>
<path d="M6067 9060 c-26 -31 -28 -35 -46 -106 -6 -23 -18 -47 -25 -53 -12
-10 -16 -4 -21 36 -8 63 -21 93 -39 93 -21 0 -36 -32 -36 -74 0 -25 -6 -38
-20 -46 -13 -7 -20 -21 -20 -38 0 -49 -37 -67 -71 -36 -24 22 -46 12 -54 -24
-15 -72 -108 -150 -215 -182 -36 -11 -81 -31 -100 -45 -18 -14 -40 -25 -47
-25 -7 0 -27 -13 -45 -29 -18 -15 -47 -36 -65 -44 -17 -9 -40 -27 -50 -39 -10
-13 -32 -30 -48 -38 -17 -8 -37 -30 -45 -47 -14 -31 -17 -33 -74 -33 -62 0
-126 -28 -126 -56 0 -21 54 -44 104 -44 90 0 151 33 266 145 110 108 134 125
172 125 39 0 140 54 189 101 25 24 77 60 115 80 288 151 287 150 278 185 -5
19 -1 24 20 30 17 4 28 15 32 33 3 14 15 45 25 68 37 79 -2 125 -54 63z"/>
<path d="M6112 8590 c-107 -23 -433 -187 -540 -273 -26 -20 -66 -49 -90 -65
-24 -15 -57 -36 -74 -47 -17 -11 -40 -32 -51 -47 -17 -23 -18 -29 -7 -44 33
-39 126 0 254 107 59 48 76 47 150 -12 83 -66 308 -159 385 -159 48 0 211 121
211 157 0 7 8 20 18 30 10 10 27 38 36 63 24 61 33 70 72 70 27 0 46 -11 94
-55 62 -57 77 -64 98 -43 33 33 1 100 -102 217 -31 36 -56 68 -56 72 0 27
-306 49 -398 29z m-78 -306 c8 -21 -11 -45 -30 -37 -14 5 -19 34 -7 46 12 12
31 7 37 -9z"/>
<path d="M6494 8169 c-66 -40 -138 -85 -162 -101 l-44 -30 36 -24 c20 -14 43
-40 51 -59 10 -26 20 -35 38 -35 33 0 116 44 161 84 36 33 37 37 31 80 -6 35
-3 49 9 61 17 17 23 95 7 95 -4 0 -62 -32 -127 -71z m16 -104 c0 -16 -34 -38
-43 -28 -10 9 12 43 28 43 8 0 15 -7 15 -15z"/>
<path d="M6766 8131 c-23 -43 -20 -61 8 -61 29 0 46 20 49 57 2 22 -3 29 -20
31 -16 2 -26 -5 -37 -27z"/>
<path d="M5176 8084 c-12 -12 -13 -20 -6 -35 19 -35 150 -22 150 16 0 35 -114
50 -144 19z"/>
<path d="M6601 7948 c-34 -29 -74 -61 -89 -71 -43 -29 -194 -119 -234 -140
-33 -16 -38 -24 -38 -53 l0 -35 65 7 c52 5 65 4 65 -7 0 -25 -14 -38 -75 -70
-121 -63 -125 -95 -11 -85 39 3 85 9 101 12 l30 5 -27 -24 c-15 -14 -60 -43
-102 -66 -92 -51 -126 -89 -126 -140 0 -46 14 -61 57 -61 28 0 34 5 52 44 14
32 30 50 58 65 39 19 112 91 131 127 5 10 12 35 16 54 8 49 51 97 150 171 47
34 92 77 102 95 17 31 17 37 1 101 -9 37 -18 79 -19 93 -5 44 -39 37 -107 -22z
m5 -147 c-40 -41 -101 -79 -111 -69 -8 8 5 38 17 38 5 0 30 16 55 35 63 48 88
46 39 -4z m-136 -96 c0 -8 -7 -15 -15 -15 -16 0 -20 12 -8 23 11 12 23 8 23
-8z"/>
<path d="M1630 7926 c-57 -22 -173 -82 -199 -103 -29 -24 -23 -53 12 -53 13 0
44 13 69 30 113 75 275 54 371 -48 62 -65 64 -152 8 -241 -36 -56 -99 -210
-107 -262 -7 -43 7 -77 57 -139 19 -23 43 -53 54 -67 17 -20 35 -27 97 -36 43
-6 80 -8 84 -5 10 11 -26 61 -77 105 l-48 41 39 75 c21 41 60 108 87 148 73
108 83 132 83 192 0 84 10 117 37 128 23 8 23 10 8 39 -29 56 -156 144 -261
181 -76 27 -261 36 -314 15z"/>
<path d="M1413 7614 c-7 -3 -17 -21 -23 -40 -6 -19 -18 -34 -26 -34 -22 0 -17
-38 10 -73 13 -18 39 -61 59 -97 57 -103 89 -129 117 -95 16 19 7 59 -37 165
-20 47 -40 101 -45 120 -15 53 -27 65 -55 54z"/>
<path d="M2251 7428 c-4 -13 -11 -59 -15 -102 -4 -44 -14 -92 -22 -107 -19
-37 -18 -84 2 -104 9 -9 19 -37 22 -63 6 -61 16 -72 63 -72 48 0 65 24 44 61
-31 53 -35 76 -45 231 -6 88 -13 164 -16 169 -9 16 -24 10 -33 -13z"/>
<path d="M7500 7413 c-41 -15 -51 -62 -20 -93 27 -27 100 -28 123 -2 21 23 22
66 1 86 -15 16 -72 20 -104 9z"/>
<path d="M7289 7288 c-23 -18 -47 -42 -53 -53 -6 -11 -25 -42 -43 -70 -18 -27
-38 -66 -44 -85 -7 -19 -18 -42 -24 -50 -17 -19 -45 -116 -45 -152 0 -35 76
-118 108 -118 33 0 39 42 12 85 -20 33 -21 40 -10 83 21 79 96 228 144 288 48
58 57 88 30 98 -25 10 -30 8 -75 -26z"/>
<path d="M1587 7113 c17 -116 80 -183 471 -506 l107 -89 28 34 c16 18 37 50
48 71 18 34 18 39 4 67 -24 47 -93 82 -246 124 -66 18 -223 119 -260 168 -14
18 -33 47 -42 64 -16 32 -90 104 -106 104 -6 0 -7 -17 -4 -37z"/>
<path d="M7460 6375 c-14 -8 -37 -14 -51 -15 -31 0 -378 -170 -398 -194 -8
-10 -35 -28 -60 -41 -62 -31 -218 -169 -237 -208 -17 -37 -6 -87 20 -87 8 0
69 52 136 116 169 160 212 185 203 116 -4 -28 -1 -42 12 -52 15 -13 20 -11 44
18 33 41 46 40 57 0 8 -28 15 -34 44 -36 47 -5 115 16 143 44 13 13 59 38 103
57 179 75 347 218 306 259 -34 34 -273 51 -322 23z"/>
<path d="M2817 5843 c-9 -15 21 -51 56 -69 18 -9 45 -28 61 -41 20 -17 38 -23
60 -21 61 6 37 76 -37 108 -51 22 -132 35 -140 23z"/>
<path d="M2886 5677 c-31 -23 -15 -61 32 -75 22 -7 48 -12 58 -12 38 0 63 -28
69 -78 10 -65 28 -90 71 -98 26 -5 41 -15 53 -36 30 -55 49 -74 108 -106 132
-73 159 -91 178 -120 23 -36 50 -49 125 -61 38 -6 59 -15 68 -30 18 -26 52
-28 52 -3 0 21 -184 202 -226 221 -80 37 -99 48 -140 84 -24 21 -44 46 -44 55
0 29 -87 101 -130 108 -45 7 -46 9 -25 30 22 23 18 43 -14 73 -50 47 -197 77
-235 48z"/>
<path d="M7103 5484 c-17 -7 -17 -39 0 -52 7 -6 33 -16 57 -21 66 -15 154 -47
184 -66 35 -23 96 -13 96 15 0 47 -279 150 -337 124z"/>
<path d="M4050 3725 c-6 -8 -9 -19 -5 -25 10 -16 42 -12 49 6 12 32 -21 47
-44 19z"/>
<path d="M6387 2792 c-9 -10 -23 -39 -31 -64 -7 -25 -22 -54 -33 -65 -17 -17
-22 -40 -28 -124 -4 -60 -13 -113 -21 -126 -19 -30 -18 -97 1 -113 21 -17 21
-162 1 -179 -26 -21 -37 -110 -36 -288 1 -117 -2 -179 -10 -188 -8 -10 -8 -20
3 -42 8 -15 22 -63 32 -105 9 -43 25 -88 35 -100 29 -38 78 -142 91 -194 7
-27 23 -65 35 -84 13 -19 30 -69 39 -110 8 -41 22 -91 29 -110 9 -20 19 -102
25 -190 12 -172 29 -245 65 -279 13 -13 27 -34 30 -47 4 -13 11 -24 16 -24 5
0 18 -20 29 -45 12 -28 29 -49 44 -54 14 -6 26 -14 28 -20 7 -18 53 -23 74 -7
19 14 20 26 19 373 0 328 -5 474 -35 953 -16 276 -58 542 -93 595 -8 12 -21
55 -30 98 -8 42 -23 92 -32 109 -9 18 -29 79 -45 136 -15 57 -32 109 -37 115
-6 7 -18 38 -27 70 -29 102 -97 155 -138 109z m63 -1008 c0 -8 -10 -14 -25
-14 -29 0 -33 15 -8 29 21 11 33 6 33 -15z m206 -911 c-6 -15 -52 -18 -60 -4
-3 4 3 16 13 25 11 10 23 30 27 44 7 26 7 26 16 -13 5 -21 6 -45 4 -52z"/>
</g>
</svg>
