<?xml version="1.0" standalone="no"?>
<!DOCTYPE svg PUBLIC "-//W3C//DTD SVG 20010904//EN"
 "http://www.w3.org/TR/2001/REC-SVG-20010904/DTD/svg10.dtd">
<svg version="1.0" xmlns="http://www.w3.org/2000/svg"
 width="903.000000pt" height="1280.000000pt" viewBox="0 0 903.000000 1280.000000"
 preserveAspectRatio="xMidYMid meet">
<metadata>
Created by potrace 1.15, written by Peter Selinger 2001-2017
</metadata>
<g transform="translate(0.000000,1280.000000) scale(0.100000,-0.100000)"
fill="#000000" stroke="none">
<path d="M4935 12794 c-63 -16 -91 -30 -125 -60 -60 -54 -150 -104 -188 -104
-19 0 -80 20 -136 44 -152 66 -172 70 -379 63 -179 -6 -295 -25 -360 -58 -78
-41 -151 -92 -212 -149 -77 -72 -173 -127 -280 -160 -136 -43 -379 -152 -440
-197 -159 -119 -302 -266 -340 -350 -6 -12 -28 -40 -49 -60 -49 -50 -180 -202
-238 -279 -59 -77 -144 -155 -244 -226 -105 -73 -139 -113 -164 -194 -11 -37
-30 -82 -41 -101 -13 -20 -23 -59 -27 -96 -4 -44 -10 -66 -24 -75 -10 -7 -18
-25 -18 -40 0 -15 -10 -43 -22 -62 -11 -19 -29 -61 -39 -92 -9 -32 -24 -64
-32 -72 -8 -8 -20 -46 -27 -83 -7 -37 -19 -79 -27 -92 -21 -34 -21 -205 0
-229 8 -9 18 -44 22 -76 4 -33 11 -71 17 -85 10 -25 11 -25 18 -6 6 17 9 14
18 -20 6 -22 14 -74 18 -115 4 -41 13 -91 20 -111 7 -21 20 -120 29 -220 9
-101 23 -197 30 -214 7 -16 21 -56 29 -87 11 -37 22 -58 31 -58 8 0 15 -8 15
-18 0 -10 14 -29 30 -44 28 -24 29 -29 18 -53 -7 -16 -40 -43 -82 -67 -39 -23
-73 -45 -74 -50 -2 -4 -23 -21 -46 -38 -46 -31 -118 -141 -131 -197 -3 -18
-11 -33 -15 -33 -5 0 -17 -25 -27 -57 -11 -35 -24 -58 -35 -61 -10 -2 -18 -9
-18 -16 -1 -48 -23 -152 -38 -173 -25 -39 -26 -341 -1 -369 9 -11 22 -44 29
-74 7 -30 21 -66 31 -80 9 -14 23 -49 29 -78 7 -30 18 -56 25 -59 8 -2 20 -22
29 -42 8 -21 21 -41 29 -44 17 -6 37 -88 37 -150 0 -23 7 -55 15 -70 8 -16 22
-70 30 -120 17 -96 54 -176 87 -185 10 -2 18 -10 18 -18 0 -7 18 -34 40 -59
22 -25 40 -54 40 -65 0 -10 6 -20 14 -23 8 -3 17 -20 21 -38 4 -17 15 -46 26
-63 10 -17 23 -55 30 -84 9 -43 20 -62 64 -105 55 -55 60 -64 70 -139 3 -27
11 -48 16 -48 18 0 22 -31 5 -43 -10 -8 -19 -36 -24 -79 -7 -54 -14 -73 -40
-102 -18 -20 -32 -41 -32 -47 0 -6 -9 -22 -19 -35 -11 -14 -25 -57 -31 -97 -7
-39 -19 -82 -27 -95 -8 -13 -21 -60 -30 -105 -8 -44 -21 -90 -28 -101 -7 -12
-18 -50 -25 -86 -7 -36 -19 -78 -27 -93 -8 -16 -21 -67 -29 -115 -9 -47 -22
-98 -29 -112 -8 -14 -19 -77 -24 -140 -5 -63 -14 -127 -19 -141 -12 -29 -131
-123 -200 -158 -24 -13 -51 -36 -60 -53 -9 -17 -27 -42 -39 -56 -13 -14 -23
-31 -23 -39 0 -8 -11 -29 -24 -46 -13 -18 -31 -49 -40 -69 -8 -21 -20 -38 -25
-38 -6 0 -17 -15 -25 -32 -12 -30 -106 -149 -227 -288 -26 -31 -75 -78 -108
-105 -38 -31 -65 -62 -72 -82 -6 -18 -17 -33 -25 -33 -7 0 -21 -14 -29 -31
-11 -19 -22 -29 -31 -25 -8 3 -14 1 -14 -4 0 -5 -26 -40 -57 -77 -82 -96 -119
-155 -127 -200 -4 -21 -15 -49 -24 -63 -9 -14 -21 -34 -27 -45 -6 -11 -40 -36
-76 -55 -36 -19 -95 -53 -130 -76 -35 -22 -95 -60 -134 -82 -77 -46 -132 -88
-124 -96 10 -11 154 -28 191 -23 20 3 82 26 136 51 108 51 120 53 161 31 28
-14 41 -39 41 -83 0 -12 6 -33 14 -45 8 -12 22 -51 31 -86 9 -36 23 -70 31
-76 8 -5 22 -37 30 -70 9 -33 22 -67 29 -75 7 -8 18 -35 25 -60 6 -25 20 -58
30 -75 10 -16 23 -53 30 -82 6 -29 18 -57 25 -63 8 -6 21 -33 30 -60 9 -27 22
-54 30 -60 7 -6 19 -34 25 -63 7 -29 19 -59 27 -69 8 -9 21 -41 29 -72 19 -72
47 -119 110 -181 28 -27 57 -60 63 -72 6 -13 18 -23 25 -23 13 0 66 -55 113
-117 11 -16 26 -49 33 -73 7 -25 18 -52 25 -60 7 -8 20 -41 28 -73 9 -33 23
-67 31 -76 9 -10 16 -22 16 -28 0 -6 21 -35 46 -65 25 -29 57 -74 70 -100 27
-53 65 -78 117 -78 41 0 57 15 57 55 0 33 -19 63 -92 148 -26 29 -59 79 -73
110 -13 32 -29 57 -35 57 -5 0 -10 9 -10 20 0 10 -13 34 -29 52 -15 18 -31 43
-35 56 -4 12 -18 34 -30 50 -13 15 -28 44 -35 64 -7 20 -18 41 -25 48 -8 6
-17 26 -20 44 -4 19 -15 45 -25 57 -10 13 -28 44 -41 69 -12 24 -45 71 -71
105 -27 33 -49 67 -49 76 0 9 -9 19 -20 22 -15 4 -20 14 -20 39 0 48 -19 108
-34 108 -15 0 -57 58 -84 115 -11 22 -27 46 -36 54 -9 7 -16 19 -16 25 0 7
-11 34 -25 62 -13 27 -31 82 -40 123 -8 40 -24 84 -34 97 -11 14 -23 38 -26
55 -4 16 -14 33 -24 38 -10 6 -23 29 -31 53 -7 24 -21 57 -31 73 -9 17 -23 57
-30 90 -7 33 -18 69 -26 80 -18 27 -18 188 1 204 7 6 19 31 26 56 7 25 19 50
27 57 8 6 25 32 38 58 13 25 35 52 49 60 15 7 43 34 63 59 42 53 62 71 79 71
10 0 10 -8 -2 -35 -16 -39 -12 -55 14 -55 22 0 69 43 77 72 4 13 16 30 28 39
26 21 13 41 -27 39 -93 -5 -89 16 26 120 81 75 97 85 137 90 l46 5 5 47 c4 29
14 56 27 70 12 13 31 43 42 68 39 85 69 130 144 217 124 144 153 173 177 173
23 0 23 -1 17 -96 -5 -93 -4 -99 24 -153 18 -35 33 -84 39 -131 7 -51 19 -86
35 -110 14 -20 25 -46 25 -59 0 -14 19 -41 51 -72 48 -46 56 -69 23 -69 -36 0
6 -45 73 -79 23 -12 48 -31 54 -43 10 -18 8 -24 -11 -38 -15 -11 -21 -23 -17
-34 5 -13 21 -16 76 -16 45 0 73 -4 78 -12 4 -7 6 -36 4 -65 -2 -46 -1 -52 21
-58 65 -18 78 -27 84 -61 7 -37 17 -48 54 -59 31 -9 60 -34 60 -51 0 -7 -12
-26 -26 -43 -30 -36 -26 -57 12 -71 14 -6 28 -19 31 -30 3 -11 11 -20 19 -20
7 0 20 -13 28 -29 13 -23 24 -30 63 -36 63 -9 113 -31 113 -48 0 -8 -18 -22
-40 -32 -41 -18 -67 -41 -58 -51 3 -2 42 -6 86 -7 44 -1 84 -6 88 -10 4 -4 -9
-24 -29 -45 -58 -60 -54 -65 71 -77 35 -3 75 -10 89 -16 l25 -9 -26 -31 c-46
-55 -39 -62 79 -74 55 -5 105 -26 105 -43 0 -4 -21 -18 -48 -32 -80 -43 -64
-58 83 -77 33 -4 59 -12 58 -18 0 -5 -21 -17 -45 -25 -35 -13 -43 -20 -43 -40
0 -24 3 -25 75 -30 67 -4 75 -7 78 -27 2 -16 -3 -23 -25 -27 -16 -4 -42 -17
-58 -30 -25 -20 -28 -26 -16 -40 17 -20 30 -20 69 0 22 11 59 15 122 15 100
-1 110 -3 110 -31 0 -25 -28 -42 -111 -69 -37 -12 -74 -30 -83 -40 -15 -16
-15 -19 -1 -31 13 -11 27 -10 81 10 80 28 181 31 219 6 15 -10 25 -23 22 -29
-2 -7 -33 -23 -70 -36 -98 -34 -90 -44 43 -55 70 -5 100 -13 100 -27 0 -4 -20
-22 -45 -39 -25 -17 -45 -38 -45 -47 0 -20 29 -42 56 -43 17 0 24 -9 33 -45
14 -54 31 -65 113 -66 79 0 144 -11 141 -24 -1 -5 -30 -20 -65 -33 -35 -13
-74 -34 -87 -47 l-24 -23 22 -11 c16 -9 41 -8 106 4 82 16 155 13 155 -6 0 -6
-16 -19 -35 -31 -69 -40 -27 -66 108 -67 67 -1 75 -16 15 -31 -138 -34 -158
-45 -158 -92 0 -26 3 -28 38 -28 20 0 51 8 67 17 52 28 307 31 278 2 -5 -5
-59 -20 -121 -34 -130 -29 -182 -51 -182 -77 0 -27 43 -32 149 -17 149 22 185
7 88 -35 -96 -43 -102 -83 -11 -72 104 12 155 28 189 58 l34 29 50 -46 c27
-25 54 -44 61 -43 7 2 15 -3 17 -10 7 -18 -48 -37 -150 -52 -72 -11 -92 -18
-103 -36 -13 -19 -13 -26 0 -57 8 -20 27 -43 43 -53 15 -10 41 -29 56 -41 26
-21 36 -23 92 -17 78 8 89 -4 41 -50 -36 -33 -42 -50 -30 -80 8 -21 36 -20 76
3 44 25 99 34 133 21 26 -10 27 -12 13 -27 -9 -8 -45 -23 -80 -32 -57 -15 -63
-19 -66 -44 -2 -16 2 -35 9 -44 13 -15 24 -15 136 3 23 3 50 4 59 0 15 -6 12
-12 -19 -40 -37 -33 -43 -49 -31 -80 5 -13 24 -16 104 -16 101 0 130 -11 96
-36 -11 -8 -16 -22 -14 -41 l3 -28 80 3 c61 3 85 0 100 -12 20 -16 19 -16 -14
-44 -50 -42 -34 -68 52 -87 21 -4 33 -16 47 -49 10 -25 27 -47 39 -51 11 -3
49 -37 84 -76 68 -73 113 -99 172 -99 28 0 38 5 47 26 17 36 -10 81 -93 158
-96 88 -104 112 -59 176 10 14 26 52 35 85 9 33 22 76 30 95 8 19 22 86 31
149 8 63 25 142 35 175 11 34 24 92 29 130 5 46 13 72 24 78 9 5 16 15 16 23
0 20 50 64 80 72 14 3 41 19 61 34 45 36 52 36 78 3 24 -30 26 -60 9 -115 -11
-38 -48 -84 -48 -61 0 7 -9 21 -21 33 -12 12 -24 41 -27 66 l-7 45 -48 -65
c-83 -114 -105 -174 -118 -323 -14 -174 -9 -498 9 -516 21 -21 40 15 47 90 3
37 12 87 20 112 8 25 19 86 25 135 12 102 17 124 35 145 6 8 17 48 23 89 11
80 24 103 45 82 9 -9 11 -116 9 -484 -3 -314 0 -481 7 -499 5 -15 27 -36 48
-47 21 -12 58 -35 81 -53 78 -59 176 -40 209 40 8 20 21 44 29 53 9 10 17 51
21 113 l6 97 22 -21 c16 -15 25 -38 30 -78 15 -132 35 -160 134 -188 73 -21
142 -56 184 -94 45 -39 97 -41 132 -5 14 13 25 29 25 36 0 6 -19 29 -42 50
-35 32 -39 39 -25 45 10 3 37 3 61 0 32 -5 62 0 122 19 71 23 83 24 131 14 49
-11 56 -11 81 8 15 11 28 29 30 41 4 23 -38 111 -62 131 -9 8 -16 22 -16 33 0
42 -33 176 -56 226 -13 30 -35 67 -49 84 -14 16 -25 39 -25 50 0 11 -11 31
-24 43 -12 12 -26 39 -30 61 -4 21 -14 46 -21 54 -7 8 -21 56 -30 105 -9 50
-22 97 -30 105 -7 8 -25 51 -40 95 -14 44 -41 105 -59 135 -18 30 -38 82 -45
114 -6 33 -17 67 -25 75 -7 9 -21 42 -30 74 -9 31 -21 57 -26 57 -5 0 -16 16
-24 35 -10 24 -23 36 -43 40 -57 12 -90 33 -106 68 -21 43 -22 73 -3 84 27 16
28 77 0 73 -17 -2 -16 42 2 61 22 24 22 73 1 97 -23 25 -22 94 3 142 11 22 20
46 20 55 0 8 6 15 14 15 17 0 46 -38 46 -60 0 -27 59 -110 85 -120 14 -5 25
-16 25 -25 0 -8 23 -40 50 -70 28 -31 53 -69 57 -86 3 -16 20 -42 39 -57 18
-15 37 -39 43 -55 6 -15 15 -27 20 -27 5 0 16 -18 25 -40 9 -22 23 -40 31 -40
8 0 15 -6 15 -12 0 -7 15 -37 34 -68 19 -30 37 -72 41 -93 4 -22 13 -37 21
-37 8 0 18 -10 23 -23 9 -24 75 -87 91 -87 4 0 22 -13 38 -30 17 -16 37 -30
45 -30 22 0 44 -31 57 -80 6 -25 20 -54 30 -65 9 -11 23 -38 30 -60 7 -22 18
-44 24 -50 7 -5 21 -31 31 -57 10 -26 24 -53 31 -59 8 -6 14 -25 14 -41 0 -16
7 -45 15 -64 13 -31 26 -50 75 -111 5 -6 18 -9 30 -6 23 6 70 58 70 78 0 7 7
18 16 26 9 7 23 30 31 51 8 21 21 38 28 38 14 0 35 50 35 81 0 46 -82 4 -130
-65 -17 -26 -35 -44 -41 -41 -16 11 -10 45 16 83 14 20 25 43 25 51 0 7 13 28
29 46 31 36 60 130 44 146 -15 15 -92 -67 -121 -129 -17 -37 -32 -54 -50 -59
-44 -11 -73 55 -33 77 11 5 22 23 26 39 3 17 15 41 25 54 10 13 22 37 26 53 4
16 18 45 31 64 31 46 29 60 -6 60 -36 0 -56 -25 -77 -95 -16 -55 -51 -88 -87
-83 -18 2 -23 10 -25 42 -6 65 4 83 61 113 40 21 54 36 62 61 5 17 14 32 21
32 16 0 24 48 13 77 -12 33 -40 29 -90 -13 -48 -40 -70 -29 -25 13 14 13 26
32 26 43 0 10 11 36 25 56 24 36 33 88 17 98 -15 9 -65 -23 -123 -79 -38 -37
-63 -53 -73 -49 -20 8 -20 9 3 42 21 28 45 137 35 154 -3 5 -20 8 -37 6 l-32
-3 4 72 c3 61 0 78 -19 108 -12 19 -35 42 -52 51 -41 21 -75 6 -128 -57 -29
-34 -49 -49 -66 -49 -38 0 -32 48 11 100 19 23 35 46 35 51 0 4 14 22 31 40
31 32 37 78 11 87 -6 2 -49 -34 -94 -80 l-81 -83 5 68 c5 56 12 77 44 127 22
32 51 64 66 70 38 17 54 38 40 52 -27 27 -143 -51 -188 -128 -15 -25 -31 -43
-38 -41 -15 5 -21 87 -6 87 6 0 20 20 30 44 11 24 27 49 35 56 8 7 15 19 15
27 0 8 14 27 31 43 20 18 30 34 26 44 -6 14 -14 13 -63 -9 -74 -33 -82 -40
-96 -87 -8 -29 -20 -43 -46 -55 -33 -16 -35 -16 -48 2 -20 28 -17 42 16 77 17
17 30 42 30 54 0 14 6 24 14 24 13 0 28 20 83 109 24 40 59 71 77 71 14 0 166
-173 166 -189 0 -7 7 -14 15 -18 9 -3 22 -18 30 -33 8 -16 33 -41 54 -57 22
-15 50 -46 62 -67 12 -22 55 -74 94 -115 40 -42 77 -86 84 -98 6 -13 17 -22
23 -20 6 1 17 -16 24 -38 8 -22 39 -73 69 -114 30 -41 55 -82 55 -92 0 -10 9
-23 19 -29 11 -5 24 -25 31 -44 6 -19 18 -40 27 -48 9 -7 22 -28 30 -46 7 -18
47 -78 88 -133 41 -55 75 -106 75 -113 0 -7 14 -34 31 -61 17 -28 38 -67 45
-88 8 -21 30 -57 49 -80 21 -24 42 -64 51 -97 9 -30 21 -59 28 -65 7 -5 18
-25 25 -43 8 -18 21 -37 30 -41 9 -5 23 -26 30 -48 8 -21 22 -49 33 -63 10
-14 39 -52 63 -86 73 -101 129 -129 204 -103 66 23 67 67 2 152 -27 35 -60 86
-74 113 -14 27 -61 90 -104 139 -97 109 -183 223 -183 241 0 7 -11 25 -25 40
-14 15 -25 33 -25 40 0 7 -26 48 -59 91 -32 43 -65 92 -74 108 -8 17 -40 58
-69 92 -57 65 -63 76 -96 161 -20 50 -20 52 -2 52 30 0 186 -83 315 -167 66
-43 168 -105 227 -137 64 -35 144 -90 200 -138 51 -44 136 -105 188 -136 52
-30 127 -77 165 -102 201 -133 196 -130 220 -183 32 -73 99 -142 153 -158 86
-25 106 25 43 111 -22 30 -52 75 -68 99 -15 25 -43 60 -62 78 -38 38 -139 93
-172 93 -12 0 -36 16 -53 35 -18 19 -38 35 -44 35 -7 0 -12 4 -12 10 0 5 -24
25 -52 44 -29 19 -77 54 -107 79 -29 25 -80 60 -113 79 -32 18 -91 56 -130 83
-38 28 -92 64 -118 80 -26 17 -78 51 -116 76 -38 25 -105 65 -150 88 -45 23
-142 90 -217 150 -74 60 -161 122 -191 140 -60 33 -292 244 -302 273 -3 9 -11
18 -17 20 -19 5 -484 482 -491 504 -3 10 -36 39 -72 64 -38 26 -73 60 -84 80
-10 19 -52 75 -94 123 -42 49 -76 94 -76 101 0 7 -14 31 -32 55 l-32 43 -8
182 c-7 134 -13 185 -24 197 -15 16 -18 47 -8 74 4 9 28 27 54 40 50 26 110
86 110 111 0 10 6 14 15 10 9 -3 19 3 26 17 17 31 114 158 195 253 38 45 90
119 116 165 25 46 67 110 92 143 29 36 46 69 46 85 0 15 13 47 29 72 16 24 36
67 45 94 11 35 42 81 106 155 79 92 93 114 111 175 11 39 27 75 35 81 7 6 21
28 30 49 9 21 26 53 38 69 48 65 114 193 126 244 7 29 19 59 26 67 8 8 21 33
30 57 8 23 21 49 29 58 8 9 19 40 25 70 7 30 20 82 31 115 13 42 23 128 34
288 8 125 21 251 29 280 8 29 19 128 25 222 6 108 14 171 21 173 19 7 29 46
40 159 7 69 17 114 26 124 12 13 19 70 30 241 7 122 14 237 14 255 0 17 7 39
16 48 15 15 15 17 -2 36 -17 19 -19 42 -19 283 0 195 3 267 12 278 7 8 22 97
33 203 11 103 25 194 31 201 17 21 14 112 -5 133 -20 22 -20 35 -2 64 8 13 21
87 31 177 9 85 22 175 30 200 7 25 19 86 25 135 6 50 18 108 25 130 8 22 22
92 30 154 9 66 22 125 31 139 19 29 22 95 5 116 -9 10 -8 16 4 26 21 17 19 37
-5 43 -17 4 -20 14 -20 61 0 46 4 57 21 66 19 11 19 13 5 29 -12 13 -20 65
-31 196 -11 124 -22 193 -35 224 -11 25 -26 74 -35 108 -8 35 -26 83 -39 107
-13 24 -26 52 -29 62 -4 11 -16 35 -27 54 -11 19 -20 48 -20 65 0 17 -7 40
-15 52 -8 11 -17 45 -21 74 -5 45 -2 62 16 97 20 39 22 53 17 135 -2 52 -9 93
-16 95 -5 2 -13 20 -17 40 -6 36 -14 52 -53 117 -33 56 -172 143 -303 190 -30
10 -82 46 -143 101 -53 46 -103 84 -110 84 -8 0 -17 10 -20 23 -17 55 -98 114
-184 132 -31 7 -96 24 -144 39 -58 17 -132 29 -220 36 -73 5 -195 14 -273 20
-219 17 -272 39 -414 175 -47 45 -101 90 -120 100 -19 10 -60 37 -90 61 -66
52 -95 59 -330 80 -209 19 -310 24 -335 18z m-487 -206 c-3 -7 -11 -13 -18
-13 -7 0 -15 6 -17 13 -3 7 4 12 17 12 13 0 20 -5 18 -12z m-399 -72 c15 -18
-2 -56 -24 -56 -19 0 -29 38 -15 55 16 19 24 19 39 1z m1101 -76 c169 -16 164
-15 210 -62 l40 -42 0 33 c0 48 16 71 50 71 24 0 33 -7 50 -39 19 -38 67 -81
89 -81 6 0 17 11 23 25 14 30 21 31 58 4 24 -19 33 -20 61 -10 46 16 81 14
133 -8 25 -11 62 -23 83 -27 21 -3 47 -14 58 -24 11 -9 28 -20 38 -23 22 -8
23 -62 1 -71 -9 -3 -14 -15 -12 -28 2 -19 10 -24 45 -26 50 -4 60 -15 65 -67
2 -26 8 -39 16 -37 7 1 17 -9 22 -23 11 -29 35 -32 61 -9 40 36 52 -17 18 -73
-18 -29 -21 -44 -16 -90 6 -59 0 -79 -39 -126 -34 -40 -33 -94 1 -107 17 -7
25 -17 25 -34 0 -36 11 -38 65 -11 27 14 56 25 65 25 23 0 90 50 178 131 112
104 162 122 437 150 138 14 175 9 175 -23 0 -39 40 -105 80 -133 54 -37 74
-31 80 25 4 37 9 46 28 48 49 7 212 -95 212 -133 0 -7 10 -25 22 -40 20 -26
22 -38 21 -184 -1 -114 -5 -168 -17 -201 -13 -38 -13 -46 -1 -52 7 -5 21 -34
30 -65 9 -30 22 -65 30 -77 7 -12 19 -50 25 -86 6 -36 20 -78 29 -95 10 -16
24 -52 30 -80 7 -27 18 -59 26 -71 7 -11 21 -70 30 -130 9 -60 23 -119 31
-131 18 -28 17 -63 -1 -87 -22 -29 -21 -238 0 -256 24 -20 20 -222 -5 -275
-11 -22 -19 -46 -20 -53 0 -7 -5 -22 -11 -33 -15 -28 -36 -9 -49 45 -6 22 -19
61 -30 86 -10 25 -21 68 -25 95 -4 28 -16 64 -26 81 -23 38 -25 107 -4 124 21
17 21 120 0 120 -17 0 -22 31 -29 170 -4 98 -7 110 -45 184 -22 43 -59 104
-84 135 -24 31 -54 73 -66 94 -25 41 -134 137 -155 137 -8 0 -19 -7 -26 -15
-20 -25 4 -67 101 -173 82 -90 102 -123 81 -136 -5 -3 -16 4 -25 15 -39 45
-94 -1 -68 -58 24 -53 74 -123 88 -123 8 0 21 -17 29 -37 9 -20 27 -51 40 -68
31 -41 30 -63 -1 -75 -35 -13 -37 -47 -4 -88 10 -14 19 -32 19 -42 0 -9 11
-38 25 -63 13 -25 29 -66 35 -89 7 -24 18 -50 25 -58 8 -8 21 -56 29 -106 9
-50 24 -106 34 -125 15 -31 17 -77 17 -514 0 -423 -2 -487 -17 -542 -12 -44
-22 -150 -33 -360 -17 -345 -24 -423 -36 -423 -15 0 -10 -63 7 -81 23 -25 24
-341 1 -385 -8 -16 -20 -54 -27 -84 -6 -30 -20 -67 -31 -82 -22 -32 -38 -97
-39 -156 0 -23 -7 -59 -15 -80 -16 -37 -29 -147 -40 -347 -4 -60 -12 -132 -20
-160 -7 -27 -18 -86 -25 -130 -6 -44 -20 -94 -31 -111 -24 -40 -24 -61 1 -74
25 -14 26 -48 1 -103 -10 -23 -22 -71 -26 -107 -7 -63 -32 -131 -95 -252 -17
-31 -30 -65 -30 -76 0 -10 -9 -27 -20 -37 -11 -10 -20 -23 -20 -29 0 -6 -11
-27 -23 -46 -13 -19 -47 -79 -75 -132 -46 -88 -108 -178 -160 -233 -10 -11
-27 -44 -36 -72 -10 -29 -21 -53 -26 -53 -4 0 -15 -21 -24 -47 -9 -25 -22 -53
-30 -62 -7 -9 -21 -39 -30 -68 -10 -28 -23 -57 -31 -63 -8 -6 -21 -36 -30 -66
-8 -30 -20 -54 -26 -54 -5 0 -19 -19 -29 -43 -11 -24 -33 -61 -51 -83 -17 -21
-42 -61 -55 -87 -14 -26 -31 -50 -39 -54 -8 -3 -15 -12 -15 -20 0 -9 -14 -31
-31 -51 -17 -20 -38 -50 -45 -69 -8 -18 -18 -33 -22 -33 -5 0 -16 -17 -26 -37
-34 -71 -137 -182 -204 -220 -35 -20 -71 -43 -80 -53 -19 -19 -57 -31 -78 -23
-11 4 -11 8 0 26 8 12 17 36 21 53 5 26 1 37 -20 60 -28 30 -28 44 -1 106 29
68 -3 54 -92 -40 -48 -50 -102 -98 -121 -107 -19 -10 -57 -35 -85 -58 -53 -41
-103 -67 -132 -67 -12 0 -5 13 25 45 22 24 41 49 41 55 0 5 12 13 28 16 44 11
101 56 185 144 83 86 114 139 119 205 2 34 -1 41 -20 50 -13 6 -26 23 -30 40
-6 23 -15 31 -38 35 -20 4 -30 12 -32 27 -8 54 -81 53 -109 -1 -26 -52 -81
-84 -98 -56 -3 5 0 7 9 4 9 -3 17 3 21 18 22 80 60 113 155 138 59 15 90 36
90 59 0 11 -16 38 -35 61 -42 50 -43 62 -10 84 28 18 33 53 10 62 -8 4 -15 17
-15 31 0 18 4 23 14 20 9 -4 16 3 20 17 3 13 21 35 40 50 19 14 76 62 128 106
51 45 99 86 106 91 16 13 12 29 -10 43 -25 15 -89 -9 -139 -53 -85 -74 -167
-101 -259 -83 -41 7 -45 10 -42 34 2 20 -3 27 -21 32 -15 3 -26 17 -32 38 -8
27 -16 34 -41 36 -36 3 -104 -21 -104 -37 0 -6 7 -11 15 -11 26 0 17 -16 -25
-44 -22 -14 -46 -39 -54 -55 -19 -37 -32 -41 -122 -41 -95 0 -170 25 -275 90
-94 60 -123 66 -127 30 -5 -49 31 -86 130 -134 51 -25 116 -50 143 -57 28 -6
60 -18 73 -26 12 -7 27 -11 32 -8 22 14 8 -39 -15 -57 -14 -11 -25 -29 -25
-40 0 -11 -22 -40 -50 -66 -35 -33 -47 -51 -41 -61 7 -11 24 -8 93 15 47 15
93 24 102 21 28 -11 18 -32 -26 -52 -52 -24 -67 -59 -67 -158 -1 -52 3 -69 14
-74 31 -11 85 61 85 112 0 65 47 86 90 40 l23 -25 -26 -38 c-15 -21 -27 -43
-27 -50 0 -6 -29 -44 -66 -84 -76 -85 -96 -120 -92 -156 3 -25 0 -27 -44 -33
-59 -9 -103 -39 -128 -90 -11 -21 -27 -39 -34 -39 -8 0 -16 -7 -19 -14 -3 -8
-20 -22 -36 -31 l-31 -16 0 50 c0 27 -5 53 -10 56 -6 4 -70 -12 -143 -36 -73
-23 -152 -43 -177 -43 -40 -1 -45 2 -48 22 -5 36 -44 44 -177 40 -107 -3 -124
-6 -152 -27 -38 -28 -76 -30 -104 -5 -30 27 -5 45 72 50 92 7 107 12 120 35
18 35 -8 50 -97 56 -56 4 -97 0 -142 -11 -66 -18 -82 -14 -116 23 -24 27 -15
30 94 33 78 3 85 5 88 24 6 41 -20 48 -198 54 -162 6 -170 7 -207 33 -22 15
-46 27 -55 27 -8 0 -21 14 -28 30 -7 16 -17 30 -23 30 -5 0 -56 45 -112 101
-56 55 -117 108 -136 117 -23 12 -42 35 -64 76 -18 36 -60 90 -107 136 -43 43
-78 82 -78 88 0 5 -16 30 -36 54 -20 23 -48 61 -62 83 -13 22 -45 63 -71 91
-71 79 -101 117 -101 130 0 7 -14 24 -31 38 -17 14 -35 42 -40 61 -6 19 -14
35 -20 35 -5 0 -19 19 -30 43 -10 23 -30 57 -43 75 -14 18 -26 38 -28 44 -2 6
-10 8 -16 4 -7 -4 -12 -30 -12 -62 0 -41 4 -54 15 -54 10 0 15 -10 15 -30 0
-64 -30 -42 -225 167 -114 121 -158 176 -167 205 -6 21 -32 62 -57 91 -72 82
-108 130 -115 154 -4 11 -13 27 -21 33 -9 7 -15 30 -15 52 0 31 4 41 20 45 11
3 20 9 20 14 0 21 32 7 48 -20 33 -58 179 -81 243 -38 55 37 99 111 99 167 0
30 -6 52 -15 60 -8 7 -17 28 -20 49 -11 71 -26 111 -45 121 -29 15 -74 12
-132 -10 -64 -24 -172 -27 -245 -5 -83 25 -129 65 -168 150 -19 41 -35 89 -35
107 0 36 -4 45 -71 144 -26 38 -50 79 -53 90 -4 12 -15 24 -25 27 -11 3 -22
22 -31 53 -7 27 -19 56 -26 64 -7 8 -22 68 -34 133 -27 153 -54 237 -84 270
-14 15 -28 37 -32 49 -4 12 -15 34 -24 48 -10 14 -24 57 -30 95 -7 39 -20 84
-28 100 -13 23 -16 63 -17 181 0 132 2 154 18 172 12 13 21 46 27 103 9 89 16
116 36 136 6 7 17 36 24 65 15 60 33 89 108 165 60 62 136 113 168 113 12 0
38 -7 59 -16 20 -8 80 -23 133 -34 97 -18 340 -110 392 -148 34 -25 60 -79 60
-123 0 -20 7 -42 15 -49 8 -7 17 -27 21 -46 7 -40 28 -54 67 -47 19 4 32 15
39 32 14 37 4 120 -21 162 -11 19 -23 61 -27 94 -8 74 -17 85 -64 85 -23 0
-43 7 -51 16 -8 9 -31 28 -52 41 -52 33 -48 61 11 81 58 19 68 43 54 128 -14
84 -22 92 -59 64 -36 -26 -96 -25 -101 2 -6 29 54 51 151 56 l87 4 36 -38 c20
-22 40 -49 45 -62 17 -43 10 -97 -16 -136 -21 -31 -22 -38 -10 -42 21 -9 45
14 45 42 0 17 6 24 19 24 24 0 28 13 37 113 3 42 10 80 15 83 24 15 81 155 90
224 6 41 17 88 25 105 30 62 47 90 61 98 8 5 13 27 13 57 l0 50 -55 0 c-76 0
-70 21 18 65 78 40 75 71 -9 83 -63 9 -72 35 -17 52 109 33 123 51 123 159 0
54 -4 72 -16 79 -10 6 -18 30 -23 70 -4 34 -9 63 -12 65 -2 2 -25 16 -52 31
-26 15 -77 49 -113 77 -37 28 -74 49 -83 47 -26 -5 -25 -37 3 -78 14 -22 26
-42 26 -45 0 -3 -16 -13 -35 -21 -19 -8 -35 -20 -35 -27 0 -6 14 -34 30 -62
16 -27 30 -57 30 -67 0 -9 16 -35 35 -58 49 -59 47 -61 -60 -102 -71 -27 -89
-55 -89 -140 -1 -45 4 -62 22 -81 l22 -23 -22 -21 c-13 -11 -35 -23 -50 -27
-23 -5 -28 -12 -28 -37 0 -47 29 -98 73 -127 38 -26 39 -27 35 -77 -4 -38 -15
-67 -51 -123 -52 -80 -82 -101 -125 -86 -35 12 -35 35 1 52 29 14 28 32 -2 32
-23 0 -35 15 -51 63 -8 27 -22 43 -49 57 -60 30 -68 45 -36 72 22 19 26 32 28
79 1 42 -3 62 -16 76 -9 11 -17 34 -17 52 0 57 -14 71 -74 71 -29 0 -89 -5
-133 -11 -81 -11 -143 -3 -150 18 -4 11 44 24 161 43 81 13 100 22 143 66 25
25 34 46 42 92 10 63 5 139 -12 160 -12 15 -54 15 -113 1 -62 -16 -94 -1 -95
43 -1 54 -13 70 -70 97 -30 14 -54 33 -54 41 0 9 21 22 58 34 42 13 57 23 57
37 0 34 -23 68 -61 94 -22 14 -39 29 -39 34 0 5 12 18 27 29 15 11 24 25 21
33 -5 14 -53 41 -91 53 -34 11 -7 24 61 31 139 12 155 19 107 45 -29 15 -33
39 -7 41 9 1 71 2 137 3 133 1 189 14 236 53 29 25 34 26 76 15 54 -15 96 0
101 36 2 14 10 22 22 22 10 0 22 5 25 10 11 17 -15 40 -75 67 -57 25 -120 77
-120 100 0 22 44 15 112 -17 77 -36 85 -37 100 -5 6 14 17 25 25 25 17 0 17
46 -1 53 -7 3 -16 22 -20 41 -4 20 -19 47 -33 60 -33 31 -26 49 29 77 24 12
46 27 50 33 11 17 -17 40 -72 60 -71 26 -52 38 69 45 55 3 103 10 107 14 5 5
9 64 9 132 0 118 -1 125 -25 150 l-25 26 25 19 c14 11 50 25 80 31 103 23 171
73 185 136 3 17 13 37 21 44 8 6 14 20 14 30 0 22 45 57 130 99 36 18 85 47
110 65 93 68 197 111 155 65 -10 -11 -24 -20 -31 -20 -8 0 -16 -12 -20 -27
-12 -52 -52 -110 -83 -121 -28 -10 -91 -83 -91 -105 0 -5 14 -25 30 -44 47
-54 39 -81 -17 -58 -20 8 -42 15 -49 15 -28 0 -52 -40 -69 -111 -9 -41 -22
-84 -30 -95 -8 -12 -21 -64 -30 -115 -19 -111 -56 -196 -114 -261 -39 -44 -41
-47 -22 -57 30 -17 66 -13 85 8 9 10 34 26 56 36 23 11 43 28 50 45 7 16 25
34 40 40 43 18 59 41 70 101 11 59 41 95 88 105 15 3 38 8 52 10 14 3 61 43
107 91 93 98 103 123 103 263 0 162 33 228 133 263 151 54 136 43 143 98 8 62
22 70 122 72 64 2 77 -1 80 -15 5 -24 -45 -65 -101 -84 -52 -17 -90 -62 -102
-121 -3 -17 -13 -34 -20 -37 -8 -3 -21 -21 -29 -41 -8 -19 -26 -40 -39 -46
-25 -11 -57 -57 -57 -82 0 -19 54 -77 72 -77 7 0 54 34 103 76 92 79 289 214
311 214 7 0 25 10 41 23 38 32 113 51 166 43 105 -15 112 -18 162 -70 78 -81
189 -128 223 -94 7 7 12 39 12 75 0 51 -4 67 -20 80 -11 10 -20 27 -20 38 1
36 36 99 75 133 33 29 43 33 79 29 22 -2 97 -10 166 -17z m-456 -146 c20 -8
21 -34 2 -34 -17 0 -38 24 -29 33 8 8 8 8 27 1z m1926 -282 c0 -14 -54 -84
-91 -119 -45 -41 -109 -84 -119 -78 -14 9 3 56 25 71 13 8 25 28 29 44 3 17
11 30 19 30 7 0 33 13 57 29 44 29 80 39 80 23z m-316 -289 c-10 -58 -23 -85
-37 -81 -21 7 -20 46 2 65 12 9 21 25 21 35 0 10 5 18 10 18 7 0 8 -14 4 -37z
m-3972 -330 c28 -25 24 -94 -7 -131 -29 -35 -83 -52 -96 -31 -18 29 13 142 44
164 27 19 36 19 59 -2z m-226 -472 c-9 -14 -43 -14 -52 1 -4 6 1 17 12 25 15
11 20 11 32 -1 8 -8 11 -19 8 -25z m-211 -126 c0 -23 -34 -33 -45 -14 -13 20
1 40 24 37 13 -2 21 -10 21 -23z m-180 -351 c20 -20 16 -48 -8 -52 -25 -5 -47
16 -47 44 0 29 30 33 55 8z m174 -174 c22 -11 42 -24 46 -29 20 -33 -134 -47
-180 -17 -29 19 -33 50 -7 66 23 14 93 5 141 -20z m291 -184 c0 -7 -6 -19 -14
-25 -17 -14 -92 -11 -90 4 3 28 104 49 104 21z m544 -405 c11 -17 -6 -41 -28
-41 -29 0 -61 24 -52 38 8 14 72 16 80 3z m-537 -98 c6 -17 -44 -28 -62 -13
-8 7 -12 17 -9 22 8 13 67 6 71 -9z m199 -3078 c3 -12 4 -39 2 -61 l-3 -39
-65 -3 c-41 -1 -60 1 -51 7 7 5 15 25 17 45 3 41 18 64 49 76 27 10 44 2 51
-25z m-265 -418 c23 -15 39 -39 52 -72 10 -28 25 -55 32 -61 8 -6 15 -16 15
-22 0 -6 13 -26 29 -44 28 -32 51 -68 90 -139 11 -19 45 -57 75 -83 31 -26 56
-54 56 -62 0 -8 7 -14 15 -14 9 0 19 -10 24 -23 5 -13 26 -36 48 -52 21 -16
122 -113 224 -216 133 -135 199 -193 235 -210 39 -19 53 -33 72 -72 15 -31
100 -130 248 -287 124 -132 229 -240 232 -240 4 0 45 -32 92 -70 46 -39 168
-128 270 -199 102 -71 211 -152 244 -180 95 -84 203 -151 310 -193 113 -45
203 -57 436 -57 69 -1 162 -6 207 -11 57 -7 95 -7 125 0 24 6 171 15 328 20
157 5 319 12 361 16 l76 7 17 -44 c26 -65 36 -269 35 -734 -1 -420 -6 -534
-24 -537 -5 -1 -18 14 -27 33 -9 19 -22 39 -27 46 -6 7 -17 57 -25 113 -8 60
-22 114 -34 134 -11 19 -26 60 -32 93 -7 32 -18 65 -25 73 -8 8 -18 61 -24
116 -11 105 -17 131 -36 150 -6 6 -17 42 -24 80 -7 38 -19 76 -26 84 -7 8 -21
46 -29 84 -9 38 -25 84 -36 101 -32 52 -114 122 -156 134 -87 24 -189 2 -240
-51 -18 -18 -93 -94 -167 -168 -242 -242 -304 -348 -323 -548 -5 -56 -10 -72
-20 -68 -10 4 -14 -4 -14 -28 0 -21 6 -36 15 -40 18 -7 22 -135 4 -153 -6 -6
-19 -86 -29 -179 -18 -174 -54 -312 -92 -363 -10 -13 -18 -28 -18 -33 0 -6
-12 -22 -27 -37 -51 -51 -77 -85 -153 -195 -88 -128 -144 -176 -185 -158 -35
16 -123 99 -149 141 -12 18 -36 39 -52 45 -31 11 -169 150 -559 563 -104 110
-214 228 -243 262 -29 33 -57 61 -61 61 -4 0 -27 17 -51 38 -113 96 -166 152
-208 217 -25 38 -74 99 -111 135 -234 233 -554 567 -639 667 -105 124 -233
253 -251 253 -6 0 -11 6 -11 14 0 8 -16 37 -35 66 -19 29 -38 63 -41 76 -3 13
-10 24 -15 24 -4 0 -18 32 -29 71 -12 38 -27 72 -35 75 -8 3 -29 31 -47 62
l-33 57 1 140 c1 116 4 151 22 202 15 43 24 102 30 191 7 111 11 131 29 149
22 22 27 49 38 218 4 53 12 99 21 113 8 13 22 58 30 100 8 42 19 79 24 82 5 3
17 55 26 114 10 59 22 113 29 120 7 6 18 29 25 51 7 22 17 48 22 58 12 24 58
22 99 -6z m3685 -1248 c21 -17 7 -29 -36 -29 -42 0 -54 9 -44 35 5 13 14 15
37 11 17 -3 36 -11 43 -17z m-198 -16 c2 -8 -6 -13 -22 -13 -26 0 -40 12 -29
24 11 11 46 2 51 -11z m36 -129 c29 -11 17 -48 -39 -119 -96 -123 -105 -128
-105 -50 0 52 15 95 33 95 7 0 18 14 24 30 14 37 54 57 87 44z m-19 -276 c-9
-45 -41 -90 -84 -119 -20 -13 -63 -52 -97 -86 -66 -68 -94 -79 -94 -38 0 14 5
25 10 25 6 0 19 15 30 33 10 17 42 49 69 70 28 20 53 47 57 60 5 20 86 85 107
86 5 1 6 -14 2 -31z m132 -16 c-10 -10 -17 -29 -17 -42 0 -16 -26 -49 -85
-107 -110 -107 -181 -145 -145 -79 18 34 234 246 250 246 10 0 9 -5 -3 -18z
m133 -47 c0 -7 -6 -18 -13 -22 -7 -4 -23 -24 -35 -45 -24 -39 -130 -142 -195
-189 -44 -32 -77 -38 -77 -13 0 11 6 14 20 9 11 -3 20 -2 20 3 0 18 80 112 95
112 7 0 41 34 75 74 34 41 67 77 73 80 23 9 37 6 37 -9z m-680 -221 c0 -18 -4
-25 -14 -21 -9 4 -19 -8 -29 -33 -15 -40 -64 -74 -95 -68 -13 3 0 22 52 76 38
40 73 72 78 72 4 0 8 -12 8 -26z m-789 -44 c23 -13 24 -37 2 -62 -22 -25 -46
-23 -82 8 -39 33 -39 41 2 53 44 13 55 13 78 1z m375 -45 c16 -13 17 -16 4
-25 -31 -21 -233 -81 -253 -75 -33 9 -67 27 -67 36 0 12 78 38 175 59 112 23
117 23 141 5z m1141 -10 c9 -24 -23 -52 -110 -95 -79 -40 -107 -48 -107 -31 0
22 23 71 34 71 6 0 34 16 61 34 54 38 111 47 122 21z m-579 -42 c-4 -23 -49
-46 -63 -32 -7 7 -2 17 14 30 29 24 54 25 49 2z m-479 -10 c13 -25 -4 -52 -44
-69 -39 -16 -111 -19 -120 -5 -6 11 38 44 97 71 53 24 55 24 67 3z m690 -364
c27 -27 61 -108 61 -147 0 -8 8 -29 18 -46 11 -17 25 -58 32 -91 7 -33 18 -71
25 -85 7 -14 17 -65 23 -113 7 -70 13 -91 29 -102 11 -8 26 -34 32 -59 6 -24
18 -52 28 -61 21 -22 22 -92 1 -125 -9 -14 -21 -63 -28 -110 -7 -47 -20 -101
-29 -120 -10 -19 -23 -64 -30 -100 -7 -35 -21 -75 -32 -88 -10 -14 -19 -31
-19 -39 0 -8 -11 -33 -25 -57 -13 -23 -31 -78 -40 -121 -8 -43 -19 -83 -25
-89 -5 -5 -10 -20 -10 -32 0 -25 -24 -54 -46 -54 -19 0 -19 73 0 103 8 12 20
58 26 102 7 44 20 96 30 115 9 19 23 58 29 87 7 29 21 62 31 73 20 23 17 50
-6 50 -17 0 -34 40 -34 80 0 16 -3 35 -6 44 -16 42 -78 -44 -90 -126 -6 -41
-22 -71 -86 -171 -15 -23 -28 -49 -28 -57 0 -30 -21 -90 -36 -105 -9 -9 -22
-36 -30 -62 -14 -46 -80 -143 -97 -143 -15 0 -2 98 15 118 8 9 21 38 28 64 7
26 19 53 26 59 24 20 73 131 89 203 9 38 20 75 25 81 5 6 23 37 40 70 26 48
32 73 33 125 2 78 -18 89 -43 25 -8 -22 -22 -51 -31 -65 -9 -14 -22 -56 -29
-95 -7 -38 -21 -86 -31 -105 -11 -19 -19 -39 -19 -45 0 -30 -23 -85 -35 -85
-7 0 -16 -13 -20 -30 -4 -16 -11 -32 -16 -36 -5 -3 -25 -36 -43 -73 -38 -74
-56 -94 -83 -89 -32 6 -25 37 20 98 33 44 49 77 60 126 9 36 23 74 31 83 9 10
16 25 16 33 0 9 16 57 35 107 19 49 35 102 35 115 0 14 8 30 19 35 32 17 56
172 33 209 -14 22 -50 -29 -63 -88 -6 -30 -17 -58 -24 -62 -7 -4 -16 -25 -19
-45 -4 -21 -18 -60 -31 -88 -13 -27 -31 -84 -40 -126 -10 -51 -29 -99 -55
-142 -22 -36 -40 -72 -40 -80 0 -8 -9 -22 -20 -32 -16 -14 -23 -16 -32 -7 -9
9 -7 19 9 40 11 15 26 55 33 88 7 32 19 66 26 74 7 9 18 40 25 70 6 30 19 69
29 85 10 17 26 68 34 114 9 47 24 93 32 103 9 9 14 24 11 33 -10 24 -37 17
-48 -12 -6 -16 -17 -35 -25 -44 -9 -10 -22 -59 -30 -110 -15 -95 -23 -109 -76
-139 -31 -18 -49 40 -27 82 9 17 13 18 21 7 7 -10 8 -5 3 16 -3 17 -9 42 -12
56 -3 16 1 37 10 50 19 29 75 187 88 248 5 25 15 52 22 60 8 9 21 43 30 76 9
33 21 61 26 63 6 2 17 38 27 80 9 42 23 84 30 93 8 9 23 47 34 85 10 38 23 70
29 72 6 2 11 10 11 17 0 19 49 74 85 96 43 27 69 24 104 -12z m797 -594 c11
-27 -44 -120 -101 -174 -30 -29 -60 -49 -65 -46 -6 3 -10 25 -10 47 0 92 151
240 176 173z m112 -118 c2 -11 -6 -29 -18 -42 -23 -25 -77 -51 -86 -42 -6 6
21 74 38 94 16 20 62 12 66 -10z m112 -101 c0 -8 -38 -61 -85 -117 -46 -56
-89 -117 -96 -136 -8 -25 -16 -33 -34 -33 -13 0 -27 5 -30 11 -12 18 4 76 28
101 13 14 29 39 36 56 29 70 181 168 181 118z m-245 -65 c-20 -40 -54 -71 -77
-71 -10 0 -18 2 -18 5 0 35 102 138 108 110 2 -8 -4 -27 -13 -44z m-435 -351
c5 -41 14 -91 20 -110 6 -19 17 -69 26 -111 8 -42 21 -89 28 -105 28 -57 49
-455 25 -470 -19 -12 -32 13 -46 96 -8 45 -20 92 -27 104 -8 11 -21 55 -30 96
-9 41 -23 84 -31 94 -10 13 -15 44 -15 85 0 97 -27 280 -45 307 -19 29 -19 34
-1 34 8 0 20 15 26 34 24 74 56 49 70 -54z m-1026 -65 c8 -25 22 -52 30 -61 9
-8 16 -28 16 -43 0 -15 14 -49 32 -77 18 -27 39 -62 47 -79 9 -16 33 -41 53
-54 23 -15 42 -37 48 -57 7 -19 18 -34 25 -34 7 0 19 -16 25 -35 6 -19 21 -40
33 -46 12 -7 41 -29 64 -50 24 -22 47 -39 52 -39 6 0 18 -25 26 -55 9 -30 24
-59 33 -64 25 -14 25 -208 1 -222 -10 -5 -22 -33 -29 -61 -7 -29 -21 -67 -31
-84 -10 -17 -24 -55 -30 -85 -6 -30 -17 -64 -25 -77 -8 -12 -21 -73 -29 -135
-9 -61 -22 -125 -30 -142 -9 -16 -19 -43 -23 -60 -11 -40 -39 -43 -88 -7 -42
30 -165 181 -191 233 -8 16 -26 37 -40 46 -24 16 -43 47 -84 136 -12 26 -28
47 -35 47 -7 0 -16 9 -19 21 -4 11 -43 61 -87 111 -44 50 -85 101 -90 114 -6
13 -19 24 -30 24 -20 0 -75 70 -84 107 -9 36 2 64 47 118 22 27 52 71 65 97
13 27 31 48 39 48 8 0 15 6 15 13 0 6 25 43 55 80 30 38 55 74 55 80 0 7 15
34 34 60 19 26 37 60 41 75 4 15 12 34 20 42 7 8 16 42 20 75 11 96 43 115 69
40z m-1257 -136 c37 -31 -14 -75 -74 -64 -67 11 -73 21 -34 56 27 25 39 30 64
25 16 -3 36 -11 44 -17z m1824 -95 c-6 -32 -19 -67 -30 -78 -10 -12 -21 -41
-24 -65 -5 -43 -32 -92 -52 -95 -20 -3 -17 74 5 109 12 19 25 63 30 97 7 50
15 68 36 86 39 34 50 17 35 -54z m1405 -159 c11 -43 -3 -73 -37 -80 -17 -4
-33 -4 -36 -1 -15 15 34 106 58 106 5 0 11 -11 15 -25z m74 -158 c0 -45 -51
-89 -63 -54 -5 16 11 59 26 69 22 14 37 8 37 -15z m-688 -177 c21 -23 44 -56
52 -75 8 -18 24 -43 35 -54 12 -12 21 -29 21 -38 0 -10 23 -65 51 -124 35 -74
53 -129 60 -176 5 -39 18 -80 29 -95 11 -15 27 -62 36 -105 8 -43 23 -89 32
-103 31 -48 82 -154 82 -171 0 -9 13 -41 30 -72 16 -31 33 -75 36 -99 4 -24
13 -50 21 -59 17 -20 14 -120 -3 -126 -6 -2 -16 9 -23 24 -29 63 -235 303
-261 303 -5 0 -57 33 -117 73 -59 40 -135 87 -167 106 -32 18 -82 51 -110 73
-57 46 -120 77 -153 78 -28 0 -30 4 -48 97 -16 84 -33 106 -71 97 -19 -5 -26
-1 -35 22 -11 28 -7 146 7 236 6 38 7 38 53 38 64 0 171 24 222 50 57 29 86
56 110 103 27 51 59 50 111 -3z m-1742 -289 c14 -10 27 -28 28 -41 3 -20 1
-22 -25 -16 -15 4 -72 12 -125 18 -54 6 -98 14 -98 19 0 10 32 28 69 40 38 12
122 1 151 -20z m1247 -265 c25 -22 28 -31 31 -103 3 -68 1 -81 -17 -102 -12
-13 -21 -36 -21 -51 0 -42 -11 -43 -33 -2 -15 28 -21 63 -25 144 -2 58 -2 114
1 122 9 23 32 20 64 -8z m-959 -144 c2 -7 -2 -12 -8 -12 -17 0 -50 19 -50 29
0 13 53 -3 58 -17z m1270 -235 c3 -125 -7 -168 -34 -146 -9 7 -14 31 -15 63 0
28 -4 83 -8 121 -5 39 -6 74 -4 78 3 5 17 7 31 5 l27 -3 3 -118z m-77 -24 c-9
-16 -10 -14 -11 12 0 21 3 26 11 18 8 -8 8 -16 0 -30z m-253 -165 c19 -19 16
-172 -4 -189 -29 -24 -39 17 -34 141 2 62 12 74 38 48z"/>
<path d="M5167 12063 c-11 -10 -8 -72 4 -96 7 -12 23 -35 35 -50 13 -16 24
-37 24 -48 0 -11 11 -31 25 -44 19 -20 34 -25 74 -25 28 0 51 -5 53 -11 2 -7
27 -12 57 -13 l53 -1 18 -46 c22 -60 67 -119 90 -119 20 0 70 54 70 74 0 13
31 46 43 46 15 0 5 -42 -18 -76 -49 -73 -4 -100 63 -40 32 29 51 37 102 45 77
10 94 27 87 90 -6 51 -35 85 -74 86 -25 0 -29 4 -34 43 -6 50 -18 63 -66 77
-20 5 -41 19 -47 30 -16 29 -38 44 -63 45 -26 0 -28 -11 -42 -169 -7 -83 -12
-107 -27 -118 -29 -22 -37 -1 -41 114 -6 157 -9 173 -38 173 -33 0 -55 -36
-55 -90 l-1 -45 -34 40 c-19 22 -38 48 -41 58 -6 19 -26 19 -65 3 -11 -5 -32
6 -63 33 -44 39 -74 50 -89 34z"/>
<path d="M4995 12004 c-19 -19 -19 -28 1 -65 19 -37 91 -73 129 -63 39 10 34
54 -10 93 -20 17 -37 31 -38 31 -1 0 -17 4 -35 9 -24 7 -35 6 -47 -5z"/>
<path d="M4836 11958 c-34 -48 -6 -98 54 -98 61 0 73 48 24 91 -34 30 -61 32
-78 7z"/>
<path d="M4450 11820 c-52 -22 -120 -44 -150 -50 -72 -14 -162 -56 -222 -103
-69 -54 -128 -132 -128 -169 0 -34 42 -98 64 -98 8 0 40 -13 71 -30 68 -36
117 -38 204 -11 75 23 128 62 147 107 7 18 18 36 24 39 6 4 58 10 115 14 88 6
109 11 128 29 13 12 28 22 34 22 6 0 53 -13 103 -30 50 -16 103 -30 116 -30
23 0 24 3 24 61 l0 60 -37 15 c-73 29 -86 39 -105 82 -13 28 -29 47 -46 53
-15 6 -57 26 -94 45 -88 45 -126 44 -248 -6z m160 -96 c51 -48 60 -64 36 -64
-20 0 -109 87 -101 99 9 16 12 15 65 -35z"/>
<path d="M6910 11579 c-14 -6 -45 -27 -70 -48 -25 -21 -63 -47 -85 -59 -42
-22 -149 -126 -206 -202 -18 -25 -62 -78 -96 -118 -81 -93 -93 -113 -105 -164
-5 -24 -16 -50 -24 -59 -20 -22 -15 -93 7 -97 19 -3 52 29 90 88 16 25 43 66
61 92 18 26 42 62 53 79 11 19 42 44 70 58 45 24 63 26 207 31 160 5 187 12
175 44 -5 13 -22 16 -81 16 -75 0 -97 9 -73 29 32 26 173 67 276 81 112 15
128 39 96 147 -21 71 -66 93 -186 92 -46 0 -95 -5 -109 -10z"/>
<path d="M5850 11483 c-27 -7 -41 -57 -60 -222 -14 -124 -22 -168 -34 -177
-22 -15 -20 -31 4 -44 12 -7 20 -21 20 -37 0 -21 -3 -24 -12 -15 -30 30 -39
-8 -11 -47 11 -16 18 -56 23 -125 4 -62 13 -113 23 -132 17 -33 90 -104 107
-104 6 0 37 -25 70 -55 49 -45 66 -55 96 -55 87 0 136 143 85 244 -17 33 -18
41 -7 60 8 11 21 63 30 114 9 51 26 110 38 133 18 35 20 52 16 132 -10 184
-62 185 -109 3 -10 -38 -25 -74 -33 -78 -9 -5 -16 -16 -16 -24 0 -9 -7 -14
-17 -12 -13 3 -17 11 -15 28 11 82 13 140 4 140 -13 0 -38 -56 -46 -102 -4
-21 -11 -38 -16 -38 -5 0 -15 -19 -21 -42 -7 -24 -16 -47 -21 -53 -26 -30 -39
98 -14 138 8 12 19 47 26 77 7 30 21 71 32 91 20 39 15 72 -11 67 -22 -4 -68
-91 -82 -155 -11 -49 -29 -70 -50 -57 -21 13 2 158 27 168 10 4 14 25 14 84 0
81 -9 102 -40 95z"/>
<path d="M3515 11350 c-47 -15 -127 -82 -138 -115 -6 -16 -23 -49 -39 -74 -49
-78 -36 -124 52 -176 87 -52 96 -56 125 -50 17 3 37 7 45 8 9 2 21 6 27 10 6
4 65 12 130 17 65 5 150 12 190 16 62 6 82 3 153 -20 44 -15 91 -26 103 -24
31 4 36 59 8 94 -12 15 -21 35 -21 46 0 72 -103 143 -224 154 -96 9 -156 32
-197 75 -34 37 -39 39 -110 44 -41 2 -87 0 -104 -5z"/>
<path d="M5120 11288 c0 -13 20 -56 45 -97 29 -49 50 -99 61 -147 9 -40 24
-90 35 -111 36 -70 15 -121 -28 -67 -12 16 -32 40 -43 53 -11 13 -20 31 -20
39 0 27 -80 167 -120 210 -22 23 -43 56 -47 73 -7 34 -48 68 -64 52 -14 -14 6
-132 26 -147 21 -16 49 -186 30 -186 -3 0 -51 47 -107 104 -138 139 -244 196
-286 154 -14 -14 -15 -88 -2 -183 14 -94 24 -115 72 -149 50 -36 98 -109 98
-152 0 -17 -8 -42 -19 -55 -17 -21 -22 -22 -45 -11 -15 6 -49 32 -75 57 -63
59 -106 73 -143 45 -15 -11 -39 -20 -53 -20 -17 0 -39 -14 -65 -40 -34 -34
-45 -40 -82 -40 -56 0 -88 -9 -88 -25 0 -12 181 -90 265 -114 23 -7 183 -16
370 -21 380 -10 470 -20 538 -55 27 -14 59 -25 70 -25 43 0 67 -13 73 -36 3
-13 11 -24 18 -24 6 0 49 23 96 50 90 53 119 60 144 34 36 -35 7 -70 -93 -109
-75 -30 -155 -74 -223 -122 -47 -34 -65 -60 -50 -75 10 -10 175 69 217 104 17
15 58 42 91 62 73 42 160 119 170 148 5 17 -12 38 -94 117 -86 82 -102 103
-112 141 -6 25 -20 70 -32 100 -20 50 -35 172 -37 313 -1 26 -6 39 -18 44 -10
3 -28 15 -40 26 -31 27 -50 16 -58 -35 -10 -57 -22 -78 -45 -78 -24 0 -45 31
-60 90 -7 25 -19 53 -28 63 -8 9 -20 27 -26 40 -7 12 -18 22 -26 22 -23 0 -17
-92 9 -142 26 -51 29 -92 6 -73 -8 7 -25 30 -37 51 -12 21 -30 41 -40 45 -10
3 -18 12 -18 20 0 19 -79 104 -96 104 -8 0 -14 -10 -14 -22z m-398 -161 c35
-30 78 -107 60 -107 -18 0 -102 60 -118 84 -13 21 -14 29 -4 41 17 20 19 19
62 -18z m667 -168 c21 -62 8 -105 -24 -79 -20 17 -21 110 -1 110 8 0 19 -14
25 -31z m-300 -120 c39 -63 34 -179 -6 -179 -8 0 -28 14 -44 31 -35 37 -39 83
-9 99 14 8 20 21 20 45 0 43 14 45 39 4z m245 -84 c9 -14 16 -35 16 -49 0 -18
12 -33 45 -56 48 -33 53 -41 31 -59 -20 -17 -36 -5 -89 65 -62 83 -75 113 -57
124 18 11 36 3 54 -25z"/>
<path d="M2986 11068 c-8 -13 -17 -42 -21 -65 -4 -23 -15 -53 -25 -65 -9 -13
-21 -39 -25 -58 -4 -19 -14 -50 -22 -68 -14 -29 -14 -34 1 -57 22 -34 56 -40
117 -20 45 15 53 22 72 64 11 25 26 51 33 56 19 14 32 85 23 120 -13 49 -87
115 -129 115 -5 0 -16 -10 -24 -22z"/>
<path d="M3338 10754 c-15 -8 -78 -32 -139 -54 -61 -22 -124 -48 -141 -58 -29
-17 -45 -52 -33 -71 11 -19 132 -13 178 8 125 56 153 63 144 34 -13 -49 -15
-48 47 -44 54 3 60 1 81 -25 l23 -29 310 0 c171 0 314 3 318 7 14 14 -19 38
-80 57 -33 11 -87 29 -118 40 -32 12 -82 21 -112 21 -69 0 -106 14 -106 39 0
27 -10 32 -81 37 -34 3 -96 16 -138 29 -87 28 -115 30 -153 9z"/>
<path d="M2790 10563 c-19 -3 -40 -9 -46 -14 -19 -15 -3 -68 29 -95 44 -37
145 -86 170 -82 32 4 33 39 2 72 -15 16 -25 39 -25 57 0 16 -9 38 -20 49 -20
20 -36 22 -110 13z"/>
<path d="M4194 10528 c-7 -12 21 -38 42 -38 20 0 27 19 14 35 -15 18 -46 20
-56 3z"/>
<path d="M5775 10245 c-33 -19 -83 -39 -111 -45 -28 -6 -67 -22 -85 -36 -19
-14 -55 -36 -80 -49 -49 -25 -103 -80 -94 -95 7 -11 35 -1 125 46 66 34 100
39 100 14 0 -20 -52 -59 -140 -105 -111 -57 -150 -88 -143 -115 3 -11 12 -20
19 -20 35 0 6 -31 -91 -98 -44 -31 -47 -35 -32 -50 26 -25 77 -20 127 14 52
34 60 36 121 42 36 3 57 13 94 43 26 22 58 42 71 45 13 3 24 9 24 13 0 4 42
28 93 54 110 56 143 80 132 97 -12 20 -60 4 -154 -50 -47 -27 -106 -57 -131
-65 -38 -14 -178 -45 -198 -45 -4 0 25 18 63 39 39 21 117 66 174 100 57 35
133 74 169 87 58 21 122 65 122 85 0 4 -9 5 -20 2 -11 -3 -20 0 -20 6 0 19
-35 12 -70 -14 -19 -14 -38 -25 -43 -25 -5 0 -16 -9 -25 -20 -23 -27 -72 -35
-96 -17 -19 14 -19 16 -2 41 9 15 38 36 64 47 50 22 112 74 112 96 0 19 -8 16
-75 -22z"/>
<path d="M5884 9893 c-12 -2 -30 -13 -40 -24 -9 -10 -23 -19 -30 -19 -7 0 -17
-6 -21 -14 -4 -8 -44 -32 -88 -53 -44 -22 -118 -62 -165 -91 -87 -52 -158 -82
-289 -123 -76 -23 -131 -59 -131 -86 0 -13 10 -15 59 -10 67 6 206 64 361 151
52 30 118 62 145 72 28 10 84 41 125 69 41 28 92 60 113 72 39 23 48 47 21 57
-16 6 -24 6 -60 -1z"/>
<path d="M5960 9808 c-25 -4 -56 -17 -70 -28 -50 -40 -187 -129 -235 -153 -28
-13 -82 -43 -121 -66 -40 -23 -122 -60 -184 -82 -61 -22 -121 -45 -133 -52
-12 -6 -60 -28 -106 -47 -98 -41 -121 -65 -94 -99 12 -14 30 -23 51 -23 37 -1
168 60 215 101 18 16 70 43 117 60 47 18 119 52 160 76 75 44 132 68 181 79
15 3 46 22 69 41 43 36 84 47 78 21 -2 -7 -23 -29 -47 -47 -56 -43 -70 -64
-53 -81 9 -9 21 -5 54 19 24 17 66 42 95 56 85 43 104 89 57 138 l-26 27 26
17 c25 17 34 40 19 48 -5 2 -28 0 -53 -5z"/>
<path d="M5980 9515 c-30 -19 -60 -35 -66 -35 -6 0 -19 -9 -29 -20 -37 -41
-177 -128 -330 -205 -130 -66 -161 -85 -169 -107 -14 -40 0 -46 44 -20 21 12
44 22 49 22 6 0 43 20 83 45 40 25 76 45 81 45 17 0 207 111 207 121 0 6 15
16 33 24 64 27 192 120 195 143 5 33 -34 28 -98 -13z"/>
<path d="M5624 9451 c-38 -15 -124 -57 -190 -93 -70 -39 -156 -77 -209 -93
-100 -30 -165 -60 -165 -76 0 -6 8 -8 19 -4 12 3 21 0 25 -10 15 -40 216 14
307 83 30 22 85 55 124 72 38 17 73 36 76 42 4 6 33 25 65 42 62 33 84 66 42
66 -13 -1 -55 -13 -94 -29z"/>
<path d="M6074 9435 c-27 -13 -77 -47 -111 -75 -34 -27 -67 -50 -73 -50 -6 0
-35 -22 -63 -48 -67 -62 -119 -97 -242 -162 -55 -29 -110 -62 -122 -73 -28
-25 -31 -52 -5 -44 29 9 125 48 157 64 17 9 51 26 77 40 26 13 50 28 53 33 3
5 48 34 99 64 52 31 104 68 115 82 18 22 98 74 116 74 11 0 4 -42 -10 -64 -18
-27 -108 -97 -280 -216 -66 -46 -138 -98 -160 -116 -22 -17 -54 -39 -72 -48
-40 -20 -58 -49 -40 -64 19 -16 117 21 149 57 15 17 34 31 43 31 8 0 21 13 30
30 9 16 34 39 58 51 66 34 114 70 217 163 52 47 101 86 108 86 21 0 112 91
112 112 0 17 -5 19 -40 13 -50 -8 -64 14 -31 49 40 43 -8 49 -85 11z"/>
<path d="M6233 9248 c-34 -16 -57 -69 -49 -111 12 -67 56 -67 120 -1 46 48 49
87 6 109 -33 17 -46 18 -77 3z"/>
<path d="M3845 9047 c-28 -19 -80 -45 -115 -57 -104 -37 -104 -47 -2 -69 131
-29 302 -86 302 -102 0 -5 -48 -9 -107 -9 -145 -1 -183 -10 -239 -55 -62 -51
-103 -64 -205 -65 -111 0 -115 4 -111 116 3 78 2 84 -17 84 -46 0 -294 -238
-312 -301 -7 -21 -23 -46 -36 -54 -13 -9 -23 -25 -23 -38 0 -12 -11 -39 -24
-58 -35 -51 -41 -82 -20 -103 30 -30 73 -9 206 102 113 94 316 182 505 218 67
12 113 15 193 9 58 -4 186 -10 285 -13 203 -8 235 -17 235 -71 0 -25 -8 -38
-50 -88 -15 -18 -95 -16 -110 2 -20 24 -46 18 -60 -14 -28 -68 -86 -91 -156
-61 -29 12 -34 11 -59 -8 -18 -14 -42 -22 -67 -22 -22 0 -70 -13 -106 -29 -37
-16 -89 -36 -115 -45 -26 -9 -69 -27 -95 -40 -26 -13 -60 -26 -77 -30 -39 -10
-84 -38 -148 -93 -29 -24 -80 -60 -114 -79 -59 -33 -79 -56 -67 -75 9 -15 64
-10 70 6 4 8 12 15 20 15 7 0 69 29 136 64 142 74 240 115 353 146 44 12 109
30 145 40 36 10 133 23 216 29 100 7 184 19 250 37 72 18 112 24 146 20 53 -7
188 -50 305 -97 128 -51 132 -52 165 -24 56 47 210 24 225 -34 3 -14 14 -37
24 -51 9 -14 22 -56 29 -95 14 -88 41 -148 74 -170 31 -20 42 -14 51 26 4 17
13 33 21 36 8 3 14 12 14 20 0 9 -6 13 -14 10 -8 -3 -17 1 -20 9 -7 18 9 60
26 67 10 4 10 7 0 14 -17 13 -32 69 -32 120 0 62 -20 144 -36 150 -8 3 -26 -5
-39 -17 l-24 -23 -11 27 c-5 15 -10 33 -10 41 0 7 -9 23 -20 36 -11 13 -27 59
-36 101 -23 105 -52 136 -160 172 -91 30 -105 42 -122 103 -16 53 -47 67 -73
32 -35 -47 -97 -30 -406 110 -235 106 -358 149 -446 157 -59 6 -65 4 -112 -29z
m255 -92 c39 -20 38 -33 -6 -51 -28 -12 -43 -13 -70 -4 -30 10 -74 55 -74 75
0 13 118 -4 150 -20z"/>
<path d="M5212 9064 c-12 -8 -22 -22 -22 -30 0 -20 43 -18 70 4 42 34 -3 58
-48 26z"/>
<path d="M6041 9066 c-7 -8 -11 -32 -9 -53 3 -35 5 -38 37 -41 52 -5 71 48 31
88 -24 24 -43 25 -59 6z"/>
<path d="M4900 8985 c-15 -18 -4 -52 20 -60 46 -15 82 42 41 65 -27 14 -46 13
-61 -5z"/>
<path d="M5890 8972 c-34 -34 -36 -44 -15 -62 8 -7 15 -21 15 -32 0 -33 19
-58 45 -58 20 0 25 6 31 36 4 20 3 59 -2 87 -11 63 -31 71 -74 29z"/>
<path d="M6246 8951 c-8 -12 21 -34 34 -26 17 11 11 35 -9 35 -11 0 -22 -4
-25 -9z"/>
<path d="M4792 8928 c-16 -16 -15 -48 1 -48 19 0 37 21 37 42 0 21 -20 24 -38
6z"/>
<path d="M5240 8915 c-16 -19 -5 -35 24 -35 32 0 56 28 35 41 -21 13 -45 11
-59 -6z"/>
<path d="M6739 8856 c-266 -91 -496 -215 -543 -294 -29 -47 -59 -54 -64 -14
-4 28 21 62 141 194 49 54 87 102 85 108 -2 6 -22 1 -47 -12 -48 -24 -286
-248 -296 -279 -4 -10 -15 -19 -26 -19 -26 0 -26 -46 1 -60 24 -13 27 -63 5
-100 -7 -14 -20 -39 -28 -56 -19 -40 -67 -74 -105 -74 -67 0 -132 -76 -132
-156 0 -60 -11 -104 -25 -104 -22 0 -25 -26 -25 -189 0 -170 8 -261 21 -240
11 19 16 -14 28 -201 6 -91 18 -187 26 -215 10 -31 19 -124 25 -240 14 -278
18 -250 -37 -261 -51 -10 -52 -12 -73 -116 -6 -32 -18 -64 -26 -72 -8 -8 -14
-21 -14 -28 0 -7 -13 -33 -30 -58 -16 -24 -35 -69 -41 -100 -15 -74 -40 -100
-96 -100 -65 0 -180 -28 -250 -61 -54 -26 -65 -36 -87 -81 -14 -29 -26 -59
-26 -67 0 -8 -7 -22 -16 -32 -8 -9 -20 -46 -27 -82 -9 -57 -9 -68 7 -92 22
-33 66 -52 131 -56 108 -5 128 -1 199 46 38 25 75 45 83 45 8 0 27 10 43 22
28 20 30 27 30 84 0 126 33 214 81 214 31 0 40 -27 50 -152 6 -70 15 -127 22
-133 7 -6 17 -19 23 -30 37 -70 335 -116 351 -54 3 10 14 19 24 19 24 0 26 45
4 70 -8 9 -21 49 -30 90 -10 51 -22 79 -35 89 -11 7 -20 19 -20 26 0 23 -80
103 -113 114 -17 5 -55 13 -84 16 -28 4 -59 12 -69 20 -17 12 -17 14 -1 39 12
18 30 28 58 32 29 5 60 23 105 59 57 47 71 54 135 63 77 12 112 34 124 79 25
100 -83 93 -211 -13 -42 -35 -83 -64 -90 -64 -20 0 -19 66 1 74 8 3 15 14 15
24 0 11 14 37 31 58 l31 39 -4 340 c-3 266 -7 345 -18 365 -21 38 -19 162 3
184 24 25 22 87 -4 120 -18 24 -20 30 -9 56 20 48 73 35 139 -34 32 -33 73
-47 85 -28 2 4 -1 26 -7 50 -10 39 -10 43 18 72 21 22 25 30 13 30 -19 0 -24
13 -34 85 -7 57 -28 111 -50 136 -20 22 -14 63 9 67 11 2 43 -19 81 -52 72
-63 99 -76 159 -76 23 -1 67 -9 97 -20 98 -35 184 -19 214 38 8 16 22 32 30
35 8 3 17 19 21 36 3 16 14 40 24 53 10 13 21 36 25 53 10 40 22 52 57 60 49
11 98 -3 111 -30 6 -14 27 -34 46 -45 33 -20 34 -23 29 -66 -5 -50 -30 -84
-61 -84 -26 -1 -118 -50 -123 -67 -15 -45 121 -4 200 61 106 86 122 141 57
200 -100 90 -260 138 -551 165 -122 12 -139 17 -139 41 0 36 166 64 347 58
l118 -3 118 -59 c109 -55 125 -67 207 -153 48 -51 93 -93 99 -93 31 0 -6 88
-73 174 -25 32 -46 66 -46 76 0 10 -6 20 -14 23 -8 3 -19 22 -26 41 -6 20 -18
36 -26 36 -8 0 -23 15 -34 33 -11 17 -30 34 -42 37 -17 4 -24 14 -26 38 -2 24
-10 36 -28 42 -19 7 -24 17 -24 42 0 55 10 62 82 56 36 -3 75 -11 89 -19 13
-7 28 -12 32 -11 5 1 29 -16 55 -39 26 -22 55 -45 65 -50 26 -15 22 19 -8 63
-13 20 -29 55 -34 78 -5 23 -16 49 -24 58 -8 9 -18 32 -22 50 -4 22 -17 40
-37 52 -32 19 -170 60 -204 60 -11 0 -90 -24 -175 -54z m125 -223 c-9 -38 -39
-85 -63 -100 -11 -7 -38 -16 -60 -19 -23 -4 -46 -13 -52 -20 -16 -20 -49 -18
-49 4 0 35 12 60 31 65 11 3 19 14 19 25 0 25 25 46 45 38 9 -3 15 -18 15 -38
l0 -33 52 53 c29 28 56 52 61 52 4 0 4 -12 1 -27z m-959 -490 c-1 -87 -19
-133 -55 -133 -45 0 -64 81 -34 146 18 38 61 77 78 71 7 -2 11 -35 11 -84z
m656 10 c15 -15 2 -35 -39 -64 -47 -33 -106 -52 -132 -44 -18 6 -21 13 -18 58
l3 52 45 6 c57 9 129 4 141 -8z m-722 -250 c5 -21 12 -64 16 -96 4 -32 13 -70
21 -85 16 -31 19 -98 5 -107 -15 -8 -21 -70 -30 -303 -5 -118 -12 -217 -16
-220 -17 -18 -44 42 -50 113 -9 90 0 681 10 713 11 34 33 26 44 -15z m-122
-85 c-3 -7 -5 -2 -5 12 0 14 2 19 5 13 2 -7 2 -19 0 -25z m162 -864 c19 -55
27 -205 12 -232 -28 -52 -40 -11 -48 167 -4 92 -2 112 9 109 7 -3 19 -22 27
-44z"/>
<path d="M5664 8822 c-21 -16 -61 -53 -89 -83 l-50 -54 27 -3 c15 -2 36 2 47
7 36 20 57 13 74 -24 9 -19 22 -35 28 -35 14 0 69 59 69 74 0 6 -7 20 -15 30
-9 11 -15 41 -15 68 0 58 -17 63 -76 20z"/>
<path d="M6082 8838 c-19 -19 -14 -38 11 -38 31 0 51 15 44 34 -7 19 -38 21
-55 4z"/>
<path d="M4995 8820 c-10 -17 20 -44 40 -36 9 3 15 14 13 23 -4 21 -43 30 -53
13z"/>
<path d="M5927 8713 c-25 -29 -32 -72 -12 -79 40 -16 110 51 85 81 -17 20 -53
19 -73 -2z"/>
<path d="M1886 8711 c-6 -9 7 -92 19 -123 4 -10 11 -18 16 -18 4 0 16 -14 26
-31 10 -17 55 -58 101 -91 45 -32 82 -63 82 -68 0 -5 23 -16 50 -25 37 -12 52
-23 56 -40 10 -42 -6 -64 -77 -106 -41 -24 -78 -54 -89 -72 -11 -18 -28 -42
-39 -54 -10 -12 -24 -45 -31 -73 -7 -27 -16 -53 -21 -56 -19 -11 -8 -43 31
-90 27 -33 43 -65 52 -102 16 -72 72 -132 145 -156 34 -11 62 -29 78 -49 29
-36 40 -29 51 33 3 19 14 69 25 110 31 119 39 185 42 340 l2 145 -32 48 c-17
27 -34 66 -38 87 -4 21 -13 44 -20 50 -7 6 -19 33 -25 61 -9 37 -19 53 -39 63
-14 8 -62 46 -106 86 -104 93 -240 162 -259 131z m452 -687 c15 -43 10 -173
-8 -215 -29 -67 -68 -125 -89 -136 -30 -14 -58 -2 -70 31 -5 12 -16 28 -25 35
-20 17 -22 53 -2 45 11 -4 17 5 21 33 17 102 36 146 87 200 28 29 56 52 62 50
6 -2 17 -21 24 -43z"/>
<path d="M1674 8595 c-7 -19 -14 -39 -14 -44 0 -6 -9 -15 -20 -21 -11 -6 -20
-16 -20 -22 0 -6 -17 -45 -37 -86 -36 -74 -37 -78 -38 -192 l0 -117 59 -68
c52 -59 61 -74 67 -122 9 -65 21 -82 44 -63 19 16 19 49 0 70 -12 14 -13 26
-4 75 12 67 6 112 -17 130 -22 16 -23 194 -1 245 8 19 18 72 22 117 11 124 -9
173 -41 98z"/>
<path d="M5743 8554 c-8 -21 13 -42 28 -27 13 13 5 43 -11 43 -6 0 -13 -7 -17
-16z"/>
<path d="M5350 8485 c-10 -12 -9 -16 3 -21 25 -9 51 0 55 19 4 22 -40 24 -58
2z"/>
<path d="M5418 8368 c9 -9 15 -9 24 0 9 9 7 12 -12 12 -19 0 -21 -3 -12 -12z"/>
<path d="M4180 8229 c-63 -6 -176 -27 -285 -53 -99 -24 -205 -50 -235 -56 -60
-14 -91 -27 -102 -44 -15 -22 -7 -57 17 -78 14 -12 25 -29 25 -38 0 -43 109
-169 163 -189 69 -26 155 -8 227 49 53 42 93 49 113 20 l16 -22 35 21 c46 29
75 81 91 164 7 38 20 77 29 86 26 25 173 21 256 -9 89 -31 180 -78 187 -95 3
-8 11 -15 18 -15 8 0 26 -11 42 -24 43 -36 69 -40 92 -17 12 12 21 27 21 34 0
39 -82 97 -137 97 -37 0 -54 13 -143 105 l-73 75 -126 -1 c-69 -1 -173 -6
-231 -10z m-56 -160 c19 -17 -4 -38 -49 -45 -58 -8 -183 0 -196 13 -14 14 0
41 24 46 33 7 211 -4 221 -14z"/>
<path d="M7099 7827 c-35 -18 -104 -57 -154 -85 -49 -29 -96 -56 -104 -60 -8
-5 -17 -14 -19 -20 -5 -16 33 -15 92 3 81 25 75 3 -15 -55 -32 -20 -76 -40
-97 -44 -22 -3 -50 -14 -62 -24 -62 -50 55 -59 146 -12 118 63 254 179 254
217 0 9 15 29 33 44 26 23 30 31 21 45 -16 28 -26 27 -95 -9z"/>
<path d="M4445 7829 c-38 -10 -98 -24 -132 -30 -67 -12 -78 -24 -37 -39 33
-13 165 -13 199 0 18 7 33 7 47 -1 21 -11 21 -12 2 -26 -10 -7 -45 -23 -77
-35 -60 -22 -78 -41 -58 -61 14 -14 136 5 197 33 52 22 67 59 38 91 -17 19
-18 21 -1 30 42 24 -3 60 -71 58 -20 0 -68 -9 -107 -20z"/>
<path d="M1770 7703 c0 -33 5 -45 25 -60 18 -12 31 -37 41 -78 9 -33 22 -67
30 -76 8 -8 14 -21 14 -28 0 -7 13 -40 30 -74 16 -34 34 -86 41 -115 7 -36 17
-56 32 -63 12 -6 34 -23 49 -37 l27 -25 60 58 c34 32 61 63 61 70 0 10 -128
138 -201 201 -31 27 -121 140 -142 179 -9 17 -28 44 -42 60 l-25 30 0 -42z"/>
<path d="M4754 7719 c-26 -30 -141 -82 -239 -109 -96 -26 -205 -77 -205 -97 0
-21 23 -25 56 -11 19 8 80 12 174 13 163 0 197 10 226 68 10 17 23 37 31 42
10 7 13 26 11 60 -3 57 -22 69 -54 34z"/>
<path d="M6257 6912 c-25 -28 -22 -77 7 -100 23 -17 23 -20 9 -35 -13 -13 -14
-19 -4 -31 18 -22 32 -137 21 -175 -5 -18 -27 -50 -50 -72 -38 -37 -41 -43
-38 -87 3 -46 4 -47 39 -50 34 -3 37 0 92 80 70 102 87 150 87 241 0 56 -5 79
-24 111 -13 23 -26 55 -30 71 -4 17 -15 38 -23 48 -21 22 -65 22 -86 -1z"/>
<path d="M4929 6735 c-84 -64 -92 -75 -114 -170 -8 -38 -21 -75 -27 -82 -8
-10 -7 -18 5 -31 8 -9 18 -32 22 -50 17 -79 124 -95 242 -37 39 19 85 35 102
35 42 0 136 -49 201 -104 30 -25 62 -46 71 -46 39 0 35 94 -8 157 -70 106
-140 142 -289 150 -90 5 -91 5 -112 -22 -12 -15 -22 -33 -22 -40 0 -19 -40
-65 -56 -65 -8 0 -14 6 -14 14 0 7 -10 16 -21 19 -20 5 -21 10 -15 59 4 29 18
71 31 93 29 50 83 105 102 105 21 0 13 64 -8 68 -9 2 -49 -22 -90 -53z"/>
<path d="M2647 5893 c-11 -10 -8 -59 4 -86 12 -26 62 -61 73 -50 15 15 5 91
-15 117 -19 25 -48 34 -62 19z"/>
<path d="M4459 5675 c-14 -8 -32 -28 -39 -44 -6 -16 -18 -32 -26 -35 -19 -7
-18 -55 1 -76 8 -9 18 -44 21 -77 4 -34 10 -67 14 -73 12 -20 59 -15 84 9 26
25 39 26 56 6 17 -20 118 -20 297 1 96 11 212 16 383 15 135 -1 432 -3 660 -4
228 -2 422 -6 432 -11 12 -5 28 3 57 29 45 41 71 107 71 182 0 37 -4 44 -31
59 -52 26 -129 -10 -129 -62 0 -12 -14 -36 -31 -53 -43 -43 -82 -41 -274 18
-88 27 -173 51 -189 54 -15 2 -72 -6 -125 -20 -93 -23 -101 -24 -228 -12 -161
14 -224 9 -373 -32 -177 -49 -428 -51 -481 -3 -9 8 -22 35 -28 60 -19 77 -63
101 -122 69z"/>
<path d="M3539 4878 c-4 -40 30 -88 62 -88 41 0 41 55 0 87 -21 16 -61 16 -62
1z"/>
<path d="M3640 4748 c0 -62 27 -107 82 -137 37 -21 51 -24 65 -15 37 22 28 54
-30 108 -30 28 -68 59 -86 69 l-31 18 0 -43z"/>
<path d="M3826 4551 c-4 -6 -4 -25 -1 -42 8 -37 52 -59 120 -59 49 0 67 18 48
49 -22 36 -152 77 -167 52z"/>
<path d="M4422 2933 c-32 -6 -136 -106 -157 -149 -14 -31 -17 -59 -13 -178 2
-84 9 -150 16 -163 16 -29 43 -36 127 -36 114 1 174 39 145 93 -6 11 -21 22
-33 24 -104 22 -133 32 -160 56 l-30 27 17 49 c9 27 22 69 29 94 15 55 44 73
91 58 39 -13 64 -35 82 -70 29 -56 58 -25 56 60 0 54 -17 97 -46 115 -24 16
-90 27 -124 20z"/>
<path d="M1287 4273 c-16 -15 -6 -34 15 -31 29 4 38 38 10 38 -10 0 -22 -3
-25 -7z"/>
<path d="M1295 4006 c-36 -37 -77 -85 -90 -106 -29 -45 -43 -56 -57 -42 -7 7
-4 25 12 56 23 49 21 72 -6 83 -22 8 -42 -19 -56 -75 -6 -23 -19 -47 -29 -53
-22 -11 -25 -42 -6 -57 6 -6 25 -12 42 -14 37 -4 44 -29 16 -64 -22 -28 -28
-88 -12 -113 14 -22 37 2 45 44 4 19 15 40 25 47 10 7 24 31 31 53 7 22 20 49
30 60 10 11 23 37 30 58 6 21 27 57 45 81 82 108 70 135 -20 42z"/>
<path d="M1443 3967 c-29 -31 -53 -62 -53 -70 0 -8 -11 -22 -25 -31 -13 -9
-28 -31 -34 -51 -5 -19 -18 -47 -29 -62 -10 -15 -26 -50 -35 -77 -10 -27 -24
-57 -33 -67 -8 -9 -18 -43 -21 -75 -6 -54 -5 -59 21 -79 25 -20 29 -32 37
-106 12 -109 13 -112 46 -105 35 7 48 -1 57 -39 13 -52 62 -86 81 -55 14 22
23 7 31 -52 5 -34 15 -63 21 -66 7 -2 21 11 30 29 10 18 26 40 35 50 10 10 22
45 27 78 5 33 21 80 34 103 14 24 30 67 37 96 7 30 19 56 26 59 18 7 18 33 0
33 -22 0 -63 -59 -91 -130 -27 -69 -65 -124 -97 -141 -21 -11 -21 -11 -15 83
3 52 10 103 14 113 6 17 8 16 19 -10 l13 -30 1 41 c0 52 18 104 35 104 14 0
35 50 35 81 0 11 9 28 20 39 12 12 18 25 15 30 -10 15 -68 12 -93 -6 -30 -21
-40 -42 -57 -126 -13 -62 -35 -122 -74 -198 -5 -8 -14 -15 -22 -15 -25 0 -21
45 11 113 17 37 34 90 37 117 4 32 14 59 28 75 12 14 26 42 29 63 4 22 13 37
21 37 8 0 19 17 25 38 5 22 19 49 30 62 23 26 23 29 10 50 -8 13 -13 12 -36
-6 -24 -18 -106 -136 -120 -174 -3 -8 -10 -27 -15 -41 -6 -14 -30 -48 -54 -75
l-44 -49 -1 70 c0 64 3 74 35 119 19 27 35 55 35 62 0 6 6 17 14 23 24 20 98
178 94 202 -3 19 -9 15 -55 -34z"/>
<path d="M1776 3317 c-31 -41 -90 -166 -106 -227 -7 -25 -22 -63 -35 -85 -27
-47 -40 -101 -26 -109 18 -11 38 5 56 44 10 21 23 41 30 44 7 2 18 28 25 58
19 83 20 88 36 88 8 0 14 5 14 11 0 7 14 49 31 95 42 109 28 151 -25 81z"/>
<path d="M1911 3181 c-10 -10 -22 -33 -26 -50 -4 -17 -15 -36 -26 -41 -10 -6
-19 -16 -19 -22 0 -6 -16 -30 -35 -54 -19 -23 -35 -49 -35 -58 0 -9 -6 -16
-14 -16 -8 0 -22 -22 -31 -52 -10 -29 -24 -60 -31 -69 -19 -21 -29 -75 -15
-83 14 -9 86 57 101 94 7 17 18 30 25 30 8 0 16 15 20 33 4 17 17 48 29 67 13
19 38 59 56 88 51 83 53 185 1 133z"/>
<path d="M1987 3001 c-14 -17 -31 -47 -37 -68 -7 -21 -20 -47 -30 -58 -10 -11
-23 -36 -29 -56 -6 -20 -23 -51 -37 -70 -38 -51 -64 -105 -64 -134 0 -58 46
-15 110 104 28 52 54 108 57 125 3 17 16 42 28 56 12 14 25 33 28 43 4 9 14
17 22 17 12 0 15 8 13 32 -4 44 -29 47 -61 9z"/>
<path d="M2079 2803 c-36 -43 -68 -101 -78 -139 -6 -23 -25 -59 -42 -80 -79
-99 -113 -164 -87 -164 33 0 226 261 244 329 16 62 -5 92 -37 54z"/>
<path d="M2139 2545 c-50 -53 -89 -112 -89 -137 0 -9 -6 -21 -14 -25 -23 -13
-25 -93 -3 -93 20 0 72 60 87 100 7 19 19 40 26 45 6 6 19 28 28 49 9 22 23
44 32 51 20 14 15 49 -7 53 -9 2 -36 -18 -60 -43z"/>
<path d="M2263 2420 c-13 -5 -23 -17 -23 -27 0 -10 -16 -38 -35 -62 -37 -47
-44 -81 -20 -101 33 -27 100 33 111 101 4 21 13 44 20 50 8 6 14 20 14 30 0
21 -28 24 -67 9z"/>
<path d="M2355 2274 c-8 -9 -15 -21 -15 -28 0 -7 -8 -20 -18 -30 -11 -9 -24
-34 -31 -56 -6 -21 -18 -46 -26 -54 -22 -21 -29 -68 -13 -89 12 -16 15 -16 46
0 28 15 40 33 67 101 32 78 39 105 36 143 -1 24 -28 31 -46 13z"/>
<path d="M2442 2093 c-31 -28 -110 -150 -117 -182 -8 -36 16 -86 44 -94 59
-15 81 10 96 113 4 25 13 59 20 75 23 53 25 66 15 86 -13 24 -32 24 -58 2z"/>
<path d="M2524 1753 c-33 -6 -56 -37 -52 -70 3 -24 8 -28 40 -31 30 -3 40 1
53 22 20 29 16 80 -5 82 -8 1 -25 0 -36 -3z"/>
<path d="M7424 904 c-19 -19 -34 -42 -34 -51 0 -9 -14 -40 -31 -70 -26 -46
-31 -64 -31 -123 0 -43 6 -79 16 -97 8 -15 25 -47 36 -70 12 -24 25 -43 29
-43 5 0 14 -13 19 -29 12 -34 82 -84 109 -79 26 5 61 76 69 141 6 49 3 63 -20
106 -29 57 -36 112 -12 91 12 -9 17 -4 26 30 27 102 -10 159 -51 78 -12 -24
-32 -56 -45 -71 -13 -16 -24 -41 -24 -55 0 -42 -36 -94 -63 -90 -18 2 -23 10
-25 47 -2 29 2 49 12 60 9 10 23 40 32 67 9 27 22 56 29 64 14 16 35 84 35
113 0 29 -40 20 -76 -19z"/>
</g>
</svg>
