<?xml version="1.0" standalone="no"?>
<!DOCTYPE svg PUBLIC "-//W3C//DTD SVG 20010904//EN"
 "http://www.w3.org/TR/2001/REC-SVG-20010904/DTD/svg10.dtd">
<svg version="1.0" xmlns="http://www.w3.org/2000/svg"
 width="1056.000000pt" height="1280.000000pt" viewBox="0 0 1056.000000 1280.000000"
 preserveAspectRatio="xMidYMid meet">
<metadata>
Created by potrace 1.15, written by Peter Selinger 2001-2017
</metadata>
<g transform="translate(0.000000,1280.000000) scale(0.100000,-0.100000)"
fill="#000000" stroke="none">
<path d="M4880 12779 c-93 -17 -121 -17 -244 -8 -76 6 -166 8 -200 4 -34 -3
-151 -35 -261 -70 -110 -35 -281 -89 -380 -119 -260 -80 -376 -126 -431 -172
-137 -115 -192 -157 -224 -171 -108 -47 -141 -65 -171 -91 -19 -16 -46 -35
-61 -43 -14 -8 -61 -43 -104 -79 -187 -156 -402 -381 -549 -575 -49 -66 -123
-158 -163 -205 -40 -47 -75 -96 -78 -110 -4 -14 -17 -36 -30 -50 -25 -28 -79
-131 -89 -172 -4 -15 -13 -29 -20 -32 -7 -2 -21 -38 -30 -78 -9 -40 -22 -80
-30 -88 -7 -8 -21 -44 -30 -80 -9 -36 -23 -72 -30 -80 -7 -8 -16 -25 -19 -37
-4 -13 -11 -23 -16 -23 -15 0 -39 -54 -51 -112 -6 -29 -17 -62 -24 -73 -7 -11
-20 -74 -29 -139 -9 -65 -23 -130 -31 -144 -8 -15 -21 -74 -30 -131 -9 -57
-22 -115 -29 -130 -8 -14 -17 -50 -21 -79 -4 -29 -18 -73 -31 -98 -13 -25 -29
-66 -35 -92 -6 -26 -18 -57 -25 -69 -8 -13 -21 -59 -29 -102 -9 -44 -22 -96
-30 -115 -21 -49 -21 -280 0 -319 8 -16 21 -65 30 -110 8 -44 21 -88 29 -96 7
-9 16 -32 20 -52 4 -20 21 -56 39 -79 87 -113 79 -86 75 -270 -3 -120 -9 -174
-20 -200 -9 -19 -20 -48 -24 -65 -7 -22 -25 -38 -69 -63 -97 -54 -143 -97
-156 -145 -16 -60 -7 -208 14 -241 18 -27 25 -82 47 -395 5 -79 14 -149 19
-155 5 -6 17 -40 26 -74 9 -35 27 -85 39 -110 62 -123 84 -268 50 -320 -25
-38 -27 -231 -3 -258 9 -11 22 -43 29 -71 6 -29 22 -65 33 -80 19 -24 23 -44
28 -170 5 -135 7 -144 34 -182 23 -35 27 -48 23 -89 -3 -27 -16 -71 -29 -98
-22 -44 -24 -62 -24 -179 0 -116 2 -134 22 -165 13 -22 26 -68 34 -123 8 -56
19 -95 30 -108 10 -12 21 -30 24 -40 4 -11 28 -30 53 -43 60 -31 84 -57 122
-133 23 -45 46 -72 87 -105 32 -23 93 -76 137 -116 44 -39 86 -72 93 -72 7 0
20 -8 30 -19 10 -10 54 -28 98 -39 44 -12 100 -28 124 -36 59 -21 98 -20 187
6 82 24 104 20 114 -23 5 -19 13 -25 43 -27 29 -3 41 -9 49 -28 6 -13 15 -24
19 -24 4 0 40 -33 81 -73 40 -39 101 -96 136 -125 72 -61 77 -83 42 -174 -15
-37 -26 -112 -39 -248 -22 -233 -21 -230 -158 -356 -128 -117 -266 -257 -315
-319 -66 -84 -210 -226 -265 -262 -29 -18 -60 -47 -68 -64 -9 -16 -21 -27 -26
-23 -6 3 -17 -3 -25 -15 -24 -34 -207 -150 -296 -187 -165 -70 -310 -116 -420
-134 -37 -5 -87 -19 -111 -29 -24 -10 -70 -24 -103 -31 -128 -25 -531 -132
-601 -159 -75 -29 -143 -73 -143 -92 0 -6 10 -19 22 -28 19 -16 20 -21 10 -50
-17 -48 -103 -181 -118 -181 -16 0 -74 -67 -74 -85 0 -24 28 -17 46 11 9 14
23 23 30 20 8 -3 14 1 14 10 0 9 13 28 29 43 15 14 31 35 34 46 11 32 182 203
211 211 15 3 30 4 33 0 10 -10 -21 -66 -69 -126 -25 -30 -57 -75 -72 -100 -15
-25 -43 -67 -62 -94 -36 -51 -45 -96 -19 -96 17 0 41 34 50 72 8 32 100 142
258 309 100 106 118 121 131 110 25 -21 20 -68 -10 -87 -14 -10 -34 -33 -45
-53 -10 -20 -23 -43 -28 -51 -5 -8 -15 -31 -24 -50 -8 -19 -38 -63 -66 -98
-28 -35 -51 -69 -51 -76 0 -7 -9 -21 -20 -31 -10 -9 -24 -34 -31 -54 -6 -20
-23 -48 -38 -64 -14 -15 -36 -38 -48 -51 -13 -13 -23 -30 -23 -39 0 -8 -12
-25 -27 -37 -32 -25 -52 -57 -53 -84 0 -11 -9 -29 -19 -40 -24 -27 -13 -61 24
-70 38 -10 49 4 64 78 7 36 22 75 32 87 10 12 19 28 19 35 0 6 15 31 34 53 19
23 38 50 41 61 4 11 10 20 16 20 5 0 15 15 23 34 8 19 21 38 29 42 8 5 23 27
33 49 11 22 26 40 34 40 8 0 16 9 19 20 4 22 30 63 72 112 15 17 34 54 44 82
9 28 25 56 35 61 11 6 40 28 65 50 25 22 50 40 56 40 18 0 9 -46 -16 -82 -14
-20 -25 -43 -25 -49 0 -7 -8 -22 -18 -33 -10 -12 -25 -37 -32 -56 -7 -19 -21
-44 -30 -55 -34 -40 -88 -151 -95 -194 -5 -33 -19 -57 -52 -92 -30 -32 -43
-54 -39 -65 10 -25 40 -12 51 24 5 17 13 32 17 32 4 0 17 19 29 42 12 24 32
57 45 74 13 17 24 38 24 46 0 8 13 27 30 41 16 15 30 35 30 45 0 9 9 23 20 30
11 7 20 18 20 26 0 7 11 29 25 49 13 20 29 55 35 78 8 29 31 61 75 106 65 68
88 75 93 30 4 -30 -13 -62 -68 -132 -22 -27 -45 -66 -50 -85 -6 -19 -57 -96
-115 -170 -57 -74 -107 -146 -110 -159 -3 -12 -14 -35 -25 -50 -10 -14 -22
-42 -25 -61 l-7 -35 36 34 c20 19 36 41 36 48 0 7 9 18 20 25 11 7 20 20 20
28 0 9 22 41 49 71 50 57 74 96 85 141 3 16 11 25 19 23 7 -3 20 12 29 33 10
20 42 64 73 97 45 49 54 55 51 35 -16 -89 -33 -141 -63 -194 -51 -93 -63 -123
-63 -157 0 -31 1 -31 35 -26 44 7 50 -3 24 -37 -20 -26 -49 -35 -49 -16 0 14
-47 12 -60 -2 -6 -7 -21 -29 -35 -48 -13 -19 -36 -51 -50 -71 -16 -22 -31 -65
-40 -115 -10 -51 -25 -92 -43 -118 -15 -21 -39 -57 -54 -80 -15 -22 -33 -48
-41 -56 -8 -8 -17 -33 -21 -55 -4 -22 -18 -56 -31 -75 -13 -19 -29 -55 -35
-80 -6 -25 -17 -54 -25 -65 -18 -30 -28 -81 -20 -115 5 -23 12 -30 31 -30 32
0 51 32 63 106 6 39 21 79 41 110 l32 49 -7 -51 c-9 -67 8 -129 41 -151 24
-16 28 -15 62 3 20 10 47 36 61 56 14 21 32 37 40 38 18 0 86 50 162 117 81
73 174 140 239 173 37 19 89 63 160 137 152 155 280 304 280 324 0 35 -110
-32 -136 -82 -27 -53 -143 -176 -201 -215 -32 -21 -107 -82 -168 -137 -60 -55
-140 -120 -177 -145 -38 -25 -68 -48 -68 -53 0 -4 -10 -11 -22 -15 -13 -3 -42
-24 -65 -45 -73 -67 -143 -88 -143 -43 0 9 15 30 34 47 19 18 71 66 116 107
45 41 97 89 116 106 19 18 40 34 47 37 32 12 182 134 196 159 9 15 24 31 34
34 27 9 87 64 87 80 0 29 -42 12 -99 -40 -33 -30 -77 -66 -98 -79 -21 -14 -66
-50 -101 -80 -64 -56 -182 -142 -182 -133 0 32 25 169 36 194 15 37 63 62 119
62 51 0 142 45 157 78 7 15 30 35 50 44 20 9 46 33 58 53 12 19 26 35 31 35 5
0 11 11 15 24 4 16 17 29 36 35 16 6 52 27 79 47 54 39 83 39 101 -1 14 -30
-8 -67 -49 -85 -29 -13 -90 -96 -79 -108 19 -18 157 94 223 181 25 34 62 78
81 99 33 35 34 36 14 47 -11 6 -28 11 -36 11 -9 0 -16 9 -16 20 0 38 27 86 90
159 34 39 76 97 93 128 50 87 70 98 185 98 79 0 103 -4 132 -20 51 -30 70 -75
70 -168 0 -68 -4 -87 -36 -155 -20 -42 -42 -84 -49 -92 -6 -8 -17 -42 -24 -75
-7 -33 -19 -70 -26 -81 -8 -12 -21 -52 -30 -90 -8 -37 -24 -81 -34 -98 -10
-17 -24 -53 -30 -81 -7 -27 -18 -57 -25 -65 -8 -8 -19 -33 -26 -55 -7 -22 -21
-51 -31 -65 -10 -14 -23 -45 -29 -70 -7 -25 -25 -68 -41 -96 -16 -28 -29 -59
-29 -69 0 -9 -9 -28 -19 -41 -11 -14 -22 -44 -26 -67 -4 -23 -16 -60 -26 -83
-23 -51 -46 -261 -31 -276 17 -17 59 16 67 51 3 16 12 35 20 41 7 6 16 39 20
74 7 71 21 90 73 101 41 8 52 34 52 118 0 43 6 74 20 99 11 20 27 67 36 103
22 87 38 80 42 -18 2 -62 0 -78 -13 -83 -12 -5 -15 -23 -15 -84 0 -84 8 -140
20 -140 13 0 21 48 31 193 5 82 15 152 23 168 19 38 24 65 36 191 5 60 16 118
24 130 7 13 19 48 26 78 7 30 21 72 30 95 10 22 23 92 30 155 7 63 18 124 25
135 6 11 18 38 25 60 7 22 20 49 30 60 10 11 27 52 39 91 19 65 44 105 57 92
10 -10 -17 -144 -36 -175 -11 -19 -15 -33 -9 -33 12 0 9 -26 -15 -110 -9 -30
-16 -69 -16 -88 0 -18 -7 -46 -15 -63 -9 -16 -20 -65 -26 -109 -5 -44 -18
-108 -29 -143 -13 -40 -25 -132 -36 -257 -8 -109 -22 -209 -30 -228 -19 -46
-19 -172 1 -198 8 -10 17 -40 21 -66 8 -57 24 -74 51 -57 28 17 62 71 75 115
5 21 19 49 29 63 11 13 19 35 19 48 0 14 15 60 34 104 19 43 37 97 41 121 4
23 16 54 25 68 10 14 23 54 29 89 6 35 17 71 24 80 8 9 20 41 27 71 7 30 23
75 37 98 21 38 26 62 32 170 5 95 11 134 24 153 17 25 17 28 1 43 -15 16 -15
18 0 35 9 10 16 23 16 29 0 19 28 14 40 -7 15 -29 13 -118 -3 -124 -10 -4 -16
-38 -21 -119 -12 -196 -27 -300 -52 -356 -13 -29 -24 -56 -24 -60 0 -4 -9 -15
-20 -25 -11 -9 -20 -28 -20 -42 0 -13 -14 -51 -30 -83 -23 -43 -32 -76 -37
-132 l-5 -75 36 50 c20 27 36 57 36 65 0 9 8 23 18 31 10 9 24 44 32 77 7 34
19 67 27 74 35 28 71 133 82 236 6 57 19 117 28 135 12 23 18 65 21 153 4 119
4 121 -28 187 -17 36 -38 71 -46 78 -17 14 -21 219 -4 219 11 0 15 -15 34
-139 12 -73 20 -100 39 -120 50 -53 73 -122 52 -154 -9 -15 -18 -98 -29 -265
-11 -179 -19 -250 -30 -267 -15 -23 -20 -51 -18 -92 3 -38 28 -26 41 19 7 24
19 53 27 65 7 12 18 55 24 95 13 85 28 138 40 138 4 0 11 12 15 28 4 15 10 21
12 15 3 -7 14 -13 25 -13 14 0 18 -5 14 -16 -3 -8 -15 -63 -27 -122 -12 -59
-29 -123 -39 -142 -9 -19 -25 -77 -35 -129 -16 -83 -23 -100 -65 -155 -26 -34
-51 -72 -55 -84 -11 -37 -30 -19 -33 33 -2 36 1 51 12 57 12 7 16 24 16 63 0
70 -22 74 -44 8 -9 -25 -22 -53 -30 -62 -8 -9 -21 -40 -30 -70 -9 -30 -22 -61
-29 -70 -8 -9 -19 -36 -26 -61 -7 -24 -22 -55 -32 -69 -39 -50 -14 -89 30 -47
32 30 37 32 45 10 4 -10 -6 -42 -24 -75 -16 -32 -30 -65 -30 -73 0 -8 -6 -19
-14 -23 -7 -4 -21 -23 -30 -40 -23 -46 -46 -43 -46 5 0 28 7 45 25 62 15 14
25 35 25 51 0 27 -1 27 -28 13 -16 -7 -34 -24 -41 -37 -19 -35 -68 -62 -86
-47 -21 17 -19 32 10 75 14 20 29 51 32 67 3 16 12 32 19 35 22 8 16 20 -16
33 -39 16 -56 3 -71 -54 -6 -22 -20 -50 -30 -62 -12 -12 -22 -42 -26 -73 -5
-44 -3 -55 15 -74 11 -12 28 -41 37 -65 23 -57 57 -82 111 -82 42 0 44 2 88
68 25 37 46 73 46 79 0 6 7 17 17 24 9 8 25 33 35 57 10 23 23 42 28 42 5 0
16 26 25 58 9 31 23 64 30 72 7 8 18 33 25 55 7 22 20 48 29 58 19 23 64 98
88 149 10 21 23 38 29 38 16 0 31 45 38 109 3 30 12 61 19 70 8 9 18 43 22 76
8 70 20 96 39 89 36 -14 26 136 -13 200 -11 17 -22 49 -26 71 -4 22 -13 54
-20 70 -7 17 -21 82 -30 145 -9 63 -21 120 -26 126 -4 6 -15 42 -24 80 -9 38
-25 90 -35 116 -11 26 -20 66 -20 89 0 29 -8 54 -25 78 -18 28 -29 66 -44 165
-10 70 -24 133 -30 139 -6 6 -11 48 -11 94 0 78 1 83 26 100 39 25 55 8 75
-83 9 -43 27 -101 38 -127 12 -27 21 -54 21 -61 0 -7 10 -33 23 -57 13 -24 29
-71 36 -104 7 -33 19 -69 26 -81 7 -11 21 -58 30 -105 9 -46 22 -90 27 -97 6
-7 19 -57 29 -112 10 -55 25 -110 33 -122 8 -13 19 -57 26 -98 7 -41 18 -85
26 -97 7 -12 21 -54 30 -95 9 -40 22 -80 30 -88 7 -9 20 -36 29 -60 9 -24 22
-51 29 -60 7 -8 21 -38 30 -67 10 -28 22 -53 27 -55 5 -2 18 -35 28 -74 10
-38 25 -81 33 -95 9 -13 21 -48 28 -77 7 -28 16 -55 21 -58 5 -3 16 -20 24
-37 8 -18 26 -47 39 -65 48 -65 43 -181 -7 -166 -32 9 -68 44 -83 82 -8 17
-21 32 -29 32 -9 0 -15 9 -15 24 0 13 -10 38 -23 57 -59 89 -107 178 -113 209
-4 19 -13 40 -20 46 -8 6 -20 27 -28 46 -8 19 -22 40 -30 48 -9 7 -16 21 -16
32 0 10 -7 21 -17 25 -22 9 -52 -30 -59 -78 -4 -21 -13 -44 -20 -50 -8 -6 -21
-37 -30 -68 -9 -31 -23 -63 -30 -72 -8 -9 -21 -40 -30 -70 -9 -30 -22 -61 -29
-69 -7 -8 -20 -44 -29 -80 -18 -78 -68 -201 -95 -236 -11 -14 -23 -50 -27 -81
-6 -48 -13 -63 -60 -115 -32 -36 -54 -70 -54 -84 0 -42 92 -90 158 -82 20 2
28 9 30 28 2 14 12 34 22 45 10 11 24 40 30 65 7 25 18 52 26 60 7 9 20 35 29
59 8 23 23 53 34 67 11 14 23 39 26 57 4 18 15 41 25 52 9 11 23 42 30 68 7
26 21 58 30 70 10 12 25 49 34 81 18 60 66 123 86 111 15 -9 12 -65 -4 -71 -9
-3 -22 -37 -31 -77 -9 -40 -22 -79 -30 -87 -7 -8 -19 -41 -26 -74 -7 -32 -19
-64 -26 -72 -8 -7 -20 -32 -28 -54 -8 -23 -24 -53 -35 -67 -11 -14 -20 -31
-20 -37 0 -7 -16 -38 -35 -70 -19 -32 -35 -66 -35 -76 0 -9 -9 -29 -20 -43
l-20 -26 22 -15 c35 -25 97 -20 164 14 65 33 136 92 368 312 168 159 261 236
375 312 40 27 82 64 94 82 12 19 27 34 34 34 6 0 14 9 18 19 8 25 134 151 151
151 7 0 20 12 28 28 17 32 67 80 161 154 114 89 273 236 287 265 7 14 42 43
78 65 36 21 97 71 135 112 39 41 91 86 116 100 25 14 54 35 64 46 10 11 24 20
31 20 6 0 21 16 33 35 11 19 24 35 30 35 5 0 12 11 15 24 3 13 25 39 48 58 24
18 143 134 265 258 262 265 230 234 320 316 40 36 75 74 78 85 7 21 106 94
173 128 38 19 42 20 42 4 0 -28 -206 -265 -251 -288 -28 -15 -99 -85 -99 -97
0 -19 42 -6 70 22 17 16 37 30 45 30 7 0 42 25 77 55 34 30 69 55 75 55 7 0
13 4 13 10 0 5 14 25 31 45 53 60 109 78 109 35 0 -10 10 -26 22 -34 31 -22
14 -32 -33 -19 -38 10 -40 9 -60 -19 -12 -16 -46 -57 -76 -91 -30 -34 -66 -81
-80 -104 -14 -24 -31 -43 -39 -43 -18 0 -29 -30 -38 -103 -3 -32 -13 -71 -20
-86 -19 -35 -101 -111 -121 -111 -8 0 -15 -7 -15 -16 0 -8 -43 -60 -95 -115
-94 -97 -108 -122 -81 -132 21 -8 68 21 160 101 46 39 89 72 95 72 5 0 19 21
30 46 24 54 54 58 59 8 2 -24 -4 -39 -28 -63 -17 -17 -40 -31 -50 -31 -10 0
-33 -19 -52 -42 -18 -24 -59 -74 -90 -112 -32 -38 -58 -75 -58 -82 0 -23 40
-27 63 -6 12 10 44 34 70 51 65 44 114 95 131 135 8 19 39 53 74 79 33 26 63
53 66 59 3 9 9 7 21 -7 15 -19 15 -20 -4 -23 -12 -2 -21 -11 -21 -20 0 -32
-45 -96 -89 -127 -25 -17 -59 -53 -75 -79 -17 -27 -93 -110 -168 -185 -105
-104 -138 -142 -138 -162 0 -30 17 -49 45 -49 28 1 44 16 89 82 37 56 107 128
124 128 5 0 15 15 24 33 9 17 50 72 92 120 42 48 76 92 76 97 0 9 80 60 93 60
19 0 2 -33 -43 -84 -27 -31 -50 -62 -50 -67 0 -6 -18 -31 -39 -57 -22 -26 -64
-77 -93 -113 -29 -37 -87 -109 -129 -160 -42 -52 -78 -101 -81 -109 -16 -46
54 -71 72 -26 11 30 157 127 185 124 28 -4 31 -37 6 -54 -12 -9 -21 -20 -21
-26 0 -5 -27 -41 -60 -80 -60 -69 -77 -104 -66 -133 10 -26 43 -16 77 23 19
21 39 47 45 57 13 23 44 13 44 -14 0 -11 -21 -43 -46 -72 -64 -72 -85 -139
-48 -153 18 -7 54 19 54 39 0 13 32 45 45 45 14 0 -3 -109 -23 -143 -10 -17
-25 -63 -32 -102 -7 -38 -21 -81 -31 -94 -11 -13 -19 -31 -19 -40 0 -10 -6
-26 -14 -37 -14 -18 -16 -18 -44 -1 -17 9 -39 17 -50 17 -29 0 -70 -36 -77
-70 -4 -18 -14 -30 -26 -32 -19 -3 -19 -4 -2 -36 10 -18 31 -51 48 -74 25 -35
30 -52 33 -114 3 -60 1 -79 -16 -106 -18 -30 -19 -36 -7 -65 8 -18 26 -38 41
-45 25 -12 29 -10 60 26 18 21 41 61 50 90 9 28 23 60 29 71 7 11 18 58 25
105 8 53 24 106 42 141 15 31 28 61 28 66 0 6 9 18 20 28 11 10 20 24 20 31 0
6 14 38 32 70 27 49 33 74 38 149 6 83 10 96 54 175 33 59 52 107 61 159 8 41
21 82 30 91 8 9 15 21 15 26 0 5 15 34 34 63 19 29 38 70 41 92 4 21 13 43 20
49 8 6 21 33 30 60 9 26 23 51 31 54 9 3 14 20 14 47 l0 42 -45 -5 c-25 -3
-45 -2 -45 1 0 4 25 36 55 71 30 35 55 70 55 78 0 8 14 31 30 52 17 21 30 40
30 43 0 3 -13 8 -30 12 -56 12 -53 22 52 161 67 90 82 124 53 124 -26 0 -19
63 10 90 20 19 25 32 23 60 -3 30 -6 35 -25 32 -19 -3 -23 2 -23 21 0 14 6 30
14 36 8 7 22 27 31 46 9 19 22 35 29 35 16 0 36 42 36 76 l0 25 -29 -22 c-21
-15 -37 -20 -55 -15 -27 7 -36 36 -11 36 8 0 21 12 29 28 8 15 38 43 65 62 28
19 51 38 51 41 0 3 13 25 29 50 17 25 32 66 36 94 4 28 18 68 31 91 13 22 24
53 24 67 0 24 -4 27 -35 27 -32 0 -35 3 -35 28 1 38 32 103 73 148 19 22 40
50 47 63 11 21 9 26 -19 52 -17 15 -31 33 -31 40 0 6 24 36 53 65 69 70 117
129 117 143 0 6 -17 11 -40 11 -53 0 -53 18 5 106 25 37 45 74 45 81 0 6 6 16
14 20 16 9 46 61 46 81 0 20 -14 14 -57 -23 -23 -19 -46 -35 -52 -35 -6 0 -11
18 -11 40 0 33 4 40 19 40 11 0 21 9 25 22 3 13 37 59 76 103 38 44 70 83 70
88 0 15 -59 6 -84 -14 -14 -11 -30 -17 -36 -14 -15 9 -12 65 4 71 8 3 17 16
20 30 4 13 20 34 36 46 35 25 42 68 11 68 -10 0 -21 6 -24 14 -7 18 3 56 15
56 5 0 18 20 29 45 11 24 27 48 36 53 24 14 9 29 -36 36 -56 9 -64 42 -19 74
27 20 22 64 -13 108 -31 39 -31 39 -25 129 14 219 49 232 203 80 66 -65 93
-99 93 -116 0 -13 14 -46 30 -74 16 -27 30 -59 30 -70 0 -11 8 -25 19 -32 12
-8 23 -33 31 -77 7 -36 18 -70 25 -76 8 -6 17 -26 21 -43 3 -18 17 -50 29 -72
23 -39 45 -131 45 -187 0 -18 -15 -44 -45 -78 -71 -80 -86 -124 -56 -159 11
-13 24 -52 31 -91 11 -66 10 -71 -13 -112 -40 -69 -43 -118 -12 -183 40 -85
43 -142 11 -197 -20 -34 -26 -58 -26 -103 0 -50 2 -56 15 -45 13 11 15 6 15
-32 0 -40 -4 -48 -45 -85 -49 -44 -57 -73 -28 -105 25 -28 21 -108 -8 -154
-19 -31 -24 -56 -29 -155 -5 -111 -7 -120 -33 -147 -15 -15 -27 -35 -27 -45 0
-9 -6 -20 -14 -24 -25 -15 -29 -51 -6 -63 11 -6 20 -19 20 -29 0 -23 37 -71
55 -71 14 0 25 30 25 72 0 14 12 40 26 57 23 28 26 41 31 134 6 140 7 143 48
157 40 13 41 18 49 134 4 62 9 83 26 101 33 35 37 96 10 133 -27 37 -29 118
-4 157 11 17 18 60 23 139 7 109 9 117 35 141 26 24 28 31 22 72 -3 26 -13 54
-21 63 -24 27 -19 108 10 155 30 49 32 94 5 128 -11 14 -23 40 -27 57 -5 28
-3 32 13 28 10 -2 28 -20 40 -41 12 -21 60 -80 107 -131 47 -51 95 -109 106
-129 11 -20 41 -62 66 -92 25 -31 45 -62 45 -69 0 -7 25 -45 55 -85 30 -40 59
-91 65 -114 6 -23 20 -54 30 -68 10 -15 26 -53 36 -85 9 -33 23 -68 30 -79 28
-45 25 -906 -4 -961 -5 -10 -18 -71 -27 -134 -9 -63 -23 -140 -30 -170 -8 -30
-21 -138 -30 -240 -9 -102 -21 -193 -26 -202 -5 -9 -16 -86 -25 -170 -8 -84
-21 -176 -29 -204 -8 -27 -22 -111 -31 -185 -9 -73 -23 -150 -32 -169 -10 -24
-17 -79 -20 -175 -4 -127 -2 -142 15 -164 25 -31 54 -22 76 24 20 43 73 325
86 460 5 55 14 112 19 126 6 15 18 91 27 170 9 79 20 160 26 179 5 19 16 175
24 345 19 412 24 479 41 534 8 28 20 158 29 330 11 207 19 292 30 314 8 17 15
36 15 44 0 17 10 16 34 -2 11 -8 61 -31 112 -51 51 -19 98 -42 105 -50 6 -8
19 -14 29 -14 10 0 24 -7 31 -16 7 -9 54 -46 104 -84 49 -37 99 -77 109 -88
11 -12 25 -22 33 -22 8 0 40 -20 71 -44 87 -66 359 -244 424 -277 32 -16 58
-34 58 -39 0 -5 34 -25 75 -44 61 -28 243 -132 316 -180 9 -6 88 -65 175 -130
198 -149 241 -176 276 -176 20 0 31 8 43 30 17 33 20 70 5 70 -5 0 -18 17 -29
37 -26 52 -39 62 -171 133 -63 34 -185 109 -270 165 -146 97 -263 163 -320
180 -14 4 -34 15 -45 25 -11 10 -56 34 -100 53 -100 43 -258 129 -308 168 -20
17 -52 36 -70 44 -18 7 -41 23 -52 35 -11 12 -54 46 -97 76 -43 30 -78 58 -78
63 0 5 -30 26 -67 47 -75 41 -196 157 -248 239 -19 30 -68 79 -119 119 -53 42
-86 75 -86 87 0 10 -9 23 -20 29 -11 6 -20 18 -20 26 0 17 -135 244 -154 259
-7 6 -22 30 -33 56 -11 25 -34 61 -52 81 -17 19 -37 49 -43 65 -12 26 -64 94
-160 210 -21 24 -38 53 -38 63 0 11 -6 23 -13 27 -8 4 -41 51 -75 104 -60 93
-63 99 -78 205 -9 60 -20 114 -25 120 -5 6 -13 35 -19 64 -6 30 -24 74 -40
100 -17 26 -30 51 -30 57 0 6 -9 22 -20 36 -11 13 -26 53 -34 87 -8 34 -21 69
-29 78 -8 10 -25 39 -37 65 -29 62 -109 132 -202 177 -65 31 -76 41 -97 83
-20 41 -24 63 -23 145 0 64 4 98 12 100 22 8 31 57 40 207 7 120 13 158 29
190 12 21 21 45 21 53 0 28 31 70 63 85 18 9 73 25 123 36 163 37 238 75 267
136 11 23 21 33 31 29 26 -10 62 19 214 168 158 154 257 275 357 436 33 53 71
113 83 132 12 19 22 43 22 53 0 10 8 17 19 17 11 0 23 12 31 30 7 17 17 30 22
30 5 0 17 20 28 44 10 24 23 47 28 50 6 3 20 35 32 70 11 35 28 67 36 70 7 3
14 13 14 21 0 9 11 35 24 58 14 24 31 79 40 127 8 47 22 105 31 130 22 63 24
517 1 576 -8 22 -17 72 -20 112 -7 100 -47 170 -126 221 -65 42 -217 114 -275
131 -22 6 -58 24 -80 39 -47 32 -53 56 -54 220 -1 57 -7 129 -15 160 -8 31
-22 184 -31 341 -16 280 -20 325 -35 345 -4 6 -16 46 -25 90 -9 44 -28 111
-41 148 -13 38 -24 83 -24 100 0 18 -7 46 -16 62 -9 17 -24 59 -35 93 -10 35
-23 70 -29 77 -6 7 -19 42 -29 77 -10 35 -25 77 -33 94 -8 16 -20 56 -28 89
-7 33 -19 69 -26 80 -8 12 -21 46 -30 76 -9 30 -20 57 -26 60 -5 3 -16 31 -24
63 -8 31 -26 77 -39 103 -14 25 -25 53 -25 63 0 19 -49 99 -73 119 -9 7 -21
30 -27 51 -6 21 -31 64 -56 96 -25 33 -54 77 -64 100 -10 23 -29 53 -42 67
-37 41 -67 79 -97 123 -16 22 -82 81 -147 131 -107 82 -211 169 -301 252 -17
17 -58 43 -90 60 -33 16 -82 51 -110 78 -48 46 -67 60 -162 119 -46 29 -134
54 -192 54 -22 0 -48 10 -70 25 -19 14 -59 33 -89 42 -137 39 -233 75 -316
116 -49 25 -141 64 -204 87 -63 23 -151 61 -195 85 -89 48 -193 84 -332 115
-110 24 -163 24 -303 -1z m265 -114 c104 -22 159 -43 206 -77 51 -37 46 -41
-71 -58 -98 -14 -150 -33 -150 -54 0 -26 69 -36 302 -46 298 -13 375 -26 542
-92 55 -22 145 -50 201 -63 137 -33 145 -36 209 -94 31 -28 66 -53 78 -55 13
-3 47 -10 76 -16 30 -5 73 -21 96 -35 24 -14 50 -25 59 -25 27 0 229 -141 286
-200 30 -30 75 -68 101 -85 142 -90 280 -216 280 -255 0 -10 6 -23 14 -29 8
-7 19 -35 26 -64 15 -68 30 -107 41 -107 14 0 10 -67 -6 -106 -17 -41 -11 -59
35 -98 35 -29 60 -25 60 10 0 13 3 24 8 24 18 0 32 -61 32 -141 0 -81 2 -90
28 -120 24 -29 27 -41 26 -101 0 -48 -5 -73 -17 -86 -9 -9 -19 -37 -23 -60
l-7 -42 40 0 c57 0 85 -40 48 -70 -22 -18 -20 -99 3 -107 27 -10 30 -20 24
-95 -5 -66 -3 -71 22 -94 29 -27 35 -71 11 -80 -19 -8 -20 -30 -1 -37 17 -7
36 11 36 35 0 9 7 21 16 26 9 5 23 37 31 73 19 83 27 93 63 74 47 -24 52 -62
15 -107 -14 -16 -25 -42 -25 -58 0 -38 -9 -60 -25 -60 -14 0 -25 -47 -28 -120
-2 -31 1 -35 28 -40 24 -4 31 -11 33 -35 5 -39 17 -52 53 -60 46 -10 29 -30
-28 -33 -47 -3 -54 -6 -93 -54 -24 -27 -66 -65 -94 -83 -64 -41 -78 -58 -74
-87 2 -18 10 -24 37 -26 27 -3 40 3 67 29 20 20 39 29 48 26 26 -10 19 -23
-34 -61 -75 -54 -80 -115 -8 -102 30 6 58 -1 58 -15 0 -15 -62 -79 -76 -79 -8
0 -14 -7 -14 -15 0 -14 15 -20 65 -27 15 -2 21 -12 23 -37 2 -23 0 -31 -8 -26
-25 15 -96 -78 -80 -104 13 -22 50 -6 129 58 41 33 79 58 83 55 11 -7 -9 -44
-28 -51 -8 -3 -14 -14 -14 -24 0 -10 -16 -33 -35 -50 -19 -18 -37 -40 -40 -50
-4 -11 -15 -19 -26 -19 -10 0 -19 -5 -19 -11 0 -6 -16 -29 -35 -52 -31 -36
-46 -77 -29 -77 3 0 24 14 45 31 21 17 39 28 39 24 0 -4 24 14 53 40 53 49
112 83 123 73 10 -11 -16 -50 -83 -125 -36 -40 -73 -73 -83 -73 -10 0 -27 -15
-39 -35 -11 -19 -25 -35 -31 -35 -5 0 -10 -7 -10 -16 0 -11 6 -14 23 -8 12 4
29 8 38 9 9 0 28 9 42 18 25 16 27 16 37 -4 18 -33 -5 -72 -81 -140 -71 -63
-91 -98 -69 -124 15 -18 130 -55 171 -55 17 0 81 27 147 61 114 60 119 62 193
61 153 -1 297 -58 396 -157 34 -35 65 -75 69 -91 3 -16 15 -43 25 -60 14 -23
22 -66 29 -165 6 -74 18 -159 27 -189 20 -68 23 -211 6 -232 -7 -8 -20 -50
-29 -94 -9 -43 -22 -87 -29 -99 -8 -11 -21 -49 -30 -85 -9 -36 -22 -74 -29
-85 -7 -11 -21 -43 -30 -72 -9 -28 -23 -56 -30 -62 -8 -7 -16 -26 -20 -44 -8
-38 -136 -235 -153 -236 -7 -1 -19 -16 -27 -33 -8 -18 -42 -64 -77 -103 -34
-38 -73 -94 -87 -125 -57 -128 -183 -247 -324 -307 -141 -59 -186 -73 -241
-73 -89 0 -150 24 -214 85 -31 30 -61 51 -65 48 -21 -12 -29 -64 -32 -203 -3
-113 -7 -154 -21 -179 -9 -19 -24 -57 -32 -85 -8 -28 -21 -58 -28 -66 -7 -8
-17 -27 -20 -42 -7 -26 -10 -27 -46 -22 -54 9 -69 -6 -69 -70 0 -67 -24 -179
-39 -184 -12 -4 -51 -59 -86 -121 -23 -42 -65 -56 -65 -22 0 33 -20 35 -81 5
-69 -32 -80 -56 -78 -164 2 -87 11 -124 31 -128 16 -3 32 18 63 88 26 59 30
64 78 96 25 16 82 63 126 102 43 40 83 72 87 72 11 0 -4 -669 -16 -715 -6 -22
-15 -56 -19 -75 -11 -53 -37 -86 -127 -164 -61 -53 -120 -91 -234 -151 -84
-43 -186 -103 -225 -132 -40 -29 -103 -69 -141 -89 -38 -20 -116 -67 -173
-105 -69 -46 -124 -74 -163 -84 -32 -8 -93 -35 -135 -60 -43 -25 -98 -52 -124
-60 -25 -9 -57 -27 -69 -40 -27 -29 -84 -34 -111 -9 -14 13 -24 13 -61 4 -65
-16 -146 -50 -208 -86 -30 -17 -71 -37 -91 -43 -21 -7 -47 -21 -60 -31 -28
-25 -58 -28 -38 -4 7 8 26 22 43 31 17 8 42 25 56 37 14 13 44 28 67 35 24 6
51 20 60 30 10 10 44 36 75 59 66 48 88 76 81 102 -5 18 -8 18 -57 -7 -28 -14
-95 -54 -148 -90 -96 -63 -241 -137 -257 -131 -5 2 -5 13 -1 24 5 13 61 53
140 100 73 44 152 96 176 117 41 36 44 42 44 90 0 29 4 58 8 64 5 9 44 14 118
16 124 4 196 27 239 79 34 40 34 78 0 78 -14 0 -25 4 -25 8 0 13 61 65 120
104 58 37 214 188 255 248 14 20 28 50 31 69 7 31 6 32 -22 29 -19 -2 -36 -14
-52 -38 -31 -47 -47 -54 -83 -39 -35 14 -79 74 -79 107 0 12 -9 35 -20 50 -20
27 -40 116 -40 181 0 28 2 32 15 21 29 -24 55 -78 62 -130 9 -61 26 -76 66
-61 24 9 27 15 27 59 0 26 -6 54 -12 60 -7 7 -24 49 -39 92 -20 64 -22 80 -11
85 18 7 73 -18 96 -44 24 -27 40 -27 66 1 25 27 25 38 0 38 -24 0 -26 18 -3
50 23 33 44 49 66 50 11 0 24 14 32 34 13 30 20 35 52 38 35 3 38 6 41 37 2
23 -3 40 -17 55 -34 36 -73 132 -69 172 l3 37 48 -49 c26 -27 50 -56 52 -66 8
-23 36 -31 53 -14 13 13 12 19 -7 48 -36 57 -63 119 -57 134 7 19 41 18 71 -2
32 -21 95 -35 95 -22 0 5 -25 37 -55 71 -30 33 -55 64 -55 69 0 5 11 13 25 18
14 5 26 15 26 22 5 55 -26 91 -74 86 -47 -5 -69 -43 -75 -130 -2 -40 -9 -78
-14 -84 -5 -7 -24 -15 -42 -18 -36 -7 -44 -14 -112 -100 -53 -68 -63 -100 -64
-208 0 -78 -6 -108 -21 -108 -20 0 -79 64 -90 98 -18 56 -60 112 -133 176 -75
66 -96 68 -96 8 0 -31 5 -41 24 -50 26 -12 121 -121 138 -158 6 -12 19 -25 29
-27 39 -10 16 -67 -26 -67 -32 0 -106 -57 -118 -91 -7 -17 -19 -29 -29 -29
-10 0 -18 -6 -18 -14 0 -7 -13 -30 -30 -51 -34 -43 -38 -70 -13 -98 14 -14 18
-37 18 -105 0 -48 -4 -96 -8 -107 -8 -19 -10 -19 -31 8 -30 37 -58 33 -71 -11
-5 -18 -14 -31 -19 -29 -6 2 -19 31 -29 65 -10 34 -29 79 -42 99 -14 19 -25
46 -25 58 0 13 -11 45 -24 72 -27 54 -41 113 -26 113 5 0 24 -24 40 -54 35
-62 54 -81 71 -70 17 10 5 119 -21 190 -12 33 -28 81 -36 108 -7 27 -20 57
-29 66 -8 9 -15 25 -15 36 0 11 -16 43 -35 71 -19 29 -35 56 -35 61 0 5 -8 20
-19 33 -10 13 -26 47 -35 76 -9 28 -22 56 -29 61 -21 16 -51 22 -67 12 -13 -8
-12 -12 8 -25 12 -9 22 -23 22 -31 0 -8 12 -32 26 -53 16 -26 30 -68 39 -122
8 -46 22 -110 31 -142 19 -63 15 -76 -14 -56 -31 22 -132 150 -138 175 -4 14
-14 24 -24 24 -10 0 -20 6 -23 13 -3 6 -8 -12 -12 -40 -4 -29 -11 -53 -15 -53
-4 0 -28 22 -54 50 l-46 49 0 -97 c0 -111 -12 -145 -52 -150 -46 -5 -86 23
-99 71 -6 23 -17 49 -24 57 -7 8 -20 49 -30 90 -10 41 -24 84 -31 95 -8 11
-14 40 -14 65 0 49 -34 115 -80 155 -43 38 -69 125 -37 125 6 0 19 5 27 10 20
12 -12 45 -218 222 -181 156 -162 150 -213 70 l-21 -33 25 -32 c27 -36 82
-182 73 -196 -3 -5 4 -20 15 -35 23 -29 22 -64 -2 -79 -13 -8 -37 8 -117 78
-56 48 -102 93 -102 100 0 6 -11 24 -24 38 -14 15 -28 37 -31 49 -4 13 -15 32
-25 43 -10 11 -23 37 -30 58 -6 20 -20 42 -31 47 -10 6 -19 16 -19 22 0 13
-52 98 -60 98 -3 0 -2 -46 2 -102 3 -57 3 -107 -2 -111 -15 -16 -60 24 -70 63
-6 21 -16 43 -24 49 -8 7 -20 41 -27 77 -14 72 -18 77 -74 92 -22 6 -49 14
-61 17 -19 6 -22 2 -27 -51 -6 -55 -28 -96 -44 -80 -5 4 -8 43 -8 86 0 65 3
81 18 93 13 9 18 23 15 42 -5 44 -39 45 -71 3 -67 -89 -87 -172 -87 -360 0
-120 -7 -138 -34 -95 -25 39 -39 147 -40 317 -1 148 -3 165 -19 168 -10 2 -17
-3 -17 -12 0 -19 -35 -21 -47 -3 -4 6 -10 41 -14 77 -6 55 -11 68 -38 92 -17
15 -38 28 -47 28 -45 0 -104 -60 -104 -106 0 -10 -7 -25 -15 -34 -9 -9 -23
-41 -33 -70 -9 -30 -23 -55 -29 -58 -21 -6 -15 56 7 86 12 16 22 46 23 72 l2
43 -48 13 c-55 14 -77 29 -77 54 0 10 -6 22 -13 28 -28 24 -86 -48 -100 -125
-6 -31 -5 -33 24 -33 27 0 30 -3 27 -27 -2 -16 -9 -28 -17 -28 -8 0 -17 -9
-21 -20 -7 -19 -7 -19 -14 3 -5 13 -15 22 -28 22 -28 0 -183 -159 -199 -204
-7 -20 -17 -36 -21 -36 -4 0 -20 -23 -35 -51 -16 -29 -33 -61 -40 -73 -7 -12
-15 -41 -19 -64 -7 -42 -6 -42 24 -42 44 0 80 19 86 46 7 28 22 30 48 7 21
-19 25 -115 8 -193 -13 -59 -62 -160 -77 -160 -7 0 -16 -8 -22 -17 -16 -29
-44 -3 -61 58 -8 30 -25 64 -37 77 -13 12 -23 26 -23 32 0 22 -40 31 -70 16
-29 -14 -30 -14 -30 9 0 13 5 25 11 27 6 2 19 34 29 72 11 38 27 74 36 80 18
13 16 67 -2 73 -6 2 -21 -19 -33 -47 -12 -27 -26 -50 -30 -50 -5 0 -16 -19
-23 -42 -17 -51 -57 -80 -85 -62 -24 14 -29 67 -9 84 22 18 23 162 1 180 -19
16 -19 54 -1 70 8 6 20 28 27 48 15 47 27 62 49 62 12 0 21 -10 25 -31 9 -41
43 -56 94 -41 21 7 50 24 64 38 28 28 107 176 127 237 6 20 15 37 20 37 4 0
17 16 28 34 12 19 40 47 64 62 52 32 118 94 118 110 0 32 75 28 229 -13 130
-34 238 -78 290 -119 44 -34 74 -43 86 -24 3 5 10 35 15 66 6 33 20 70 35 89
31 42 115 84 184 92 51 6 53 5 95 -36 78 -76 203 -105 251 -56 47 46 26 120
-49 171 -43 30 -171 64 -235 64 -94 0 -221 -47 -261 -94 -22 -27 -28 -18 -17
29 14 62 0 77 -48 51 -19 -11 -36 -17 -38 -15 -2 2 -8 17 -15 32 -11 26 -16
28 -60 27 -68 -2 -69 -2 -75 20 -7 27 -37 25 -98 -6 -68 -34 -100 -30 -112 16
-12 48 -19 54 -88 80 -51 18 -63 27 -75 56 -19 46 -18 88 5 108 12 11 20 37
24 81 7 72 20 105 42 105 8 0 15 8 15 18 0 10 11 51 25 90 14 40 32 122 40
184 8 62 22 136 30 163 8 28 21 106 29 175 8 69 21 139 30 155 8 17 22 67 30
113 9 45 22 95 29 110 8 15 20 59 27 97 7 39 20 88 29 110 12 31 16 76 16 202
0 158 0 162 -25 188 -41 45 -225 125 -285 125 -31 0 -115 59 -137 96 -29 49
-154 94 -264 94 -63 0 -84 -13 -84 -55 0 -36 -8 -65 -19 -65 -4 0 -31 18 -60
41 l-54 40 -104 -2 c-57 -1 -105 0 -108 3 -4 3 -3 18 1 32 4 19 11 25 23 21
12 -4 21 3 29 20 15 32 68 65 107 65 49 0 75 33 52 64 -11 15 -21 15 -107 1
-121 -20 -162 -34 -246 -84 -77 -47 -98 -50 -131 -19 -30 28 -29 34 7 88 17
25 37 60 45 78 8 17 19 32 24 32 7 0 11 24 11 59 0 43 -5 65 -20 84 -11 14
-20 28 -20 32 0 4 23 32 50 64 45 51 61 81 44 81 -3 0 -36 -18 -73 -40 -37
-22 -73 -40 -79 -40 -18 0 -14 25 8 45 10 9 24 33 30 51 9 27 19 36 49 44 41
11 121 87 121 115 0 18 -8 18 -40 0 -32 -18 -60 -19 -60 -1 0 13 78 89 143
139 28 21 37 35 37 57 0 56 -20 44 -189 -112 -84 -78 -111 -93 -111 -61 0 20
116 136 249 248 106 90 123 111 102 124 -23 14 -61 -5 -136 -70 -60 -52 -132
-99 -150 -99 -3 0 -5 6 -5 14 0 14 83 96 98 96 5 0 14 11 20 25 7 14 20 29 29
32 10 4 24 15 31 25 7 10 19 18 27 18 7 0 41 23 75 52 64 53 89 93 70 112 -19
19 -10 43 26 77 21 19 49 45 64 59 21 20 29 39 34 83 5 40 15 67 33 88 24 28
25 33 13 69 -17 52 -7 88 28 96 67 14 101 49 106 109 2 27 12 43 43 69 23 20
47 54 57 79 12 31 24 47 40 51 37 9 124 82 143 121 11 19 86 92 179 172 128
110 173 142 220 159 32 12 95 38 139 57 44 20 125 48 180 63 55 14 153 46 217
70 207 78 217 79 623 79 321 1 365 3 405 19 25 9 85 22 133 27 94 10 140 27
157 59 13 24 -1 55 -37 83 -65 51 9 72 152 42z m-430 -40 c0 -23 -34 -33 -46
-14 -10 17 9 41 30 37 9 -2 16 -12 16 -23z m-2930 -2431 c0 -12 -8 -20 -22
-22 -25 -4 -31 16 -11 36 17 17 33 10 33 -14z m-50 -444 c4 -6 1 -18 -6 -26
-17 -20 -99 -68 -105 -61 -10 9 26 55 59 76 37 24 43 25 52 11z m35 -283 c0
-41 -37 -97 -74 -112 -37 -16 -81 -61 -91 -93 -9 -29 -29 -23 -33 10 -2 18 16
49 68 116 39 50 75 104 80 118 10 26 11 26 30 9 11 -10 20 -31 20 -48z m684
-149 c21 -30 20 -57 -4 -93 -11 -16 -20 -46 -20 -65 -1 -72 -50 -118 -70 -65
-5 14 -10 42 -10 61 0 19 -3 34 -7 34 -14 0 -43 -34 -43 -49 0 -9 -8 -32 -18
-52 -10 -19 -26 -55 -35 -81 -19 -50 -39 -65 -57 -44 -7 10 -8 39 0 102 5 49
10 96 10 105 0 9 9 19 20 22 14 4 20 14 20 35 0 34 32 80 67 93 17 6 33 4 56
-7 30 -16 32 -16 45 5 18 27 27 26 46 -1z m143 -79 c-7 -87 -23 -131 -46 -127
-26 5 -23 179 3 207 15 17 22 19 34 9 12 -10 13 -28 9 -89z m166 49 c22 -34
-52 -148 -87 -135 -22 9 -22 85 -1 94 9 3 23 19 31 35 16 31 40 34 57 6z
m-618 -75 c-4 -16 -13 -54 -20 -86 -7 -33 -18 -64 -24 -70 -15 -15 -14 -28 2
-24 8 1 13 -20 15 -73 4 -97 -1 -114 -42 -139 -47 -29 -73 -27 -95 10 -18 30
-18 30 -25 7 -8 -33 -7 -148 2 -148 12 0 76 41 104 67 26 25 54 43 93 61 11 6
51 37 89 71 38 34 74 61 80 61 6 0 45 16 86 37 65 31 84 36 145 36 121 -1 286
-72 395 -170 60 -54 90 -97 90 -128 0 -20 -24 -19 -41 1 -18 22 -130 77 -212
104 -59 19 -84 22 -175 18 -116 -5 -163 -18 -337 -95 -92 -41 -135 -81 -135
-126 0 -22 7 -21 87 14 62 27 78 19 88 -41 4 -21 13 -44 20 -50 8 -6 19 -28
26 -48 17 -54 48 -92 85 -108 52 -22 79 -17 130 22 46 35 48 36 75 20 34 -20
89 -21 115 -1 11 8 41 14 72 15 46 0 52 -2 52 -20 0 -27 -27 -80 -41 -80 -6 0
-20 -11 -30 -25 -11 -13 -48 -34 -82 -47 -68 -25 -128 -77 -151 -133 -8 -19
-22 -38 -30 -41 -8 -3 -20 -22 -27 -42 -14 -44 -56 -107 -94 -142 -15 -14 -49
-53 -77 -87 -36 -46 -56 -63 -74 -63 -19 0 -24 5 -24 25 0 14 6 25 13 25 7 0
36 33 64 73 28 40 68 93 89 118 20 24 43 60 51 79 8 19 26 49 39 67 38 51 33
67 -22 60 -37 -4 -49 -1 -64 15 -19 20 -19 20 -63 -12 -58 -41 -98 -39 -108 6
-9 48 -15 52 -107 80 -102 31 -109 36 -134 92 -11 25 -33 51 -51 63 -64 38
-187 14 -233 -47 -52 -68 -86 -27 -45 54 18 36 42 54 88 67 12 3 33 15 47 26
24 19 26 27 25 92 0 87 -21 212 -34 212 -14 0 -18 -142 -5 -178 12 -36 4 -47
-36 -50 -26 -2 -30 2 -38 36 -15 59 8 235 39 300 14 30 25 61 25 70 0 10 7 17
15 17 8 0 15 2 15 4 0 23 23 112 31 122 33 39 39 -36 8 -95 -11 -22 -23 -66
-25 -98 l-5 -58 21 24 c11 13 41 61 66 107 47 87 57 99 74 89 6 -3 1 -27 -12
-58 -30 -75 -41 -124 -33 -144 6 -16 8 -16 25 5 10 12 26 47 34 76 9 29 25 61
36 71 21 19 18 38 -5 28 -31 -11 -13 18 28 48 23 17 46 37 50 45 14 25 30 16
22 -13z m725 16 c0 -29 -54 -99 -77 -99 -22 0 -14 34 18 73 29 35 59 49 59 26z
m5135 -89 c-10 -11 -22 -20 -27 -20 -5 0 -4 9 2 20 6 11 18 20 27 20 14 0 14
-2 -2 -20z m-6345 -75 c0 -7 11 -22 25 -33 33 -26 32 -36 -10 -69 -40 -32 -44
-48 -15 -56 16 -4 20 -14 20 -51 0 -49 -15 -92 -36 -100 -9 -3 -15 11 -20 50
-7 56 -13 64 -34 39 -21 -25 -44 -17 -73 27 -51 79 -26 142 75 192 51 26 68
26 68 1z m1036 -326 c29 -24 5 -109 -32 -109 -24 0 -64 31 -81 63 -15 30 -14
32 8 50 25 20 78 19 105 -4z m5398 -55 c20 -20 12 -34 -19 -34 -27 0 -39 14
-31 35 7 20 31 19 50 -1z m-5049 -104 c4 -6 -5 -10 -20 -10 -15 0 -24 4 -20
10 3 6 12 10 20 10 8 0 17 -4 20 -10z m-1271 -256 c13 -34 -5 -85 -38 -105
-34 -21 -61 -24 -71 -9 -9 15 24 78 57 105 35 29 44 31 52 9z m985 -118 c10
-11 7 -17 -11 -30 -30 -21 -48 -20 -48 2 0 37 37 54 59 28z m-955 -42 c8 -20
-16 -76 -45 -104 -50 -47 -149 -77 -149 -45 0 8 32 49 71 90 72 75 110 94 123
59z m856 -108 c0 -13 -12 -40 -26 -61 -14 -21 -30 -49 -34 -61 -20 -50 -242
-294 -269 -294 -5 0 -13 -9 -16 -20 -7 -23 -51 -38 -67 -22 -19 19 36 91 217
282 96 102 175 188 175 192 0 5 5 8 10 8 6 0 10 -11 10 -24z m-810 -45 c0 -61
-27 -122 -68 -156 -20 -16 -61 -51 -90 -77 -68 -62 -82 -62 -82 1 0 49 17 84
77 155 14 17 29 40 34 53 5 13 15 23 22 23 8 0 22 9 32 20 10 11 31 20 47 20
26 0 28 -3 28 -39z m23 -173 c-17 -24 -33 -53 -37 -65 -4 -13 -13 -23 -20 -23
-7 0 -25 -13 -39 -30 -64 -71 -59 -6 5 78 54 70 98 106 111 93 7 -7 1 -24 -20
-53z m77 -54 c0 -8 -21 -34 -46 -57 -26 -23 -55 -61 -65 -84 -19 -44 -45 -56
-56 -27 -4 10 5 27 26 46 17 16 31 34 31 41 0 16 81 97 97 97 7 0 13 -7 13
-16z m650 -18 c0 -28 -35 -76 -56 -76 -21 0 -17 57 6 80 27 27 50 26 50 -4z
m-522 -56 c9 -16 23 -30 30 -30 22 0 12 -18 -43 -78 -30 -33 -55 -65 -55 -71
0 -6 -5 -11 -11 -11 -20 0 -99 -71 -127 -114 -40 -62 -90 -87 -117 -59 -19 19
-19 59 0 67 8 3 22 32 31 66 10 34 23 60 30 60 7 0 18 9 24 21 7 11 25 25 41
31 16 5 45 32 65 59 39 54 79 89 101 89 8 0 22 -13 31 -30z m-573 -30 c-4 -13
1 -22 15 -30 14 -8 20 -21 20 -45 0 -37 -13 -46 -28 -18 -7 12 -18 14 -40 10
-37 -8 -45 7 -31 58 6 22 19 39 32 44 28 11 39 4 32 -19z m949 -45 c-21 -32
-101 -95 -120 -95 -25 0 -15 40 12 50 14 6 46 26 71 45 52 39 63 39 37 0z
m126 -54 c0 -5 -24 -35 -52 -68 -111 -124 -216 -251 -269 -323 -31 -41 -101
-117 -156 -168 -68 -62 -111 -111 -132 -150 -32 -60 -64 -102 -76 -102 -20 0
7 106 38 154 67 102 86 135 93 163 4 15 15 34 24 40 18 12 33 73 19 73 -15 0
-99 -96 -120 -137 -12 -22 -38 -58 -59 -78 -31 -30 -43 -36 -64 -31 -28 7 -36
36 -11 36 9 0 18 12 21 29 8 36 59 100 90 112 13 5 24 17 24 27 0 29 53 103
119 165 84 80 93 77 66 -23 -21 -79 -20 -83 13 -66 40 21 112 86 112 101 0 16
97 105 115 105 6 0 41 26 76 58 90 82 129 107 129 83z m-1081 -60 c8 -14 7
-22 -4 -31 -17 -14 -35 -5 -35 19 0 34 24 42 39 12z m619 -23 c3 -22 -4 -31
-36 -52 -22 -14 -49 -41 -62 -60 -12 -20 -28 -36 -36 -36 -8 0 -14 -6 -14 -12
-1 -18 -39 -63 -80 -93 -42 -31 -50 -31 -50 -2 0 27 23 64 84 137 25 30 46 58
46 62 0 5 9 8 20 8 12 0 25 10 32 25 6 14 17 25 25 25 7 0 16 7 20 16 10 26
48 13 51 -18z m462 -105 c0 -31 -6 -42 -31 -58 -37 -24 -179 -183 -179 -200 0
-16 -115 -123 -147 -138 -12 -5 -23 -18 -23 -28 0 -10 -18 -39 -40 -64 -22
-25 -40 -52 -40 -59 0 -8 -11 -16 -25 -18 -21 -4 -25 -1 -25 17 0 12 10 30 21
41 12 10 31 42 44 69 24 56 72 118 85 110 4 -3 40 33 80 80 44 51 80 85 91 85
11 0 19 7 19 17 0 30 83 144 120 164 48 25 50 24 50 -18z m758 -275 c-6 -17
-49 -38 -62 -31 -11 8 30 43 51 43 8 0 13 -6 11 -12z m-108 -57 c0 -14 -105
-51 -142 -51 -45 0 -25 17 48 40 66 21 94 24 94 11z m-650 -36 c0 -27 -121
-166 -128 -146 -6 18 50 110 85 142 41 35 43 35 43 4z m-881 -10 c10 -10 15
-37 15 -84 1 -60 -2 -73 -23 -95 -26 -28 -61 -35 -61 -12 0 8 7 16 15 20 20 7
20 74 -1 97 -9 10 -18 36 -21 60 l-6 42 34 -7 c18 -3 40 -13 48 -21z m717 11
c10 -26 -67 -143 -86 -131 -4 3 -13 -9 -19 -26 -6 -17 -24 -46 -41 -65 -16
-19 -30 -41 -30 -49 0 -8 -9 -19 -19 -25 -11 -5 -24 -25 -31 -44 -6 -18 -20
-42 -30 -51 -11 -10 -20 -25 -20 -33 0 -8 -15 -35 -33 -61 -19 -25 -37 -54
-40 -63 -4 -10 -14 -18 -23 -18 -10 0 -26 -7 -36 -17 -25 -23 -35 -8 -16 25 8
15 21 50 28 77 7 28 22 61 32 74 10 13 18 29 18 36 0 7 34 50 75 96 41 45 84
102 96 126 11 24 45 64 75 89 30 26 54 53 54 60 0 18 39 18 46 0z m-6 -241 c0
-6 -11 -27 -24 -46 -14 -19 -42 -60 -63 -92 -21 -32 -59 -83 -86 -114 -32 -38
-49 -69 -54 -96 -3 -22 -13 -41 -22 -45 -9 -3 -22 -14 -29 -24 -7 -10 -22 -18
-33 -18 -25 0 -25 33 0 68 10 15 27 48 38 73 11 25 40 68 64 96 24 27 52 63
61 79 57 93 77 120 98 131 26 13 50 7 50 -12z m-394 -62 c-13 -39 -28 -47 -34
-18 -4 16 24 55 39 55 4 0 2 -17 -5 -37z m-299 -70 c5 -13 -25 -26 -38 -17 -6
3 -5 11 2 20 13 16 31 14 36 -3z m243 -1 c0 -20 -79 -94 -97 -90 -26 5 -31 58
-6 58 10 1 34 9 53 20 39 21 50 24 50 12z m1037 -269 c-3 -10 -5 -2 -5 17 0
19 2 27 5 18 2 -10 2 -26 0 -35z m693 -194 c12 -22 7 -49 -9 -49 -19 0 -64 47
-57 58 12 20 54 14 66 -9z m-1800 -92 c0 -7 -9 -18 -20 -25 -11 -7 -20 -18
-20 -26 0 -15 -96 -106 -111 -106 -5 0 -9 10 -9 21 0 13 22 43 55 74 30 29 55
58 55 64 0 6 11 11 25 11 14 0 25 -6 25 -13z m1728 -71 c3 -4 1 -11 -5 -17
-13 -13 -83 6 -83 23 0 11 76 5 88 -6z m-1908 -131 c8 -5 4 -15 -11 -31 -17
-18 -26 -21 -40 -14 -19 11 -34 44 -25 59 6 9 53 0 76 -14z m196 -12 c-11 -11
-19 6 -11 24 8 17 8 17 12 0 3 -10 2 -21 -1 -24z m1644 -17 l255 -1 72 -48
c67 -44 276 -151 298 -152 6 0 19 -5 30 -11 11 -6 50 -15 86 -18 86 -9 164
-46 187 -87 9 -17 27 -44 40 -59 12 -15 22 -32 22 -36 0 -5 14 -29 30 -54 16
-25 35 -61 41 -80 6 -19 17 -42 24 -50 7 -8 20 -46 28 -83 8 -38 23 -77 31
-86 21 -23 21 -95 0 -116 -15 -14 -15 -21 0 -78 17 -66 36 -244 36 -334 0 -30
-10 -82 -24 -121 -32 -94 -39 -151 -22 -184 13 -25 12 -29 -9 -52 -21 -23 -32
-26 -95 -26 -50 0 -76 -4 -86 -15 -22 -21 -77 -19 -107 5 -14 11 -28 20 -32
20 -4 0 -38 -14 -77 -31 -75 -33 -112 -33 -123 1 -14 43 -75 38 -210 -20 -115
-49 -146 -56 -280 -69 -60 -6 -132 -18 -159 -26 -109 -33 -209 -8 -355 89
-120 80 -170 166 -156 271 3 30 15 65 26 79 27 34 25 74 -5 86 -16 6 -26 19
-30 45 -6 30 -11 36 -29 33 -29 -4 -76 -74 -83 -123 -9 -63 -25 -95 -55 -110
-15 -8 -30 -15 -34 -15 -11 0 -4 68 8 79 8 6 19 30 26 53 7 24 26 64 42 89 16
25 29 56 29 68 0 14 7 25 20 28 22 6 47 71 37 97 -10 25 -38 32 -52 13 -14
-19 -24 -21 -45 -7 -12 7 -9 13 13 30 15 12 27 31 27 44 0 13 8 33 19 44 10
12 24 50 31 84 7 35 17 68 22 74 5 6 48 14 96 17 48 3 121 10 162 16 41 6 120
12 176 13 91 1 104 -1 132 -22 24 -18 39 -22 72 -17 40 5 80 30 80 49 0 6 -13
22 -30 36 -16 15 -30 34 -30 43 0 9 18 35 40 58 34 34 45 41 63 34 42 -15 133
-6 236 25 100 30 131 45 118 58 -3 3 -35 1 -70 -5 -89 -15 -244 -14 -254 1 -4
7 -15 31 -23 53 -9 24 -32 52 -58 72 -41 31 -48 33 -125 33 -45 0 -125 -7
-177 -15 -219 -35 -226 -34 -269 26 -61 83 -49 204 26 270 35 30 38 31 102 24
36 -5 181 -8 321 -9z m-1716 -158 c12 -17 16 -45 15 -108 l-1 -85 -10 65 c-5
36 -15 72 -23 80 -13 13 -19 12 -45 -3 -33 -20 -36 -17 -19 16 31 59 58 71 83
35z m1032 -159 c10 -17 -13 -36 -27 -22 -12 12 -4 33 11 33 5 0 12 -5 16 -11z
m165 -59 c37 -20 11 -60 -38 -60 -11 0 -56 -18 -102 -40 -45 -22 -89 -40 -97
-40 -18 0 -19 49 0 56 8 3 17 16 20 30 4 13 18 31 32 40 20 14 29 15 47 5 18
-10 28 -9 52 3 35 19 59 20 86 6z m511 -2 c-9 -9 -15 -9 -24 0 -9 9 -7 12 12
12 19 0 21 -3 12 -12z m-1379 -34 c12 -5 17 -17 17 -43 0 -45 -24 -71 -93
-101 -52 -23 -69 -20 -49 8 7 9 22 37 34 62 31 66 49 91 62 85 6 -3 19 -8 29
-11z m-229 -50 c23 -9 20 -34 -3 -34 -22 0 -35 15 -26 30 7 12 8 12 29 4z
m1086 -39 c0 -8 -7 -15 -15 -15 -16 0 -20 12 -8 23 11 12 23 8 23 -8z m-75
-54 c-10 -20 -23 -31 -38 -31 -12 -1 -33 -7 -47 -15 -28 -16 -70 -20 -70 -6 0
11 160 94 167 87 3 -2 -3 -18 -12 -35z m2313 -52 c18 -19 37 -77 29 -86 -10
-9 -39 12 -58 43 -33 53 -10 86 29 43z m-2214 -25 c26 -10 19 -33 -16 -54 -59
-36 -120 -17 -91 29 15 23 74 37 107 25z m-881 -59 c-8 -22 -51 -18 -63 4 -14
26 -13 31 5 25 9 -4 18 1 22 12 6 16 8 15 24 -5 10 -12 15 -29 12 -36z m761
-94 c4 -5 -10 -19 -29 -31 -38 -24 -58 -55 -70 -110 -11 -51 -28 -81 -88 -152
-30 -35 -61 -78 -71 -95 -9 -18 -19 -33 -22 -33 -14 0 10 129 32 175 30 63 92
150 122 171 13 9 27 27 32 40 13 34 80 58 94 35z m2353 -121 c9 -22 22 -40 28
-40 7 0 20 -11 29 -24 8 -14 26 -26 38 -28 17 -2 24 -11 26 -32 2 -18 11 -30
23 -33 24 -7 24 -8 -1 -41 -12 -17 -24 -56 -30 -107 -6 -44 -13 -90 -15 -102
-9 -40 -25 -24 -25 25 -1 102 -17 171 -49 208 -17 19 -31 41 -31 50 0 8 -9 27
-20 42 -11 15 -23 48 -26 75 -6 44 -5 47 15 47 17 0 27 -10 38 -40z m-399
-270 l4 -35 -26 24 c-32 31 -34 54 -3 49 17 -2 23 -11 25 -38z m2249 -322 c-8
-171 -23 -306 -35 -322 -5 -6 -17 -36 -27 -66 -10 -30 -28 -64 -40 -75 -12
-11 -41 -50 -65 -85 -24 -36 -75 -103 -115 -150 -91 -108 -195 -248 -195 -264
0 -6 -19 -34 -41 -61 -23 -28 -48 -63 -55 -80 -11 -25 -84 -106 -158 -175 -9
-8 -58 -60 -108 -116 -51 -55 -149 -160 -217 -233 -68 -72 -142 -157 -166
-189 -37 -49 -441 -456 -545 -548 -19 -18 -53 -55 -75 -84 -22 -29 -67 -75
-100 -103 -33 -27 -65 -59 -71 -70 -10 -18 -12 -15 -18 26 -4 25 -13 48 -21
51 -8 3 -22 20 -31 38 -9 18 -50 73 -90 121 -41 48 -74 93 -74 100 0 40 -239
272 -431 419 -65 48 -119 95 -122 103 -10 25 -59 43 -167 60 -168 27 -185 28
-240 10 -27 -9 -50 -21 -50 -26 0 -5 -44 -41 -97 -80 -53 -40 -153 -126 -222
-192 -147 -140 -188 -170 -227 -165 -31 3 -31 2 -60 143 -40 197 -52 246 -67
277 -8 18 -21 69 -27 113 -7 44 -21 102 -32 130 -40 100 -35 871 6 950 8 17
18 42 21 58 7 35 42 37 54 4 5 -13 34 -53 63 -88 77 -92 94 -118 115 -179 10
-30 26 -66 35 -80 9 -14 21 -42 28 -63 7 -21 18 -41 26 -44 8 -3 14 -11 14
-18 0 -7 16 -32 35 -55 19 -23 38 -53 41 -66 3 -13 21 -33 39 -44 18 -11 79
-69 136 -129 93 -97 110 -111 158 -125 69 -20 108 -20 196 0 72 17 90 23 285
104 64 26 145 57 180 68 114 35 233 94 285 139 28 24 61 46 75 49 47 11 145
42 213 68 37 14 81 26 97 26 16 0 37 8 47 18 10 10 45 34 78 52 33 18 74 45
90 58 33 28 165 91 260 126 33 12 101 51 150 88 50 36 126 86 170 112 44 26
108 66 141 90 34 24 86 51 115 61 30 9 85 35 124 58 38 22 112 62 165 88 52
27 111 57 130 68 19 11 73 37 120 59 47 21 132 71 190 110 58 40 107 72 109
72 2 0 1 -64 -2 -142z m-1862 12 c4 -6 -7 -24 -24 -41 -29 -28 -31 -29 -31 -9
0 45 37 79 55 50z m-215 -335 c0 -8 -18 -26 -40 -40 -23 -14 -46 -37 -53 -52
-10 -22 -8 -28 12 -44 13 -11 29 -19 37 -19 31 0 11 -23 -41 -46 -31 -13 -58
-24 -60 -24 -10 0 -5 149 6 177 15 41 48 63 97 63 31 0 42 -4 42 -15z m-592
-67 c21 -17 14 -28 -30 -48 -54 -23 -118 -36 -118 -22 0 5 20 28 45 51 46 43
68 46 103 19z m262 -82 c0 -19 -31 -30 -41 -14 -4 6 -5 16 -3 20 9 14 44 9 44
-6z m-533 -32 c4 -11 -1 -22 -13 -31 -22 -16 -86 -14 -91 3 -12 36 90 63 104
28z m-328 -30 c38 -4 60 -11 58 -18 -6 -18 -98 -47 -167 -53 -61 -5 -68 -4
-98 22 -26 22 -30 30 -21 41 13 15 119 19 228 8z m558 -9 c-11 -7 -26 -11 -34
-8 -12 5 -12 7 -1 14 7 5 22 9 33 9 19 -1 19 -1 2 -15z m-434 -2 c-7 -2 -19
-2 -25 0 -7 3 -2 5 12 5 14 0 19 -2 13 -5z m802 -33 c11 -17 -15 -50 -40 -50
-32 0 -38 12 -19 38 16 23 48 29 59 12z m-228 -30 c10 -11 27 -20 40 -20 12 0
24 -4 28 -9 8 -14 -28 -31 -63 -31 -16 0 -68 -13 -115 -30 -48 -16 -95 -30
-105 -30 -76 0 12 80 133 122 63 22 62 22 82 -2z m-1047 -30 c0 -14 -47 -13
-56 1 -3 6 -1 15 7 19 14 9 49 -5 49 -20z m1539 16 c10 -12 2 -21 -46 -51 -32
-21 -69 -48 -83 -61 -45 -42 -150 -72 -150 -44 0 18 31 72 37 66 3 -3 20 6 36
20 26 22 37 25 69 20 34 -6 38 -4 38 14 0 14 11 26 33 35 41 18 52 18 66 1z
m-1276 -43 c96 -6 120 -15 72 -27 -14 -4 -47 -20 -74 -36 -26 -17 -57 -30 -67
-30 -23 0 -84 36 -84 50 0 5 -9 10 -20 10 -25 0 -26 16 -2 29 20 12 46 13 175
4z m487 -68 c0 -18 -35 -41 -75 -50 -16 -4 -58 -20 -91 -37 -70 -34 -119 -35
-119 -3 0 20 7 24 105 69 74 33 78 34 133 35 35 1 47 -3 47 -14z m850 -5 c0
-5 -39 -28 -87 -51 -49 -23 -107 -59 -130 -80 -41 -37 -87 -58 -100 -45 -12
11 33 61 73 81 21 10 64 33 94 51 83 47 150 67 150 44z m-670 -88 c0 -60 -40
-90 -156 -116 -38 -9 -97 -26 -131 -38 -35 -12 -66 -19 -69 -15 -10 9 26 98
36 92 15 -9 162 44 220 80 30 18 65 34 78 34 19 1 22 -4 22 -37z m-57 -207
c-2 -5 -25 -11 -53 -13 -46 -3 -60 4 -43 22 11 11 98 2 96 -9z m186 -34 c22
-14 7 -26 -97 -82 -53 -29 -115 -64 -137 -78 -35 -22 -53 -26 -152 -29 -66 -3
-118 0 -130 6 -15 9 -9 15 49 41 36 17 100 39 141 50 41 11 112 38 158 61 81
39 138 50 168 31z m1919 -373 c-4 -28 -45 -38 -55 -13 -7 19 12 35 40 35 13 0
18 -6 15 -22z m404 -100 c-5 -5 -20 -8 -33 -6 l-24 5 25 10 c28 12 47 6 32 -9z
m-4021 -38 c10 -6 19 -17 19 -25 0 -8 9 -15 20 -15 25 0 26 -17 2 -24 -25 -8
-79 9 -124 40 -21 15 -38 28 -38 30 0 9 103 3 121 -6z m-105 -109 c21 -16 55
-45 74 -65 29 -30 32 -38 20 -46 -18 -11 -44 -5 -124 28 -33 13 -87 27 -119
30 -33 4 -62 12 -64 17 -2 6 16 23 39 38 59 38 121 37 174 -2z m1293 -115 c6
-7 14 -50 18 -94 5 -67 3 -86 -11 -107 -9 -14 -26 -70 -36 -123 -10 -53 -25
-124 -34 -157 -8 -33 -22 -91 -31 -129 -9 -40 -24 -80 -37 -93 -45 -48 -67
-22 -77 92 -6 64 -13 89 -26 99 -40 29 4 108 87 159 32 20 44 58 53 177 7 92
21 158 37 178 14 16 43 15 57 -2z m-1296 -55 c53 -56 58 -81 22 -105 -14 -9
-25 -23 -25 -31 0 -8 -13 -27 -30 -42 -16 -14 -30 -34 -30 -43 0 -20 -19 -40
-39 -40 -8 0 -30 12 -50 28 -34 25 -43 27 -153 30 -65 2 -118 7 -118 12 0 26
137 89 245 113 49 11 64 11 85 0 30 -15 57 -17 65 -3 12 20 -85 52 -179 59
l-91 6 38 24 c57 35 116 51 167 46 38 -4 52 -13 93 -54z m1468 39 c10 -6 19
-17 19 -25 0 -15 -67 -85 -82 -85 -15 0 -9 88 8 104 18 19 28 20 55 6z m-2039
-172 c-9 -9 -12 -7 -12 12 0 19 3 21 12 12 9 -9 9 -15 0 -24z m2198 2 c0 -10
7 -20 15 -24 21 -8 19 -43 -6 -83 -13 -20 -19 -44 -16 -58 6 -35 -9 -31 -34 8
-24 39 -22 120 5 161 18 28 36 27 36 -4z m2101 15 c0 -5 -12 -11 -26 -13 -18
-2 -25 1 -25 13 0 12 7 15 25 13 14 -2 26 -7 26 -13z m-4493 -44 c3 -8 -1 -12
-9 -9 -7 2 -15 10 -17 17 -3 8 1 12 9 9 7 -2 15 -10 17 -17z m122 -31 c0 -5
-20 -22 -43 -39 -24 -16 -58 -47 -75 -68 -38 -46 -39 -47 -124 -123 -37 -33
-72 -60 -78 -60 -5 0 -37 -20 -71 -45 -76 -56 -99 -58 -99 -10 0 19 5 35 10
35 6 0 15 11 20 25 7 17 17 25 34 25 16 0 26 7 30 23 8 26 109 94 154 103 17
4 33 13 36 21 3 8 10 12 14 9 5 -3 20 6 32 19 13 14 29 25 35 25 7 0 32 16 56
34 44 35 69 44 69 26z m860 -20 c0 -11 -4 -20 -9 -20 -14 0 -23 18 -16 30 10
17 25 11 25 -10z m3365 -42 c-65 -99 -214 -243 -232 -225 -8 8 42 68 156 186
94 97 125 113 76 39z m-2657 -15 c12 -23 -1 -59 -27 -72 -35 -19 -44 -14 -38
25 10 59 45 85 65 47z m-1218 -1 c0 -5 17 -14 38 -20 70 -21 120 -100 68 -110
-10 -2 -48 11 -84 30 -62 31 -73 33 -149 30 -110 -4 -110 19 -2 57 56 20 129
27 129 13z m-790 -66 c0 -35 -67 -115 -98 -116 -7 0 -19 -18 -28 -40 -19 -47
-51 -70 -60 -45 -7 18 40 91 111 173 50 56 75 66 75 28z m-180 -57 c0 -16 -7
-46 -15 -66 -13 -30 -17 -33 -30 -23 -18 15 -19 47 -4 87 19 51 49 53 49 2z
m525 -19 c3 -6 -13 -39 -36 -75 -31 -47 -52 -68 -76 -76 -45 -14 -113 -93
-113 -130 0 -37 14 -37 57 1 60 53 73 30 22 -40 -17 -24 -36 -58 -41 -77 -5
-18 -14 -33 -21 -33 -17 0 -109 -66 -176 -126 -31 -28 -83 -70 -116 -94 -33
-24 -79 -61 -103 -82 -81 -73 -142 -81 -142 -17 0 32 15 69 34 81 6 4 23 8 37
8 33 0 94 41 198 135 46 41 90 75 97 75 8 0 14 4 14 10 0 5 24 28 53 51 60 48
74 66 58 82 -8 8 -18 5 -38 -11 -16 -12 -49 -36 -75 -53 -26 -18 -50 -41 -54
-52 -3 -10 -26 -28 -50 -38 -24 -11 -44 -24 -44 -29 0 -16 -49 -23 -66 -10
-13 12 -11 17 15 41 19 17 35 45 42 74 13 50 35 71 124 119 28 15 106 74 175
132 166 141 206 165 225 134z m2565 -30 c23 -45 25 -66 8 -76 -19 -12 -48 35
-48 77 0 50 14 50 40 -1z m-1760 9 c0 -11 -4 -18 -10 -14 -5 3 -7 12 -3 20 7
21 13 19 13 -6z m3525 -9 c0 -7 -6 -15 -12 -17 -8 -3 -13 4 -13 17 0 13 5 20
13 18 6 -3 12 -11 12 -18z m-4925 -39 c0 -12 -20 -25 -27 -18 -7 7 6 27 18 27
5 0 9 -4 9 -9z m1382 -28 c3 -49 -4 -108 -13 -119 -5 -7 -18 -73 -29 -148 -13
-88 -27 -150 -41 -174 l-20 -37 5 106 c3 61 13 130 24 165 11 32 25 91 31 129
7 39 14 78 17 88 8 26 24 20 26 -10z m3488 -13 c0 -12 -28 -25 -36 -17 -9 9 6
27 22 27 8 0 14 -5 14 -10z m-2859 -35 c0 -5 -9 -11 -21 -13 -20 -3 -27 8 -13
22 10 9 34 3 34 -9z m-516 -81 c9 -91 -1 -204 -21 -242 -8 -15 -14 -55 -14
-90 0 -68 -12 -105 -54 -166 -14 -21 -26 -50 -26 -63 0 -15 -5 -23 -12 -21
-17 6 -23 160 -8 189 6 11 18 81 26 155 10 99 19 142 33 162 10 15 22 49 25
76 6 47 20 76 36 76 5 0 11 -34 15 -76z m1779 40 c4 -11 1 -14 -11 -12 -9 2
-18 9 -21 16 -6 18 25 15 32 -4z m-1156 -6 c15 -15 16 -55 2 -63 -16 -10 -40
14 -40 40 0 34 16 45 38 23z m542 -58 c13 -9 13 -11 0 -20 -8 -5 -20 -10 -27
-10 -19 0 -27 21 -12 31 18 11 21 11 39 -1z m-457 -45 c-7 -21 -13 -19 -13 6
0 11 4 18 10 14 5 -3 7 -12 3 -20z m213 -16 c10 -17 -13 -36 -27 -22 -12 12
-4 33 11 33 5 0 12 -5 16 -11z m448 -126 c91 -46 190 -100 219 -122 28 -22 75
-48 102 -58 47 -17 50 -21 53 -58 3 -38 1 -42 -117 -157 -66 -64 -133 -123
-148 -132 -16 -8 -57 -47 -91 -88 -34 -40 -78 -84 -97 -98 -92 -65 -126 -95
-169 -150 -34 -43 -58 -63 -92 -76 l-47 -18 -23 30 c-13 16 -27 38 -30 49 -4
11 -14 29 -24 40 -9 11 -23 36 -30 55 -8 19 -24 51 -36 70 -13 19 -26 49 -30
65 -4 17 -31 77 -61 133 -29 57 -53 111 -53 119 0 8 -9 26 -19 39 -10 13 -25
48 -31 77 -7 28 -19 60 -28 69 -21 25 -28 113 -11 145 7 13 29 33 49 43 19 10
43 27 54 38 11 13 36 24 65 27 25 4 62 13 81 20 56 22 68 23 211 22 l136 -2
167 -82z m576 -108 c10 -12 10 -19 2 -27 -15 -15 -48 14 -38 31 10 15 21 14
36 -4z m1330 -153 c0 -5 -6 -17 -14 -28 -12 -16 -17 -17 -28 -6 -11 11 -10 16
6 28 22 16 36 18 36 6z m-3540 -117 c0 -14 -4 -25 -10 -25 -11 0 -14 33 -3 43
11 11 13 8 13 -18z m-290 -187 c0 -16 -3 -19 -11 -11 -6 6 -8 16 -5 22 11 17
16 13 16 -11z m930 -398 c0 -64 -22 -134 -51 -161 -16 -15 -29 -34 -29 -41 0
-8 -9 -23 -20 -33 -11 -10 -20 -30 -20 -44 0 -14 -8 -40 -18 -58 -9 -17 -29
-54 -45 -82 -30 -57 -42 -63 -51 -27 -6 26 0 52 19 76 6 8 19 41 29 73 9 31
21 57 27 57 5 0 19 19 30 43 32 66 67 128 82 146 8 9 18 33 21 54 8 43 26 41
26 -3z m-297 -8 c-12 -32 -44 -72 -59 -72 -12 0 -12 5 2 33 21 42 45 68 55 61
4 -2 5 -12 2 -22z m551 -38 c13 -35 6 -127 -13 -158 -10 -17 -22 -51 -26 -76
-4 -25 -15 -63 -25 -85 -21 -48 -98 -127 -120 -123 -23 5 -24 45 -1 74 12 15
21 38 21 52 0 13 13 48 29 76 15 28 34 72 41 98 7 26 18 49 25 52 7 2 15 23
19 47 4 23 9 46 12 51 9 14 31 9 38 -8z m2419 -209 c-7 -21 -13 -19 -13 6 0
11 4 18 10 14 5 -3 7 -12 3 -20z"/>
<path d="M6616 12011 c-6 -9 20 -35 47 -44 33 -12 10 24 -30 47 -6 3 -14 2
-17 -3z"/>
<path d="M6730 11848 c0 -23 13 -48 45 -89 25 -32 45 -63 45 -69 0 -7 13 -27
29 -46 19 -21 33 -53 41 -91 7 -32 18 -65 25 -73 8 -8 21 -57 30 -108 9 -51
24 -110 34 -130 11 -20 22 -66 26 -101 3 -36 14 -81 24 -100 10 -20 24 -65 30
-101 7 -36 21 -78 31 -95 10 -16 23 -47 30 -68 11 -37 13 -38 31 -21 10 9 23
31 29 49 6 18 17 36 25 39 12 4 15 29 15 120 0 98 -2 115 -15 110 -13 -5 -15
10 -15 100 0 102 -1 107 -26 129 -14 12 -35 39 -45 60 -15 29 -24 37 -38 32
-12 -4 -29 3 -47 18 -22 20 -27 32 -28 73 -1 29 -10 65 -24 89 -12 22 -24 58
-27 80 -6 34 -21 54 -101 133 -52 50 -101 92 -109 92 -10 0 -15 -10 -15 -32z"/>
<path d="M6960 10454 c-6 -14 -10 -30 -10 -35 0 -5 -6 -12 -14 -15 -32 -12
-50 -140 -23 -163 8 -6 19 -41 26 -79 7 -37 23 -85 36 -107 14 -22 28 -48 31
-57 4 -10 15 -18 25 -18 23 0 26 -38 5 -46 -23 -9 -28 -35 -11 -55 9 -9 23
-43 31 -76 9 -32 22 -68 30 -81 8 -13 22 -57 30 -98 16 -86 25 -107 56 -128
32 -22 62 -20 94 7 34 29 36 73 6 112 -28 35 -30 99 -4 115 16 10 16 10 0 20
-25 15 -22 47 7 82 14 16 25 36 25 44 0 16 -35 40 -73 49 -39 10 -43 24 -13
51 35 33 34 72 -1 105 -16 15 -36 39 -47 54 -10 15 -33 33 -51 40 -43 19 -54
34 -62 91 -3 27 -14 60 -25 73 -11 15 -18 40 -18 67 0 23 -3 49 -6 58 -9 24
-33 19 -44 -10z"/>
<path d="M4776 9833 c-19 -10 -87 -20 -190 -29 -117 -11 -205 -25 -321 -54
-89 -22 -168 -40 -177 -40 -9 0 -28 -15 -42 -32 -15 -18 -31 -38 -36 -45 -16
-20 -42 -5 -107 66 -55 59 -64 64 -77 51 -27 -26 -49 -136 -41 -206 9 -88 29
-158 55 -194 27 -37 22 -76 -15 -132 -13 -20 -27 -49 -31 -65 -4 -15 -15 -38
-25 -51 -19 -25 -16 -47 7 -56 19 -7 18 -74 0 -95 -8 -9 -19 -50 -24 -91 -7
-57 -17 -88 -41 -125 -17 -27 -31 -61 -31 -76 0 -44 20 -52 114 -47 70 4 95
10 143 35 33 17 84 36 115 42 73 15 126 51 266 181 267 245 345 294 527 326
161 28 307 14 413 -40 52 -27 204 -155 269 -227 23 -25 65 -56 93 -69 l50 -24
93 17 c50 9 117 20 147 24 64 7 110 44 110 88 0 36 -22 40 -88 16 -66 -24
-142 -37 -142 -25 0 5 26 27 56 49 31 22 60 48 65 58 11 20 -9 72 -28 72 -7 0
-20 10 -28 23 -19 27 -64 29 -149 7 -55 -15 -82 -13 -71 4 2 5 17 11 33 14 34
7 122 98 122 125 0 26 -36 35 -56 14 -9 -8 -29 -23 -44 -31 -16 -9 -46 -26
-67 -37 -47 -27 -136 -47 -183 -42 -29 2 -35 7 -35 26 0 17 19 37 70 75 62 46
70 56 73 89 3 34 -1 40 -47 73 -27 20 -53 46 -57 58 -3 12 -13 29 -20 37 -8 8
-25 29 -39 46 -32 41 -129 83 -207 90 -53 5 -78 1 -158 -25 -52 -16 -122 -33
-155 -37 -33 -4 -87 -17 -120 -29 -33 -13 -96 -26 -140 -29 -44 -4 -116 -16
-160 -26 -170 -39 -275 -47 -275 -20 0 16 51 49 128 80 42 18 100 43 128 56
38 18 68 24 120 24 38 0 85 5 104 10 19 6 82 14 139 20 164 15 263 73 186 108
-38 18 -164 14 -199 -5z m259 -358 c0 -5 -20 -11 -45 -13 -44 -2 -44 -2 -20
13 27 16 65 16 65 0z m-139 -60 c-32 -25 -66 -38 -66 -25 0 10 83 58 90 52 3
-2 -8 -14 -24 -27z m369 20 c0 -5 -36 -23 -80 -38 -43 -15 -87 -37 -98 -47
-22 -24 -81 -50 -113 -50 -17 0 -24 6 -24 19 0 32 11 51 29 51 9 0 34 9 56 20
21 11 41 18 43 15 3 -2 14 1 26 7 28 16 116 37 141 35 11 -1 20 -6 20 -12z
m173 -100 c24 -23 -112 -53 -183 -39 -40 7 -44 18 -12 36 43 24 172 26 195 3z
m-1523 -194 c-3 -6 -15 -16 -26 -21 -14 -8 -19 -7 -19 3 0 8 10 19 23 24 25
12 32 10 22 -6z m10 -101 c15 0 15 -3 5 -16 -8 -8 -22 -20 -33 -26 -26 -13
-47 12 -47 55 l0 28 29 -20 c16 -12 37 -21 46 -21z m115 -70 c0 -14 -39 -32
-52 -24 -7 5 -5 11 7 21 22 15 45 17 45 3z m170 -115 c0 -28 -39 -56 -73 -53
-65 6 -24 67 46 68 17 0 27 -5 27 -15z"/>
<path d="M3481 9782 c-17 -16 -30 -43 -34 -68 -4 -23 -14 -47 -22 -54 -22 -19
-19 -86 5 -110 42 -42 73 -12 91 86 6 32 17 63 25 67 19 11 18 57 -2 85 -20
29 -30 28 -63 -6z"/>
<path d="M5480 9762 c-30 -24 -22 -45 27 -70 68 -35 162 -111 179 -144 9 -18
33 -54 53 -80 20 -25 44 -60 53 -77 31 -56 94 -36 105 33 5 30 2 41 -10 48 -9
5 -44 44 -76 87 -127 166 -269 253 -331 203z"/>
<path d="M2733 9753 c-15 -3 -23 -12 -23 -23 0 -25 33 -46 95 -61 28 -6 69
-22 92 -35 49 -28 78 -31 87 -8 18 47 -169 142 -251 127z"/>
<path d="M7124 9305 c-9 -35 3 -72 25 -85 27 -14 110 -15 123 -2 17 17 -4 51
-52 85 -49 35 -87 36 -96 2z"/>
<path d="M7124 9135 c-18 -27 -13 -54 18 -97 11 -15 22 -44 25 -63 7 -41 35
-65 75 -65 31 0 33 3 18 30 -5 10 -14 55 -19 100 -10 91 -28 120 -72 120 -19
0 -34 -8 -45 -25z"/>
<path d="M4923 9041 c-84 -23 -126 -43 -171 -82 -17 -16 -87 -61 -155 -100
-67 -40 -135 -84 -152 -99 -16 -15 -49 -37 -72 -49 -43 -21 -56 -47 -29 -57
23 -9 173 33 209 57 18 13 53 40 79 62 54 44 77 45 91 2 5 -16 18 -39 28 -51
11 -11 19 -25 19 -32 0 -6 14 -25 30 -42 19 -19 30 -41 30 -59 0 -49 29 -63
143 -72 244 -19 512 29 400 72 -53 20 -58 71 -12 123 46 53 61 54 112 2 59
-58 137 -76 137 -30 0 8 -5 13 -12 12 -6 -2 -20 14 -30 34 -10 20 -38 51 -63
68 -25 17 -45 35 -45 40 0 5 -10 12 -22 16 -13 3 -50 27 -83 52 -85 64 -254
144 -313 148 -26 2 -78 -4 -119 -15z m245 -183 c5 -38 -13 -65 -47 -73 -41 -9
-69 9 -77 49 -9 50 0 57 64 54 54 -3 57 -5 60 -30z"/>
<path d="M5938 8855 c-95 -19 -154 -47 -172 -84 -19 -36 -21 -111 -3 -134 21
-29 197 -36 197 -8 0 5 -34 26 -75 48 -41 21 -75 44 -75 50 0 27 56 28 170 4
68 -15 241 -13 263 3 27 21 20 41 -20 62 -21 10 -57 31 -80 47 -48 31 -94 34
-205 12z"/>
<path d="M7215 8813 c-11 -3 -23 -10 -27 -17 -14 -20 -9 -282 5 -294 14 -11
47 -1 66 22 11 13 10 18 -3 31 -16 17 -14 29 22 97 17 32 18 45 9 95 -12 71
-20 79 -72 66z"/>
<path d="M4198 8638 c-3 -7 -3 -18 -1 -25 6 -16 43 6 43 24 0 17 -36 17 -42 1z"/>
<path d="M4494 8569 c-11 -18 13 -32 65 -37 61 -5 69 12 16 34 -41 17 -71 18
-81 3z"/>
<path d="M6011 8552 c-14 -4 -26 -13 -28 -19 -4 -12 78 -46 150 -63 65 -15
182 -13 196 4 19 23 1 45 -49 60 -56 17 -234 28 -269 18z"/>
<path d="M4248 8498 c-59 -20 -11 -64 81 -75 58 -7 70 6 39 42 -27 31 -82 46
-120 33z"/>
<path d="M5623 8445 c-134 -67 -175 -97 -156 -116 7 -7 28 -6 68 5 32 8 62 13
67 10 29 -18 -23 -62 -122 -100 -90 -35 -124 -74 -62 -74 66 1 317 120 435
206 59 43 59 64 0 79 -23 5 -52 20 -65 33 -14 12 -27 22 -30 22 -3 0 -63 -29
-135 -65z"/>
<path d="M8212 8414 c-29 -14 -57 -34 -62 -44 -6 -10 -48 -46 -94 -79 -97 -70
-172 -149 -181 -190 -7 -33 -70 -111 -90 -111 -14 0 -29 -39 -40 -105 -4 -22
-16 -55 -27 -73 -15 -25 -22 -62 -30 -174 -5 -78 -16 -160 -24 -182 -12 -37
-12 -42 3 -53 22 -17 51 0 68 40 7 18 19 69 25 115 7 45 17 85 22 88 19 12 69
-50 84 -106 9 -30 22 -65 30 -77 13 -20 10 -26 -31 -74 -25 -29 -45 -60 -45
-69 0 -8 -11 -32 -25 -52 -14 -20 -25 -45 -25 -55 0 -21 20 -56 20 -35 0 7 35
52 78 100 43 48 91 104 106 125 50 66 73 219 40 266 -9 12 -25 61 -35 108 -10
47 -24 92 -30 99 -33 40 25 174 75 174 12 0 53 15 91 34 38 19 73 32 77 30 5
-3 8 4 8 15 0 30 58 91 85 91 43 0 81 -74 104 -201 15 -87 26 -121 48 -151 15
-21 32 -40 38 -41 15 -3 33 90 34 180 1 90 6 113 27 113 19 0 18 27 -2 38 -9
5 -21 35 -29 70 -17 83 -57 147 -113 183 -59 37 -110 38 -180 3z"/>
<path d="M3516 8353 c-9 -23 29 -62 45 -46 17 17 2 63 -20 63 -10 0 -22 -8
-25 -17z"/>
<path d="M4216 8347 c-19 -14 -19 -15 1 -43 11 -16 27 -45 36 -65 10 -25 37
-52 88 -89 126 -91 169 -130 169 -154 0 -27 29 -56 56 -56 28 0 104 58 104 80
0 24 -53 65 -167 129 -91 52 -121 76 -110 87 3 4 35 -4 71 -17 36 -13 68 -20
72 -16 15 14 -52 69 -131 107 -92 45 -160 58 -189 37z"/>
<path d="M3473 8203 c-12 -31 -9 -146 4 -150 7 -2 24 18 38 46 14 28 30 51 35
51 19 0 10 39 -12 54 -29 21 -57 20 -65 -1z"/>
<path d="M7177 7733 c-2 -4 -7 -25 -11 -45 -4 -21 -11 -38 -16 -38 -5 0 -16
-26 -25 -57 -9 -32 -26 -80 -39 -108 -13 -27 -29 -65 -36 -83 -7 -18 -29 -45
-48 -60 -31 -23 -45 -27 -106 -28 -39 0 -79 -4 -88 -8 -9 -4 -26 -27 -37 -51
-11 -24 -41 -67 -66 -95 -59 -67 -90 -115 -105 -165 -6 -22 -21 -58 -32 -79
-17 -32 -21 -58 -22 -145 -1 -100 0 -106 20 -109 21 -3 44 31 44 64 0 9 8 26
18 39 11 13 25 58 32 99 12 72 22 92 33 64 3 -7 8 11 12 41 6 42 18 67 55 115
26 33 58 68 73 76 24 13 28 13 58 -9 31 -23 31 -23 58 -4 14 11 34 37 44 59
11 21 29 50 42 64 32 34 95 140 95 160 0 8 9 23 20 33 11 9 20 26 20 36 0 11
11 41 25 68 21 39 25 59 23 108 -2 46 -7 61 -20 63 -9 2 -18 -1 -21 -5z"/>
<path d="M8462 7633 c-6 -16 -16 -62 -22 -103 -7 -41 -21 -95 -32 -120 -14
-30 -22 -74 -25 -130 l-4 -85 20 23 c10 12 27 57 36 100 9 42 26 106 36 142
26 87 40 167 33 185 -10 24 -31 18 -42 -12z"/>
<path d="M3869 7616 c-55 -19 -104 -50 -104 -67 0 -29 190 -23 202 7 6 15 -20
49 -47 64 -9 5 -31 3 -51 -4z"/>
<path d="M4163 7504 c-3 -8 3 -25 15 -37 11 -12 26 -35 35 -52 36 -73 50 -241
22 -265 -8 -7 -24 -32 -35 -56 -10 -24 -24 -44 -29 -44 -6 0 -11 -11 -11 -25
0 -14 6 -25 13 -25 13 0 90 61 114 90 12 14 33 79 47 141 19 85 146 -6 146
-103 0 -20 14 -63 32 -98 25 -48 48 -74 102 -116 38 -30 77 -54 86 -54 10 0
38 -16 63 -35 25 -19 50 -35 56 -35 5 0 31 -18 56 -40 54 -46 72 -50 81 -15
14 55 -43 123 -139 165 -88 39 -188 153 -124 142 12 -2 17 4 17 19 0 28 -162
189 -190 189 -13 0 -20 7 -20 18 0 48 -121 161 -234 217 -77 39 -94 42 -103
19z"/>
<path d="M8123 6943 c-150 -113 -175 -135 -204 -182 -36 -56 -36 -69 -3 -82
29 -10 57 -5 76 15 60 62 206 234 219 257 9 16 22 36 29 44 10 13 9 15 -8 15
-11 0 -60 -30 -109 -67z"/>
<path d="M3955 6864 c-19 -8 -73 -13 -146 -14 -176 0 -199 -8 -185 -65 9 -34
38 -59 126 -106 88 -48 157 -102 172 -135 6 -13 26 -28 43 -34 18 -6 47 -24
64 -40 32 -31 59 -37 92 -20 24 14 24 25 -2 49 -28 26 -19 55 13 45 42 -13
107 -64 123 -97 9 -17 34 -52 56 -76 l39 -44 23 21 c13 12 29 22 35 22 19 0
15 97 -5 131 -12 20 -14 32 -7 39 13 13 93 -55 134 -115 22 -32 55 -58 120
-95 50 -29 127 -81 172 -116 45 -35 87 -64 93 -64 7 0 20 -9 31 -21 10 -11 64
-42 119 -68 75 -36 122 -67 187 -125 48 -42 90 -85 93 -96 3 -11 22 -38 41
-61 40 -48 59 -88 69 -147 4 -23 15 -52 26 -66 10 -13 19 -29 19 -35 0 -36 85
-161 109 -161 33 0 12 66 -43 134 -48 57 -66 105 -66 168 0 62 7 75 40 79 20
3 26 10 28 38 2 18 -2 46 -9 62 -10 26 -16 29 -54 27 -30 -1 -52 5 -73 21 -43
30 -130 129 -153 173 -13 25 -24 35 -34 32 -8 -4 -15 -1 -15 6 0 22 -49 79
-83 96 -18 9 -65 46 -105 83 -142 129 -184 153 -195 110 -5 -19 -7 -19 -35 -5
-38 20 -168 160 -193 208 -25 48 -71 85 -177 141 -113 59 -176 77 -245 70 -42
-4 -64 -1 -103 17 -107 48 -107 48 -139 34z"/>
<path d="M6340 6715 c-36 -32 -59 -45 -80 -45 -32 0 -54 -24 -66 -75 -4 -16
-13 -37 -21 -46 -19 -23 -40 -254 -27 -300 20 -71 64 -36 64 52 0 26 7 46 20
59 l20 20 39 -22 c33 -19 41 -20 55 -9 17 15 22 81 6 81 -5 0 -10 -6 -10 -12
0 -7 -5 -5 -11 5 -13 21 -2 95 16 117 7 8 18 33 25 55 7 22 21 51 31 65 16 23
23 53 20 88 -2 23 -31 12 -81 -33z"/>
<path d="M6027 6422 c-25 -27 -57 -104 -57 -137 0 -48 33 -106 88 -157 28 -27
56 -48 62 -48 18 0 12 100 -9 134 -11 17 -22 58 -26 91 -15 143 -22 157 -58
117z"/>
<path d="M4724 6186 c4 -22 15 -53 24 -67 44 -69 176 -231 212 -261 22 -18 70
-68 106 -111 36 -42 69 -75 75 -72 19 12 8 58 -21 89 -143 150 -350 406 -350
432 0 15 -8 23 -26 27 -26 5 -26 4 -20 -37z"/>
<path d="M5870 6133 c0 -3 7 -14 15 -23 13 -14 13 -23 4 -46 -11 -28 -11 -28
-19 -7 -11 26 -43 45 -64 37 -36 -14 -10 -140 37 -180 51 -43 70 -32 79 46 3
22 8 25 45 25 52 1 60 8 35 31 -11 11 -23 30 -26 44 -21 73 -27 80 -67 80 -22
0 -39 -3 -39 -7z"/>
<path d="M5675 6008 c-4 -10 -16 -18 -26 -18 -24 0 -25 -16 -1 -29 10 -5 26
-34 35 -64 29 -93 73 -132 98 -86 9 17 7 26 -9 49 -11 15 -26 45 -32 67 -7 23
-23 54 -35 69 -21 25 -24 27 -30 12z"/>
<path d="M6507 6014 c-12 -13 -8 -62 6 -67 23 -9 39 9 35 39 -3 27 -26 43 -41
28z"/>
<path d="M6676 5238 c-8 -13 -14 -40 -14 -61 0 -46 -11 -61 -71 -91 -121 -60
-196 -122 -222 -183 -10 -24 -22 -43 -27 -43 -15 0 -22 -40 -12 -66 7 -18 17
-24 38 -24 31 0 72 32 72 55 0 8 7 15 15 15 8 0 25 10 38 23 13 12 38 30 56
39 18 10 38 32 46 51 11 26 27 41 69 60 40 19 57 34 62 51 3 14 12 30 20 37
17 14 19 91 3 122 -23 43 -51 48 -73 15z"/>
<path d="M5795 4166 c-28 -9 -41 -19 -43 -34 -2 -12 0 -22 5 -22 16 0 87 45
91 58 4 14 0 14 -53 -2z"/>
<path d="M2090 8492 c0 -35 77 -92 123 -92 34 0 40 23 15 56 -38 48 -138 74
-138 36z"/>
<path d="M3795 5280 c-12 -4 -27 -16 -35 -25 -13 -15 -12 -19 5 -31 21 -15 50
-10 78 14 21 19 22 38 1 46 -19 7 -23 7 -49 -4z"/>
<path d="M3401 4566 c-19 -22 -7 -45 34 -61 47 -20 59 -19 95 11 27 23 29 29
17 41 -8 8 -41 17 -73 20 -47 4 -62 2 -73 -11z"/>
<path d="M3414 4435 c-20 -13 -20 -17 -9 -81 15 -79 29 -95 86 -101 72 -8 259
33 259 57 0 13 -28 18 -121 23 -95 5 -108 12 -79 42 26 28 20 42 -26 61 -43
18 -84 18 -110 -1z"/>
<path d="M3615 4220 c-38 -11 -83 -20 -98 -20 -39 0 -67 -17 -67 -39 0 -31 69
-43 113 -19 12 6 73 14 137 18 138 9 224 39 204 72 -10 16 -217 7 -289 -12z"/>
<path d="M8402 2280 c0 -19 2 -27 5 -17 2 9 2 25 0 35 -3 9 -5 1 -5 -18z"/>
<path d="M7432 2178 c-15 -15 -16 -82 -1 -109 12 -23 45 -18 67 9 13 17 16 69
6 96 -7 19 -55 21 -72 4z"/>
<path d="M393 1991 c-23 -4 -64 -17 -90 -28 -26 -11 -61 -25 -78 -29 -21 -6
-36 -21 -49 -47 l-18 -38 -22 20 c-30 29 -77 27 -105 -3 -30 -32 -39 -97 -16
-119 15 -15 19 -15 46 -2 41 22 53 10 27 -25 -18 -25 -20 -33 -10 -55 6 -14
18 -25 25 -25 22 0 57 40 64 72 6 30 99 140 136 159 34 19 52 -35 21 -65 -16
-17 -37 -76 -29 -85 9 -9 55 22 61 41 3 11 26 42 50 69 24 27 44 54 44 59 0 6
14 22 30 37 17 14 30 34 30 44 0 29 -30 34 -117 20z"/>
<path d="M7361 1773 c-32 -113 6 -180 64 -117 32 34 33 91 4 128 -30 38 -56
34 -68 -11z"/>
<path d="M249 1667 c-7 -15 -20 -27 -29 -27 -24 0 -40 -22 -47 -64 -4 -27 -2
-36 8 -36 34 0 56 13 66 38 7 15 20 39 30 54 16 26 16 29 1 45 -16 15 -18 15
-29 -10z"/>
<path d="M280 1573 c-38 -47 -58 -108 -43 -131 16 -27 51 -27 63 0 6 13 17 34
25 48 22 37 18 120 -5 120 -5 0 -22 -17 -40 -37z"/>
<path d="M456 1514 c-3 -9 -6 -23 -6 -31 0 -9 -7 -21 -16 -27 -31 -23 -35
-116 -4 -116 11 0 26 56 35 133 7 56 3 73 -9 41z"/>
<path d="M762 1368 c-7 -7 -12 -18 -12 -24 0 -7 -11 -25 -25 -40 -14 -15 -25
-32 -25 -39 0 -6 -11 -22 -25 -35 -49 -46 -58 -155 -12 -148 17 2 25 17 42 78
25 88 58 155 80 164 10 3 15 15 13 28 -4 26 -19 33 -36 16z"/>
<path d="M880 1314 c0 -31 23 -28 28 4 2 15 -2 22 -12 22 -11 0 -16 -9 -16
-26z"/>
<path d="M801 1138 c-21 -46 -44 -101 -51 -123 -7 -22 -19 -48 -28 -57 -16
-20 -20 -94 -5 -109 31 -31 77 58 98 190 12 77 19 97 41 117 15 15 24 31 20
40 -3 9 -6 18 -6 20 0 2 -7 4 -15 4 -10 0 -30 -32 -54 -82z"/>
<path d="M1771 1120 c-81 -64 -269 -249 -277 -272 -3 -12 -11 -17 -20 -14 -8
3 -17 -1 -20 -9 -4 -8 -13 -15 -20 -15 -8 0 -33 -17 -57 -38 -23 -21 -64 -53
-90 -71 -26 -18 -58 -48 -70 -67 -12 -18 -29 -34 -37 -34 -8 0 -20 -8 -26 -18
-7 -10 -31 -24 -55 -31 -69 -21 -99 -39 -99 -62 0 -53 50 -30 285 132 123 85
179 132 310 264 173 172 239 248 233 266 -2 6 -27 -7 -57 -31z"/>
<path d="M1577 761 c-41 -38 -86 -76 -99 -85 -14 -9 -31 -34 -38 -57 -8 -22
-23 -45 -34 -51 -12 -6 -61 -45 -111 -86 -106 -89 -167 -129 -255 -167 -100
-44 -120 -61 -120 -100 0 -37 12 -45 69 -45 22 0 59 -11 87 -26 57 -30 81 -26
175 28 64 37 188 169 196 209 3 18 14 28 36 35 52 15 100 109 66 130 -15 9
-57 -24 -99 -78 -19 -25 -72 -74 -118 -109 -46 -35 -102 -79 -125 -96 -44 -34
-104 -59 -115 -49 -8 9 59 77 148 149 41 34 102 85 135 115 33 30 76 62 96 72
20 11 39 29 42 41 3 11 10 18 16 15 6 -4 17 7 26 23 8 17 21 34 27 38 7 4 21
24 31 43 9 19 29 50 42 69 57 78 15 68 -78 -18z"/>
<path d="M2762 680 c0 -14 2 -19 5 -12 2 6 2 18 0 25 -3 6 -5 1 -5 -13z"/>
</g>
</svg>
