<?xml version="1.0" standalone="no"?>
<!DOCTYPE svg PUBLIC "-//W3C//DTD SVG 20010904//EN"
 "http://www.w3.org/TR/2001/REC-SVG-20010904/DTD/svg10.dtd">
<svg version="1.0" xmlns="http://www.w3.org/2000/svg"
 width="1098.000000pt" height="1280.000000pt" viewBox="0 0 1098.000000 1280.000000"
 preserveAspectRatio="xMidYMid meet">
<metadata>
Created by potrace 1.15, written by Peter Selinger 2001-2017
</metadata>
<g transform="translate(0.000000,1280.000000) scale(0.100000,-0.100000)"
fill="#000000" stroke="none">
<path d="M4695 12790 c-55 -4 -138 -17 -185 -29 -47 -11 -128 -24 -180 -30
-106 -10 -169 -29 -245 -72 l-52 -29 -219 0 c-385 0 -547 -36 -772 -172 -51
-31 -110 -62 -130 -69 -59 -19 -133 -58 -188 -99 -28 -21 -81 -52 -117 -68
-87 -40 -130 -75 -241 -202 -162 -183 -175 -210 -161 -331 9 -78 35 -109 112
-133 49 -15 68 -29 128 -92 39 -41 76 -74 82 -74 17 0 23 -25 23 -91 0 -44 -4
-61 -15 -65 -8 -4 -15 -12 -15 -19 0 -6 -18 -40 -40 -74 -22 -34 -40 -69 -40
-77 0 -9 -9 -18 -19 -21 -13 -3 -21 -17 -26 -41 -3 -21 -22 -61 -41 -89 -19
-29 -34 -57 -34 -61 0 -5 -9 -20 -20 -34 -10 -14 -26 -57 -35 -96 -9 -39 -22
-73 -29 -75 -7 -3 -19 -34 -26 -69 -7 -34 -21 -76 -30 -93 -10 -16 -23 -55
-29 -85 -7 -30 -19 -65 -27 -78 -9 -14 -23 -65 -31 -115 -8 -51 -27 -122 -44
-158 -16 -38 -29 -85 -29 -108 0 -22 -9 -57 -19 -78 -10 -21 -25 -69 -31 -108
-7 -40 -20 -77 -30 -87 -10 -9 -21 -36 -25 -60 -10 -60 -38 -115 -86 -168 -22
-25 -75 -88 -118 -141 -67 -82 -81 -106 -96 -165 -10 -38 -24 -79 -32 -92 -12
-20 -12 -26 7 -49 11 -14 20 -31 20 -37 0 -7 12 -21 28 -33 17 -13 37 -46 55
-95 17 -45 52 -106 88 -154 32 -43 59 -88 59 -100 0 -29 -27 -51 -95 -74 -101
-35 -124 -59 -89 -94 22 -23 88 -20 161 6 35 12 66 19 70 15 3 -4 -3 -26 -15
-50 -11 -23 -24 -62 -28 -87 -4 -25 -14 -58 -23 -75 -14 -27 -16 -101 -15
-690 0 -515 3 -670 14 -705 7 -25 15 -75 17 -112 4 -57 2 -68 -11 -68 -8 0
-20 -9 -27 -21 -6 -12 -46 -59 -89 -105 -43 -46 -85 -100 -94 -119 -10 -20
-26 -45 -38 -58 -11 -12 -44 -63 -73 -112 -39 -68 -57 -111 -69 -170 -9 -44
-22 -84 -29 -90 -7 -5 -18 -29 -25 -51 -28 -94 -135 -108 -748 -95 -190 4
-203 3 -245 -17 -50 -24 -84 -71 -74 -102 11 -34 57 -69 110 -86 86 -27 309
-30 450 -6 66 12 219 35 340 52 121 17 256 40 300 50 96 22 429 63 482 58 43
-3 75 -41 95 -112 6 -23 18 -49 26 -58 9 -10 18 -54 23 -106 4 -48 13 -108 18
-134 13 -57 -2 -112 -60 -218 -23 -41 -52 -95 -65 -119 -13 -25 -30 -52 -37
-60 -15 -18 -73 -168 -83 -216 -4 -16 -17 -55 -30 -85 -13 -33 -27 -97 -34
-160 -17 -157 -26 -175 -159 -314 -119 -123 -184 -209 -196 -259 -4 -15 -14
-31 -22 -35 -8 -5 -22 -41 -33 -81 -10 -39 -24 -79 -32 -88 -10 -12 -14 -70
-16 -231 l-4 -215 -59 -55 c-79 -73 -132 -112 -204 -153 -75 -41 -152 -97
-234 -168 -35 -30 -77 -61 -95 -67 -134 -51 -295 -118 -331 -139 -24 -14 -52
-28 -63 -30 -11 -2 -37 -14 -58 -28 -22 -13 -86 -48 -144 -77 -105 -54 -200
-131 -200 -162 0 -54 133 -178 191 -178 22 0 35 -9 55 -40 28 -43 52 -53 152
-66 35 -4 67 -2 94 7 35 11 42 11 52 -2 21 -30 54 -40 105 -33 42 5 54 3 77
-15 33 -26 58 -27 83 -2 15 15 20 40 25 127 9 136 24 246 36 258 6 6 10 30 10
54 0 51 -14 52 -47 3 -32 -47 -84 -202 -102 -305 -12 -66 -29 -95 -42 -74 -15
23 -10 196 5 226 8 15 20 66 26 112 12 80 22 111 71 203 29 55 51 47 63 -23 7
-44 10 -51 20 -39 6 9 16 14 23 12 16 -6 40 33 58 95 9 28 23 56 33 61 24 13
78 -11 87 -39 4 -11 12 -19 18 -17 22 7 57 70 57 101 0 40 13 59 36 54 12 -2
20 -13 22 -31 2 -20 9 -27 24 -27 18 0 20 -4 14 -39 -14 -92 44 -38 73 67 28
103 83 184 111 167 16 -10 6 -72 -16 -96 -37 -41 -40 -307 -3 -316 10 -3 20
-12 24 -21 3 -9 10 -113 15 -232 6 -133 15 -233 24 -263 13 -45 13 -49 -6 -66
l-20 -19 21 -21 c12 -12 21 -32 21 -45 0 -33 34 -44 62 -19 12 10 31 40 43 67
l22 49 6 -54 c4 -30 13 -58 20 -64 8 -5 18 -23 24 -40 7 -21 18 -31 39 -36 67
-14 129 -65 154 -126 6 -18 36 -53 66 -78 29 -25 55 -54 59 -64 3 -10 23 -31
45 -45 22 -14 49 -44 60 -66 29 -57 67 -73 157 -68 83 6 117 24 144 75 8 17
23 38 32 48 9 9 17 22 17 28 1 32 17 39 49 22 25 -12 45 -15 87 -9 51 6 54 5
54 -15 0 -31 44 -71 77 -71 86 0 132 -37 143 -114 l5 -41 57 -5 c46 -4 60 -10
78 -32 13 -17 31 -28 45 -28 14 0 40 -14 58 -30 19 -17 43 -30 54 -30 11 0 41
-14 68 -32 46 -31 48 -31 62 -12 27 34 112 215 119 250 3 19 14 39 24 44 11 6
23 31 30 62 7 29 23 76 36 104 13 28 26 82 30 120 4 38 11 77 16 87 13 26 53
21 77 -9 28 -36 26 -76 -5 -113 -31 -38 -43 -84 -44 -168 0 -57 -12 -83 -23
-50 -2 6 -7 -24 -11 -67 -7 -83 -27 -146 -46 -146 -6 0 -15 -12 -20 -26 -6
-14 -23 -44 -39 -67 -15 -23 -31 -52 -35 -64 -4 -13 -14 -23 -22 -23 -10 0
-14 -13 -14 -48 0 -59 5 -65 39 -48 55 29 103 110 122 207 7 34 21 71 31 81
12 12 18 33 18 62 0 38 6 52 40 91 22 26 40 57 40 70 0 13 7 31 16 40 15 15
18 15 32 1 13 -13 14 -28 3 -118 -7 -60 -20 -119 -32 -141 -10 -21 -19 -46
-19 -56 0 -11 -16 -38 -35 -61 -19 -23 -35 -52 -35 -64 0 -12 -11 -32 -25 -44
-14 -12 -25 -27 -25 -34 0 -6 -12 -24 -27 -40 -17 -17 -26 -39 -26 -58 0 -36
0 -36 35 -45 38 -10 78 31 78 78 0 19 8 44 20 56 10 13 26 45 35 72 9 27 20
49 25 49 5 0 16 21 26 48 9 26 26 56 36 68 10 11 18 28 18 37 0 9 4 18 9 21
29 18 68 -44 57 -89 -7 -29 -5 -30 53 -10 56 20 71 9 71 -55 0 -64 -17 -150
-34 -169 -8 -9 -17 -32 -21 -51 -11 -59 -26 -89 -49 -96 -11 -4 -27 -15 -34
-25 -52 -74 -50 102 3 202 14 27 25 58 25 69 0 11 5 20 10 20 6 0 10 -4 10
-10 0 -5 5 -10 10 -10 11 0 13 39 4 64 -3 9 -14 16 -24 16 -33 0 -58 -34 -79
-105 -13 -43 -36 -90 -60 -123 -22 -29 -48 -70 -57 -92 -14 -32 -22 -39 -37
-34 -16 5 -17 3 -8 -14 18 -33 68 -69 107 -76 20 -4 46 -13 58 -21 12 -7 42
-16 69 -20 35 -4 52 -13 63 -31 24 -35 61 -32 82 8 9 17 27 43 40 56 13 14 27
34 32 46 7 16 9 12 9 -23 1 -33 -6 -55 -25 -83 -33 -47 -27 -78 21 -108 35
-22 55 -65 55 -122 0 -64 38 -98 109 -98 66 0 76 15 79 122 4 89 2 96 -22 125
-29 35 -34 84 -11 103 23 19 18 63 -10 90 -24 22 -25 29 -25 137 0 103 -2 114
-17 111 -10 -2 -24 -22 -33 -45 -8 -23 -26 -52 -40 -65 -14 -13 -30 -33 -36
-44 -21 -35 -24 -9 -5 42 39 103 34 251 -9 294 -16 16 -20 33 -20 83 0 34 -3
72 -7 85 -5 22 -9 23 -64 17 l-59 -7 0 99 c-1 115 -10 137 -71 173 -38 23 -44
31 -56 84 -9 39 -25 74 -48 102 -58 70 -69 120 -35 154 20 20 20 20 0 52 -11
18 -20 41 -20 50 0 10 -14 33 -31 52 -37 42 -49 82 -49 160 0 58 0 59 -55 109
-30 27 -55 55 -55 62 0 7 -9 24 -20 38 -18 22 -18 26 -4 38 8 7 14 24 12 38
-3 23 -8 26 -46 29 -52 4 -62 22 -62 118 0 89 -18 127 -69 147 -60 25 -56 46
32 147 21 25 46 59 54 75 19 38 63 85 79 85 10 0 21 -20 38 -72 3 -10 11 -15
19 -12 9 3 18 -9 26 -38 15 -48 54 -130 82 -170 11 -15 27 -66 36 -114 9 -49
28 -111 44 -142 16 -30 29 -59 29 -66 0 -6 9 -19 20 -28 11 -10 36 -50 56 -90
20 -40 46 -86 58 -103 13 -16 29 -52 36 -80 8 -27 22 -57 32 -65 21 -18 72
-120 87 -175 6 -22 17 -49 24 -60 8 -11 24 -53 36 -92 12 -40 25 -73 30 -73 4
0 15 -17 23 -38 8 -22 40 -72 71 -113 30 -41 60 -91 65 -112 13 -46 59 -127
73 -127 6 0 20 -21 31 -47 11 -26 27 -53 34 -60 7 -7 18 -38 25 -69 7 -33 20
-61 31 -67 10 -7 18 -21 18 -33 0 -12 13 -41 30 -65 16 -24 30 -52 30 -61 0
-23 72 -161 103 -198 14 -16 28 -38 32 -49 3 -10 14 -21 23 -23 11 -3 23 -22
30 -47 7 -23 19 -41 27 -41 8 0 21 -13 30 -30 15 -29 18 -30 88 -30 77 0 97 9
97 45 0 37 22 55 75 61 63 7 102 22 109 41 3 8 -5 31 -19 51 -14 20 -25 42
-25 48 0 7 -7 15 -15 18 -14 5 -12 12 10 43 46 69 38 93 -70 204 -58 59 -105
118 -121 151 -14 30 -38 61 -53 69 -15 9 -72 69 -127 135 -54 65 -113 128
-131 139 -17 11 -52 54 -79 95 -26 41 -82 121 -125 176 -42 56 -95 134 -119
173 -23 40 -61 96 -85 125 -24 29 -54 71 -68 93 -14 22 -42 60 -64 85 -35 42
-102 141 -161 240 -13 21 -41 52 -62 69 -21 17 -44 45 -51 63 -6 17 -22 47
-34 66 -13 19 -28 66 -35 103 -7 37 -19 74 -27 82 -7 8 -20 33 -28 55 -8 23
-23 52 -34 66 -10 13 -25 48 -31 77 -17 69 -28 90 -99 172 -34 39 -61 75 -61
80 0 6 -12 35 -26 65 -14 30 -35 96 -45 145 -11 50 -26 99 -33 110 -14 22 -43
241 -33 251 3 3 26 -3 50 -15 55 -27 61 -26 81 4 30 46 109 53 212 19 23 -7
84 -20 135 -29 52 -9 155 -29 230 -45 125 -27 148 -36 265 -100 71 -38 145
-73 164 -76 74 -14 83 -26 115 -163 22 -92 50 -173 83 -236 21 -40 31 -457 12
-480 -16 -19 -84 -19 -104 0 -8 8 -20 15 -27 15 -7 0 -20 6 -28 14 -9 7 -52
32 -95 55 -76 41 -283 206 -436 347 -36 33 -99 87 -140 119 -41 32 -106 89
-145 126 -80 77 -140 119 -167 119 -24 0 -38 -37 -26 -71 16 -46 114 -155 225
-251 60 -50 135 -119 168 -153 33 -33 83 -76 110 -95 28 -19 68 -51 90 -71 22
-21 112 -76 200 -124 88 -48 176 -100 195 -116 59 -48 133 -87 195 -104 85
-22 156 -69 246 -163 57 -58 89 -102 109 -146 15 -35 33 -66 38 -70 6 -3 13
-20 17 -36 4 -17 17 -50 30 -73 12 -23 26 -60 30 -82 4 -22 11 -45 16 -52 6
-6 19 -93 29 -193 11 -101 24 -188 30 -195 6 -7 17 -50 25 -96 9 -48 23 -96
35 -111 11 -15 20 -35 20 -45 0 -10 11 -39 25 -65 16 -30 32 -89 45 -164 12
-75 25 -120 35 -128 22 -16 38 -128 31 -209 -8 -85 -60 -216 -124 -310 -41
-60 -47 -75 -50 -132 -4 -53 -1 -66 12 -71 47 -18 119 36 153 116 20 45 55 86
202 230 99 96 184 185 190 197 14 28 15 76 1 68 -6 -4 -18 -1 -26 6 -20 17
-10 44 42 108 52 64 56 75 52 166 -2 49 -7 69 -15 67 -7 -1 -13 4 -13 12 0 17
52 59 135 109 71 42 183 152 192 187 3 14 21 42 39 63 19 20 34 42 34 48 0 19
-21 49 -34 49 -8 0 -19 6 -25 14 -10 11 -7 18 14 33 61 43 84 65 100 98 18 40
10 61 -26 67 -18 3 -14 11 30 68 28 36 51 70 51 76 0 15 -23 24 -60 24 -16 0
-31 4 -34 9 -3 4 41 52 98 104 108 101 136 142 136 201 0 22 5 36 13 36 32 1
121 104 154 180 11 25 38 67 61 93 23 27 42 52 42 58 0 5 0 12 0 16 0 4 -8 8
-17 8 -33 0 -25 34 21 83 43 46 59 82 36 82 -23 0 -7 43 35 90 26 29 45 61 45
74 0 22 10 38 78 127 31 40 42 66 23 55 -9 -6 -21 16 -21 40 0 8 13 20 29 25
37 13 86 88 94 144 4 21 16 52 28 69 16 22 21 42 20 83 -1 41 5 65 23 96 13
23 26 57 30 76 3 19 13 42 21 51 8 9 24 54 36 101 11 46 27 94 35 107 8 12 18
53 23 90 5 37 19 87 32 112 l24 45 0 398 c0 434 2 417 -58 417 -15 0 -29 -6
-32 -12 -2 -7 -8 -153 -13 -325 -8 -261 -13 -317 -27 -345 -9 -18 -21 -68 -25
-111 -5 -46 -17 -91 -28 -110 -11 -17 -28 -63 -38 -102 -10 -38 -23 -79 -30
-90 -7 -11 -20 -49 -29 -85 -9 -36 -22 -74 -29 -85 -7 -11 -21 -44 -31 -74 -9
-29 -27 -63 -39 -74 -23 -23 -41 -54 -79 -133 -31 -64 -55 -82 -242 -184 -82
-45 -170 -97 -195 -115 -85 -63 -345 -212 -480 -276 -74 -35 -165 -81 -202
-102 -37 -20 -78 -38 -90 -40 -13 -1 -29 -10 -36 -19 -7 -10 -24 -18 -38 -18
-14 0 -83 -25 -155 -56 -71 -30 -146 -58 -166 -61 -21 -3 -49 -14 -62 -25 -13
-10 -33 -18 -45 -18 -44 0 -134 -36 -170 -68 -20 -17 -46 -32 -57 -32 -23 0
-69 42 -69 63 0 8 -8 24 -19 36 -12 14 -24 56 -35 125 -9 58 -21 117 -27 133
-7 16 -15 137 -19 290 -7 257 -8 263 -34 312 -30 59 -31 68 -10 92 9 10 20 37
25 60 16 68 -12 53 348 195 107 42 219 92 249 112 31 19 74 41 96 47 62 19
171 70 222 105 25 17 49 28 53 25 5 -2 29 9 55 25 72 46 149 83 281 135 159
62 321 147 394 206 33 26 79 58 103 70 124 62 320 214 543 419 50 46 110 98
135 116 38 28 48 41 63 94 19 64 54 110 84 110 30 0 121 -58 150 -96 15 -20
45 -56 66 -81 20 -25 44 -60 52 -79 8 -19 21 -37 30 -40 8 -3 15 -12 15 -19 0
-7 18 -40 40 -73 22 -33 40 -63 40 -67 0 -4 20 -30 44 -59 25 -29 54 -74 66
-101 11 -26 27 -53 34 -59 7 -6 16 -25 19 -41 6 -31 63 -136 91 -168 9 -9 26
-42 37 -72 11 -30 24 -55 29 -55 5 0 17 -26 26 -57 9 -32 25 -69 35 -82 11
-13 19 -29 19 -35 0 -35 22 -84 40 -89 11 -3 20 -13 20 -22 0 -10 16 -40 36
-68 38 -53 104 -182 104 -204 0 -7 5 -13 10 -13 6 0 21 -25 35 -56 24 -54 98
-152 198 -259 26 -29 47 -58 47 -64 0 -7 9 -25 21 -39 77 -100 74 -90 74 -282
0 -113 -4 -189 -13 -215 -7 -22 -21 -134 -32 -248 -10 -115 -24 -215 -30 -222
-6 -7 -17 -36 -26 -65 -9 -29 -22 -60 -30 -67 -8 -8 -14 -22 -14 -31 -1 -61
-31 -227 -44 -247 -9 -13 -23 -66 -32 -117 -9 -51 -24 -111 -34 -133 -10 -22
-21 -56 -25 -75 -4 -19 -15 -51 -25 -70 -9 -19 -23 -78 -30 -130 -7 -52 -19
-108 -27 -124 -8 -16 -24 -81 -34 -144 -10 -63 -25 -124 -32 -136 -8 -12 -17
-45 -20 -75 -4 -29 -17 -72 -30 -95 -14 -22 -30 -59 -37 -81 -7 -22 -20 -54
-30 -70 -9 -17 -20 -66 -24 -108 -7 -83 -18 -120 -40 -142 -7 -8 -16 -33 -20
-57 -12 -78 -26 -118 -41 -118 -9 0 -15 -10 -15 -24 0 -13 -15 -46 -34 -72
-72 -101 -87 -133 -93 -187 -7 -67 12 -92 63 -84 49 8 90 44 114 98 11 27 25
49 29 49 5 0 19 29 31 65 12 36 25 65 30 65 5 0 12 15 15 33 4 17 18 50 31 73
13 23 31 65 40 95 9 30 22 63 29 75 7 11 21 58 30 105 9 46 23 96 31 111 8 15
21 60 29 100 9 39 22 79 29 88 8 8 21 42 31 75 9 33 20 65 25 70 11 15 17 47
35 184 9 68 23 140 31 160 8 20 22 71 30 115 9 43 21 85 29 92 7 7 18 37 25
66 7 29 23 76 35 103 12 28 28 91 35 140 7 50 19 103 27 119 8 16 21 94 29
177 8 82 19 160 24 175 6 14 19 108 30 208 10 100 24 195 30 210 6 16 18 90
26 165 9 75 19 142 23 150 6 10 17 6 45 -19 20 -18 44 -45 53 -61 10 -16 65
-63 123 -103 59 -41 113 -82 120 -91 7 -9 26 -23 41 -31 15 -7 72 -50 126 -95
72 -60 127 -95 208 -133 64 -31 147 -80 198 -120 48 -37 114 -83 145 -103 31
-20 94 -61 140 -91 46 -30 129 -74 185 -99 56 -24 116 -57 132 -74 17 -16 38
-29 48 -29 9 0 21 -8 26 -19 22 -40 272 -151 342 -151 72 0 100 60 60 126 -15
24 -51 47 -153 97 -73 37 -158 76 -188 87 -57 22 -92 40 -395 205 -205 111
-219 120 -283 184 -29 28 -93 71 -167 110 -140 75 -164 90 -270 176 -44 36
-109 86 -145 112 -36 27 -79 62 -96 78 -18 17 -45 37 -61 45 -15 9 -37 31 -48
49 -11 18 -64 77 -117 131 -54 54 -98 103 -98 109 0 6 -7 11 -15 11 -9 0 -25
16 -36 35 -12 19 -25 35 -30 35 -5 0 -11 11 -15 24 -3 13 -19 36 -35 52 -16
15 -29 33 -29 40 0 7 -16 25 -35 40 -19 15 -38 37 -41 49 -3 13 -14 25 -25 28
-10 3 -23 16 -28 30 -6 14 -16 29 -24 34 -8 4 -24 28 -37 53 -12 25 -42 71
-66 102 -25 32 -50 71 -55 88 -6 16 -17 30 -25 30 -8 0 -20 23 -29 54 -9 30
-22 59 -29 65 -7 6 -19 29 -26 51 -8 23 -21 45 -30 50 -10 5 -23 30 -30 55 -7
25 -21 50 -30 55 -11 6 -23 32 -30 62 -7 29 -19 64 -27 77 -8 13 -28 62 -43
110 -50 150 -68 194 -83 202 -8 5 -18 20 -21 33 -3 13 -55 84 -116 158 -60 73
-119 152 -131 176 -11 23 -25 42 -29 42 -5 0 -21 20 -36 45 -50 87 -160 162
-272 186 -47 10 -50 12 -56 47 -12 74 -6 256 9 276 12 16 21 50 41 153 3 17
13 22 56 28 29 3 76 13 105 21 54 15 210 92 240 119 10 9 39 33 64 53 125 99
198 159 239 198 25 23 72 63 105 89 33 26 67 60 76 75 8 15 23 35 32 45 9 9
17 22 17 28 0 7 16 34 35 61 19 27 35 55 35 61 0 7 8 23 19 36 10 13 26 52 36
87 11 38 23 62 31 62 8 0 22 16 31 35 9 19 25 37 34 40 27 9 149 130 149 148
0 9 8 21 18 26 10 5 24 29 31 53 7 24 21 52 31 63 10 11 24 40 30 65 7 25 20
59 30 75 10 17 24 50 30 75 7 24 20 55 30 68 11 13 24 49 30 80 7 31 20 71 30
87 9 17 23 52 29 80 7 27 19 57 26 65 30 34 75 77 105 99 18 14 39 40 47 58 7
19 20 36 27 39 8 3 17 16 20 29 3 13 29 52 57 86 53 63 79 125 79 188 0 66 11
110 26 104 11 -4 14 9 14 63 1 86 16 129 69 198 39 50 43 63 62 172 11 66 26
126 33 134 7 8 19 38 26 65 7 28 22 66 33 85 17 28 22 57 25 145 5 150 -7 212
-56 274 -21 27 -49 74 -62 105 -12 31 -26 56 -31 56 -4 0 -16 16 -25 36 -18
38 -105 109 -179 147 -22 11 -91 42 -154 68 -132 56 -151 70 -151 114 0 18 -8
43 -18 56 -10 13 -24 51 -31 84 -7 33 -21 74 -31 90 -10 17 -25 55 -34 86 -9
31 -23 62 -31 69 -8 7 -15 22 -15 35 0 39 -80 144 -152 198 -52 40 -74 65 -94
106 -14 30 -48 82 -74 115 -27 34 -52 74 -55 88 -4 15 -13 29 -20 32 -7 2 -20
27 -30 55 -9 27 -22 54 -30 61 -7 6 -16 23 -20 38 -3 15 -22 52 -41 84 -18 31
-34 60 -34 66 0 5 -11 17 -24 26 -13 8 -27 30 -31 47 -4 17 -15 33 -24 36 -10
2 -26 20 -36 40 -21 38 -165 178 -230 223 -22 15 -64 33 -94 39 -69 15 -119
38 -132 63 -11 21 -4 38 17 38 19 0 19 46 0 53 -8 3 -20 23 -25 45 -16 59 -62
121 -161 216 -107 103 -179 141 -326 175 -54 12 -128 35 -164 51 -36 16 -91
40 -122 54 -32 14 -58 29 -58 34 0 4 -33 14 -72 20 -40 6 -114 27 -165 46
-285 109 -454 126 -1288 131 -341 2 -665 0 -720 -5z m895 -244 c47 -13 110
-27 140 -31 30 -4 92 -23 137 -41 45 -19 91 -34 102 -34 29 0 28 37 -1 68
l-23 25 51 -6 c29 -3 85 -18 125 -32 113 -40 124 -41 163 -11 45 34 60 33 147
-9 41 -19 85 -35 100 -35 37 0 45 27 19 62 l-21 28 35 0 c59 0 186 -28 243
-55 35 -16 89 -29 145 -35 96 -11 109 -16 175 -63 34 -24 57 -31 119 -37 74
-7 78 -9 111 -48 18 -22 58 -54 88 -71 63 -36 193 -155 206 -188 5 -13 15 -23
22 -23 16 0 37 -42 37 -75 0 -22 -5 -24 -67 -29 -38 -4 -81 -12 -98 -18 -18
-7 -82 -12 -155 -13 -97 0 -134 -4 -164 -17 -45 -21 -100 -23 -196 -7 -60 10
-75 9 -137 -9 -89 -27 -132 -57 -148 -103 -6 -21 -22 -49 -33 -64 -13 -16 -22
-42 -22 -62 0 -45 20 -124 36 -143 32 -37 72 -133 83 -196 7 -38 21 -89 32
-114 17 -36 22 -82 31 -240 5 -107 8 -262 6 -345 l-3 -150 -38 -50 c-20 -27
-44 -57 -53 -66 -8 -10 -22 -38 -30 -65 -8 -26 -21 -55 -29 -64 -8 -9 -22 -51
-31 -94 -8 -42 -22 -89 -30 -104 -19 -37 -19 -246 0 -284 39 -74 27 -154 -29
-188 -19 -12 -52 -47 -73 -78 l-37 -57 0 -236 0 -236 33 -31 c17 -16 32 -37
32 -46 0 -9 5 -16 12 -16 6 0 26 -17 44 -39 36 -42 98 -75 160 -87 110 -20
374 -198 374 -253 0 -23 46 -87 123 -171 66 -72 82 -99 104 -174 18 -62 47
-104 79 -116 35 -14 50 -52 34 -90 -7 -16 -18 -30 -25 -30 -7 0 -16 -11 -19
-25 -4 -14 -26 -54 -50 -89 -43 -63 -86 -160 -86 -194 0 -9 -9 -30 -20 -47
-22 -33 -27 -113 -10 -144 21 -41 128 -32 152 12 6 12 14 75 17 140 4 72 10
121 18 125 6 4 18 33 26 65 9 33 22 66 30 75 9 10 19 34 22 55 14 76 58 56 75
-33 6 -30 17 -60 24 -66 8 -5 18 -22 21 -37 9 -36 30 -50 60 -43 30 8 75 71
75 107 0 14 11 38 25 53 21 22 25 37 25 85 0 60 -15 121 -31 121 -5 0 -12 18
-15 41 -5 26 -23 61 -51 98 -24 31 -55 73 -68 93 -14 20 -34 42 -45 48 -11 6
-27 26 -35 45 -7 19 -19 35 -24 35 -6 0 -11 23 -11 53 0 59 -6 71 -37 81 -40
13 -27 34 25 41 64 9 80 19 66 42 -11 18 -32 27 -86 38 -29 6 -38 29 -14 38 8
3 17 25 21 49 11 67 19 74 96 93 83 21 132 57 149 113 7 20 22 53 34 72 20 33
21 48 21 237 0 195 -1 202 -22 225 -13 14 -23 29 -23 35 0 6 -24 31 -54 57
-36 31 -63 65 -79 100 -14 30 -37 62 -53 72 -27 18 -28 18 -88 -15 -79 -43
-279 -177 -301 -201 -17 -18 -15 -22 41 -80 32 -34 71 -69 86 -78 18 -11 30
-28 34 -50 13 -70 106 -129 222 -140 l67 -7 8 -50 c5 -27 15 -54 23 -58 49
-28 -42 -197 -106 -197 -11 0 -25 7 -32 16 -39 49 -75 74 -130 93 -70 24 -150
28 -166 8 -6 -7 -14 -38 -18 -69 -9 -81 -14 -86 -66 -68 -60 21 -85 62 -93
157 -10 101 1 221 21 244 21 24 15 63 -12 67 -34 5 -72 -81 -88 -201 -17 -116
-31 -139 -69 -114 -34 22 -44 80 -21 115 15 22 19 61 25 222 7 187 15 240 38
255 20 12 11 34 -34 85 -67 76 -62 86 33 60 36 -10 70 -16 74 -14 4 3 8 18 8
33 0 20 -6 30 -19 34 -28 7 -90 96 -97 140 -4 22 -15 42 -26 48 -15 8 -18 17
-13 37 3 15 10 31 15 36 4 4 51 8 104 7 96 -1 96 -1 96 23 0 51 -16 73 -59 80
-43 7 -45 10 -56 91 -3 28 -13 73 -23 100 -22 70 -22 297 2 340 22 41 22 198
0 240 -9 17 -22 62 -29 102 -8 39 -23 88 -34 110 -13 24 -25 76 -32 143 -8 75
-17 113 -31 134 -17 24 -18 30 -6 42 12 13 19 11 46 -16 35 -33 81 -40 102
-15 19 23 47 18 69 -14 19 -26 27 -29 65 -28 57 2 86 -24 109 -97 10 -29 28
-65 41 -79 14 -15 27 -36 31 -47 14 -45 55 -14 55 41 0 61 15 89 48 89 41 0
72 26 72 61 0 38 -20 76 -70 134 -57 66 -53 123 7 91 36 -19 106 -92 126 -132
9 -17 33 -42 54 -56 22 -14 61 -44 87 -67 46 -40 79 -51 91 -31 16 26 137 4
229 -41 75 -37 113 -72 133 -122 20 -49 65 -85 114 -93 47 -8 83 -34 105 -75
8 -17 24 -33 34 -37 11 -4 32 -32 47 -62 19 -37 46 -69 83 -97 126 -98 210
-203 210 -264 0 -11 8 -23 18 -26 25 -7 70 -110 91 -209 10 -46 25 -92 34
-102 10 -10 17 -29 17 -43 -1 -34 -32 -99 -67 -140 -32 -36 -53 -71 -53 -88 0
-6 12 -21 26 -34 l25 -24 -45 -66 c-25 -37 -46 -71 -46 -77 0 -17 21 -22 127
-31 192 -17 367 -76 415 -140 14 -19 35 -53 47 -76 27 -53 35 -58 100 -58 54
0 55 0 64 -35 5 -19 7 -86 4 -147 -4 -88 -10 -120 -25 -145 -11 -18 -23 -53
-27 -77 -4 -27 -17 -53 -31 -66 -13 -12 -24 -27 -24 -32 0 -6 -14 -41 -31 -78
-17 -38 -35 -101 -42 -147 -8 -58 -16 -82 -29 -89 -10 -5 -18 -15 -18 -21 0
-7 -11 -23 -24 -37 -26 -28 -65 -93 -92 -153 -10 -23 -24 -38 -34 -38 -11 0
-20 -11 -25 -27 -3 -16 -17 -41 -29 -58 -12 -16 -28 -45 -35 -62 -15 -37 -11
-35 -68 -37 -28 -2 -52 -11 -75 -29 -18 -15 -48 -39 -65 -53 -28 -23 -34 -24
-39 -10 -12 30 7 68 60 121 38 38 64 56 90 61 21 3 40 13 43 20 3 8 14 14 24
14 12 0 21 10 25 26 4 15 26 49 50 76 60 67 58 81 -16 103 -85 26 -94 39 -87
125 l6 71 -77 -72 -77 -71 -244 6 c-221 5 -248 7 -288 27 -57 27 -94 77 -101
134 -5 50 -18 65 -65 74 -46 10 -40 33 12 46 48 11 64 29 33 37 -12 4 -23 22
-32 52 -9 34 -20 50 -37 57 -12 4 -23 13 -23 18 0 6 -9 15 -21 21 -36 20 -47
-1 -41 -78 4 -64 3 -68 -19 -79 -13 -6 -63 -44 -112 -86 -48 -41 -112 -86
-142 -101 -64 -30 -89 -62 -79 -102 8 -35 23 -56 35 -48 5 3 9 -4 9 -14 0 -34
31 -118 55 -148 l23 -29 50 18 c53 19 102 25 121 13 6 -4 11 -25 11 -46 0 -24
7 -46 18 -57 10 -10 23 -29 29 -44 6 -15 34 -38 71 -57 58 -31 141 -90 212
-150 l35 -30 -17 -159 c-13 -121 -23 -172 -42 -218 -14 -33 -26 -70 -26 -83 0
-12 -9 -30 -20 -39 -12 -11 -20 -30 -20 -48 0 -17 -9 -49 -21 -70 -12 -22 -28
-53 -37 -70 -21 -39 -174 -192 -234 -233 -73 -50 -223 -197 -253 -247 -27 -47
-197 -205 -248 -232 -61 -31 -205 5 -233 58 -8 16 -20 28 -26 26 -7 -1 -15 18
-19 48 -14 87 -54 94 -147 24 -95 -72 -152 -162 -152 -242 0 -20 -7 -30 -24
-37 -26 -10 -76 -78 -94 -127 -6 -17 -19 -40 -30 -51 -13 -13 -21 -40 -25 -83
-6 -56 -11 -68 -42 -97 -19 -18 -35 -39 -35 -46 0 -7 -9 -21 -19 -30 -11 -10
-23 -31 -26 -46 -3 -16 -17 -35 -29 -44 -14 -9 -28 -32 -34 -59 -7 -24 -27
-66 -47 -93 -19 -27 -42 -59 -51 -71 -8 -12 -18 -48 -21 -80 -10 -100 -21
-102 -178 -38 -139 57 -158 62 -302 80 -65 8 -140 21 -168 29 -195 54 -165 51
-378 37 -277 -19 -382 -7 -527 61 -96 44 -140 81 -140 115 0 38 -25 87 -79
157 -27 36 -59 85 -69 108 -35 81 -134 230 -195 295 -97 103 -155 123 -242 81
-44 -22 -46 -22 -76 -4 -35 21 -93 24 -114 6 -34 -29 -8 -89 65 -150 60 -50
67 -87 24 -123 -64 -53 -84 -77 -84 -101 0 -15 6 -26 13 -26 8 0 22 -19 33
-42 11 -24 25 -42 32 -41 6 2 18 -12 26 -31 16 -39 155 -188 198 -214 19 -11
28 -24 26 -37 -5 -31 -50 -31 -109 1 -71 39 -271 236 -302 299 -35 69 -139
165 -179 165 -10 0 -24 -11 -30 -26 -10 -20 -9 -30 5 -53 9 -16 23 -71 32
-124 8 -53 26 -117 39 -144 14 -26 27 -65 31 -85 5 -34 4 -38 -15 -38 -23 0
-100 66 -100 85 0 7 -21 41 -46 76 -26 35 -58 88 -72 119 -14 30 -31 58 -38
63 -7 4 -20 41 -29 82 -10 41 -21 78 -27 81 -5 3 -20 30 -32 59 -19 41 -33 57
-67 76 -24 13 -49 35 -55 47 -6 13 -16 28 -22 34 -20 20 -102 -42 -131 -99
-19 -37 -14 -193 8 -235 18 -36 18 -38 -1 -54 -14 -14 -25 -16 -46 -8 -46 16
-52 42 -52 256 0 108 -4 199 -9 202 -17 11 -43 -33 -50 -86 -4 -29 -15 -68
-24 -86 -16 -30 -22 -74 -45 -320 l-7 -83 -47 43 c-26 24 -50 57 -54 73 -3 17
-14 38 -22 48 -9 10 -18 43 -20 77 -4 53 -8 62 -38 85 -39 29 -42 51 -22 147
9 42 9 61 1 69 -20 20 -50 -8 -68 -61 -9 -27 -21 -52 -26 -56 -5 -3 -20 -27
-34 -53 -24 -48 -82 -90 -105 -76 -6 3 -10 33 -10 66 0 69 -11 78 -67 61 -42
-13 -85 1 -135 43 -25 21 -40 25 -92 25 -35 0 -85 -7 -112 -15 -55 -16 -64
-11 -64 42 0 63 41 129 106 166 27 16 74 50 104 76 30 26 83 69 117 94 59 45
63 51 69 98 4 28 17 66 30 85 13 19 24 43 24 53 0 23 -33 46 -87 60 -65 18
-81 53 -28 63 52 9 9 83 -85 146 -36 24 -69 50 -73 58 -12 22 3 101 24 128 11
13 19 32 19 41 0 10 13 41 30 70 16 28 35 76 41 106 6 30 20 64 29 77 10 12
24 46 30 75 7 28 26 76 41 106 16 30 29 61 29 69 0 9 6 23 14 31 7 9 21 41 31
71 10 30 26 65 36 78 10 13 21 37 24 55 7 30 29 71 85 155 23 35 24 47 28 193
5 189 -6 269 -44 327 -15 23 -33 42 -40 42 -7 0 -24 11 -38 23 -35 33 -246
140 -328 166 -81 27 -92 39 -85 93 9 66 42 92 126 96 59 4 78 0 128 -23 56
-25 135 -36 151 -21 9 10 -31 42 -93 73 -98 49 -147 103 -95 103 11 0 20 5 20
11 0 6 11 25 24 42 31 42 46 97 46 174 0 56 -3 64 -25 79 -31 20 -32 52 -3 63
36 14 58 45 73 101 8 29 23 61 34 72 22 20 28 67 10 85 -7 7 1 19 28 41 80 66
76 58 68 127 -6 63 -6 64 23 79 16 8 39 35 53 61 21 41 22 47 8 58 -26 20 -30
45 -10 64 21 20 35 72 23 89 -4 6 -15 13 -25 17 -16 6 -16 9 -3 35 8 16 22 34
30 41 41 34 6 76 -54 68 -52 -7 -51 6 1 59 41 42 41 42 20 56 -34 21 -25 36
37 66 55 26 57 28 60 70 3 35 8 45 32 57 16 8 41 31 56 51 24 31 26 39 15 56
-10 17 -8 25 15 55 25 33 26 38 15 70 -12 34 -12 36 22 67 32 30 34 34 30 82
-5 45 -2 54 24 85 17 19 39 54 50 79 11 25 40 66 65 93 l45 47 159 -6 159 -6
158 41 c87 22 162 43 168 47 16 10 6 107 -14 137 -13 20 -33 29 -94 43 -111
24 -182 59 -198 98 -12 27 -11 32 3 37 18 6 166 -15 207 -31 34 -13 101 -13
125 0 25 13 42 44 34 64 -6 15 -181 115 -213 121 -9 2 -18 4 -21 5 -14 3 45
40 64 40 27 0 204 -56 221 -70 30 -25 319 -39 341 -17 5 4 3 17 -4 27 -7 11
-18 29 -24 40 -22 36 1 43 73 24 97 -26 320 -24 319 4 0 4 -21 20 -45 37 -48
32 -64 55 -39 55 9 0 50 -9 92 -20 87 -21 152 -28 171 -16 8 5 11 19 7 37 -5
27 -3 29 23 29 48 0 202 -29 272 -51 79 -25 101 -22 109 11 3 14 12 25 20 25
8 0 20 6 26 14 10 13 17 12 56 -2 46 -18 168 -24 168 -8 0 5 -6 11 -14 14 -8
3 -20 15 -26 26 -10 20 -8 21 53 21 36 0 98 -10 147 -24z m-2556 -432 c25 -4
46 -11 46 -16 0 -5 -44 -30 -97 -55 -119 -55 -180 -93 -258 -162 -60 -52 -97
-63 -103 -30 -2 9 8 29 21 45 14 16 28 48 32 71 8 51 22 63 82 74 26 5 65 21
87 35 63 42 101 50 190 38z m4309 -381 c-7 -2 -21 -2 -30 0 -10 3 -4 5 12 5
17 0 24 -2 18 -5z m17 -320 c1 -25 2 -26 14 -10 17 23 25 22 19 -3 -6 -23 -29
-44 -36 -33 -12 21 -18 73 -8 73 6 0 11 -12 11 -27z m-4760 -742 c0 -13 -101
-78 -133 -86 -32 -8 -37 13 -9 38 39 36 142 70 142 48z m-100 -190 c0 -27
-106 -101 -145 -101 -22 0 -18 16 14 52 33 37 131 74 131 49z m6530 -527 c0
-11 -8 -14 -27 -12 -39 4 -42 28 -4 28 21 0 31 -5 31 -16z m-6810 -361 c0 -3
-23 -37 -52 -74 -49 -65 -95 -98 -117 -84 -22 13 -9 33 65 98 66 59 104 81
104 60z m5205 -704 c43 -38 36 -53 -23 -46 -58 6 -77 31 -46 61 21 22 28 20
69 -15z m-5125 -154 c32 -16 74 -70 66 -83 -3 -5 -52 -11 -110 -14 -84 -5
-115 -11 -158 -31 -57 -27 -68 -27 -68 4 0 44 26 73 104 117 48 26 123 29 166
7z m210 -270 c0 -35 -29 -85 -49 -85 -17 0 -21 6 -21 31 0 17 5 39 10 50 13
23 60 26 60 4z m6190 -172 c2 -2 -14 -22 -37 -44 -32 -33 -50 -42 -87 -46 -44
-5 -46 -4 -46 19 0 31 34 63 80 76 31 9 77 6 90 -5z m-6536 -14 c29 -23 33
-50 10 -73 -23 -23 -57 -20 -83 8 -13 14 -29 22 -37 19 -22 -8 -16 16 11 42
30 30 64 32 99 4z m173 -125 c11 -32 -127 -134 -163 -120 -8 3 -14 19 -14 36
0 23 5 30 19 30 10 0 21 7 24 15 15 36 124 69 134 39z m-257 -209 c0 -8 -10
-21 -22 -29 -28 -18 -112 -40 -130 -33 -17 6 67 85 96 89 27 5 56 -9 56 -27z
m6698 -58 c4 -29 -37 -63 -63 -53 -21 8 -19 20 11 56 30 35 48 35 52 -3z
m-6598 -1 c0 -14 -105 -116 -120 -116 -4 0 -11 -8 -15 -17 -10 -28 30 -55 70
-47 47 9 49 -8 7 -49 -31 -30 -139 -97 -157 -97 -14 0 -2 40 25 80 36 54 38
71 8 67 -18 -1 -24 4 -26 24 -3 30 21 53 128 124 73 48 80 51 80 31z m6516
-151 c4 -8 3 -23 -1 -32 -6 -17 -7 -17 -20 0 -14 19 -10 47 6 47 5 0 12 -7 15
-15z m-6611 -715 c12 -19 -6 -50 -27 -50 -12 0 -30 -8 -40 -17 -17 -15 -20
-15 -34 -1 -20 19 -12 33 30 59 34 21 61 24 71 9z m34 -156 c-13 -14 -36 -32
-51 -40 -34 -18 -91 -19 -85 -1 2 6 10 11 17 9 7 -2 20 4 29 11 25 22 74 46
95 47 18 0 17 -2 -5 -26z m5286 -579 c-1 -81 -5 -109 -22 -146 -14 -28 -28
-92 -38 -170 -8 -68 -22 -140 -30 -159 -8 -19 -22 -73 -31 -120 -9 -47 -20
-89 -24 -95 -5 -5 -11 -48 -15 -95 -10 -139 -20 -168 -86 -255 -32 -43 -59
-82 -59 -86 0 -4 -15 -12 -32 -18 -34 -11 -114 -70 -210 -152 -71 -62 -296
-214 -370 -251 -33 -16 -83 -44 -112 -63 -59 -38 -276 -147 -456 -230 -69 -32
-154 -75 -190 -96 -36 -21 -106 -56 -155 -77 -50 -21 -132 -64 -182 -94 -106
-64 -218 -113 -283 -123 -77 -13 -300 -133 -300 -161 0 -8 -8 -14 -17 -14 -10
-1 -33 -21 -51 -45 -44 -61 -65 -64 -148 -22 -38 19 -98 45 -132 58 -79 30
-112 58 -112 97 0 41 61 95 125 111 26 7 64 20 84 30 20 10 79 31 131 45 113
33 204 76 259 123 22 19 71 44 108 57 90 31 297 128 403 190 47 27 106 61 132
74 48 25 70 49 81 90 20 81 -35 71 -265 -47 -232 -119 -372 -179 -443 -191
-60 -10 -105 -30 -134 -61 -23 -24 -76 -38 -148 -39 -64 0 -91 -10 -150 -55
-44 -34 -49 -35 -122 -32 -87 2 -126 -14 -137 -59 l-7 -27 -98 7 c-82 6 -106
4 -156 -13 -162 -54 -499 -55 -548 -1 -14 16 -17 39 -16 139 1 132 13 211 36
244 21 30 21 150 -1 171 -35 36 -70 10 -90 -69 -9 -33 -22 -70 -30 -82 -15
-24 -29 -170 -40 -415 l-6 -137 -42 -8 c-28 -6 -44 -15 -51 -31 -5 -12 -13
-22 -17 -22 -14 0 -95 103 -122 155 -15 30 -36 96 -46 147 -14 64 -25 95 -37
101 -33 18 -93 88 -93 107 0 55 -46 -3 -56 -70 -4 -25 -14 -54 -24 -65 -9 -11
-20 -27 -23 -36 -3 -10 -23 -23 -44 -29 -52 -17 -61 -26 -75 -74 -16 -57 -23
-62 -45 -30 -16 25 -18 48 -15 225 l3 198 -36 39 c-44 49 -88 70 -110 52 -20
-17 -32 -69 -40 -170 -7 -97 3 -145 29 -145 9 0 25 -11 35 -24 10 -13 23 -21
30 -17 17 11 13 -35 -5 -55 -15 -16 -15 -20 -1 -33 9 -10 17 -45 21 -98 10
-118 26 -219 36 -213 4 3 24 -11 43 -30 19 -19 43 -35 53 -35 21 0 54 28 54
46 0 24 22 26 46 3 13 -12 24 -30 24 -38 0 -27 37 -74 77 -98 44 -26 104 -30
194 -11 105 22 129 -11 129 -172 -1 -117 -40 -269 -80 -315 -10 -11 -23 -46
-30 -77 -6 -31 -22 -74 -36 -94 -50 -73 4 -90 68 -21 22 23 46 49 53 57 8 9
21 58 30 110 17 99 69 230 93 230 20 0 19 -70 -3 -104 -7 -12 -18 -52 -24 -91
-19 -118 -21 -124 -37 -118 -11 4 -14 -8 -14 -63 -1 -107 -13 -144 -62 -187
-97 -85 -109 -101 -130 -185 -10 -41 -25 -84 -32 -96 -8 -11 -16 -47 -19 -78
-3 -36 -14 -69 -27 -88 -12 -16 -25 -53 -29 -80 -8 -49 -31 -93 -31 -59 0 9
-7 30 -16 47 -19 38 -15 87 6 87 24 0 24 44 0 70 -15 16 -20 32 -17 51 4 28 5
28 12 7 12 -36 25 -27 25 18 0 32 -4 42 -20 46 -11 3 -20 12 -20 19 0 8 -4 14
-9 14 -13 0 -51 -50 -51 -66 0 -26 -23 -64 -39 -64 -18 0 -136 119 -200 204
-44 56 -45 60 -55 165 -12 113 -15 120 -92 202 -47 51 -207 29 -220 -30 -18
-80 -26 -101 -50 -125 -33 -32 -38 -32 -62 -1 -11 14 -27 25 -36 25 -10 0 -20
15 -27 44 -6 25 -20 52 -30 62 -10 9 -19 26 -19 36 0 26 -30 35 -45 15 -7 -9
-15 -54 -18 -99 -8 -95 -25 -125 -50 -87 -11 17 -18 66 -23 172 -6 125 -10
154 -29 190 -30 56 -66 63 -90 16 -10 -18 -15 -46 -13 -65 8 -66 -17 -28 -30
47 -25 139 -30 150 -90 172 l-53 20 6 56 c25 229 54 304 175 456 66 83 77 92
134 112 84 30 100 52 114 154 7 45 16 87 21 92 4 4 27 -15 51 -42 23 -28 52
-54 65 -57 12 -3 42 -25 66 -50 24 -24 51 -44 60 -44 34 0 36 124 3 158 -21
20 -17 78 8 121 19 34 21 43 10 78 -9 30 -21 45 -52 62 -36 20 -40 26 -40 60
0 24 8 48 21 65 23 30 20 68 -12 120 -28 46 -21 114 13 137 5 3 13 31 18 62 5
31 20 76 34 99 13 24 30 63 37 88 15 49 103 150 132 150 16 0 43 -21 147 -114
65 -58 140 -96 192 -96 36 0 68 20 68 43 0 7 14 32 30 57 16 25 30 57 30 72 0
14 11 40 25 56 15 18 25 42 25 61 0 26 -4 31 -25 31 -31 0 -33 23 -4 43 20 14
18 16 -33 40 -29 13 -102 37 -163 52 -60 15 -121 33 -135 41 -30 15 -85 72
-93 97 -9 24 30 62 89 87 54 24 95 25 132 6 15 -8 74 -26 132 -41 58 -16 135
-41 172 -57 37 -15 85 -28 107 -28 47 0 75 -11 151 -59 133 -83 204 -97 331
-64 63 16 68 16 93 0 14 -10 26 -24 26 -31 0 -35 134 -116 275 -167 85 -30 97
-32 230 -32 162 -1 290 12 535 53 226 37 361 48 710 55 373 8 481 -1 588 -49
44 -20 89 -36 101 -36 31 0 38 -28 11 -47 -12 -8 -31 -36 -41 -61 -11 -25 -40
-67 -65 -94 -48 -52 -59 -99 -26 -116 23 -12 37 -6 100 40 63 47 87 83 103
155 15 67 25 75 73 62 65 -18 99 -9 118 32 22 46 108 122 174 154 50 24 64 42
64 89 0 27 29 56 56 56 31 0 43 26 57 118 12 75 13 77 51 97 26 14 43 31 50
52 6 17 26 44 44 61 17 16 32 38 32 49 0 112 121 223 277 253 34 7 83 25 110
41 74 44 78 40 78 -76z m-2981 -131 c52 -63 29 -112 -38 -80 -22 10 -36 24
-36 35 0 10 -3 40 -7 67 l-6 48 30 -19 c17 -11 42 -34 57 -51z m-996 -102 c14
-4 16 -28 3 -37 -19 -11 -41 26 -40 68 l1 42 12 -34 c7 -19 18 -37 24 -39z
m-1128 -190 c0 -18 -59 -64 -75 -59 -25 10 -30 38 -10 53 20 15 85 19 85 6z
m1211 -18 c7 -8 21 -13 31 -11 15 4 18 -1 18 -28 0 -19 -5 -37 -12 -41 -13 -8
-78 58 -78 81 0 20 24 19 41 -1z m-1101 -332 c0 -9 -44 -32 -60 -32 -15 0 0
29 18 33 29 8 42 7 42 -1z m440 -1337 c0 -9 -9 -15 -21 -15 -18 0 -19 2 -9 15
7 8 16 15 21 15 5 0 9 -7 9 -15z m-163 -132 c-3 -10 -5 -4 -5 12 0 17 2 24 5
18 2 -7 2 -21 0 -30z m4113 -657 c0 -7 -6 -19 -14 -26 -8 -6 -25 -41 -36 -76
-12 -36 -38 -88 -57 -117 -19 -29 -44 -69 -54 -89 -11 -21 -25 -38 -32 -38 -7
0 -28 -13 -47 -29 -19 -15 -69 -47 -110 -70 -41 -24 -96 -58 -123 -77 -26 -19
-69 -39 -95 -46 -153 -36 -203 -52 -256 -81 -33 -18 -61 -37 -63 -44 -11 -33
200 -26 365 13 119 28 145 29 161 10 13 -16 6 -42 -15 -50 -8 -3 -14 -15 -14
-26 0 -37 -45 -112 -160 -265 -62 -82 -124 -176 -139 -207 -14 -32 -31 -57
-38 -58 -7 0 -18 -10 -24 -22 -7 -13 -49 -62 -93 -109 -95 -101 -146 -163
-146 -179 0 -6 -14 -25 -31 -43 -34 -36 -99 -142 -99 -163 0 -7 -9 -18 -20
-24 -12 -6 -25 -29 -31 -56 -6 -24 -20 -49 -29 -54 -10 -5 -26 -32 -35 -59 -9
-27 -23 -52 -31 -55 -8 -3 -14 -18 -14 -35 0 -16 -9 -39 -20 -52 l-20 -24 -20
24 c-11 13 -20 33 -20 45 0 12 -10 30 -21 40 -19 16 -21 26 -17 80 6 72 21
100 64 121 25 12 33 25 47 72 10 37 31 76 56 106 43 52 54 87 49 157 -3 40 -6
45 -30 48 -18 2 -53 -12 -105 -42 -118 -69 -165 -62 -199 31 -20 58 -18 101 9
125 19 17 228 107 250 108 4 0 45 23 91 50 96 58 292 152 353 170 48 15 96 59
88 82 -13 32 -58 42 -220 46 -88 3 -278 -1 -423 -8 l-262 -13 -49 24 c-82 40
-92 98 -19 114 17 4 53 17 82 30 28 12 71 25 96 29 76 12 240 66 340 111 60
28 139 54 215 71 66 14 156 40 200 56 44 17 107 40 140 53 33 12 99 45 147 74
48 28 108 60 133 71 54 23 150 110 175 160 41 79 170 167 170 116z m-5060
-253 c0 -31 -27 -30 -42 1 -6 14 -8 32 -4 42 6 16 8 16 26 -1 11 -10 20 -29
20 -42z m-15 -358 c0 -151 -2 -177 -17 -191 -16 -16 -18 -16 -24 -1 -9 24 0
359 10 375 6 10 11 11 20 2 7 -7 11 -68 11 -185z m425 -21 c13 -68 53 -124 89
-124 23 0 41 -20 41 -46 0 -12 10 -28 22 -36 20 -14 21 -18 10 -42 -7 -15 -25
-32 -42 -37 -37 -13 -46 -44 -55 -184 -9 -143 -25 -303 -31 -320 -4 -8 -10
-12 -15 -9 -14 8 -10 -19 6 -40 17 -22 19 -64 5 -86 -18 -29 -32 7 -41 111 -4
57 -8 105 -9 106 0 1 -7 9 -16 18 -15 15 -15 17 1 28 11 9 18 33 22 73 5 50 2
63 -13 79 -17 17 -19 37 -19 225 0 170 3 211 16 230 14 22 14 25 -3 42 -11 11
-18 33 -18 56 0 83 31 55 50 -44z m368 -34 c33 -21 39 -38 22 -71 -24 -43 -90
-9 -90 46 0 51 15 57 68 25z m-1860 -154 c2 -22 -3 -58 -11 -80 -8 -23 -15
-61 -14 -86 0 -46 -28 -115 -57 -139 -9 -8 -16 -22 -16 -33 0 -27 -30 -35 -46
-13 -23 31 -18 172 6 218 11 20 20 44 20 52 0 8 15 30 34 48 18 19 37 44 41
56 11 37 40 22 43 -23z m2442 -148 c0 -147 -15 -286 -35 -330 -8 -18 -19 -52
-25 -75 -11 -43 -33 -57 -44 -27 -11 29 -6 99 10 129 11 21 19 74 24 170 11
180 27 255 56 255 11 0 14 -25 14 -122z m171 69 c-10 -28 -51 -36 -51 -11 0
10 7 26 17 36 21 24 45 6 34 -25z m-1255 7 c10 -39 -1 -216 -15 -241 -9 -19
-8 -28 6 -50 36 -54 19 -420 -18 -398 -5 4 -9 21 -9 38 0 18 -12 57 -26 87
-14 30 -28 80 -31 111 -5 51 -3 58 16 68 27 15 29 76 4 111 -26 36 -26 216 0
235 9 7 17 19 17 27 0 17 20 38 37 38 7 0 16 -12 19 -26z m763 -19 c13 -26 12
-53 -3 -210 -18 -199 -39 -327 -62 -395 -8 -25 -17 -72 -21 -105 -6 -67 -26
-115 -47 -115 -8 0 -16 10 -18 23 -2 12 -1 180 2 372 7 386 7 388 72 439 40
32 59 30 77 -9z m-234 -41 c0 -25 -4 -29 -31 -32 -36 -4 -59 18 -49 47 13 43
80 30 80 -15z m-697 -35 c18 -62 13 -114 -12 -114 -26 0 -37 45 -29 113 7 63
22 63 41 1z m-1415 -17 c-9 -55 -30 -92 -54 -92 -14 0 -19 5 -16 14 3 7 9 35
12 60 6 35 11 46 22 42 7 -3 16 1 19 9 11 28 23 5 17 -33z m1161 16 c3 -13 7
-34 10 -48 6 -36 -7 -103 -22 -108 -8 -2 -12 9 -12 37 0 22 -4 43 -10 46 -5 3
-10 26 -10 51 0 37 3 44 20 44 12 0 21 -8 24 -22z m944 -137 c10 -6 10 -10 -3
-21 -19 -16 -19 -59 0 -96 21 -40 21 -192 0 -221 -9 -12 -18 -55 -21 -100 -10
-130 -32 -190 -48 -128 -24 94 -35 542 -14 563 14 14 67 16 86 3z m-182 -86
c28 -50 26 -482 -2 -509 -7 -7 -19 -29 -27 -48 -8 -20 -24 -38 -36 -41 -21 -5
-21 -4 -20 186 0 250 12 394 35 452 l19 46 10 -33 c6 -18 15 -42 21 -53z m545
39 c4 -16 7 -68 8 -116 1 -70 -2 -90 -16 -104 -27 -27 -26 -223 1 -253 20 -22
16 -51 -7 -51 -8 0 -20 -12 -26 -27 -7 -16 -32 -40 -57 -55 -38 -23 -46 -25
-51 -12 -9 25 5 119 28 175 11 29 24 91 28 139 4 47 15 97 23 110 10 15 18 59
21 110 3 47 8 93 12 103 10 25 29 16 36 -19z m449 -94 c0 -60 -10 -96 -21 -78
-10 15 -12 109 -3 133 11 27 24 -3 24 -55z m-130 -11 c0 -82 -18 -194 -42
-253 -22 -57 -29 -219 -9 -239 21 -21 42 17 55 102 8 47 20 90 30 99 27 28 35
3 26 -80 -9 -78 -23 -118 -41 -118 -5 0 -3 -10 6 -23 13 -21 13 -26 0 -43 -21
-28 -18 -44 9 -44 17 0 27 7 32 22 4 13 13 27 20 33 8 5 21 46 30 90 9 43 22
88 30 100 7 11 18 43 25 70 15 64 36 105 53 105 23 0 49 -38 43 -62 -10 -40
-47 -142 -61 -168 -7 -14 -16 -45 -20 -69 -4 -24 -22 -84 -41 -133 -19 -50
-35 -98 -35 -109 0 -26 -65 -56 -85 -39 -13 11 -13 14 2 25 11 8 16 25 15 50
-2 58 -17 65 -53 27 -47 -50 -59 -43 -56 31 2 60 1 62 -23 62 -18 0 -35 -15
-68 -57 -24 -32 -47 -58 -52 -58 -13 0 -20 41 -20 131 0 72 3 90 20 110 66 77
80 103 80 144 0 65 20 155 40 184 10 14 23 51 30 81 10 51 32 90 52 90 4 0 8
-27 8 -61z m430 -84 c33 -17 37 -27 16 -44 -25 -21 -97 23 -81 49 9 14 31 13
65 -5z m-680 -319 c0 -20 -26 -40 -35 -26 -10 16 2 40 20 40 8 0 15 -6 15 -14z
m2917 -558 c-3 -7 -5 -2 -5 12 0 14 2 19 5 13 2 -7 2 -19 0 -25z m-37 8 c0
-19 -17 -29 -37 -22 -12 5 -13 9 -3 21 16 19 40 19 40 1z"/>
<path d="M6440 12272 c-8 -3 -23 -11 -32 -19 -15 -14 -22 -13 -64 1 -98 33
-197 12 -234 -51 l-21 -35 -132 6 c-73 3 -153 9 -178 12 -36 4 -50 2 -63 -11
-25 -26 -17 -74 17 -99 26 -19 39 -21 160 -18 73 2 150 3 172 4 69 0 367 -40
405 -56 56 -22 151 -30 207 -17 26 6 136 15 244 20 130 6 206 13 225 22 50 24
42 99 -13 120 -14 5 -93 14 -175 19 -121 8 -165 15 -236 39 -72 24 -174 51
-252 65 -8 1 -22 1 -30 -2z"/>
<path d="M4819 12191 c-20 -4 -49 -17 -65 -28 -16 -11 -39 -23 -50 -27 -12 -4
-30 -16 -40 -27 -17 -18 -17 -23 -4 -46 8 -14 31 -34 50 -45 39 -21 76 -20
190 7 36 8 104 15 151 15 71 0 94 4 130 24 25 13 76 29 114 35 38 7 75 17 82
23 20 16 15 46 -8 59 -26 13 -494 22 -550 10z"/>
<path d="M5520 12170 c-11 -11 -20 -27 -20 -35 0 -46 106 -93 137 -62 13 13
13 19 -2 51 -31 64 -78 83 -115 46z"/>
<path d="M7249 12084 c-21 -26 1 -49 47 -49 29 0 40 4 42 18 8 42 -60 66 -89
31z"/>
<path d="M4350 12080 c-25 -4 -58 -15 -75 -24 -16 -9 -43 -16 -58 -16 -16 0
-50 -9 -77 -21 -57 -24 -255 -78 -318 -86 -53 -6 -54 -29 -2 -56 30 -16 53
-18 170 -14 77 2 146 9 158 16 12 7 79 23 149 36 241 46 317 92 252 151 -23
21 -123 28 -199 14z"/>
<path d="M7604 10798 c-4 -18 -7 -81 -7 -140 0 -82 4 -113 17 -132 17 -26 22
-76 8 -76 -5 0 -26 42 -46 93 -21 50 -47 105 -59 121 -20 28 -21 28 -90 22
-38 -3 -73 -9 -78 -12 -25 -15 1 -267 33 -324 19 -32 20 -39 7 -65 -17 -35
-37 -43 -46 -18 -4 10 -14 29 -24 43 -9 14 -22 61 -29 105 -14 93 -34 149 -52
143 -35 -12 -8 -258 37 -355 14 -28 25 -63 25 -77 0 -14 8 -29 18 -35 16 -9
16 -11 0 -39 -10 -17 -18 -39 -18 -50 0 -38 24 -45 157 -46 l127 -1 19 50 c10
28 24 70 30 95 17 65 21 68 71 63 42 -5 45 -4 52 22 10 39 -5 250 -21 315 -8
30 -21 106 -30 169 -16 124 -32 161 -69 161 -19 0 -26 -7 -32 -32z m-101 -340
c-8 -14 -31 -9 -37 8 -3 9 -6 28 -6 42 0 26 0 26 24 -8 13 -19 22 -38 19 -42z
m187 -202 c0 -25 -19 -39 -37 -28 -11 7 -16 38 -14 82 l2 25 24 -28 c14 -15
25 -39 25 -51z"/>
<path d="M7891 10753 c-24 -84 -5 -666 23 -752 9 -25 23 -72 31 -103 12 -43
20 -58 33 -58 10 0 23 -5 30 -12 9 -9 12 -3 12 27 0 48 14 76 24 50 3 -9 6
-40 6 -69 0 -63 19 -97 44 -77 18 15 36 72 36 113 0 15 9 44 19 65 22 41 48
272 37 316 -4 16 -17 29 -35 35 -35 12 -38 26 -44 185 -2 59 -9 113 -14 118
-16 16 -65 -10 -81 -44 -13 -27 -36 -35 -47 -17 -4 6 -11 56 -17 112 -14 148
-36 189 -57 111z m219 -629 c0 -16 -26 -19 -35 -4 -4 6 -4 18 -1 27 5 12 9 13
21 3 8 -7 15 -19 15 -26z m-13 -90 c2 -10 -8 -32 -22 -49 l-25 -30 0 33 c0 59
41 99 47 46z"/>
<path d="M8350 10517 c0 -13 18 -48 41 -78 43 -57 62 -90 73 -126 6 -19 4 -23
-13 -23 -17 0 -21 -6 -21 -37 0 -20 11 -54 24 -77 13 -23 27 -61 31 -86 4 -25
18 -67 31 -95 13 -27 28 -69 34 -92 6 -22 18 -51 28 -63 l18 -23 62 28 62 28
0 81 c0 112 -15 199 -38 233 -11 15 -23 45 -26 65 -8 46 -76 148 -124 186 -49
39 -154 102 -169 102 -7 0 -13 -10 -13 -23z"/>
<path d="M8187 9781 c-55 -71 -77 -112 -77 -143 0 -13 -9 -36 -19 -52 -11 -17
-25 -62 -32 -100 -6 -39 -18 -81 -25 -93 -18 -28 -18 -48 0 -62 7 -6 16 -30
19 -52 3 -23 15 -51 26 -63 12 -12 28 -46 37 -76 23 -77 95 -146 196 -188 42
-18 84 -32 93 -32 40 0 193 95 170 106 -5 3 -34 15 -64 27 -87 35 -96 55 -96
205 l0 127 -30 5 c-22 4 -31 11 -33 29 -4 27 25 111 39 111 13 0 11 44 -3 58
-19 19 -35 14 -42 -13 -4 -14 -11 -25 -16 -25 -5 0 -23 -29 -39 -65 -31 -68
-74 -120 -91 -110 -16 10 -11 39 8 52 13 7 23 34 31 82 9 47 21 82 37 100 13
16 24 38 24 50 0 12 4 21 10 21 5 0 17 12 27 26 16 25 16 27 -4 43 -12 9 -28
33 -37 54 -23 57 -52 51 -109 -22z"/>
<path d="M3880 9571 c-39 -12 -105 -48 -119 -65 -7 -8 -11 -23 -9 -33 5 -25
65 -31 326 -32 l213 -1 -3 43 c-3 37 -7 44 -38 59 -65 32 -300 50 -370 29z"/>
<path d="M8660 9471 c0 -5 -23 -17 -51 -26 -55 -19 -71 -39 -45 -58 10 -7 22
-44 32 -97 8 -47 21 -89 28 -95 7 -5 16 -19 20 -30 16 -44 82 -134 98 -135 24
0 32 -33 33 -135 0 -76 3 -90 17 -93 20 -4 108 151 108 192 0 15 6 29 14 32
28 11 38 61 34 168 -3 90 -6 108 -25 128 -12 13 -24 35 -28 49 -8 34 -54 78
-84 81 -19 2 -26 -4 -36 -32 -15 -45 -42 -52 -50 -13 -12 52 -24 73 -45 73
-11 0 -20 -4 -20 -9z"/>
<path d="M3553 9450 c-83 -12 -201 -111 -277 -232 -23 -36 -55 -69 -86 -90
-33 -22 -58 -48 -76 -83 -15 -27 -33 -57 -41 -67 -8 -9 -23 -71 -34 -139 -11
-67 -27 -132 -35 -143 -19 -27 -18 -85 2 -107 9 -10 19 -39 22 -64 4 -37 0
-52 -17 -75 -11 -16 -21 -40 -21 -54 0 -14 -6 -30 -12 -35 -97 -77 -119 -113
-100 -156 10 -21 19 -25 52 -25 29 0 43 5 52 20 7 11 18 20 23 20 19 0 83 73
100 113 8 20 19 37 24 37 5 0 14 15 21 33 7 17 22 41 32 53 14 16 19 40 21
105 2 47 7 90 11 98 12 19 56 9 156 -33 74 -31 86 -39 93 -66 9 -37 16 -37
134 -5 101 27 211 77 220 100 3 8 12 15 19 15 8 0 23 20 33 44 11 24 26 46 35
49 9 4 16 17 16 30 0 26 39 66 87 91 92 46 343 61 524 30 52 -9 168 -40 259
-69 91 -30 191 -61 222 -70 72 -19 88 -41 88 -116 0 -66 7 -89 25 -89 8 0 19
-17 25 -37 7 -21 19 -48 27 -61 16 -27 11 -52 -11 -52 -32 0 -130 52 -162 85
-34 37 -102 68 -355 165 -153 58 -206 70 -307 70 -98 0 -198 -22 -277 -59 -79
-36 -145 -95 -145 -127 0 -28 -2 -28 43 -9 55 23 85 20 93 -10 3 -13 12 -29
20 -36 8 -6 21 -35 29 -64 9 -29 23 -60 33 -68 43 -39 182 -77 281 -77 87 0
171 33 171 67 0 7 11 18 24 23 17 6 28 21 36 49 12 46 51 81 90 81 40 0 111
-27 140 -54 14 -13 61 -45 105 -71 44 -27 104 -63 134 -82 30 -18 64 -33 75
-33 44 0 93 -21 151 -65 79 -59 138 -78 226 -73 54 3 74 8 90 25 21 21 19 43
-5 43 -7 0 -22 13 -34 30 -13 17 -39 34 -62 41 -91 27 -66 57 52 64 l73 4 -3
93 c-6 191 -31 248 -107 248 -68 0 -101 -95 -50 -145 l24 -25 -24 0 c-39 0
-149 40 -181 65 l-29 24 61 63 c70 72 84 94 84 137 0 22 -8 36 -29 52 -17 12
-35 34 -41 49 -10 24 -27 33 -123 65 -67 22 -147 40 -202 46 -208 23 -450 89
-583 160 -121 65 -219 88 -473 113 -157 16 -196 26 -206 53 -4 10 -18 30 -32
44 -14 14 -34 38 -44 52 -16 24 -24 27 -70 26 -29 -1 -75 -5 -104 -9z m-113
-649 c0 -10 -78 -62 -123 -82 -24 -11 -30 -10 -38 2 -8 12 -13 59 -6 59 1 0
20 7 42 15 45 16 125 20 125 6z m120 -140 c0 -12 -20 -25 -27 -18 -7 7 6 27
18 27 5 0 9 -4 9 -9z"/>
<path d="M4643 9420 c-33 -10 -73 -52 -73 -76 0 -20 33 -34 78 -34 22 0 89
-11 150 -25 164 -37 202 -34 202 17 0 39 -52 92 -105 108 -52 16 -211 22 -252
10z"/>
<path d="M9067 9373 c-3 -10 -8 -40 -12 -68 -4 -27 -11 -58 -16 -67 -5 -9 -18
-112 -29 -230 -14 -148 -25 -223 -37 -246 -16 -31 -16 -34 3 -52 11 -11 31
-21 44 -22 65 -5 206 104 230 177 7 22 18 47 25 55 7 8 20 48 30 88 10 40 24
79 31 87 19 18 18 109 0 124 -8 7 -17 35 -21 64 -8 55 -27 87 -55 87 -24 0
-48 -30 -71 -91 -11 -29 -31 -64 -45 -77 l-24 -25 -1 79 c-1 44 -4 90 -8 104
-8 30 -37 38 -44 13z"/>
<path d="M7227 9353 c-13 -13 -7 -64 13 -102 23 -47 117 -151 135 -151 29 0
29 85 0 120 -7 8 -18 32 -24 52 -19 59 -96 110 -124 81z"/>
<path d="M8357 8723 c-4 -3 -7 -28 -7 -54 0 -72 20 -90 111 -99 86 -8 216 3
232 19 19 19 -6 31 -96 46 -94 15 -114 23 -167 67 -34 27 -60 35 -73 21z"/>
<path d="M3669 8451 c-16 -16 -29 -37 -29 -46 0 -22 57 -75 79 -75 17 0 49 48
70 104 10 25 9 27 -9 21 -14 -5 -20 -2 -20 9 0 28 -58 20 -91 -13z"/>
<path d="M4732 8326 c-38 -18 -49 -40 -31 -62 18 -22 132 -15 156 9 16 16 16
18 -3 37 -27 27 -81 34 -122 16z"/>
<path d="M4912 8211 c-62 -27 -129 -60 -150 -74 -47 -33 -85 -47 -123 -47 -42
0 -69 -17 -69 -43 0 -50 6 -51 169 -34 139 14 158 19 220 51 38 19 71 33 74
30 3 -3 10 4 17 15 6 12 16 21 23 21 18 0 67 53 67 72 0 16 -73 58 -101 58 -8
0 -65 -22 -127 -49z"/>
<path d="M3015 7696 c-42 -18 -57 -39 -49 -70 10 -42 29 -51 74 -37 47 14 73
48 68 88 -2 23 -8 28 -33 30 -16 2 -44 -3 -60 -11z"/>
<path d="M8040 7583 c-50 -106 -126 -184 -280 -290 -133 -91 -219 -168 -236
-210 -8 -18 -21 -33 -29 -33 -8 0 -23 -20 -34 -45 -11 -25 -25 -45 -30 -45
-14 0 -14 -50 -1 -84 13 -34 62 -59 93 -47 25 10 77 65 77 82 0 6 24 40 54 77
29 37 58 82 64 100 6 19 30 55 52 82 22 26 47 64 55 84 8 20 22 36 30 36 8 0
20 11 27 25 8 14 28 35 46 47 17 13 63 64 101 113 52 67 72 101 77 132 6 41 1
63 -16 63 -4 0 -27 -39 -50 -87z"/>
<path d="M3447 7543 c-4 -3 -7 -65 -7 -136 0 -100 -3 -132 -14 -141 -21 -16
-26 -185 -7 -215 16 -25 60 14 88 77 14 31 31 64 38 72 7 8 17 57 23 108 12
98 16 112 35 112 7 0 68 -52 137 -115 69 -64 137 -121 153 -128 15 -6 27 -19
27 -27 0 -18 74 -130 97 -147 21 -16 70 -17 79 -1 19 31 4 122 -32 195 -19 40
-42 73 -50 73 -7 0 -19 10 -25 23 -12 21 -53 74 -85 109 -9 9 -39 22 -67 29
-29 6 -74 20 -100 30 -27 11 -74 21 -105 22 -46 2 -66 9 -101 35 -42 31 -70
39 -84 25z"/>
<path d="M2890 7267 c-30 -13 -82 -41 -115 -63 -33 -23 -93 -58 -134 -79 -107
-57 -137 -88 -146 -155 -4 -30 -14 -62 -21 -71 -8 -9 -21 -52 -30 -95 -8 -44
-19 -93 -24 -110 -15 -47 -12 -61 18 -95 39 -43 58 -35 159 68 60 60 99 90
141 109 31 13 64 33 72 44 8 10 56 42 105 70 50 28 101 62 115 75 31 30 71 45
116 45 55 0 74 15 74 59 0 46 -40 109 -110 175 -47 44 -52 46 -107 46 -37 0
-78 -9 -113 -23z"/>
<path d="M3304 6894 c-12 -11 -33 -40 -48 -66 l-27 -48 43 -46 c23 -25 63 -56
88 -69 53 -27 178 -55 245 -55 31 0 55 -7 74 -21 40 -29 71 -19 71 25 0 26
-16 51 -74 122 -66 79 -85 95 -153 129 -95 48 -184 59 -219 29z"/>
<path d="M3221 5344 c-42 -30 -70 -134 -36 -134 8 0 22 -14 30 -31 21 -39 46
-35 62 11 17 49 16 106 -2 140 -18 35 -22 36 -54 14z"/>
<path d="M3111 5041 c-24 -45 -2 -127 43 -156 37 -25 56 -6 56 54 0 63 -27
115 -62 119 -18 2 -30 -3 -37 -17z"/>
<path d="M2023 3981 c-3 -11 -11 -17 -17 -15 -7 3 -20 -13 -31 -38 -11 -24
-31 -61 -45 -82 -50 -78 -25 -234 44 -280 40 -26 80 -30 99 -11 23 23 22 27
-18 76 -50 58 -44 73 30 79 l60 5 3 35 c5 54 -8 119 -27 138 -10 9 -24 34 -30
55 -17 51 -58 74 -68 38z"/>
<path d="M2924 3208 c-25 -11 -49 -61 -64 -128 -13 -62 -12 -83 5 -106 15 -18
16 -18 50 20 49 55 78 160 59 210 -7 18 -20 19 -50 4z"/>
<path d="M2052 11578 c7 -20 56 -34 69 -21 18 18 1 33 -37 33 -24 0 -34 -4
-32 -12z"/>
<path d="M7880 4601 c-14 -4 -31 -18 -38 -31 -16 -30 -9 -116 11 -139 8 -9 20
-34 27 -56 7 -22 23 -52 36 -67 12 -15 28 -44 34 -65 7 -21 23 -57 37 -80 13
-24 22 -43 20 -43 -3 0 -21 7 -42 16 -47 19 -81 12 -89 -20 -7 -28 0 -48 29
-93 23 -32 44 -118 48 -188 2 -37 0 -40 -25 -43 -26 -3 -28 -1 -28 37 0 58
-38 92 -59 53 -12 -23 -4 -59 15 -66 8 -3 14 -18 14 -33 -1 -24 -2 -25 -11
-10 -5 9 -14 17 -19 17 -17 0 -11 -56 8 -81 11 -13 22 -39 25 -57 7 -37 68
-167 91 -196 9 -11 22 -16 31 -12 13 5 15 26 14 136 -1 127 -1 131 26 170 28
40 28 41 21 158 l-7 117 31 58 c35 67 37 78 10 95 -11 7 -20 18 -20 26 0 7
-12 30 -26 51 -16 25 -30 67 -40 118 -17 98 -23 119 -40 132 -7 5 -14 25 -16
44 -4 40 -32 61 -68 52z"/>
<path d="M7749 3653 c-1 -5 0 -17 1 -27 1 -13 -3 -17 -14 -13 -19 8 -21 -4 -4
-21 10 -10 10 -17 0 -33 -10 -16 -10 -22 3 -35 19 -19 20 -73 1 -80 -8 -3 -22
-23 -30 -45 -16 -40 -30 -49 -39 -26 -3 6 -6 -3 -6 -21 -1 -18 6 -47 16 -65
25 -48 25 -267 1 -294 -20 -22 -23 -50 -7 -55 6 -2 20 -54 30 -116 22 -129 32
-160 55 -169 29 -11 50 29 58 109 5 62 10 76 32 94 25 21 26 23 21 120 -3 55
-8 111 -12 125 -6 24 -2 27 44 47 50 21 51 22 51 64 0 85 -65 258 -96 258 -8
0 -14 1 -15 3 0 1 -4 37 -8 79 -5 43 -14 85 -21 93 -13 15 -59 21 -61 8z"/>
<path d="M3934 2886 c-11 -27 34 -102 122 -202 83 -95 116 -143 171 -249 12
-23 79 -105 149 -181 69 -77 133 -154 142 -171 9 -18 22 -33 29 -33 8 0 22
-19 33 -42 10 -23 27 -46 38 -52 11 -6 79 -63 151 -126 110 -97 136 -126 166
-182 20 -38 76 -115 126 -174 49 -58 94 -114 99 -125 13 -23 48 -25 56 -4 14
34 -7 123 -41 175 -45 70 -92 201 -117 325 -11 55 -26 107 -33 115 -7 8 -20
40 -30 70 -10 30 -23 61 -29 69 -6 8 -16 41 -23 74 -16 77 -40 103 -203 215
-69 48 -141 101 -161 119 -43 39 -293 163 -329 163 -63 1 -149 66 -212 160
-17 25 -38 51 -46 58 -21 16 -51 15 -58 -2z"/>
<path d="M7526 2698 c-20 -65 -29 -83 -46 -95 -15 -11 -20 -25 -20 -61 0 -67
19 -171 35 -201 8 -14 24 -47 35 -73 21 -52 39 -59 77 -33 17 12 22 29 28 101
7 84 8 86 41 106 40 24 43 46 10 77 -13 12 -33 48 -45 80 -12 32 -32 70 -46
85 -25 27 -63 35 -69 14z"/>
<path d="M1048 2658 c-21 -16 -38 -60 -38 -98 0 -16 -7 -33 -15 -38 -10 -5
-22 -43 -34 -108 -10 -54 -26 -113 -34 -129 -21 -40 -12 -75 18 -75 18 0 55
22 55 33 1 31 46 221 65 271 26 69 31 146 10 153 -6 2 -18 -2 -27 -9z"/>
<path d="M1204 2615 c-7 -19 -14 -43 -14 -52 0 -10 -7 -29 -16 -41 -8 -12 -24
-75 -35 -139 -11 -65 -24 -122 -28 -128 -11 -13 -31 -108 -31 -144 0 -35 35
-81 61 -81 30 0 38 36 59 259 11 124 25 221 34 243 17 39 20 76 10 102 -10 25
-24 19 -40 -19z"/>
<path d="M1320 2464 c-6 -14 -10 -32 -10 -40 0 -8 -8 -29 -17 -47 -15 -27 -18
-59 -18 -209 0 -164 2 -179 21 -205 30 -41 65 -41 98 -2 24 28 25 33 13 48
-20 22 -24 41 -37 146 -6 50 -17 102 -24 117 -11 22 -11 28 1 40 8 8 17 39 19
69 9 85 -24 143 -46 83z"/>
<path d="M7367 2293 c-4 -3 -7 -28 -7 -55 0 -44 -3 -50 -32 -68 -18 -10 -37
-23 -43 -27 -5 -5 -18 -12 -27 -16 -23 -8 -23 -43 1 -98 10 -24 26 -91 35
-147 9 -57 23 -113 31 -125 8 -12 15 -31 15 -42 0 -44 52 -61 83 -27 34 37 39
71 17 116 -11 22 -26 72 -34 109 l-14 69 47 -7 c25 -3 54 -8 63 -11 43 -13 42
132 0 165 -12 9 -30 42 -42 73 -25 67 -72 113 -93 91z"/>
<path d="M909 2093 c-14 -36 -1 -73 32 -92 24 -13 29 -13 53 2 34 23 33 52 -3
88 -38 37 -68 38 -82 2z"/>
<path d="M7163 1803 c-13 -33 14 -258 37 -311 18 -41 19 -54 10 -72 -16 -31
-32 -20 -49 33 -8 26 -19 47 -26 47 -6 0 -19 9 -28 21 -10 11 -23 19 -30 16
-18 -6 -37 -48 -37 -84 0 -48 -9 -63 -51 -80 -27 -10 -41 -23 -45 -40 -9 -36
3 -120 21 -145 9 -13 15 -44 15 -74 0 -61 -27 -104 -67 -104 -28 0 -28 11 -3
-187 l14 -102 -47 -44 c-36 -33 -47 -50 -47 -74 0 -18 6 -33 15 -37 10 -4 15
-20 15 -50 0 -34 -3 -44 -14 -40 -15 6 -36 -62 -36 -118 0 -76 -11 -107 -46
-127 -48 -29 -76 -89 -72 -159 l3 -57 42 -3 c48 -4 83 22 83 62 0 16 18 39 59
74 33 29 62 63 65 79 4 15 15 32 24 39 14 10 18 37 22 160 l5 147 30 21 c55
40 75 64 75 94 0 16 -7 35 -15 42 -33 27 -12 80 32 80 12 0 27 9 33 19 16 31
12 118 -9 164 -16 37 -54 257 -44 257 2 0 25 -11 51 -25 54 -29 94 -32 116 -9
18 17 13 34 -10 34 -26 0 -15 33 25 69 65 61 76 103 41 156 -13 20 -20 47 -20
81 0 86 -18 154 -56 211 -36 55 -68 69 -81 36z"/>
</g>
</svg>
