<?xml version="1.0" standalone="no"?>
<!DOCTYPE svg PUBLIC "-//W3C//DTD SVG 20010904//EN"
 "http://www.w3.org/TR/2001/REC-SVG-20010904/DTD/svg10.dtd">
<svg version="1.0" xmlns="http://www.w3.org/2000/svg"
 width="1135.000000pt" height="1280.000000pt" viewBox="0 0 1135.000000 1280.000000"
 preserveAspectRatio="xMidYMid meet">
<metadata>
Created by potrace 1.15, written by Peter Selinger 2001-2017
</metadata>
<g transform="translate(0.000000,1280.000000) scale(0.100000,-0.100000)"
fill="#000000" stroke="none">
<path d="M4485 12794 c-69 -17 -119 -42 -226 -109 -148 -94 -199 -108 -469
-129 -313 -24 -407 -58 -568 -202 -155 -139 -163 -143 -361 -173 -83 -13 -158
-42 -177 -70 -7 -10 -40 -34 -73 -54 -125 -74 -309 -247 -353 -331 -11 -21
-33 -57 -49 -79 -16 -22 -29 -46 -29 -52 0 -7 -6 -18 -14 -24 -8 -7 -20 -44
-26 -84 -16 -100 -29 -147 -40 -147 -6 0 -10 -13 -10 -29 0 -15 -11 -49 -25
-74 -33 -63 -49 -192 -42 -333 7 -123 15 -153 55 -199 16 -17 33 -45 40 -63 7
-18 17 -45 23 -62 6 -16 17 -30 24 -30 8 0 19 -15 25 -34 6 -19 18 -40 26 -46
20 -17 18 -43 -7 -73 -11 -15 -23 -44 -26 -64 -3 -21 -11 -45 -18 -53 -7 -8
-21 -42 -30 -75 -10 -33 -23 -67 -30 -75 -7 -8 -20 -51 -29 -94 -9 -44 -23
-87 -31 -96 -8 -9 -15 -26 -15 -37 0 -12 -15 -57 -33 -100 -19 -43 -37 -91
-41 -107 -4 -17 -13 -35 -21 -40 -7 -6 -20 -35 -30 -64 -11 -34 -48 -95 -105
-171 -49 -65 -105 -153 -126 -196 l-37 -77 0 -148 c0 -134 2 -152 22 -183 11
-19 21 -42 21 -51 0 -9 16 -33 35 -55 19 -21 35 -48 35 -59 0 -11 7 -27 15
-36 34 -34 39 -90 10 -126 -6 -8 -24 -36 -38 -62 -37 -64 -68 -85 -135 -94
-65 -7 -77 -15 -87 -51 -9 -35 17 -61 71 -69 25 -3 59 -17 77 -30 17 -13 44
-29 60 -35 16 -6 27 -19 27 -30 0 -10 9 -23 20 -29 25 -13 25 -28 2 -54 -10
-12 -26 -42 -36 -68 -9 -26 -32 -66 -50 -90 -18 -24 -41 -59 -51 -78 -10 -19
-24 -39 -31 -43 -7 -4 -20 -30 -28 -57 -8 -28 -22 -63 -30 -78 -9 -15 -22 -67
-31 -116 -8 -49 -21 -96 -30 -106 -8 -9 -15 -24 -15 -34 0 -21 -64 -139 -97
-179 -13 -16 -23 -34 -23 -41 0 -8 -10 -26 -22 -41 -17 -22 -21 -41 -21 -101
0 -45 5 -79 13 -89 7 -8 20 -30 29 -47 11 -22 34 -41 69 -59 83 -41 153 -53
310 -54 136 0 145 -1 162 -22 26 -32 33 -86 20 -149 -11 -54 -50 -114 -74
-114 -7 0 -35 -16 -62 -35 -44 -32 -56 -35 -115 -35 -46 0 -81 -7 -114 -21
-37 -17 -60 -20 -98 -15 -69 8 -138 44 -157 82 -9 16 -21 37 -28 45 -7 7 -26
34 -42 59 -17 25 -45 64 -64 86 -24 30 -35 56 -40 95 -4 28 -14 61 -22 73 -19
28 -19 140 1 160 20 19 20 99 0 116 -39 33 -87 -22 -87 -101 0 -71 -12 -98
-48 -111 -40 -14 -47 -29 -61 -136 -17 -123 2 -389 31 -445 11 -21 20 -44 20
-53 0 -8 15 -29 34 -47 19 -18 37 -42 41 -54 3 -13 10 -23 15 -23 5 0 20 -37
34 -83 20 -64 33 -90 63 -119 54 -51 158 -116 215 -133 27 -8 54 -18 61 -22 6
-4 39 -15 72 -24 197 -56 249 -75 276 -102 30 -30 49 -81 49 -136 0 -43 41
-82 141 -135 150 -79 164 -98 185 -255 10 -72 20 -110 31 -118 14 -11 14 -14
-1 -37 -9 -14 -22 -53 -30 -86 -8 -34 -20 -68 -27 -76 -6 -8 -28 -45 -47 -82
l-35 -67 -4 -176 -5 -175 96 -90 c105 -96 169 -144 196 -144 9 0 21 -5 27 -11
14 -14 127 -41 191 -44 29 -2 59 -9 67 -15 9 -7 74 -16 157 -21 205 -12 295
-39 468 -141 41 -25 98 -53 125 -63 28 -10 61 -28 75 -41 14 -12 41 -30 60
-39 19 -10 38 -23 42 -30 4 -7 28 -18 53 -25 25 -7 50 -22 56 -32 9 -17 4 -26
-37 -61 -70 -62 -206 -201 -285 -292 -38 -44 -76 -87 -83 -95 -7 -8 -21 -27
-31 -43 -9 -15 -23 -27 -29 -27 -7 0 -19 -15 -28 -33 -9 -18 -58 -80 -108
-138 -51 -57 -111 -130 -134 -162 -32 -46 -55 -66 -109 -94 -38 -20 -75 -46
-83 -58 -19 -30 -81 -73 -194 -135 -52 -28 -127 -76 -166 -106 -54 -41 -84
-57 -125 -64 -36 -7 -160 -63 -369 -168 -173 -87 -353 -173 -400 -192 -47 -18
-93 -40 -102 -48 -18 -15 -110 -49 -293 -109 -60 -19 -128 -44 -150 -54 -22
-11 -68 -24 -103 -29 -94 -16 -255 -72 -405 -144 l-133 -63 -43 39 c-24 21
-52 38 -61 38 -19 0 -98 -59 -139 -103 -24 -26 -24 -28 -18 -184 2 -87 8 -166
12 -176 11 -26 28 -16 38 24 5 19 15 41 22 49 8 8 23 37 34 63 36 83 110 157
157 157 2 0 4 -16 4 -35 0 -19 -5 -35 -11 -35 -5 0 -17 -17 -26 -37 -8 -21
-34 -64 -58 -98 -47 -66 -69 -124 -63 -170 8 -72 85 -17 113 81 10 32 24 66
31 75 8 8 19 31 25 50 7 19 28 56 47 82 40 56 149 150 163 142 15 -10 10 -37
-12 -59 -19 -20 -53 -67 -118 -166 -16 -25 -39 -57 -50 -72 -12 -14 -21 -33
-21 -41 0 -8 -11 -31 -25 -51 -27 -40 -33 -103 -15 -150 13 -35 37 -33 45 3 3
16 13 35 21 42 8 6 14 26 14 44 0 54 27 124 69 180 23 30 41 59 41 65 0 17
110 130 143 146 15 8 27 19 27 25 0 23 33 79 46 79 19 0 18 -49 -2 -71 -8 -9
-24 -50 -34 -89 -10 -40 -27 -82 -38 -94 -11 -11 -23 -41 -27 -66 -4 -25 -15
-54 -24 -65 -10 -11 -23 -34 -30 -52 -7 -17 -19 -34 -27 -37 -8 -3 -22 -22
-30 -41 -8 -19 -19 -35 -24 -35 -17 0 -12 -80 6 -87 26 -10 68 30 76 72 12 55
78 229 89 233 6 2 20 25 33 50 13 26 33 65 45 87 11 21 21 45 21 52 0 6 6 16
14 20 8 4 21 34 29 66 9 32 23 69 32 83 34 52 128 85 141 49 4 -8 -10 -48 -29
-88 -19 -39 -38 -82 -42 -94 -3 -13 -11 -23 -16 -23 -5 0 -14 -12 -20 -27 -14
-38 -76 -135 -121 -188 -20 -24 -46 -70 -58 -102 -12 -32 -38 -77 -57 -101
-43 -52 -62 -101 -63 -159 0 -60 7 -73 44 -73 54 0 60 10 67 117 6 86 11 107
43 168 20 39 36 75 36 81 0 7 6 14 13 17 7 3 19 25 26 48 7 24 21 53 30 64 10
11 23 34 30 50 6 17 24 36 40 43 19 8 40 33 61 75 18 34 50 82 70 107 21 25
45 60 54 78 9 17 23 32 30 32 7 0 19 14 26 30 14 33 36 40 42 13 7 -30 -11
-65 -63 -120 -27 -28 -49 -58 -49 -66 0 -8 -6 -17 -14 -20 -7 -3 -21 -27 -30
-53 -9 -26 -22 -54 -29 -63 -8 -9 -20 -38 -27 -66 -8 -27 -21 -66 -31 -85 -21
-42 -37 -137 -18 -105 7 11 29 41 51 66 21 26 46 64 55 85 10 22 28 53 39 69
12 17 23 39 25 50 3 11 11 20 19 20 8 0 17 13 20 30 8 35 76 145 90 145 6 0
18 16 27 35 9 19 22 35 29 35 6 0 24 24 38 54 26 54 68 92 86 81 18 -11 11
-71 -10 -90 -11 -10 -20 -23 -20 -29 0 -6 -31 -48 -68 -93 -68 -82 -76 -95
-126 -204 -22 -48 -24 -61 -15 -88 12 -34 29 -42 29 -12 0 10 11 35 25 55 14
20 25 40 25 45 0 4 23 34 50 65 55 63 74 95 84 143 8 33 50 83 71 83 12 0 26
27 40 78 3 12 10 22 15 22 5 0 19 18 30 40 14 28 27 40 42 40 19 0 20 -4 14
-46 -3 -26 -14 -61 -25 -78 -10 -17 -22 -44 -26 -61 -8 -34 -45 -98 -92 -156
-18 -23 -33 -50 -33 -61 0 -12 -11 -30 -23 -42 -17 -16 -26 -38 -30 -76 -4
-32 -13 -57 -21 -62 -9 -5 -22 -32 -31 -60 -8 -28 -21 -58 -29 -67 -7 -9 -19
-34 -26 -56 -7 -22 -22 -57 -33 -78 -26 -51 -37 -177 -15 -177 23 0 35 19 49
75 7 28 20 61 31 74 10 13 18 29 18 36 0 7 11 32 24 57 13 24 29 77 36 116 8
52 20 81 41 108 16 20 29 42 29 48 0 6 9 19 20 29 11 9 20 22 20 29 1 7 21 45
46 83 24 39 49 81 55 95 6 14 24 50 39 80 15 30 31 66 35 80 4 14 23 58 42 98
34 68 37 72 69 72 34 0 42 -8 25 -26 -5 -5 -14 -27 -21 -49 -7 -22 -21 -53
-30 -70 -10 -16 -24 -52 -31 -80 -6 -27 -19 -59 -29 -70 -9 -11 -22 -34 -29
-52 -7 -17 -23 -41 -37 -54 -13 -12 -24 -30 -24 -39 0 -10 -8 -28 -19 -41 -10
-13 -21 -35 -24 -49 -10 -44 -77 -234 -91 -260 -8 -14 -20 -52 -27 -85 -7 -33
-19 -73 -28 -90 -8 -16 -22 -59 -32 -95 -9 -37 -21 -64 -28 -62 -16 3 -14 -15
6 -49 16 -27 16 -29 -1 -42 -18 -13 -16 -17 27 -70 25 -30 48 -65 52 -76 7
-23 40 -45 54 -37 5 3 11 29 15 57 4 28 13 57 20 64 7 7 18 46 25 86 8 41 19
85 26 99 7 14 20 71 28 126 8 56 22 112 30 125 8 13 22 48 31 78 9 30 33 77
55 105 21 28 46 74 54 102 8 28 27 73 41 100 14 27 26 61 26 75 0 15 7 33 16
40 9 7 26 36 39 64 12 28 35 67 52 86 46 53 63 82 63 105 0 12 6 24 14 27 7 3
21 26 29 51 9 26 25 58 36 73 12 14 21 31 21 38 0 6 9 20 20 30 16 14 22 15
35 5 18 -15 11 -50 -21 -100 -12 -19 -27 -52 -34 -72 -10 -34 -33 -62 -81
-100 -16 -14 -57 -115 -84 -210 -10 -36 -22 -58 -31 -58 -8 0 -14 -8 -14 -19
0 -10 -13 -35 -30 -56 -16 -21 -35 -56 -41 -79 -6 -22 -17 -48 -24 -56 -7 -8
-21 -44 -30 -80 -9 -36 -23 -72 -30 -80 -7 -8 -17 -28 -21 -45 -3 -16 -17 -52
-29 -80 -14 -29 -28 -89 -35 -145 -6 -52 -20 -117 -32 -144 -24 -58 -32 -216
-11 -223 20 -7 44 42 55 114 5 37 14 73 19 79 5 6 17 65 27 130 10 66 26 130
34 144 9 14 22 44 29 68 7 23 18 47 26 53 7 7 13 31 13 56 0 47 16 89 55 142
14 19 25 44 25 56 0 12 9 34 20 47 10 14 24 47 30 74 6 26 20 54 30 61 22 15
26 53 9 70 -7 7 0 17 25 33 40 24 80 72 90 107 4 13 23 48 42 80 19 31 34 65
34 75 0 10 4 18 10 18 5 0 23 29 39 64 26 59 52 86 81 86 7 0 6 -9 -3 -27 -8
-16 -20 -52 -27 -80 -6 -29 -25 -72 -41 -95 -16 -24 -29 -47 -29 -52 0 -5 -18
-33 -41 -62 -25 -33 -46 -75 -56 -111 -8 -32 -21 -65 -28 -73 -7 -8 -17 -28
-21 -45 -4 -16 -17 -46 -30 -65 -12 -19 -28 -60 -35 -90 -6 -30 -23 -75 -36
-99 -12 -24 -23 -51 -23 -60 0 -9 -8 -30 -18 -46 -11 -17 -24 -62 -31 -100 -7
-39 -21 -81 -30 -95 -9 -14 -23 -45 -30 -70 -7 -25 -19 -52 -26 -60 -7 -8 -20
-39 -29 -68 -8 -28 -22 -62 -30 -74 -21 -29 -22 -176 -3 -202 13 -17 15 -17
45 -2 31 16 32 16 12 36 -19 19 -18 40 3 68 5 7 18 54 29 104 22 109 46 162
76 166 17 3 22 -2 22 -19 0 -12 -7 -30 -15 -39 -8 -9 -21 -65 -30 -140 -9 -69
-23 -136 -32 -149 -10 -16 -14 -37 -10 -63 7 -49 10 -52 41 -44 31 8 41 38 60
188 8 64 21 129 29 145 8 15 20 46 27 68 7 22 18 47 25 55 6 8 18 38 25 65 7
28 20 61 29 75 10 14 23 54 30 90 7 36 19 75 27 87 8 12 21 50 29 84 15 65 35
96 54 85 6 -4 11 -22 11 -39 0 -69 -55 -249 -87 -288 -7 -9 -20 -42 -29 -75
-8 -32 -22 -69 -30 -81 -8 -13 -21 -51 -29 -86 -8 -35 -21 -79 -29 -98 -8 -19
-22 -90 -30 -157 -9 -70 -23 -134 -32 -147 -16 -25 -12 -45 9 -45 7 0 17 -10
22 -22 15 -34 61 -51 147 -56 105 -6 122 -1 141 48 8 22 22 40 30 40 7 0 39
-18 69 -40 31 -22 67 -44 81 -49 19 -7 27 -20 32 -50 6 -35 11 -41 31 -41 30
0 134 39 134 50 0 5 44 33 98 62 99 55 301 207 495 372 36 31 37 66 1 66 -46
0 -136 -63 -304 -210 -106 -94 -180 -146 -263 -186 -67 -32 -137 -45 -137 -25
0 17 82 82 126 101 24 11 44 24 44 29 0 6 24 23 53 37 81 42 175 107 257 179
41 37 90 73 107 80 18 8 33 19 33 24 0 6 7 11 16 11 8 0 39 23 68 50 29 28 58
50 64 50 7 0 12 9 12 20 0 34 -39 24 -140 -36 -52 -30 -111 -62 -130 -70 -19
-8 -43 -28 -52 -44 -9 -16 -49 -53 -90 -83 -40 -30 -79 -62 -87 -70 -7 -9 -47
-35 -89 -58 -43 -23 -98 -57 -123 -75 -52 -38 -125 -73 -152 -74 -10 0 -22 11
-26 24 -5 13 -16 26 -25 29 -23 9 -40 82 -25 109 33 62 83 116 112 122 29 6
77 41 77 57 0 3 -19 0 -42 -8 -44 -15 -88 -14 -90 2 -3 18 124 105 227 157 55
27 121 66 148 87 61 48 206 136 212 129 3 -3 -7 -24 -21 -46 -18 -27 -51 -56
-95 -82 -37 -22 -71 -45 -74 -50 -4 -6 -22 -17 -40 -24 -19 -8 -62 -37 -95
-65 -33 -28 -69 -55 -80 -61 -20 -11 -28 -40 -11 -40 8 0 85 42 234 129 43 25
89 60 103 78 14 18 39 40 57 49 67 34 227 185 227 214 0 26 1 26 -71 -11 -34
-17 -63 -28 -66 -25 -8 8 8 45 33 75 13 16 30 47 38 68 8 23 23 43 39 51 15 7
27 17 27 23 0 5 8 9 18 9 9 1 26 15 37 32 11 18 58 65 105 106 170 148 264
237 283 269 12 22 31 36 55 43 60 16 84 12 137 -25 27 -20 66 -38 86 -41 71
-12 57 -47 -24 -59 -87 -13 -97 -58 -16 -71 42 -7 42 -7 39 -71 -1 -41 0 -43
49 -67 60 -31 67 -42 74 -124 3 -34 10 -69 17 -76 6 -8 18 -67 26 -133 9 -65
24 -145 34 -178 10 -33 24 -89 30 -125 6 -36 17 -74 24 -85 7 -11 19 -45 26
-75 7 -30 19 -62 26 -71 8 -9 21 -40 30 -70 9 -30 22 -61 29 -69 7 -8 20 -51
29 -94 9 -44 23 -87 31 -96 8 -9 15 -27 15 -39 0 -14 16 -40 39 -63 36 -35 44
-39 83 -36 43 3 43 3 45 43 8 133 26 263 39 282 7 12 14 44 14 71 0 41 -3 51
-20 55 -18 5 -20 14 -20 78 0 61 -4 76 -22 96 -16 17 -23 39 -26 82 -4 52 -2
60 17 70 11 7 21 18 21 25 0 8 27 44 61 81 33 37 64 77 69 89 5 15 38 38 91
66 l82 42 -7 -38 c-14 -75 -30 -115 -61 -152 -48 -56 -59 -80 -44 -98 28 -35
122 -2 149 53 8 15 20 35 28 44 7 10 22 68 34 130 22 125 37 164 68 174 25 8
90 -23 104 -50 6 -11 17 -24 24 -28 6 -4 12 -15 12 -23 0 -8 12 -26 27 -40 24
-23 28 -34 31 -100 3 -59 0 -81 -15 -111 -11 -21 -25 -61 -32 -90 -7 -28 -18
-54 -25 -56 -7 -3 -18 -30 -25 -61 -8 -36 -19 -60 -32 -66 -10 -6 -26 -25 -34
-43 -8 -18 -23 -47 -33 -64 -12 -21 -22 -63 -26 -118 -4 -46 -14 -97 -21 -112
-8 -16 -15 -55 -15 -90 0 -59 5 -74 60 -183 10 -21 83 -25 100 -5 7 8 28 15
47 15 40 0 103 24 103 40 0 6 -6 21 -14 33 -8 12 -22 63 -31 114 -8 50 -23
109 -31 130 -11 24 -18 79 -21 148 -5 109 -5 110 25 155 17 25 63 83 102 130
39 47 80 102 91 122 23 44 45 58 81 51 38 -7 97 24 104 56 9 35 51 91 70 91
22 0 28 -28 10 -48 -8 -10 -23 -51 -32 -90 -13 -58 -26 -84 -65 -133 -26 -33
-51 -70 -55 -82 -3 -12 -15 -30 -25 -40 -11 -10 -19 -26 -19 -37 0 -10 -11
-40 -25 -67 -20 -36 -25 -59 -23 -95 4 -58 17 -63 40 -17 10 19 24 43 33 54 9
11 31 40 50 64 32 43 162 161 177 161 4 0 15 15 24 33 9 17 23 36 30 40 8 4
14 18 14 31 0 13 12 41 27 62 24 35 27 50 32 158 5 102 9 120 25 130 60 36 81
54 86 75 8 34 26 37 45 7 13 -19 19 -66 26 -202 5 -96 11 -180 15 -185 9 -16
25 -10 55 20 21 22 29 39 29 66 0 46 25 95 48 95 20 0 67 -46 106 -105 18 -27
26 -53 26 -82 0 -39 -3 -45 -42 -70 -54 -34 -138 -113 -138 -130 0 -7 -8 -13
-19 -13 -11 0 -23 -12 -31 -30 -7 -17 -16 -30 -21 -30 -5 0 -28 -17 -52 -39
-50 -45 -84 -65 -91 -52 -8 13 3 42 25 66 23 26 51 103 39 110 -24 15 -64 -20
-116 -102 -31 -48 -63 -102 -70 -120 -8 -18 -23 -37 -34 -43 -11 -6 -20 -17
-20 -25 0 -8 -9 -24 -19 -34 -10 -10 -22 -30 -26 -43 -4 -12 -15 -34 -25 -48
-65 -95 -47 -200 38 -216 20 -4 40 -12 44 -18 9 -14 281 -12 396 3 116 15 229
65 315 141 38 33 72 60 77 60 4 0 16 20 25 44 10 25 23 47 31 50 8 3 14 16 14
29 0 13 13 44 29 68 17 24 35 67 41 94 6 27 17 56 25 65 7 8 20 33 29 54 9 21
22 44 30 50 8 6 19 29 26 51 7 22 21 48 31 58 11 10 19 23 19 30 0 7 15 35 33
62 19 28 37 62 40 76 4 15 25 48 47 75 22 26 46 68 55 93 8 24 21 51 28 60 8
9 20 32 27 51 7 19 19 42 25 50 7 8 20 29 28 45 9 17 46 64 82 105 37 41 78
98 92 125 13 28 33 68 44 90 11 22 24 47 29 55 6 8 15 26 21 40 6 14 24 52 40
85 16 33 29 64 29 69 0 5 6 17 14 25 17 18 96 235 96 262 0 10 11 26 24 34 13
9 30 30 37 48 7 18 21 38 30 45 10 6 20 26 24 43 4 17 14 39 24 48 16 17 85
183 97 234 3 15 12 27 20 27 11 0 34 56 34 85 0 6 9 27 20 47 11 20 25 58 31
85 6 26 18 53 26 60 8 6 21 38 30 70 8 32 21 65 28 73 7 8 20 47 30 87 9 40
23 77 31 84 8 6 14 21 14 33 0 12 16 45 35 73 19 29 35 58 35 64 0 12 13 42
68 159 17 35 32 96 43 170 16 104 26 143 75 290 8 25 22 117 30 205 13 133 20
169 42 213 29 60 54 72 101 47 34 -17 64 -59 82 -114 6 -18 22 -49 35 -68 12
-18 26 -47 29 -64 4 -17 13 -33 20 -35 7 -3 16 -17 20 -32 4 -15 17 -40 29
-57 12 -16 28 -46 36 -65 7 -19 36 -66 65 -105 28 -38 56 -82 62 -96 6 -15 25
-42 42 -62 17 -19 38 -56 45 -81 15 -48 117 -176 141 -176 7 0 22 -15 33 -32
11 -18 55 -71 98 -118 98 -106 170 -199 189 -244 8 -19 19 -37 24 -40 5 -4 17
-30 27 -59 9 -28 22 -59 29 -67 7 -8 19 -35 26 -60 7 -25 20 -53 30 -62 14
-14 18 -48 24 -222 10 -269 2 -631 -14 -671 -7 -16 -19 -133 -27 -260 -8 -126
-18 -257 -24 -290 -13 -84 -38 -209 -56 -280 -9 -33 -26 -116 -38 -185 -12
-69 -28 -134 -34 -145 -29 -51 -84 -202 -89 -248 -4 -29 -14 -63 -24 -77 -10
-14 -23 -45 -29 -70 -7 -25 -23 -63 -36 -86 -13 -22 -24 -48 -24 -56 0 -8 -10
-28 -22 -44 -20 -24 -23 -40 -23 -109 1 -55 6 -90 18 -112 20 -37 51 -57 71
-46 21 12 74 81 82 106 4 12 13 26 20 32 8 5 21 46 30 90 9 43 22 88 30 100 7
11 20 62 29 114 9 52 20 103 26 112 5 10 18 70 29 134 10 65 24 122 29 129 5
6 17 56 26 111 8 55 22 118 30 140 8 22 21 87 29 145 9 58 20 121 26 140 6 19
17 202 25 405 8 204 20 408 27 455 17 119 22 404 8 431 -25 46 -52 289 -32
289 11 0 263 -155 297 -183 17 -13 49 -34 73 -46 24 -12 57 -35 74 -52 17 -16
35 -29 40 -29 6 0 71 -26 147 -59 206 -88 236 -100 361 -138 63 -19 120 -39
126 -44 6 -5 35 -10 65 -12 37 -2 67 -12 96 -30 23 -14 84 -44 135 -66 51 -22
129 -55 173 -75 85 -38 149 -46 159 -21 3 8 12 12 21 9 44 -17 -16 68 -75 106
-90 57 -229 120 -312 140 -44 11 -121 35 -170 55 -49 20 -139 48 -200 61 -62
14 -148 37 -192 51 -90 28 -265 120 -311 163 -35 33 -117 72 -192 89 -44 11
-73 30 -185 125 -140 118 -234 214 -249 253 -5 13 -15 23 -23 23 -8 0 -16 14
-20 33 -8 45 -109 168 -251 308 -63 63 -128 132 -143 154 -15 22 -46 64 -69
93 -24 29 -43 57 -43 62 0 4 -11 21 -24 37 -14 16 -28 43 -32 59 -9 39 -58
148 -82 182 -11 15 -25 44 -31 64 -7 20 -20 47 -30 60 -9 13 -25 44 -35 70 -9
25 -23 49 -31 51 -7 3 -16 20 -20 38 -4 18 -15 33 -26 36 -10 3 -21 14 -24 24
-4 11 -53 71 -109 133 -57 63 -110 131 -120 152 -9 22 -21 47 -27 57 -6 10
-19 83 -29 163 -11 79 -24 152 -30 163 -5 11 -17 52 -25 92 -9 40 -22 80 -29
89 -8 8 -22 38 -31 67 -18 54 -33 77 -122 182 -29 34 -53 66 -53 72 0 5 -9 9
-19 9 -27 0 -31 18 -31 128 0 111 12 165 46 205 13 16 24 35 24 43 0 8 6 17
14 20 8 3 17 20 20 39 4 22 18 42 41 60 19 14 35 35 35 46 0 11 7 22 15 25 8
3 17 14 20 24 3 10 38 34 78 54 40 19 111 59 158 88 48 29 101 61 117 70 24
13 35 29 47 72 14 47 21 57 43 62 55 12 63 16 80 42 9 15 25 36 35 47 10 11
20 29 23 42 3 12 12 24 18 26 7 3 16 19 19 36 5 25 12 31 32 31 18 0 33 12 55
42 16 22 30 46 30 53 0 6 16 42 35 81 21 42 35 84 35 107 0 43 11 56 95 112
33 22 62 41 65 43 3 2 4 37 2 78 -4 98 14 134 69 134 20 0 38 16 84 78 32 42
61 88 66 102 4 14 10 83 13 155 5 98 10 133 23 147 23 26 11 69 -37 129 -22
28 -40 55 -40 60 0 5 16 9 35 9 37 0 55 20 55 62 0 38 -42 102 -77 118 -18 8
-33 22 -33 31 0 9 -9 24 -20 34 -11 10 -20 23 -20 29 0 5 -12 22 -26 37 -20
21 -28 42 -34 95 -8 64 -11 70 -59 117 -31 30 -55 64 -63 88 -6 22 -17 44 -25
50 -19 16 -18 158 1 173 9 6 19 43 25 84 10 79 26 106 69 117 30 7 52 23 52
36 0 5 -14 24 -30 43 l-30 34 49 31 c79 51 87 92 30 162 -25 32 -30 88 -9 99
8 4 32 15 53 24 46 20 51 52 10 62 -16 4 -38 13 -51 21 -32 20 -12 43 37 43
70 0 115 47 76 80 -8 7 -15 27 -15 44 0 46 -19 104 -46 146 -15 22 -27 59 -31
91 -3 30 -11 61 -18 69 -8 8 -16 33 -20 55 -5 31 -18 50 -56 85 -44 39 -52 53
-65 110 -8 36 -21 75 -29 87 -8 12 -15 34 -15 48 0 75 -46 115 -132 115 -55 0
-38 17 25 25 83 10 87 13 87 50 0 49 -40 92 -103 109 -29 8 -99 24 -157 36
-58 11 -150 33 -205 49 l-100 28 -188 186 c-103 102 -192 198 -198 214 -6 15
-37 48 -70 73 -33 25 -79 60 -102 78 -23 18 -76 51 -117 75 -41 23 -85 51 -97
64 -13 12 -33 28 -46 35 -13 7 -51 33 -85 58 -70 52 -165 112 -172 108 -3 -1
-30 12 -60 29 -31 18 -97 48 -146 67 -50 19 -149 59 -220 90 -71 30 -172 65
-224 77 -52 12 -111 30 -131 40 -33 16 -231 76 -499 149 -145 40 -277 49 -609
40 -175 -5 -246 -10 -249 -18 -2 -7 -24 -37 -48 -66 -53 -66 -64 -92 -64 -157
0 -64 -11 -84 -61 -110 -22 -11 -49 -35 -60 -53 -11 -19 -36 -41 -59 -51 -22
-10 -47 -27 -57 -37 -10 -11 -48 -37 -84 -58 -36 -22 -71 -46 -79 -54 -7 -9
-20 -16 -30 -16 -10 0 -20 -7 -24 -15 -3 -8 -12 -15 -19 -15 -18 0 -47 -32
-47 -53 0 -9 -18 -28 -39 -41 -49 -31 -50 -33 -61 -102 -12 -75 -3 -91 58 -99
26 -4 52 -13 57 -19 6 -7 20 -18 32 -25 26 -13 57 -67 48 -82 -10 -15 -92 -1
-143 24 -25 12 -50 34 -59 50 -8 16 -17 26 -20 23 -3 -3 -19 2 -35 10 -35 18
-93 12 -102 -12 -3 -8 -3 -34 0 -58 l6 -43 -83 1 c-84 1 -84 1 -87 -26 -4 -37
46 -91 115 -123 30 -15 113 -40 185 -56 150 -34 215 -62 243 -107 14 -23 32
-35 62 -43 44 -12 123 -72 123 -94 0 -7 14 -18 30 -25 17 -7 49 -26 72 -42 22
-17 64 -38 92 -47 43 -15 51 -22 57 -49 3 -17 20 -52 38 -78 17 -26 36 -66 42
-88 5 -23 15 -52 22 -65 21 -41 112 -123 198 -176 87 -54 114 -81 125 -127 9
-40 -12 -36 -71 13 -65 54 -131 99 -144 99 -18 0 -13 -72 7 -93 58 -66 110
-108 183 -151 142 -83 159 -96 179 -129 11 -18 20 -35 20 -39 0 -6 -168 67
-215 94 -78 44 -113 58 -146 58 -22 0 -39 -4 -39 -8 0 -4 13 -29 29 -54 31
-49 66 -78 151 -126 129 -72 132 -124 4 -57 -68 36 -95 45 -135 45 -45 0 -50
-3 -60 -27 -6 -16 -18 -41 -26 -58 -8 -16 -19 -63 -24 -103 -5 -48 -15 -83
-30 -103 -11 -16 -30 -53 -40 -81 -19 -53 -63 -109 -83 -105 -19 3 -13 -144 7
-173 9 -13 17 -34 17 -46 0 -12 7 -28 17 -35 34 -29 60 -136 31 -127 -7 3 -28
24 -47 49 -40 52 -54 58 -75 27 -18 -25 -22 -78 -6 -78 6 0 16 -12 22 -27 7
-16 30 -50 53 -78 79 -96 96 -131 46 -96 -16 12 -33 21 -38 21 -18 0 -43 -37
-43 -63 0 -35 62 -104 115 -129 22 -10 69 -43 105 -73 36 -30 95 -70 131 -89
68 -37 109 -87 96 -120 -11 -28 -40 -17 -117 45 -76 60 -108 76 -135 66 -25
-10 -29 -53 -6 -84 11 -15 25 -47 31 -71 8 -32 20 -48 50 -67 50 -32 54 -39
30 -60 -26 -23 -26 -82 -1 -109 10 -12 26 -45 36 -74 18 -55 79 -141 120 -168
34 -22 68 -15 79 19 7 20 7 33 -2 45 -7 9 -23 40 -37 67 -13 28 -34 65 -46 83
-11 17 -16 32 -11 32 6 0 14 -5 17 -10 4 -6 11 -8 16 -5 5 4 13 -5 19 -19 5
-14 14 -26 19 -26 5 0 28 -16 51 -35 47 -39 66 -42 151 -20 67 18 83 13 73
-18 -8 -27 -74 -97 -91 -97 -8 0 -13 -13 -13 -36 0 -28 3 -35 15 -30 26 10 29
-23 6 -54 -27 -37 -27 -56 0 -63 33 -9 69 10 124 63 105 102 268 250 276 250
5 0 9 -32 9 -70 0 -56 3 -72 16 -77 27 -10 49 11 52 53 2 21 10 46 18 55 7 8
18 40 24 69 6 30 14 58 18 62 4 4 50 25 102 47 52 21 129 58 170 81 41 23 93
48 115 56 22 8 54 23 71 33 17 11 47 22 65 26 19 4 72 18 119 32 64 20 107 26
175 26 135 0 197 -29 373 -175 82 -69 113 -112 127 -178 4 -19 16 -54 26 -77
24 -52 25 -116 2 -138 -13 -14 -18 -49 -24 -183 -12 -250 -17 -295 -33 -304
-8 -4 -17 -33 -21 -65 -8 -63 -13 -78 -53 -143 -15 -25 -36 -60 -47 -79 -11
-19 -42 -61 -70 -93 -27 -33 -57 -71 -65 -84 -8 -13 -28 -29 -45 -35 -48 -19
-155 -100 -204 -154 -86 -95 -181 -183 -211 -195 -16 -7 -30 -18 -30 -24 0 -6
-11 -27 -24 -47 -48 -70 -211 -134 -372 -146 -116 -8 -201 10 -272 58 -48 33
-65 39 -109 39 l-53 0 0 -124 0 -124 -25 11 c-14 7 -25 22 -27 37 -5 41 -31
29 -51 -25 -31 -80 -31 -80 -70 -77 -47 4 -55 -11 -62 -129 -8 -122 -14 -159
-26 -159 -5 0 -13 10 -18 23 -21 53 -67 58 -98 10 -18 -27 -31 -209 -19 -257
6 -25 8 -26 35 -12 31 17 57 51 67 90 6 26 7 26 25 10 29 -26 72 -3 109 60 31
53 83 124 120 164 32 36 80 27 102 -19 29 -62 113 -76 230 -39 34 11 70 20 79
20 20 0 166 91 250 156 34 26 69 61 78 77 9 16 28 41 44 55 15 14 27 33 27 43
0 10 4 21 10 24 5 3 28 38 51 77 23 39 57 87 75 108 19 21 34 43 34 50 0 7 7
20 15 29 8 9 28 32 44 51 16 20 73 60 127 90 97 55 128 81 173 140 19 25 29
30 47 26 13 -3 36 -9 50 -12 19 -5 29 -1 40 15 8 11 22 21 30 21 20 0 17 -30
-5 -54 -18 -20 -18 -24 -4 -58 17 -42 37 -49 53 -18 6 11 16 20 22 20 15 0 1
-63 -17 -73 -30 -16 -16 -65 36 -125 16 -18 38 -52 50 -75 12 -23 46 -70 75
-104 30 -34 61 -74 69 -90 20 -37 19 -134 -1 -181 -24 -56 -24 -645 0 -715 11
-33 16 -81 16 -160 -1 -148 -9 -186 -53 -239 -21 -25 -37 -50 -37 -56 0 -6
-22 -37 -48 -69 -27 -32 -59 -77 -72 -101 -13 -23 -34 -49 -47 -57 -13 -9 -23
-24 -23 -35 0 -11 -7 -20 -15 -20 -8 0 -22 -11 -31 -25 -9 -14 -22 -25 -29
-25 -7 0 -16 -7 -19 -15 -8 -22 -201 -273 -284 -370 -37 -44 -78 -85 -90 -91
-12 -6 -30 -18 -40 -27 -10 -10 -22 -17 -27 -17 -15 0 -175 -125 -175 -137 0
-7 -43 -61 -96 -120 -65 -72 -107 -130 -127 -173 -17 -36 -41 -75 -54 -87 -13
-12 -23 -28 -23 -36 0 -8 -18 -26 -40 -41 -21 -14 -58 -51 -80 -81 -22 -30
-44 -55 -49 -55 -4 0 -13 -11 -19 -24 -6 -13 -49 -67 -96 -119 -47 -52 -86
-102 -86 -111 0 -9 -7 -19 -15 -22 -8 -3 -26 -25 -39 -49 -31 -52 -227 -255
-247 -255 -8 0 -23 -17 -34 -37 -11 -21 -76 -94 -144 -163 -68 -69 -130 -140
-137 -157 -8 -18 -19 -33 -24 -33 -6 0 -10 -11 -10 -25 0 -34 15 -31 61 10 22
19 43 35 49 35 5 0 96 87 202 193 106 106 219 212 251 235 31 24 68 60 81 80
13 20 38 51 56 67 18 17 47 53 65 80 34 52 165 185 183 185 6 0 18 20 28 45 9
25 20 45 25 45 4 0 17 19 27 42 10 24 47 76 81 117 34 41 75 102 90 135 17 38
45 76 73 101 24 22 58 52 74 66 16 15 55 60 88 102 36 46 68 78 84 82 64 16
261 194 301 273 12 23 25 42 30 42 5 0 14 14 21 30 8 18 20 30 31 30 11 0 19
6 19 13 1 6 28 44 61 82 34 39 75 94 92 124 21 38 51 69 98 103 66 48 78 66
98 142 6 21 16 46 24 55 8 9 20 33 27 54 6 20 18 44 27 52 8 9 22 41 30 73 8
31 20 62 28 67 7 6 20 34 28 62 8 28 22 65 31 82 21 40 31 197 18 278 -6 34
-20 75 -32 90 -26 36 -31 86 -10 90 15 4 110 -121 110 -144 0 -6 8 -21 18 -34
10 -13 25 -53 32 -89 7 -36 19 -76 27 -89 8 -13 23 -79 33 -146 10 -67 24
-133 30 -146 9 -16 13 -92 14 -260 l1 -238 -27 -28 c-16 -16 -28 -36 -28 -45
0 -8 -8 -26 -19 -39 -10 -13 -39 -65 -64 -116 -26 -50 -50 -93 -55 -95 -4 -1
-14 -20 -22 -40 -21 -53 -130 -185 -302 -363 -82 -84 -148 -157 -148 -162 0
-14 -246 -226 -288 -248 -22 -11 -50 -33 -64 -49 -46 -54 -52 -32 -44 150 8
209 20 299 46 349 22 42 26 85 9 85 -25 0 -48 -22 -54 -52 -4 -18 -15 -44 -25
-58 -10 -14 -23 -61 -30 -105 -6 -44 -19 -95 -28 -113 -12 -27 -13 -35 -3 -42
10 -6 10 -12 2 -29 -11 -20 -16 -74 -40 -471 -6 -85 -15 -170 -22 -188 -15
-44 -8 -328 10 -360 11 -20 10 -26 -3 -41 -20 -22 -20 -30 1 -53 13 -15 14
-23 5 -43 -6 -13 -19 -95 -28 -182 -9 -86 -20 -167 -24 -179 -15 -39 -160 -44
-269 -8 -24 8 -105 24 -180 35 -208 30 -250 39 -326 64 -79 27 -523 89 -565
78 -35 -8 -70 -42 -70 -68 0 -53 -80 -77 -184 -55 -69 14 -91 33 -99 88 -5 27
-13 43 -25 46 -26 9 -107 -9 -177 -38 -34 -13 -144 -41 -245 -60 -102 -20
-218 -45 -259 -56 -129 -35 -499 -63 -552 -42 l-27 11 -7 278 c-8 298 1 996
14 1077 13 80 35 86 149 45 83 -30 126 -55 173 -101 86 -83 264 -244 297 -268
19 -14 41 -38 49 -55 9 -16 44 -66 78 -110 34 -44 65 -90 69 -103 4 -12 16
-27 27 -32 10 -6 26 -27 34 -46 16 -40 52 -88 138 -184 32 -36 72 -93 88 -127
34 -71 99 -136 132 -131 18 2 23 11 25 47 2 28 -2 49 -11 60 -9 9 -20 34 -26
57 -6 22 -25 60 -42 84 -26 36 -29 46 -20 66 6 13 17 24 25 24 17 0 28 24 19
46 -5 13 -20 15 -82 12 -70 -3 -76 -1 -76 17 0 13 12 23 40 34 78 28 125 50
125 59 0 5 -24 13 -52 18 -43 7 -54 13 -56 30 -2 14 6 27 22 38 70 45 -8 74
-106 39 -39 -14 -53 -15 -87 -4 -23 6 -41 15 -41 20 0 4 26 15 58 24 69 19
142 69 142 97 0 31 -23 34 -71 9 -39 -20 -54 -21 -162 -17 -65 3 -123 10 -128
15 -14 14 73 50 169 71 43 9 82 21 87 27 6 7 31 20 58 29 33 12 47 23 47 36 0
10 -4 21 -9 24 -5 4 -64 -12 -131 -34 -94 -31 -137 -40 -190 -40 -41 0 -72 5
-76 11 -8 13 33 48 56 49 9 0 48 16 88 35 40 19 95 37 124 41 71 10 110 53 74
83 -10 9 -37 2 -114 -29 -111 -45 -238 -80 -287 -80 -36 0 -82 31 -72 47 4 6
24 13 46 17 21 3 72 20 112 37 145 60 157 68 169 104 20 62 -2 70 -69 25 -74
-50 -261 -100 -261 -70 0 17 39 50 83 71 23 10 63 34 89 52 32 24 62 36 99 41
30 4 61 13 69 20 8 8 32 17 53 20 49 9 107 60 107 93 0 19 -3 23 -12 15 -7 -5
-35 -13 -63 -16 -68 -10 -183 -64 -221 -103 -18 -19 -41 -33 -55 -33 -13 0
-66 -12 -117 -26 -106 -29 -137 -29 -137 1 0 14 13 26 43 39 23 11 42 25 42
32 0 17 -23 30 -28 16 -2 -7 -22 -12 -45 -12 -23 0 -79 -9 -125 -20 -111 -27
-112 -27 -112 14 0 45 22 66 69 66 20 0 54 9 76 20 22 11 46 20 54 20 8 0 29
11 47 25 18 14 42 25 54 25 31 0 144 56 183 89 18 16 42 31 55 35 12 4 22 11
22 16 0 5 20 23 45 40 27 19 45 39 45 50 0 32 -20 24 -100 -40 -41 -33 -95
-67 -120 -76 -76 -27 -180 -77 -197 -96 -13 -14 -24 -17 -47 -12 -48 11 -89 6
-144 -15 -47 -19 -62 -19 -62 0 0 4 26 17 58 29 80 29 101 41 107 61 3 9 17
20 30 23 25 6 33 20 17 30 -4 2 -39 -2 -77 -10 -39 -8 -79 -13 -90 -12 -53 8
185 138 253 138 16 0 37 9 47 20 10 11 23 20 30 20 7 0 20 10 31 22 57 64 160
100 171 59 11 -44 71 -30 106 26 13 21 41 58 61 81 38 47 45 72 22 91 -18 15
-40 6 -109 -46 -33 -23 -63 -43 -68 -43 -8 0 -29 32 -29 44 0 3 16 24 36 46
30 33 34 43 24 55 -7 8 -17 15 -23 15 -20 0 -293 -113 -388 -161 -53 -26 -137
-72 -185 -102 -98 -58 -241 -114 -319 -123 -27 -3 -67 -12 -88 -20 -43 -16
-163 -19 -201 -4 -20 7 -26 17 -26 39 0 39 -14 47 -92 56 -73 7 -99 24 -72 46
23 19 243 25 266 7 22 -16 14 -29 -37 -57 l-40 -22 95 5 c161 9 396 82 499
155 16 12 34 21 41 21 7 0 29 13 50 30 21 17 43 30 50 30 20 0 6 45 -15 48
-27 4 -199 -81 -226 -112 -61 -70 -299 -122 -299 -64 0 23 76 61 225 113 53
18 104 40 113 48 10 8 36 25 60 37 23 13 42 30 42 37 0 23 -82 15 -144 -13
-56 -25 -106 -29 -113 -8 -2 6 5 14 16 17 14 3 24 19 32 50 6 25 22 56 35 68
31 29 34 94 4 104 -21 7 -53 -7 -85 -35 -21 -20 -64 -37 -158 -64 -47 -14 -62
-24 -78 -51 -22 -37 -42 -45 -114 -45 -27 0 -61 -3 -73 -7 -24 -6 -25 -12 -7
-70 l7 -22 -71 20 c-39 11 -92 19 -118 17 -40 -3 -49 -7 -63 -33 -19 -33 -21
-34 -167 -20 -81 8 -113 0 -113 -26 0 -5 42 -29 93 -53 121 -58 124 -60 108
-80 -26 -31 -82 -20 -151 29 -35 25 -73 48 -84 51 -12 4 -37 17 -56 30 -42 29
-67 30 -75 5 -7 -23 2 -50 29 -80 l21 -23 -25 6 c-24 7 -59 24 -207 101 -100
52 -130 37 -78 -40 15 -20 24 -40 21 -43 -16 -15 -85 1 -145 35 -129 72 -138
75 -237 83 -52 4 -100 12 -107 19 -8 8 -12 62 -12 180 0 166 0 168 27 207 25
36 102 104 118 104 11 0 30 49 30 78 0 34 16 52 45 52 27 0 55 29 55 57 0 14
10 24 33 33 17 6 42 17 53 23 26 15 118 129 142 177 9 19 23 39 30 43 18 12
15 64 -4 71 -9 3 -37 6 -62 7 l-47 1 60 12 c61 11 85 36 49 50 -10 4 -110 2
-223 -5 -151 -8 -217 -8 -247 0 -47 13 -113 66 -144 117 -30 48 -32 125 -3
156 11 13 23 31 26 41 4 9 13 17 21 17 8 0 28 12 45 26 33 27 51 25 51 -7 0
-12 -18 -31 -50 -51 -27 -18 -50 -39 -50 -45 0 -17 16 -16 44 2 25 17 108 28
332 46 l150 12 84 -42 c72 -35 92 -41 148 -41 36 0 92 -5 124 -12 54 -11 61
-10 95 10 21 13 68 38 105 57 37 19 73 45 79 57 7 13 45 62 85 111 41 48 81
102 90 120 9 17 25 38 35 45 10 7 23 27 27 45 5 18 14 31 20 30 6 -2 14 13 18
32 3 18 17 48 30 66 13 18 24 38 24 44 0 6 13 21 30 33 17 13 30 30 30 38 0 9
9 27 19 40 11 14 27 49 37 77 9 29 25 63 35 76 11 13 19 32 19 41 0 24 28 103
39 110 9 5 14 43 12 93 -1 20 -8 30 -26 37 -14 6 -25 17 -25 28 0 11 -9 31
-20 45 -25 31 -28 123 -5 153 19 25 19 48 -1 87 -24 47 -65 87 -90 87 -26 0
-39 -15 -48 -55 -4 -16 -13 -37 -21 -45 -7 -8 -21 -50 -30 -93 -9 -42 -23 -80
-29 -85 -7 -4 -15 -15 -19 -25 -4 -9 -15 -21 -25 -25 -35 -13 -83 -61 -94 -94
-6 -18 -19 -42 -28 -53 -10 -11 -23 -37 -30 -59 -7 -21 -20 -41 -30 -43 -10
-3 -22 -14 -28 -26 -5 -12 -39 -56 -74 -97 -35 -41 -76 -95 -90 -120 -29 -50
-113 -133 -201 -200 -32 -24 -67 -60 -78 -81 -10 -21 -23 -40 -28 -43 -4 -3
-27 30 -49 74 l-40 80 -7 -37 c-8 -45 -32 -93 -45 -93 -6 0 -10 19 -10 43 0
24 -6 52 -14 62 -12 17 -16 17 -31 5 -24 -20 -45 -65 -45 -97 0 -15 -4 -34 -9
-42 -27 -42 -70 142 -56 239 8 51 19 75 48 108 26 28 45 28 49 0 7 -53 67 -18
109 64 10 21 19 46 19 58 0 17 -6 20 -47 20 -27 0 -68 -9 -92 -20 -24 -11 -53
-20 -64 -20 -20 0 -19 2 6 28 32 33 35 62 7 62 -31 0 -88 -58 -102 -102 -6
-22 -18 -42 -25 -45 -18 -7 -16 -20 8 -44 20 -20 21 -29 17 -192 -1 -95 -7
-178 -11 -185 -12 -18 -34 2 -42 38 -3 15 -15 36 -26 46 -11 10 -19 30 -19 51
0 38 -6 40 -35 13 -18 -17 -25 -18 -48 -7 -18 8 -29 22 -33 45 -10 51 6 177
26 215 17 31 17 37 5 47 -18 15 -45 -3 -45 -28 0 -8 -7 -23 -15 -33 -12 -13
-17 -51 -22 -158 -3 -77 -10 -141 -15 -141 -4 0 -8 5 -8 10 0 6 -8 19 -17 29
-10 11 -26 31 -36 46 -21 30 -41 22 -51 -20 -8 -33 -43 -34 -52 -1 -3 14 -14
32 -25 42 -22 20 -25 57 -5 73 8 7 17 31 21 54 4 23 18 65 31 92 12 28 26 76
29 108 6 49 11 60 38 81 39 29 89 46 133 46 19 0 42 8 52 18 9 9 30 25 45 35
15 9 27 27 27 38 0 11 9 37 20 57 10 20 22 49 25 65 4 18 22 40 56 64 l50 36
-28 29 c-39 41 -95 68 -141 68 -36 0 -170 -47 -197 -70 -6 -5 -47 -21 -91 -34
-43 -13 -117 -38 -164 -55 -133 -48 -232 -42 -327 22 -72 48 -93 86 -93 167 0
49 4 69 14 73 8 3 19 23 26 44 7 21 20 47 30 58 10 11 23 31 30 44 7 14 37 54
68 90 61 72 96 143 106 215 3 27 12 57 20 65 7 9 19 41 26 71 7 30 18 62 25
70 8 8 21 44 30 80 9 36 23 75 30 86 8 12 21 50 30 85 9 35 23 73 30 85 7 12
18 45 23 73 6 35 17 57 31 67 11 8 21 21 21 28 0 7 10 29 23 47 13 19 31 65
41 103 9 37 24 75 33 84 12 12 14 28 10 70 -3 29 -11 60 -18 68 -8 10 -9 17 0
28 6 7 14 46 17 87 6 63 3 82 -14 120 -11 24 -24 58 -28 74 -8 35 -47 102 -86
149 -15 18 -32 44 -38 57 -6 13 -17 35 -25 48 -22 39 -4 62 83 111 45 25 89
52 98 62 19 19 11 38 -17 38 -23 0 -25 23 -3 41 8 7 22 25 30 41 8 16 23 28
33 28 11 0 48 13 83 30 34 16 72 30 84 30 29 0 122 33 165 59 40 24 55 64 39
105 -24 64 -84 60 -244 -14 -71 -33 -130 -60 -132 -60 -2 0 -4 12 -4 26 0 19
4 25 15 20 10 -4 19 2 24 17 17 42 82 82 221 131 90 33 114 51 99 77 -18 34
-75 24 -189 -31 -56 -28 -104 -49 -106 -48 -1 2 24 36 57 76 51 62 64 72 92
72 37 0 125 39 147 64 13 16 12 20 -5 32 -25 19 -44 18 -88 -6 -20 -11 -47
-20 -58 -20 -12 0 -37 -9 -55 -21 -19 -11 -34 -16 -34 -10 0 6 4 11 9 11 5 0
12 11 15 25 9 37 63 71 145 94 41 11 79 25 85 31 17 17 -7 44 -45 50 -48 7
-45 35 6 63 22 13 46 35 53 50 7 15 18 27 24 27 6 0 -1 11 -16 25 -33 31 -33
45 4 83 30 32 35 43 24 55 -8 8 -56 -16 -111 -56 -24 -17 -46 -27 -50 -23 -13
13 13 61 45 81 80 49 154 107 164 130 9 20 8 28 -5 43 -16 17 -15 20 13 47 34
33 60 83 60 118 0 13 13 51 29 83 19 36 32 83 36 121 6 56 5 64 -12 69 -43 13
-48 21 -48 74 1 59 19 80 67 80 22 0 33 -8 49 -35 12 -19 25 -35 29 -35 4 0
13 -13 19 -30 11 -33 31 -39 51 -15 17 20 7 130 -13 153 -8 9 -21 43 -28 76
-7 32 -18 64 -25 71 -7 7 -21 43 -30 81 -25 99 -107 182 -128 129 -3 -8 -11
-14 -18 -13 -6 2 -14 -10 -17 -25 l-6 -29 -23 32 -23 31 20 43 c12 23 21 48
21 55 0 22 40 90 62 105 13 9 43 16 69 16 38 0 58 -8 115 -45 91 -60 151 -60
217 3 28 26 38 84 17 97 -22 13 -8 25 30 25 33 0 48 -7 83 -39 33 -31 55 -41
101 -50 102 -19 142 -15 192 20 l46 31 21 -20 c34 -31 62 -42 106 -42 56 0 99
39 109 100 9 56 30 59 55 8 14 -28 25 -38 43 -38 25 0 27 6 38 84 7 51 20 64
47 48 46 -29 69 50 29 101 -20 25 -28 97 -11 97 4 0 46 -25 93 -55 95 -62 107
-62 142 -7 18 29 32 38 71 47 30 6 52 17 59 30 5 11 19 33 29 48 18 27 18 29
1 41 -28 21 -10 43 39 48 25 3 58 15 73 27 15 11 40 21 57 21 17 0 89 9 161
21 l129 21 42 -21 c23 -12 46 -21 51 -21 5 0 32 -18 59 -41 62 -51 72 -56 135
-70 50 -11 80 -2 80 22 0 5 -26 39 -58 76 -32 38 -64 78 -71 91 -6 12 -18 22
-27 22 -8 0 -50 18 -94 40 -56 28 -84 49 -95 70 -8 16 -25 35 -38 42 -22 12
-262 22 -302 12z m72 -154 c6 -13 10 -26 7 -29 -6 -6 -54 40 -54 51 0 19 35 2
47 -22z m1753 -510 c19 -5 107 -19 195 -30 179 -22 281 -45 370 -84 33 -15 80
-31 105 -37 25 -5 70 -25 100 -43 30 -19 93 -47 140 -64 106 -37 294 -145 374
-216 34 -29 84 -69 111 -88 180 -126 290 -225 300 -268 3 -15 15 -31 25 -36
11 -5 86 -73 168 -150 165 -156 232 -201 361 -238 94 -27 106 -36 115 -76 8
-44 -1 -59 -48 -71 -62 -17 -66 -23 -66 -105 l0 -74 98 2 c117 3 157 -10 177
-58 9 -21 28 -40 55 -54 41 -21 44 -24 54 -71 3 -14 21 -42 41 -62 20 -21 35
-46 35 -60 0 -13 9 -36 20 -50 24 -30 35 -77 26 -112 -9 -33 -46 -49 -156 -65
-98 -14 -120 -23 -120 -51 0 -11 -10 -24 -22 -29 -32 -13 -51 -30 -73 -64 -19
-28 -19 -28 6 -47 20 -16 22 -20 9 -29 -24 -16 -41 -12 -120 27 -64 33 -84 38
-140 37 -74 -1 -114 -18 -154 -64 -39 -46 -30 -147 17 -198 l21 -22 -75 1
c-41 1 -88 -1 -104 -5 -22 -5 -49 -1 -90 14 -33 13 -82 31 -110 40 -58 21 -68
37 -28 45 67 14 77 39 36 83 -15 17 -36 41 -45 55 -21 31 -90 63 -153 72 -70
11 -146 40 -205 81 -32 22 -61 34 -83 34 -40 0 -87 33 -87 60 0 10 -16 37 -35
60 -44 53 -44 64 -2 56 121 -25 167 -30 178 -19 20 20 2 40 -42 47 -24 4 -50
13 -59 20 -8 8 -33 19 -55 26 -44 14 -110 50 -169 92 l-39 28 29 0 c55 -1 164
-27 182 -43 10 -10 25 -17 33 -17 35 0 119 -54 163 -104 51 -59 135 -101 224
-113 59 -7 89 -34 97 -85 6 -35 12 -42 49 -59 24 -10 58 -20 77 -21 l34 -3 0
49 0 50 74 12 c81 14 110 33 142 97 11 20 26 37 34 37 25 0 19 64 -10 98 -29
35 -31 45 -9 66 11 12 35 16 85 16 l70 0 6 31 c4 23 14 35 35 43 39 15 32 38
-17 53 -92 28 -393 93 -426 93 -28 0 -41 -6 -53 -25 -11 -16 -26 -25 -44 -25
-15 -1 -38 -7 -52 -15 -16 -9 -56 -14 -112 -15 -94 0 -98 2 -140 63 -10 14
-58 45 -110 70 -133 64 -208 81 -208 47 0 -15 119 -88 171 -105 26 -9 50 -23
53 -31 3 -7 15 -14 26 -14 29 0 25 -28 -5 -36 -34 -8 -102 3 -128 21 -12 8
-31 15 -42 15 -12 0 -36 11 -55 25 -19 14 -40 25 -48 25 -7 0 -34 16 -59 35
-25 19 -63 40 -84 45 -46 13 -136 81 -151 116 -13 28 0 44 35 44 13 0 17 6 15
22 -2 15 -21 34 -58 55 -70 41 -178 135 -209 182 -14 20 -29 39 -35 43 -14 9
-46 0 -65 -18 -13 -12 -12 -16 2 -32 9 -10 17 -23 17 -29 0 -6 16 -25 36 -43
20 -17 33 -34 30 -37 -3 -4 -30 3 -59 15 -160 66 -189 43 -90 -72 53 -62 73
-74 143 -90 36 -8 70 -42 70 -71 0 -20 -5 -25 -25 -25 -45 0 -122 47 -154 94
-40 57 -84 74 -111 41 -21 -26 -71 -18 -128 20 -28 20 -52 40 -52 46 0 6 25
34 55 63 30 28 55 57 55 64 0 7 -11 23 -25 36 -30 28 -252 145 -315 166 -54
18 -109 51 -135 80 -10 11 -23 20 -30 20 -15 0 -99 60 -92 66 2 3 55 -9 118
-25 81 -20 148 -46 231 -89 119 -61 208 -86 231 -63 15 15 -21 52 -79 83 -24
12 -44 26 -44 31 0 4 -12 12 -26 17 -14 6 -28 19 -31 31 -3 12 -11 18 -19 15
-8 -3 -14 -1 -14 3 0 22 37 18 101 -10 38 -16 92 -33 120 -36 37 -4 61 -15 91
-39 22 -19 43 -34 46 -34 4 0 24 -4 44 -9 29 -7 45 -5 73 10 42 23 60 23 111
6 50 -18 114 -28 114 -18 0 4 -15 14 -32 23 -18 9 -63 40 -100 71 -40 32 -81
57 -101 61 -19 4 -41 14 -48 23 -16 18 -147 119 -188 144 -28 17 -42 59 -19
59 18 0 155 -66 159 -77 2 -4 27 -19 54 -33 28 -14 79 -47 114 -73 116 -88
328 -180 357 -156 8 6 14 15 14 20 0 13 -121 89 -225 142 -108 54 -192 104
-237 141 -56 47 -252 157 -273 154 -22 -3 -26 -40 -11 -112 8 -37 8 -38 -15
-31 -13 4 -54 20 -91 36 -36 16 -76 29 -89 29 -12 0 -30 7 -40 16 -21 19 -49
12 -49 -11 0 -8 11 -20 25 -25 13 -5 33 -18 44 -29 11 -11 51 -36 88 -55 122
-61 300 -186 266 -186 -6 0 -47 18 -92 40 -104 51 -182 84 -299 126 -51 19
-103 41 -117 50 -16 10 -56 18 -110 22 -74 4 -85 3 -80 -10 9 -22 90 -78 130
-89 19 -6 35 -14 35 -19 0 -9 70 -34 129 -46 33 -6 34 -7 16 -20 -27 -20 -74
-16 -120 11 -22 13 -52 31 -66 39 -33 19 -230 69 -364 92 -58 10 -165 18 -255
19 -156 2 -232 16 -287 51 -29 18 -29 28 1 42 16 7 26 22 30 45 8 40 20 47 86
47 65 0 80 7 80 39 0 31 8 44 36 59 12 6 24 24 27 40 5 25 11 30 49 35 24 3
79 22 122 42 68 31 92 36 171 40 97 4 268 37 291 56 7 6 25 15 41 20 34 11
265 3 313 -11z m-1472 -475 c28 -9 64 -26 79 -39 20 -17 51 -27 112 -35 100
-15 135 -27 125 -42 -11 -19 -169 -4 -256 25 -91 29 -188 74 -188 86 0 8 13
11 66 19 6 0 33 -6 62 -14z m-2111 -101 c-12 -13 -37 6 -37 28 l0 22 22 -21
c12 -13 19 -25 15 -29z m2754 -26 c5 -7 9 -30 9 -50 0 -34 -3 -38 -24 -38 -26
0 -195 57 -210 70 -10 10 20 20 89 31 64 10 126 4 136 -13z m-3136 -8 c8 -13
-3 -50 -15 -50 -12 0 -23 37 -15 50 3 5 10 10 15 10 5 0 12 -5 15 -10z m3411
-45 c25 -16 32 -35 13 -35 -20 0 -109 43 -109 53 0 14 67 2 96 -18z m-2996
-77 c0 -5 -7 -11 -17 -15 -23 -9 -53 32 -53 71 l1 31 34 -39 c19 -22 35 -43
35 -48z m2256 47 c104 -20 176 -44 171 -58 -6 -18 -67 -26 -117 -17 -57 11
-170 47 -190 60 -13 9 -13 11 0 20 21 13 45 12 136 -5z m336 -66 c17 -9 18
-13 7 -20 -19 -12 -70 -11 -89 1 -35 23 42 41 82 19z m230 -70 c34 -17 51 -39
31 -39 -21 0 -143 53 -143 62 0 14 65 1 112 -23z m-738 -77 c95 -32 110 -52
39 -52 -62 0 -166 17 -207 34 l-31 13 30 16 c42 23 78 20 169 -11z m201 -57
l30 -13 -42 -1 c-40 -1 -60 9 -46 23 9 9 24 7 58 -9z m602 -19 c15 -13 25 -27
22 -30 -9 -10 -100 34 -94 45 11 16 43 10 72 -15z m-486 -21 c0 -16 -30 -18
-47 -4 -11 9 -12 14 -3 20 15 9 51 -3 50 -16z m192 -16 c62 -17 41 -28 -25
-13 -83 19 -90 22 -48 23 19 1 52 -4 73 -10z m-2823 -58 c0 -11 -12 -34 -27
-52 -48 -57 -130 -76 -174 -41 -43 35 0 69 53 41 30 -16 64 -3 88 36 24 39 60
48 60 16z m2917 -236 c20 -8 33 -18 30 -21 -8 -8 -77 16 -77 27 0 12 5 12 47
-6z m1488 -165 c0 -16 -6 -26 -18 -28 -19 -4 -32 20 -23 44 9 25 41 13 41 -16z
m-1299 -31 c14 -11 20 -49 8 -49 -14 0 -94 53 -94 62 0 13 67 3 86 -13z m3245
11 c27 -15 24 -40 -5 -40 -26 0 -51 24 -41 40 8 13 21 13 46 0z m-1748 -74
c38 -16 73 -51 59 -60 -10 -6 -117 45 -136 65 -15 14 40 11 77 -5z m-273 -16
c12 -7 12 -12 3 -21 -9 -9 -16 -9 -27 1 -26 21 -5 39 24 20z m137 -43 c4 -8
26 -22 48 -33 32 -15 41 -25 43 -50 5 -56 -19 -61 -88 -18 -60 37 -79 66 -66
99 7 19 52 20 63 2z m-1418 -108 c12 -11 21 -24 21 -29 0 -17 -26 -11 -45 10
-10 11 -22 20 -28 20 -13 0 -67 40 -67 50 0 13 94 -28 119 -51z m2106 -35 c76
-18 95 -29 95 -52 0 -22 -69 -10 -138 25 -54 27 -86 62 -46 49 11 -3 51 -13
89 -22z m-1792 -55 c42 -27 77 -54 77 -60 0 -19 -36 -8 -72 21 -20 17 -53 37
-72 45 -35 15 -50 45 -23 45 7 0 48 -23 90 -51z m1085 9 c24 -24 14 -38 -18
-27 -30 11 -36 20 -23 32 10 11 28 8 41 -5z m-4638 -66 c0 -4 -13 -15 -29 -25
-35 -21 -52 -6 -19 17 24 17 48 21 48 8z m3700 -27 c21 -23 22 -25 5 -31 -12
-5 -24 0 -37 15 -36 45 -8 59 32 16z m956 -86 c3 -5 -6 -9 -20 -9 -24 0 -41
12 -30 23 7 7 43 -3 50 -14z m259 -59 c3 -5 3 -15 0 -20 -7 -12 -45 5 -45 20
0 13 37 13 45 0z m-1420 -240 c4 -6 -5 -5 -19 2 -14 6 -26 15 -26 20 0 10 36
-7 45 -22z m405 -16 c0 -8 -4 -14 -10 -14 -5 0 -10 9 -10 21 0 11 5 17 10 14
6 -3 10 -13 10 -21z m1440 -12 c59 -26 37 -36 -69 -30 -95 5 -109 12 -84 40
15 16 26 19 63 15 25 -3 65 -14 90 -25z m1198 -29 c4 -29 -11 -29 -68 2 l-45
25 55 -3 c49 -2 55 -5 58 -24z m-3037 -90 c31 -19 38 -33 15 -33 -19 0 -76 49
-58 50 8 0 27 -8 43 -17z m-3533 -31 c4 -13 -60 -42 -94 -42 -34 0 -30 15 9
33 63 29 78 30 85 9z m6430 -40 c2 -7 -3 -12 -12 -12 -9 0 -16 7 -16 16 0 17
22 14 28 -4z m-3242 -97 c9 -14 22 -25 28 -25 7 0 20 -16 29 -35 9 -19 23 -35
32 -35 20 0 19 -26 -1 -34 -45 -17 -84 2 -98 51 -4 11 -13 24 -21 27 -8 3 -15
18 -15 34 0 48 20 56 46 17z m2462 -3 c23 -15 30 -46 12 -57 -5 -3 -17 1 -27
10 -10 9 -29 24 -42 34 -15 11 -21 23 -17 30 9 13 38 7 74 -17z m-2590 -9 c5
-10 15 -41 22 -70 6 -30 29 -76 51 -107 42 -59 48 -80 23 -90 -19 -7 -34 1
-34 18 0 8 -6 19 -14 25 -8 7 -22 43 -31 81 -9 38 -23 74 -31 81 -16 13 -19
79 -4 79 5 0 13 -8 18 -17z m396 -65 c8 -13 18 -36 22 -51 3 -16 13 -31 20
-34 17 -6 19 -53 3 -53 -6 0 -24 8 -40 17 -53 31 -84 143 -39 143 11 0 26 -10
34 -22z m-402 -275 c34 -33 35 -43 4 -43 -18 0 -27 8 -35 31 -6 18 -11 34 -11
35 0 11 17 1 42 -23z m801 0 c20 -12 3 -33 -34 -43 -45 -12 -58 -8 -40 13 6 8
8 22 5 32 -6 15 -3 16 27 10 19 -4 37 -9 42 -12z m-581 -135 c17 -8 36 -74 24
-85 -3 -4 -21 8 -39 25 -18 18 -38 32 -45 32 -7 0 -12 11 -12 25 0 23 3 25 28
19 15 -4 35 -11 44 -16z m586 -40 c13 -11 16 -28 5 -28 -5 0 -21 12 -38 26
-29 24 -29 25 -5 18 14 -3 31 -11 38 -16z m-353 -128 c13 -21 -23 -9 -46 16
l-24 27 32 -17 c17 -9 35 -20 38 -26z m-287 -202 c19 -19 15 -48 -8 -48 -23 0
-35 22 -26 45 7 18 18 19 34 3z m1242 -162 c0 -7 -7 -19 -15 -26 -19 -16 -41
1 -32 24 8 20 47 21 47 2z m-4875 -66 c3 -6 -5 -10 -19 -10 -14 0 -28 5 -31
10 -3 6 5 10 19 10 14 0 28 -4 31 -10z m4203 -161 c2 -11 -6 -19 -22 -23 -14
-3 -80 -58 -145 -121 -130 -124 -156 -137 -187 -90 -23 35 -10 63 40 84 23 10
47 25 54 34 7 8 40 25 72 37 43 16 69 34 91 62 26 33 37 39 63 36 19 -2 32 -9
34 -19z m-355 -50 c20 -5 37 -14 37 -20 0 -16 -30 -69 -39 -69 -13 0 -81 73
-81 87 0 16 32 17 83 2z m357 -102 c0 -16 -113 -127 -129 -127 -19 0 -20 18
-2 34 11 10 22 30 26 44 4 15 14 35 22 45 19 21 83 24 83 4z m110 -75 c0 -20
-34 -55 -63 -65 -31 -11 -32 22 -1 54 32 33 64 39 64 11z m3000 -78 c0 -8 -4
-14 -9 -14 -11 0 -22 26 -14 34 9 9 23 -3 23 -20z m-423 -911 c-2 -16 -4 -5
-4 22 0 28 2 40 4 28 2 -13 2 -35 0 -50z m-1017 -37 c0 -26 -39 -95 -54 -96
-12 0 -1 87 14 105 19 23 40 18 40 -9z m548 -3 c-5 -25 -28 -28 -28 -4 0 12 6
21 16 21 9 0 14 -7 12 -17z m-502 -174 c9 -16 -12 -33 -31 -25 -14 5 -15 9 -5
21 15 18 26 19 36 4z m132 -97 c4 -24 -39 -126 -65 -154 -12 -14 -19 -15 -30
-7 -17 15 -17 63 1 79 8 6 20 28 27 48 6 20 16 43 22 50 15 19 42 10 45 -16z
m-298 -7 c0 -8 -7 -15 -15 -15 -8 0 -15 7 -15 15 0 8 7 15 15 15 8 0 15 -7 15
-15z m230 -430 c-14 -17 -40 -20 -40 -6 0 6 10 17 22 26 26 17 37 3 18 -20z
m-4640 -23 c0 -34 -6 -42 -81 -106 -65 -55 -80 -64 -74 -45 4 13 15 35 24 49
10 14 21 36 25 48 10 29 72 92 91 92 11 0 15 -11 15 -38z m-1740 -329 c0 -14
-19 -38 -25 -32 -8 8 5 39 16 39 5 0 9 -3 9 -7z m4447 -55 c-3 -7 -5 -2 -5 12
0 14 2 19 5 13 2 -7 2 -19 0 -25z m-3994 -293 c7 -16 -8 -29 -23 -20 -15 9
-12 35 4 35 8 0 16 -7 19 -15z m412 -550 c0 -12 -40 -19 -61 -11 -9 3 -12 11
-9 16 8 14 70 9 70 -5z m1455 -850 c0 -20 -20 -27 -62 -23 l-33 4 35 16 c45
21 60 22 60 3z m880 -64 c0 -5 -10 -11 -23 -15 -13 -3 -44 -24 -70 -46 -63
-55 -155 -110 -186 -110 -14 0 -57 -18 -96 -40 -131 -75 -178 -94 -229 -95
-35 0 -51 5 -59 17 -17 26 12 51 96 83 92 35 237 111 259 135 26 27 124 61
203 70 102 11 105 11 105 1z m3420 -140 c0 -61 -51 -158 -88 -167 -12 -4 -29
-18 -36 -33 -8 -14 -32 -40 -54 -58 -22 -18 -61 -64 -86 -102 -26 -38 -78 -99
-116 -134 -71 -66 -81 -85 -55 -107 19 -16 72 13 94 52 14 23 149 128 166 128
3 0 5 -17 5 -37 0 -33 -8 -44 -62 -96 -35 -32 -72 -62 -84 -67 -14 -6 -23 -21
-27 -46 -8 -47 -3 -54 37 -54 18 0 41 -6 51 -14 18 -13 18 -14 -3 -25 -12 -6
-22 -20 -22 -30 0 -23 -80 -183 -96 -193 -6 -4 -15 -23 -18 -41 -8 -41 -44
-89 -244 -326 -141 -167 -204 -231 -229 -231 -5 0 -33 -20 -62 -45 -50 -43
-81 -56 -81 -36 0 5 14 19 30 31 17 12 30 27 30 35 0 7 11 27 25 43 31 38 32
56 3 49 -94 -21 -88 -21 -88 5 0 31 72 126 215 281 152 165 251 281 280 326
13 21 40 49 59 61 32 19 56 47 56 64 0 31 -192 -95 -322 -211 -141 -127 -150
-132 -260 -157 l-28 -6 1 57 c0 32 3 65 7 74 6 13 223 220 343 325 38 34 126
148 145 188 10 20 25 38 34 41 20 6 116 99 149 145 14 18 53 55 88 82 35 28
71 64 80 81 16 32 77 116 112 154 22 25 51 21 51 -6z m-4606 -67 c29 -11 5
-24 -45 -24 -46 0 -59 7 -42 23 8 9 66 9 87 1z m957 -619 c-1 -15 -24 -12 -29
3 -3 9 2 13 12 10 10 -1 17 -7 17 -13z m-915 -214 c-10 -16 -65 -31 -72 -19
-4 6 0 14 7 19 18 12 72 12 65 0z m195 -5 c-12 -15 -59 -39 -98 -51 -32 -9
-30 18 3 44 32 25 115 31 95 7z m29 -95 c24 -8 24 -8 -15 -25 -22 -10 -59 -20
-82 -23 -38 -5 -43 -3 -43 15 0 34 76 51 140 33z m-262 -38 c2 -8 -5 -13 -17
-13 -21 0 -35 13 -24 24 10 10 36 3 41 -11z m-160 -59 c2 -16 -7 -28 -32 -43
-19 -12 -49 -40 -66 -62 -26 -32 -38 -39 -66 -39 l-33 0 30 45 c40 59 119 126
144 123 12 -2 21 -12 23 -24z m407 -51 c-4 -16 -11 -33 -16 -39 -11 -13 -115
-34 -167 -34 -47 0 -41 27 8 40 21 6 42 15 46 21 10 17 66 38 103 39 31 0 33
-2 26 -27z m-305 -12 c0 -15 -90 -85 -98 -77 -4 4 12 25 35 47 41 38 63 48 63
30z m379 -99 c40 -20 43 -33 10 -49 -75 -39 -413 -193 -416 -190 -9 9 -5 85 6
104 19 36 73 71 172 112 107 44 174 51 228 23z m-334 -2 c-3 -5 -13 -10 -21
-10 -8 0 -14 5 -14 10 0 6 9 10 21 10 11 0 17 -4 14 -10z m299 -156 c43 -16 5
-43 -129 -91 -97 -35 -156 -66 -185 -98 -33 -37 -100 -85 -117 -85 -19 0 -16
44 5 68 9 11 54 41 100 66 46 25 100 58 120 74 50 39 75 52 125 62 56 11 63
11 81 4z m-994 -92 c0 -19 -106 -127 -152 -155 -16 -10 -28 -25 -28 -35 0 -13
-20 -23 -78 -40 -106 -31 -136 -33 -140 -6 -5 32 58 80 175 135 56 26 124 64
149 83 52 40 74 45 74 18z m4666 -17 c-6 -17 -114 -90 -121 -83 -3 3 23 31 57
64 56 54 80 61 64 19z m-4121 -35 c-15 -29 -35 -40 -35 -19 0 20 21 49 36 49
13 0 13 -4 -1 -30z m520 0 c11 -19 -14 -37 -58 -43 -23 -3 -96 -22 -162 -42
-66 -20 -129 -38 -140 -42 -16 -4 -15 0 10 27 53 57 102 81 210 104 42 8 134
6 140 -4z m-1027 -72 c-6 -18 -28 -21 -28 -4 0 9 7 16 16 16 9 0 14 -5 12 -12z
m401 -55 c-14 -45 -104 -143 -130 -143 -10 0 -24 -10 -30 -22 -7 -13 -31 -45
-54 -73 -23 -27 -50 -65 -59 -82 -9 -18 -23 -33 -31 -33 -8 0 -21 -16 -29 -35
-8 -19 -22 -38 -31 -41 -22 -9 -65 4 -65 20 0 7 57 78 126 157 69 79 136 160
149 180 26 40 80 89 99 89 7 0 23 12 37 26 19 21 25 23 27 10 2 -9 -2 -33 -9
-53z m575 -8 c3 -8 14 -15 25 -15 10 0 22 -8 25 -17 12 -31 -19 -46 -129 -59
-92 -11 -115 -18 -180 -54 -77 -43 -185 -67 -185 -41 0 6 6 11 13 11 7 0 18
13 24 29 14 38 134 97 217 107 35 4 70 16 89 30 37 26 92 31 101 9z m3447 -13
c-16 -31 -134 -132 -153 -132 -19 0 -31 29 -22 54 3 9 18 16 33 17 14 0 53 19
86 43 33 24 61 42 63 41 2 -2 -1 -12 -7 -23z m124 -39 c-14 -27 -25 -55 -25
-64 0 -9 -22 -44 -50 -78 -27 -35 -52 -72 -56 -84 -3 -12 -14 -31 -24 -42 -10
-11 -23 -37 -30 -57 -6 -21 -17 -38 -23 -39 -11 0 -60 -91 -91 -171 -8 -21
-20 -38 -26 -38 -6 0 -15 -12 -20 -26 -6 -14 -24 -45 -40 -69 -17 -24 -30 -51
-30 -61 0 -10 -24 -49 -53 -88 -30 -39 -69 -98 -87 -131 -19 -33 -44 -74 -57
-91 -13 -17 -23 -38 -23 -47 0 -8 -7 -23 -16 -32 -17 -16 -48 -70 -79 -135
-10 -19 -38 -58 -64 -86 -25 -28 -62 -79 -81 -113 -50 -90 -58 -96 -82 -74
-11 10 -32 41 -47 70 -63 125 -119 211 -163 253 -26 25 -54 63 -62 85 -7 22
-19 39 -25 37 -6 -1 -16 10 -22 25 -6 15 -19 36 -29 45 -38 36 -53 144 -22
171 29 26 283 147 310 147 13 0 39 8 56 19 17 10 48 24 69 31 21 7 41 18 44
26 3 8 12 14 21 14 23 0 99 46 176 108 67 54 69 54 106 43 110 -33 281 12 224
59 -8 7 -14 30 -14 51 0 49 32 97 117 174 36 32 72 74 79 92 8 18 24 38 36 44
13 7 41 27 62 46 58 48 72 43 41 -14z m-4397 5 c-14 -18 -28 -43 -32 -55 -5
-17 -15 -23 -37 -23 -16 0 -29 4 -29 9 0 11 101 101 114 101 4 0 -3 -15 -16
-32z m-355 -24 c12 -12 -6 -34 -54 -64 -64 -41 -149 -74 -161 -62 -15 15 28
49 116 93 81 40 89 43 99 33z m117 -109 c0 -61 -21 -107 -62 -138 -40 -31
-241 -132 -280 -141 -36 -8 -58 16 -58 64 0 32 6 43 33 63 32 25 346 196 360
197 4 0 7 -20 7 -45z m440 -6 c0 -44 -20 -117 -36 -130 -8 -6 -14 -20 -14 -30
0 -10 -38 -60 -85 -111 -46 -51 -108 -119 -137 -152 -64 -71 -234 -200 -305
-233 -29 -14 -53 -29 -53 -34 0 -5 -22 -20 -48 -33 -27 -13 -54 -32 -61 -40
-15 -18 -96 -22 -106 -5 -24 38 48 107 139 133 29 9 61 25 72 37 10 12 42 32
69 46 64 32 263 232 372 373 93 121 171 210 184 210 5 0 9 -14 9 -31z m500
-13 c0 -19 -66 -57 -110 -63 -19 -3 -51 -15 -70 -28 -19 -12 -70 -41 -113 -65
-57 -33 -96 -65 -153 -127 -41 -46 -81 -83 -88 -83 -7 0 -18 -10 -23 -22 -14
-31 -188 -225 -212 -238 -33 -17 -71 -13 -71 9 0 22 19 47 117 158 39 45 93
114 118 153 57 85 124 145 180 159 23 6 58 22 79 36 20 14 43 25 49 25 7 0 17
4 22 9 6 4 32 14 59 20 27 7 67 21 88 32 22 11 59 24 81 29 23 4 43 8 45 9 1
1 2 -5 2 -13z m177 -2 c2 -6 -4 -14 -13 -18 -19 -7 -47 11 -38 26 8 12 46 6
51 -8z m-107 -124 c0 -5 -4 -10 -9 -10 -5 0 -26 -16 -46 -35 -21 -19 -46 -37
-56 -40 -27 -9 -24 -29 4 -21 71 20 108 19 139 -4 17 -12 42 -26 57 -29 36
-10 74 -67 60 -92 -13 -25 -33 -24 -107 6 -70 29 -124 32 -175 10 -44 -18 -91
-19 -105 -2 -14 16 -5 29 35 52 37 22 49 45 31 57 -21 14 -62 1 -122 -37 -50
-32 -56 -39 -56 -70 0 -30 -7 -40 -62 -82 -70 -53 -258 -224 -359 -325 -57
-57 -74 -67 -120 -77 -42 -9 -64 -22 -99 -55 -32 -31 -99 -71 -229 -136 -160
-80 -186 -91 -207 -81 -33 15 -30 31 16 76 59 58 54 75 -25 87 -41 6 -26 34
46 88 71 53 233 129 277 130 18 0 22 -5 22 -30 0 -23 -6 -33 -25 -42 -14 -6
-25 -15 -25 -20 0 -5 -19 -18 -42 -29 -123 -59 -170 -91 -155 -106 8 -8 239
82 279 109 15 11 61 34 103 53 42 20 93 47 112 62 46 35 350 365 390 424 17
25 47 57 65 70 36 27 170 94 203 102 40 9 185 7 185 -3z m94 4 c20 -8 20 -20
0 -28 -19 -7 -57 11 -49 25 7 10 26 12 49 3z m1354 -33 c26 -32 41 -41 76 -46
83 -13 266 29 266 61 0 23 41 26 186 14 273 -21 464 -55 464 -81 0 -23 -412
-199 -464 -198 -28 0 -29 1 -11 12 47 28 85 75 85 105 0 48 -20 56 -87 37
-134 -38 -243 -111 -243 -161 0 -13 4 -24 9 -24 4 0 24 -11 44 -25 21 -13 71
-31 114 -40 43 -9 106 -25 140 -37 69 -23 89 -20 102 14 9 23 102 108 119 108
4 0 19 11 31 24 13 14 53 37 90 51 36 15 70 33 74 41 4 8 23 14 41 14 18 0 65
11 104 25 39 14 91 25 115 25 49 0 154 -25 174 -42 20 -16 16 -38 -9 -47 -13
-5 -61 -32 -108 -60 -47 -28 -90 -51 -95 -51 -6 0 -31 -11 -57 -25 -26 -14
-80 -37 -120 -52 -40 -15 -100 -42 -133 -61 -33 -19 -113 -61 -178 -93 -65
-33 -166 -89 -225 -126 -59 -36 -133 -81 -165 -99 -32 -18 -87 -58 -123 -89
-36 -30 -71 -55 -78 -55 -8 0 -16 -7 -20 -15 -15 -40 -126 9 -126 55 0 11 -8
27 -19 37 -10 10 -26 34 -36 53 -10 19 -65 81 -122 136 -106 105 -123 136 -81
150 12 3 29 15 37 25 20 23 114 58 279 105 134 38 182 58 182 75 0 8 -31 9
-103 4 l-102 -7 -50 36 c-109 79 -126 89 -212 126 -75 32 -88 41 -88 61 0 32
31 45 150 62 143 21 138 22 173 -22z m-463 -91 c16 -16 33 -30 38 -30 10 0 87
-65 155 -131 61 -58 30 -109 -35 -55 -15 12 -39 29 -53 36 -14 7 -54 39 -90
71 -36 31 -78 69 -95 83 -29 25 -29 26 -11 41 30 23 59 18 91 -15z m-2855 -24
c0 -19 -9 -43 -20 -56 -12 -13 -35 -49 -52 -80 -17 -30 -41 -66 -53 -80 -12
-14 -28 -46 -35 -72 -7 -26 -21 -55 -31 -64 -11 -9 -19 -23 -19 -29 0 -7 -11
-29 -25 -50 -14 -20 -32 -64 -40 -97 -7 -32 -19 -66 -27 -75 -7 -8 -33 -54
-58 -101 -25 -47 -51 -88 -57 -90 -18 -5 -17 53 1 68 8 6 20 36 26 66 6 29 24
77 39 106 15 29 31 71 34 93 4 22 13 44 20 50 26 19 84 121 91 160 4 22 13 47
21 55 7 8 15 31 19 52 4 23 16 42 31 52 14 9 25 23 25 30 0 19 89 108 101 100
5 -3 9 -20 9 -38z m748 -15 c7 -20 -103 -118 -170 -152 -38 -19 -71 -29 -91
-27 -29 3 -32 6 -35 42 -7 85 12 105 129 135 84 22 160 23 167 2z m1737 -75
c62 -31 129 -73 149 -92 24 -23 63 -44 120 -64 122 -43 172 -66 195 -89 27
-27 26 -37 0 -44 -18 -5 -20 -11 -15 -33 4 -14 14 -33 21 -41 16 -15 20 -71 7
-88 -4 -6 -18 -15 -32 -21 -51 -23 -351 -303 -410 -384 -13 -18 -38 -41 -55
-52 -33 -19 -95 -105 -95 -131 0 -9 -5 -19 -11 -23 -35 -21 -84 118 -105 301
-9 77 -23 155 -30 174 -8 19 -21 78 -30 130 -8 53 -22 106 -30 119 -8 13 -14
37 -12 55 3 32 4 32 57 32 31 0 56 5 58 11 6 18 -47 75 -84 90 -37 16 -53 40
-53 83 0 47 16 78 57 106 35 24 45 26 112 22 65 -4 86 -10 186 -61z m-1685
-36 c0 -15 -181 -156 -237 -184 -28 -14 -63 -26 -77 -26 -30 0 -44 23 -26 45
18 22 131 83 207 111 37 14 79 34 93 44 28 22 40 25 40 10z m748 -71 c-14 -25
-57 -68 -107 -108 -47 -36 -118 -94 -158 -129 -40 -34 -73 -59 -73 -54 0 19
60 101 79 107 11 3 40 35 65 69 25 35 58 69 73 75 16 6 47 27 71 46 61 49 80
47 50 -6z m-1320 -136 c-5 -21 -16 -45 -23 -53 -7 -8 -20 -38 -28 -67 -9 -28
-22 -62 -30 -75 -8 -12 -18 -39 -22 -58 -11 -50 -33 -90 -51 -90 -13 0 -14 12
-8 83 6 81 13 104 21 80 8 -23 23 -14 23 15 0 48 19 99 39 105 12 3 21 18 25
41 5 25 14 40 29 46 35 14 36 12 25 -27z m632 -383 c-19 -16 -46 -39 -60 -52
-14 -12 -31 -21 -37 -20 -7 2 -13 -2 -13 -7 0 -28 -235 -171 -281 -171 -55 0
16 84 97 115 27 10 105 51 174 92 130 76 182 95 120 43z m141 -47 c-33 -40
-105 -102 -156 -133 -19 -12 -35 -26 -35 -31 0 -5 -12 -15 -27 -22 -16 -6 -68
-35 -117 -64 -102 -60 -182 -91 -198 -75 -19 19 12 51 85 86 39 19 93 52 119
73 26 21 69 54 95 73 61 44 245 140 255 134 5 -3 -5 -21 -21 -41z m-989 -75
c-9 -9 -12 -7 -12 12 0 19 3 21 12 12 9 -9 9 -15 0 -24z m-464 -91 c2 -20 -3
-46 -11 -59 -9 -13 -22 -58 -31 -101 -9 -44 -18 -83 -22 -88 -11 -18 -23 -8
-33 25 -12 44 2 109 33 156 13 19 27 52 30 73 9 48 30 44 34 -6z m672 -185
c-1 -40 -8 -72 -25 -107 -14 -27 -25 -61 -25 -75 0 -29 -33 -104 -49 -114 -27
-17 -1 167 39 279 37 103 60 110 60 17z m127 -24 c-3 -7 -5 -2 -5 12 0 14 2
19 5 13 2 -7 2 -19 0 -25z m3791 -125 c-18 -42 -56 -92 -65 -88 -7 2 -18 -5
-24 -16 -21 -39 -81 -99 -100 -99 -50 0 -29 57 34 97 23 14 63 45 89 69 42 39
76 58 66 37z m285 -70 c11 -10 -14 -33 -36 -33 -19 0 -20 1 -2 20 19 21 28 24
38 13z m-4197 -151 c-6 -40 -11 -47 -25 -37 -12 7 -15 67 -5 78 3 3 13 3 21 0
11 -4 14 -15 9 -41z m-112 -44 c4 -35 10 -74 13 -86 5 -20 2 -23 -18 -20 -22
3 -24 8 -27 72 -2 38 -1 75 2 83 12 29 24 10 30 -49z"/>
<path d="M6952 11598 c-17 -17 -15 -38 6 -45 9 -4 40 -23 67 -43 28 -20 64
-43 82 -49 18 -7 38 -20 45 -28 6 -8 77 -60 157 -116 219 -151 249 -176 440
-362 186 -181 224 -211 336 -268 155 -78 276 -98 356 -56 58 29 46 44 -37 44
l-69 1 -10 49 c-13 65 -17 71 -78 101 -29 15 -74 43 -102 63 -27 20 -99 65
-160 100 -120 69 -271 171 -378 255 -38 30 -114 77 -170 106 -56 29 -125 70
-152 90 -28 21 -69 46 -90 57 -22 10 -71 38 -110 60 -81 49 -115 59 -133 41z"/>
<path d="M7332 2675 c-6 -14 -30 -45 -52 -69 -53 -58 -51 -79 3 -30 24 22 58
51 75 66 38 31 42 58 9 58 -16 0 -28 -9 -35 -25z"/>
<path d="M5352 1590 c-152 -21 -292 -84 -292 -130 0 -23 75 -99 109 -111 16
-6 34 -24 44 -43 20 -43 67 -79 139 -107 l57 -22 53 54 c49 50 161 137 215
167 13 7 34 24 48 38 13 13 31 24 38 24 20 0 29 26 14 38 -7 5 -32 13 -57 17
-25 4 -79 22 -120 40 -85 38 -155 47 -248 35z"/>
<path d="M4764 12186 c-8 -21 3 -36 27 -36 15 0 20 6 17 22 -4 27 -35 37 -44
14z"/>
<path d="M4645 12090 c-10 -11 -24 -20 -30 -20 -7 0 -29 -11 -49 -25 -20 -14
-55 -28 -77 -31 -24 -4 -44 -14 -50 -25 -7 -14 -21 -19 -52 -19 -48 0 -67 -13
-67 -47 0 -17 -6 -23 -23 -23 -29 0 -61 -29 -87 -80 -11 -21 -24 -41 -29 -44
-4 -3 -27 8 -50 24 -22 17 -45 30 -51 30 -18 0 -30 -39 -30 -101 0 -51 2 -60
14 -50 17 14 25 -11 27 -79 2 -100 23 -117 104 -81 52 23 68 53 63 120 -4 55
12 63 47 25 33 -35 53 -25 73 34 7 23 19 42 25 43 7 0 26 2 42 2 29 2 30 3 33
59 l3 58 29 -22 c41 -30 75 -14 90 43 6 23 22 51 34 63 13 11 26 35 30 51 4
17 19 40 34 52 22 18 25 25 16 40 -16 26 -47 27 -69 3z"/>
<path d="M2876 11725 c-21 -21 -20 -52 2 -96 16 -32 17 -38 4 -58 -14 -20 -13
-26 3 -59 9 -20 21 -75 25 -122 9 -106 14 -116 59 -139 97 -50 200 -63 273
-35 55 21 78 48 78 90 0 20 6 37 17 42 13 8 16 27 17 101 1 125 -29 148 -49
39 -4 -21 -13 -43 -21 -49 -8 -6 -17 -29 -20 -50 -6 -38 -29 -58 -47 -40 -5 5
-10 42 -11 80 -2 80 -15 103 -46 83 -26 -16 -30 -15 -30 7 0 10 -7 24 -15 31
-8 7 -15 23 -15 36 0 12 -4 34 -9 47 -9 22 -14 24 -54 20 -44 -5 -45 -5 -68
38 -27 49 -64 62 -93 34z"/>
<path d="M3883 11674 c-28 -31 -55 -69 -58 -84 -3 -14 -28 -48 -55 -75 -54
-53 -55 -52 -62 30 -3 25 -7 30 -28 30 -22 0 -27 -7 -37 -50 -7 -27 -17 -58
-23 -69 -23 -36 -45 -132 -41 -173 2 -22 43 -14 67 12 18 20 29 23 53 19 24
-5 41 1 79 25 33 21 61 31 87 31 27 0 44 7 61 25 17 19 33 25 64 25 l40 0 0
95 c0 83 -3 97 -20 112 -12 11 -20 30 -20 48 0 34 -15 55 -39 55 -8 0 -39 -25
-68 -56z"/>
<path d="M3501 11571 c-6 -10 -17 -51 -25 -91 -9 -40 -22 -80 -30 -89 -8 -9
-16 -34 -18 -56 -3 -38 -2 -40 29 -43 44 -4 59 23 72 128 16 121 14 170 -4
170 -8 0 -19 -8 -24 -19z"/>
<path d="M2779 9188 c-183 -94 -229 -105 -304 -68 -36 18 -51 33 -68 69 -19
39 -27 46 -55 49 -17 2 -32 2 -32 0 -1 -39 -24 -126 -40 -147 -13 -19 -20 -45
-20 -76 0 -78 37 -128 105 -141 45 -8 95 -52 95 -83 0 -12 -18 -41 -40 -65
-22 -24 -40 -45 -40 -48 0 -3 29 -24 65 -49 102 -69 100 -89 -5 -69 -50 9 -74
10 -81 3 -16 -16 3 -44 51 -73 95 -57 125 -84 128 -119 6 -61 -68 -101 -76
-41 -2 14 -12 34 -22 45 -9 11 -23 30 -29 43 -9 17 -20 22 -51 22 -21 0 -42
-6 -47 -12 -4 -7 -10 -59 -13 -115 -4 -77 -10 -106 -23 -121 -22 -24 -13 -48
26 -69 30 -15 32 -15 46 8 8 13 39 48 68 77 43 42 60 53 81 50 25 -3 27 -6 25
-45 -2 -50 -3 -50 92 -24 38 11 71 18 72 17 2 -1 -42 -42 -97 -90 -76 -66
-100 -92 -100 -111 0 -30 -15 -33 -30 -5 -6 11 -17 20 -25 20 -22 0 -30 -49
-14 -79 13 -22 22 -26 59 -25 25 0 71 11 104 23 32 12 68 21 79 19 18 -3 16
-6 -16 -28 -63 -43 -60 -70 7 -70 57 0 126 -44 151 -96 31 -68 57 -96 109
-120 37 -17 56 -33 71 -61 17 -33 25 -38 55 -38 34 0 35 2 43 45 12 62 -2 96
-45 105 -126 26 -141 43 -41 47 38 2 68 8 70 14 3 10 -125 80 -179 98 -34 11
-20 29 15 20 39 -9 104 -10 113 -1 11 10 -12 32 -81 77 -36 23 -63 46 -60 50
2 4 45 13 94 19 49 7 98 19 108 26 10 8 25 15 34 15 10 0 23 16 32 39 9 22 21
42 27 46 6 4 18 24 27 46 9 25 27 46 45 55 28 15 32 14 66 -8 21 -14 63 -34
94 -47 31 -12 59 -29 62 -36 3 -9 -13 -24 -47 -42 -35 -19 -53 -35 -55 -50 -4
-28 13 -29 89 -7 75 22 139 57 173 93 17 17 37 31 47 31 9 0 33 -20 53 -44 58
-71 218 -135 247 -99 15 17 51 13 57 -6 3 -10 -2 -11 -18 -6 -32 10 -21 -15
18 -41 43 -30 198 -78 252 -78 57 -1 63 20 21 65 -37 38 -37 40 -11 64 26 23
25 39 -2 58 -31 20 -18 29 53 38 63 7 99 29 99 60 0 10 -10 23 -21 30 -20 10
-38 9 -126 -7 -65 -12 -217 87 -249 163 -8 18 -14 64 -14 103 0 58 -6 83 -30
135 -16 35 -30 67 -30 71 0 4 -7 14 -15 23 -23 23 -84 130 -91 158 -4 15 -12
22 -20 19 -9 -3 -19 7 -28 29 -16 37 -97 130 -130 147 -11 6 -46 17 -79 24
-32 8 -107 36 -165 63 -59 27 -129 56 -155 65 -61 21 -202 45 -286 50 -66 4
-67 4 -222 -76z m470 -52 c9 -10 9 -16 1 -21 -16 -10 -40 2 -40 20 0 19 24 20
39 1z m-199 -210 c0 -22 -82 -89 -135 -110 -68 -27 -78 -9 -25 44 61 61 160
102 160 66z m250 -2 c0 -15 -42 -63 -60 -69 -11 -4 -27 -20 -35 -36 -14 -26
-21 -29 -63 -29 -30 0 -58 -7 -77 -20 -16 -11 -43 -20 -59 -20 l-30 0 32 33
c41 43 127 94 205 123 64 24 87 28 87 18z m388 -48 c3 -12 0 -16 -7 -11 -7 4
-18 1 -26 -5 -13 -10 -15 -8 -15 14 0 23 4 27 22 24 13 -2 24 -11 26 -22z
m-268 -40 c0 -17 -70 -82 -98 -90 -11 -4 -23 -13 -26 -21 -5 -14 -59 -45 -112
-65 -21 -8 -26 -6 -34 15 -5 14 -7 31 -4 39 8 20 91 71 154 95 30 12 62 26 70
31 22 14 50 12 50 -4z m101 -66 c33 -18 21 -35 -58 -80 -43 -24 -85 -49 -93
-56 -20 -16 -87 -27 -94 -15 -7 10 58 71 76 71 6 0 31 16 54 36 24 19 44 33
44 29 0 -3 10 1 22 9 27 19 24 19 49 6z m179 -58 c0 -29 -30 -63 -74 -83 -22
-10 -66 -32 -96 -49 -57 -31 -85 -37 -94 -21 -8 12 42 71 60 71 7 0 21 11 30
25 9 13 26 27 37 31 12 3 30 15 40 25 24 26 97 27 97 1z m31 -121 l24 -19 -20
-22 c-44 -50 -185 -93 -185 -57 0 20 122 117 146 117 7 0 22 -9 35 -19z m-756
-21 c21 -20 33 -22 107 -20 109 3 108 4 108 -24 0 -28 15 -41 56 -50 18 -4 65
-27 105 -51 41 -25 85 -47 99 -50 14 -3 35 -14 48 -23 25 -19 47 -91 33 -105
-14 -14 -83 24 -134 75 -61 61 -66 63 -183 89 -55 12 -121 29 -149 40 -27 10
-80 25 -116 34 -76 19 -129 48 -129 70 0 45 112 56 155 15z m819 -112 c-51
-60 -110 -96 -127 -79 -8 8 -8 17 -1 29 13 21 102 71 128 72 19 0 19 0 0 -22z
m65 -102 c17 -20 0 -50 -38 -66 -39 -16 -65 -10 -69 17 -7 47 77 85 107 49z
m-994 -12 c21 -8 39 -46 55 -111 6 -29 18 -57 26 -64 19 -15 18 -49 -1 -49 -8
0 -15 -7 -15 -15 0 -25 -38 -38 -72 -24 -40 17 -58 62 -58 148 0 105 16 133
65 115z m1109 -59 c8 -31 63 -95 82 -95 24 0 15 -17 -16 -30 -25 -10 -40 -9
-99 9 -39 12 -73 26 -76 31 -6 10 81 110 95 110 4 0 11 -11 14 -25z m-1276
-203 c2 -14 -3 -24 -15 -28 -10 -3 -46 -16 -81 -30 -34 -13 -67 -24 -73 -24
-17 0 1 21 27 30 13 5 29 21 34 35 6 15 20 27 37 31 15 3 33 7 38 9 19 6 30
-2 33 -23z m1502 -37 c39 -20 38 -25 -7 -25 -44 0 -69 13 -59 29 10 15 32 14
66 -4z m-1460 -50 c0 -8 -4 -15 -9 -15 -5 0 -11 7 -15 15 -3 9 0 15 9 15 8 0
15 -7 15 -15z"/>
<path d="M7245 8130 c-143 -38 -389 -152 -424 -195 -9 -13 -56 -46 -103 -74
-104 -61 -160 -124 -177 -198 -7 -28 -21 -59 -32 -69 -20 -18 -35 -76 -25 -93
5 -7 20 -5 47 5 l39 16 94 -72 c52 -39 97 -78 100 -87 3 -8 6 -45 6 -81 0 -54
-6 -78 -30 -127 -34 -69 -36 -84 -14 -111 11 -14 17 -16 21 -6 3 7 16 26 29
42 14 16 33 53 43 83 11 30 26 66 34 79 9 12 20 42 26 64 6 23 18 47 26 54 20
16 20 108 1 136 -8 12 -21 51 -27 89 -7 37 -19 74 -27 81 -20 21 -37 141 -23
172 10 21 16 23 44 18 118 -24 252 -13 292 24 11 11 35 25 53 31 18 6 39 23
46 38 8 14 24 35 35 45 19 17 23 18 37 5 26 -26 37 -137 38 -385 1 -212 -1
-244 -16 -260 -9 -11 -21 -37 -27 -59 -15 -59 -81 -127 -274 -287 -198 -163
-369 -330 -384 -375 -14 -39 0 -70 44 -96 29 -17 34 -17 62 -2 17 8 39 28 48
43 10 15 47 63 84 107 36 44 93 116 126 160 33 44 85 98 116 120 30 22 63 55
73 73 20 37 83 97 119 114 13 6 31 28 40 51 9 23 30 57 47 76 38 43 53 78 67
163 6 36 18 79 26 95 20 39 21 220 0 269 -8 20 -19 75 -25 122 -14 113 -40
153 -132 202 -44 24 -35 24 -123 0z m-97 -132 c-3 -7 -11 -13 -18 -13 -7 0
-15 6 -17 13 -3 7 4 12 17 12 13 0 20 -5 18 -12z"/>
<path d="M3711 7971 c-6 -11 -11 -36 -11 -56 0 -26 -7 -42 -22 -55 -13 -11
-36 -30 -53 -44 -22 -18 -27 -28 -19 -36 8 -8 38 3 113 41 112 57 161 96 161
128 0 25 -5 25 -60 6 -53 -19 -48 -19 -52 8 -4 29 -43 35 -57 8z"/>
<path d="M6405 7915 c-14 -13 -25 -30 -25 -38 0 -8 -6 -20 -14 -26 -8 -7 -18
-27 -22 -44 -3 -18 -15 -44 -26 -59 -35 -50 -37 -135 -3 -122 19 8 59 74 79
132 9 24 22 50 31 58 8 9 15 28 15 43 0 15 9 36 20 46 11 10 17 22 14 26 -10
17 -45 9 -69 -16z"/>
<path d="M6522 7873 c-12 -4 -47 -52 -78 -104 -6 -11 -18 -27 -26 -36 -9 -10
-22 -44 -29 -76 -7 -31 -18 -62 -26 -68 -21 -18 -16 -67 8 -79 28 -16 69 11
69 46 0 13 7 27 15 30 25 10 73 121 86 200 12 75 7 96 -19 87z"/>
<path d="M2170 7444 c-8 -1 -46 -6 -83 -9 -49 -5 -75 -13 -94 -29 -25 -21 -25
-23 -7 -40 15 -16 29 -18 94 -13 78 5 179 37 201 63 6 8 10 16 8 18 -6 5 -103
14 -119 10z"/>
<path d="M2583 7274 c-7 -18 3 -200 12 -214 11 -19 35 3 46 42 21 81 -32 240
-58 172z"/>
<path d="M6410 7102 c-19 -15 -23 -29 -24 -80 -1 -76 9 -89 57 -68 40 16 51
48 45 121 -3 35 -7 40 -29 43 -14 2 -36 -5 -49 -16z"/>
<path d="M9000 7110 c-11 -7 -12 -12 -3 -21 14 -14 56 -2 50 14 -5 16 -28 19
-47 7z"/>
<path d="M2376 6585 c-14 -13 -26 -33 -26 -44 0 -11 -7 -27 -16 -35 -14 -15
-12 -16 25 -16 32 0 43 5 52 23 6 12 21 32 32 44 43 48 -17 74 -67 28z"/>
<path d="M2737 6399 c-46 -27 -63 -125 -27 -156 11 -10 29 -26 41 -36 12 -11
34 -23 49 -27 44 -13 61 6 67 76 5 50 2 63 -12 75 -10 8 -32 29 -50 47 -34 35
-41 37 -68 21z"/>
<path d="M5516 5627 c-14 -14 -26 -42 -30 -69 -9 -57 -44 -92 -108 -108 -87
-22 -173 -122 -166 -193 3 -31 4 -32 51 -30 26 2 61 10 76 18 35 18 83 77 105
129 16 39 16 39 61 33 43 -6 46 -5 56 20 6 15 14 30 19 33 12 8 32 139 25 167
-8 32 -58 31 -89 0z"/>
<path d="M5114 4206 c-3 -8 -16 -17 -28 -20 -14 -3 -30 -21 -41 -47 -12 -25
-36 -52 -62 -70 -24 -17 -43 -36 -43 -43 0 -7 -9 -21 -20 -31 -11 -10 -20 -22
-20 -26 0 -12 62 1 81 17 8 8 23 14 33 14 9 0 21 11 26 24 9 26 70 52 96 42
12 -4 8 -14 -16 -47 -17 -23 -40 -49 -53 -57 -12 -9 -40 -32 -63 -51 -22 -20
-55 -44 -72 -53 -18 -9 -37 -32 -46 -51 -21 -51 -152 -153 -208 -162 -87 -15
-176 -75 -134 -91 13 -5 153 47 221 83 17 9 70 24 118 34 107 22 214 69 258
115 50 51 29 58 -71 24 -46 -17 -92 -30 -101 -30 -56 0 0 74 66 88 53 11 151
68 172 99 11 17 14 45 12 114 -4 85 -6 92 -32 115 -31 27 -65 31 -73 10z"/>
<path d="M8577 4083 c-14 -13 -7 -93 7 -99 8 -3 22 -24 31 -47 9 -23 21 -45
27 -48 5 -4 20 -35 32 -70 18 -52 27 -66 50 -74 23 -8 30 -6 43 10 25 35 8 90
-52 167 -30 39 -55 75 -55 82 0 14 -58 86 -69 86 -4 0 -11 -3 -14 -7z"/>
<path d="M4735 4026 c-17 -7 -43 -24 -60 -38 -16 -14 -45 -30 -64 -37 -78 -26
-141 -75 -141 -110 0 -12 86 17 155 52 64 33 131 81 144 105 16 30 1 42 -34
28z"/>
<path d="M8554 3814 c-11 -44 4 -108 40 -170 19 -32 41 -66 49 -74 8 -8 17
-35 21 -60 8 -51 21 -70 47 -70 16 0 19 8 19 43 0 61 -55 219 -91 265 -8 9
-23 34 -33 55 -22 43 -43 48 -52 11z"/>
<path d="M8520 3549 c-14 -26 -7 -85 13 -108 8 -9 20 -38 26 -66 7 -27 19 -57
26 -65 7 -8 21 -41 30 -72 29 -100 63 -65 52 54 -3 40 -13 71 -30 96 -14 20
-28 56 -32 80 -4 23 -11 42 -15 42 -5 0 -15 12 -22 27 -17 35 -34 39 -48 12z"/>
<path d="M8466 3254 c-3 -9 -6 -47 -6 -85 0 -52 4 -71 15 -75 8 -3 21 -30 30
-60 15 -53 27 -65 41 -43 10 17 6 164 -6 209 -6 22 -20 46 -33 55 -27 19 -33
19 -41 -1z"/>
<path d="M8421 2961 c-9 -6 -16 -31 -18 -68 -3 -45 0 -65 16 -90 23 -37 68
-54 82 -32 28 44 -18 200 -58 199 -5 0 -14 -4 -22 -9z"/>
<path d="M8347 2699 c-4 -13 -7 -36 -7 -50 0 -15 -10 -39 -22 -54 -15 -19 -22
-43 -22 -74 -1 -46 -1 -46 35 -49 34 -3 39 1 70 45 28 42 33 56 33 115 1 36
-2 69 -5 73 -4 3 -22 8 -41 12 -31 4 -36 2 -41 -18z"/>
<path d="M8110 2161 c-5 -11 -10 -35 -10 -55 0 -51 -8 -65 -46 -72 -45 -8 -51
-17 -62 -102 -7 -51 -19 -86 -36 -111 -14 -20 -26 -44 -26 -53 0 -8 -7 -21
-15 -28 -19 -16 -20 -89 -1 -96 8 -3 17 -16 20 -30 5 -17 13 -24 32 -24 35 0
70 42 78 93 4 25 18 53 34 70 25 26 26 33 24 115 -2 105 1 118 37 137 20 10
30 24 34 48 13 82 -34 162 -63 108z"/>
<path d="M7821 1574 c-11 -14 -25 -41 -32 -61 -10 -32 -9 -38 6 -49 10 -7 23
-23 29 -36 13 -25 43 -35 58 -20 6 6 10 42 10 81 -1 106 -28 139 -71 85z"/>
<path d="M7690 1320 c-12 -12 -20 -33 -20 -55 0 -39 -19 -84 -44 -104 -55 -46
-114 -318 -72 -334 25 -10 81 12 123 48 39 33 42 40 49 102 4 40 15 79 28 99
58 92 66 107 66 132 0 15 -9 35 -20 45 -11 9 -20 25 -20 35 0 23 -30 52 -53
52 -9 0 -26 -9 -37 -20z"/>
<path d="M3222 1197 c-18 -18 -32 -41 -32 -50 0 -26 32 -34 44 -12 6 10 23 33
39 50 33 40 33 45 4 45 -13 0 -37 -14 -55 -33z"/>
<path d="M1049 1109 c-9 -9 -22 -34 -29 -55 -6 -22 -23 -62 -37 -91 -14 -29
-27 -78 -30 -112 -5 -57 -4 -61 15 -61 12 0 29 13 41 34 31 49 63 184 59 248
-3 49 -4 52 -19 37z"/>
<path d="M3245 1041 c-16 -10 -92 -71 -169 -135 -76 -64 -142 -116 -146 -116
-4 0 -36 -23 -71 -51 -78 -63 -276 -199 -384 -264 -91 -55 -125 -83 -125 -102
0 -19 50 -16 96 5 54 24 199 121 261 175 28 24 88 62 132 83 44 22 83 47 86
57 4 9 13 17 20 17 15 0 243 189 327 271 27 25 48 54 48 63 0 22 -37 21 -75
-3z"/>
<path d="M789 963 c-6 -16 -18 -37 -28 -48 -10 -11 -24 -41 -31 -67 -7 -26
-19 -53 -26 -59 -33 -27 -5 -89 40 -89 34 0 43 17 51 93 4 37 13 74 21 82 16
15 22 84 10 104 -12 19 -26 12 -37 -16z"/>
</g>
</svg>
